<svg width="14" height="14" viewBox="0 0 14 14" fill="none" xmlns="http://www.w3.org/2000/svg">
<g clip-path="url(#clip0_1114_19473)">
<path d="M10.6749 3.33082C10.4474 3.10332 10.0799 3.10332 9.85242 3.33082L6.99992 6.17748L4.14742 3.32498C3.91992 3.09748 3.55242 3.09748 3.32492 3.32498C3.09742 3.55248 3.09742 3.91998 3.32492 4.14748L6.17742 6.99998L3.32492 9.85248C3.09742 10.08 3.09742 10.4475 3.32492 10.675C3.55242 10.9025 3.91992 10.9025 4.14742 10.675L6.99992 7.82248L9.85242 10.675C10.0799 10.9025 10.4474 10.9025 10.6749 10.675C10.9024 10.4475 10.9024 10.08 10.6749 9.85248L7.82242 6.99998L10.6749 4.14748C10.8966 3.92582 10.8966 3.55248 10.6749 3.33082Z" fill="#ACACAC"/>
</g>
<defs>
<clipPath id="clip0_1114_19473">
<rect width="14" height="14" fill="white"/>
</clipPath>
</defs>
</svg>
