<svg width="14" height="14" viewBox="0 0 14 14" fill="none" xmlns="http://www.w3.org/2000/svg">
<path d="M7 12L6.21875 11.3534C5.17708 10.501 4.31771 9.77059 3.64062 9.16236C2.96354 8.55412 2.42969 8.01293 2.03906 7.53879C1.64844 7.06466 1.3776 6.63123 1.22656 6.23851C1.07552 5.84579 1 5.44349 1 5.03161C1 4.17912 1.31771 3.46073 1.95313 2.87644C2.58854 2.29215 3.36979 2 4.29688 2C4.80729 2 5.30208 2.10057 5.78125 2.30172C6.26042 2.50287 6.66667 2.78544 7 3.14943C7.33333 2.78544 7.73958 2.50287 8.21875 2.30172C8.69792 2.10057 9.19271 2 9.70312 2C10.6302 2 11.4115 2.29215 12.0469 2.87644C12.6823 3.46073 13 4.17912 13 5.03161C13 5.44349 12.9271 5.841 12.7813 6.22414C12.6354 6.60728 12.3672 7.03352 11.9766 7.50287C11.5859 7.97222 11.0495 8.5158 10.3672 9.13362C9.6849 9.75144 8.8125 10.501 7.75 11.3822L7 12Z" fill="#D9D9D9"/>
</svg>
