<svg width="14" height="14" viewBox="0 0 14 14" fill="none" xmlns="http://www.w3.org/2000/svg">
<mask id="mask0_1356_36257" style="mask-type:alpha" maskUnits="userSpaceOnUse" x="0" y="0" width="14" height="14">
<rect width="14" height="14" fill="#D9D9D9"/>
</mask>
<g mask="url(#mask0_1356_36257)">
<path d="M5.83333 8.16672L2.15833 6.67922C2.03194 6.63061 1.93229 6.55346 1.85938 6.44778C1.78646 6.34211 1.75 6.22058 1.75 6.0832C1.75 5.94582 1.78664 5.82658 1.85993 5.72547C1.93323 5.62436 2.03269 5.54853 2.15833 5.49797L10.9958 2.21672C11.1194 2.16811 11.2377 2.16082 11.351 2.19485C11.4642 2.22887 11.5597 2.28478 11.6375 2.36255C11.7153 2.44033 11.7712 2.53584 11.8052 2.64907C11.8392 2.76231 11.8319 2.88069 11.7833 3.00422L8.50208 11.8563C8.44375 11.9924 8.35998 12.0921 8.25077 12.1553C8.14157 12.2185 8.02976 12.2501 7.91535 12.2501C7.80095 12.2501 7.69028 12.2172 7.58333 12.1516C7.47639 12.086 7.39375 11.9876 7.33542 11.8563L5.83333 8.16672Z" fill="#FF8031"/>
</g>
</svg>
