<svg width="160" height="36" viewBox="0 0 160 36" fill="none" xmlns="http://www.w3.org/2000/svg">
<g clip-path="url(#clip0_2705_10067)">
<path d="M28.6218 13.1722H27.5193V0.635742H17.8611V35.4075H27.5193V22.5746H28.6218V35.4075H38.2801V0.635742H28.6218V13.1722Z" fill="#FF8031"/>
<path d="M7.68825 11.3652C7.98226 11.2028 8.34977 11.3016 8.52618 11.5769C9.53316 13.144 11.8852 13.6875 13.7154 13.391V0.635742H3.1311V13.1299C4.75551 13.1793 6.21085 12.184 7.68825 11.3652Z" fill="#FF8031"/>
<path d="M16.8908 25.1155C15.1268 24.4802 13.7155 22.532 13.7155 18.4238V14.5767C11.6207 14.8449 9.20247 14.2238 7.85003 12.6426C6.85775 13.2143 5.86546 13.8143 4.76293 14.139C4.21166 14.3014 3.66774 14.3579 3.13853 14.3296V18.4238C3.13853 22.532 1.55087 24.4802 0.00732422 25.1155V35.4073C2.82982 35.4073 5.5641 34.6943 8.42335 33.4237C11.0033 34.6167 14.2741 35.4073 16.8982 35.4073V25.1155H16.8908Z" fill="#FF8031"/>
<path d="M78.8534 0.635742H65.2261V19.2287H78.8534V0.635742Z" fill="#FF8031"/>
<path d="M50.4889 6.09927C50.68 5.81692 51.1945 5.66162 51.4518 5.97927C53.2526 8.18868 57.6333 9.14162 60.1103 7.40515C59.9119 6.69221 59.8016 5.83104 59.8016 4.78633V0.635742H45.6892V4.78633C45.6892 5.58398 45.623 6.26868 45.4907 6.86868C47.049 7.80045 49.4378 7.63104 50.4815 6.09927H50.4889Z" fill="#FF8031"/>
<path d="M64.0794 10.6308C62.4991 10.3767 61.2863 9.80493 60.5586 8.51317C57.7655 10.2073 53.3186 9.52258 51.0254 7.29199C49.5333 8.74611 46.9827 9.00023 45.1158 8.04023C44.3954 9.67082 43.0651 10.3485 41.448 10.6308V19.2285C45.2407 19.2285 49.8273 17.7179 52.7821 16.3626L52.444 16.0943C55.9574 18.6638 59.9191 19.2285 64.072 19.2285V10.6308H64.0794Z" fill="#FF8031"/>
<path d="M41.4553 29.7744H65.226V35.4074H78.8533V20.3721H41.4553V29.7744Z" fill="#FF8031"/>
<path d="M119.427 0.635742H106.681V16.264H119.427V0.635742Z" fill="#FF8031"/>
<path d="M82.0286 24.014C86.6151 24.014 90.5842 23.7176 94.818 22.8705V23.9293C90.5842 24.7764 86.6151 25.0729 82.0286 25.0729V27.0211C82.0286 32.7387 87.4971 35.9999 97.9933 35.9999C106.284 35.9999 113.782 35.6187 119.427 34.1787V26.3434C115.678 27.5717 111.003 28.1646 106.637 28.1646V27.1058C111.003 27.1058 115.678 26.5129 119.427 25.2846V17.3223H82.0286V24.014Z" fill="#FF8031"/>
<path d="M160 0.635742H147.255V35.4075H160V0.635742Z" fill="#FF8031"/>
<path d="M101.588 1.44706C99.6545 0.515294 97.0525 0 93.7155 0C89.2539 0 86.108 0.931765 84.1308 2.54824C82.4182 3.95294 81.5876 5.87294 81.5876 8.17412C81.5876 11.7953 83.6237 14.4776 87.9677 15.6706C89.57 16.1082 91.4737 16.3482 93.7155 16.3482C95.2076 16.3482 96.5527 16.2424 97.7582 16.0447C103.322 15.1341 105.888 12.2118 105.888 8.17412C105.888 5.19529 104.506 2.85176 101.588 1.44706ZM88.269 6.45882C87.7618 6.41647 87.3429 5.97882 87.3576 5.49882C87.3723 4.93412 87.953 4.39765 88.5042 4.44C89.004 4.47529 89.4451 4.93412 89.4157 5.39294C89.3789 5.97176 88.8056 6.50118 88.269 6.45882ZM95.5899 8.92235C95.4723 9.36706 95.1782 9.6847 94.7887 9.93882C94.0904 10.3906 93.3113 10.5671 92.4807 10.6306C91.8045 10.5953 91.143 10.4753 90.5476 10.1294C90.1507 9.89647 89.8346 9.59294 89.7317 9.13412C89.6803 8.91529 89.6876 8.68235 89.8934 8.54118C90.1286 8.37882 90.3271 8.51294 90.4667 8.69647C90.996 9.42353 91.753 9.59294 92.6057 9.55059C93.4656 9.50823 94.2154 9.31765 94.5755 8.45647C94.7005 8.16 94.8695 7.86353 95.2664 8.02588C95.6781 8.19529 95.6707 8.56235 95.5825 8.91529L95.5899 8.92235ZM95.4061 6.21882C94.8475 6.21882 94.3991 5.76706 94.3991 5.20941C94.3991 4.63765 94.8401 4.17882 95.3914 4.18588C95.9721 4.18588 96.4866 4.62353 96.5013 5.11765C96.516 5.69647 95.9941 6.22588 95.4061 6.21882Z" fill="#FF8031"/>
<path d="M142.014 0.635742H126.167C124.197 0.635742 122.602 2.16751 122.602 4.05927V8.11104C122.602 10.0593 124.293 11.6334 126.321 11.5346C127.769 11.464 129.195 11.3157 130.57 11.0828C131.76 10.8852 132.841 11.7887 132.775 12.9463C132.385 19.3628 130.239 22.6522 125.292 23.8946C123.719 24.2899 122.609 25.6452 122.609 27.2052V31.5816C122.609 33.7063 124.609 35.3016 126.792 34.9557C137.009 33.3393 143.602 27.9393 145.204 17.2381C145.167 17.2381 145.131 17.2593 145.086 17.2593C142.58 17.2381 140.47 16.2781 139.265 14.104C138.515 12.7487 138.17 11.3087 138.28 9.77692C138.39 8.18868 138.831 6.6428 138.853 5.04751C138.861 4.29221 140.088 4.29221 140.081 5.04751C140.066 6.45221 139.728 7.80751 139.566 9.19104C139.397 10.6028 139.522 11.9228 140.176 13.2216C140.61 14.0828 141.198 14.8875 142.065 15.3887C142.977 15.9252 144.043 16.0663 145.094 16.0734C145.189 16.0734 145.278 16.0946 145.351 16.1299C145.505 14.7675 145.594 13.3275 145.594 11.8028V4.05927C145.594 2.16751 143.999 0.635742 142.029 0.635742H142.014ZM134.443 6.1628C134.076 6.45221 133.679 6.68515 133.172 6.46633C132.738 6.27574 132.488 5.81692 132.503 5.23809C132.525 4.49692 133.106 3.78398 133.789 3.67104C134.326 3.57927 134.678 3.82633 134.921 4.26398C135.296 4.93457 135.12 5.64045 134.443 6.16986V6.1628Z" fill="#FF8031"/>
<path d="M123.352 2.94365C124.164 2.94365 124.822 2.31158 124.822 1.53188C124.822 0.752186 124.164 0.120117 123.352 0.120117C122.54 0.120117 121.882 0.752186 121.882 1.53188C121.882 2.31158 122.54 2.94365 123.352 2.94365Z" fill="#FF8031"/>
</g>
<defs>
<clipPath id="clip0_2705_10067">
<rect width="160" height="36" fill="white"/>
</clipPath>
</defs>
</svg>
