<svg width="150" height="180" viewBox="0 0 150 180" fill="none" xmlns="http://www.w3.org/2000/svg">
<g clip-path="url(#clip0_936_30975)">
<path d="M95.2988 114.492L107.677 126.897C107.677 126.897 112.728 130.694 111.958 136.306C111.326 140.903 106.943 144.17 102.495 142.848C102.44 142.83 102.384 142.82 102.328 142.802C101.725 142.606 100.276 142.066 98.4653 140.094" stroke="black" stroke-width="1.48" stroke-linecap="round" stroke-linejoin="round"/>
<path d="M94.8066 127.055C94.8066 127.055 105.132 153.672 94.853 167.882C93.8687 169.241 92.3366 170.163 90.6651 170.274C90.5351 170.274 90.4051 170.283 90.2751 170.283C90.2751 170.283 84.0443 171.242 83.0879 161.154" stroke="black" stroke-width="1.48" stroke-linecap="round" stroke-linejoin="round"/>
<path d="M53.689 114.175L41.311 126.581C41.311 126.581 36.2595 130.378 37.0302 135.989C37.6616 140.587 42.0446 143.853 46.4925 142.532C46.5482 142.513 46.6039 142.504 46.6596 142.485C47.2725 142.29 48.7211 141.741 50.5504 139.749" stroke="black" stroke-width="1.48" stroke-linecap="round" stroke-linejoin="round"/>
<path d="M54.19 126.739C54.19 126.739 43.8641 153.355 54.1435 167.566C55.1278 168.925 56.66 169.846 58.3314 169.958C58.4615 169.958 58.5915 169.967 58.7215 169.967C58.7215 169.967 64.9522 170.926 65.9087 160.838" stroke="black" stroke-width="1.48" stroke-linecap="round" stroke-linejoin="round"/>
<path d="M64.665 160.726L84.0074 160.921" stroke="black" stroke-width="1.48" stroke-linecap="round" stroke-linejoin="round"/>
<path d="M47.8574 120.355L52.4911 122.402" stroke="black" stroke-width="1.48" stroke-linecap="round" stroke-linejoin="round"/>
<path d="M45.2109 123.147L49.8446 125.194" stroke="black" stroke-width="1.48" stroke-linecap="round" stroke-linejoin="round"/>
<path d="M100.517 120.048L95.8838 122.095" stroke="black" stroke-width="1.48" stroke-linecap="round" stroke-linejoin="round"/>
<path d="M103.164 123.147L98.5303 125.185" stroke="black" stroke-width="1.48" stroke-linecap="round" stroke-linejoin="round"/>
<path d="M80.2556 131.774C79.2435 128.87 76.7734 126.953 74.0063 126.562C74.7491 127.269 75.3527 128.163 75.7149 129.214C76.922 132.676 75.1856 136.492 71.8427 137.739C69.6141 138.567 67.2462 138.046 65.5469 136.585C65.6026 136.79 65.6583 136.985 65.7233 137.19C67.1719 141.341 71.592 143.49 75.6034 142.001C79.6149 140.512 81.6949 135.924 80.2556 131.774Z" fill="#FF8031" stroke="black" stroke-width="1.48" stroke-linecap="round" stroke-linejoin="round"/>
<path d="M124.94 60.7567L125.525 32.5212C125.432 25.3925 116.935 21.5862 111.41 26.2021L97.1564 38.0957C93.0056 36.9045 88.6041 36.2623 84.054 36.2623H65.9467C62.5666 36.2623 59.2701 36.6253 56.1037 37.2953L39.8256 23.708C34.3005 19.0921 25.804 22.8984 25.7111 30.0271L26.9554 57.4064C22.9811 63.7906 20.6875 71.2263 20.6875 79.174C20.6875 102.877 40.9492 114.817 65.9467 114.817H84.054C109.052 114.817 129.313 102.877 129.313 79.174C129.313 72.5758 127.744 66.3312 124.94 60.7474V60.7567Z" stroke="black" stroke-width="1.48" stroke-miterlimit="10"/>
<path d="M36.1758 35.0991L39.138 45.6805" stroke="black" stroke-width="1.48" stroke-linecap="round" stroke-linejoin="round"/>
<path d="M115.487 34.9502L112.524 45.5315" stroke="black" stroke-width="1.48" stroke-linecap="round" stroke-linejoin="round"/>
<path d="M58.3131 75.0515C59.5593 75.0515 60.5696 73.9848 60.5696 72.6691C60.5696 71.3533 59.5593 70.2866 58.3131 70.2866C57.0669 70.2866 56.0566 71.3533 56.0566 72.6691C56.0566 73.9848 57.0669 75.0515 58.3131 75.0515Z" fill="black"/>
<path d="M86.4869 75.0515C87.7331 75.0515 88.7434 73.9848 88.7434 72.6691C88.7434 71.3533 87.7331 70.2866 86.4869 70.2866C85.2407 70.2866 84.2305 71.3533 84.2305 72.6691C84.2305 73.9848 85.2407 75.0515 86.4869 75.0515Z" fill="black"/>
<path d="M71.2582 83.8552C75.3148 83.8552 78.6033 82.0177 78.6033 79.7511C78.6033 77.4844 75.3148 75.647 71.2582 75.647C67.2016 75.647 63.9131 77.4844 63.9131 79.7511C63.9131 82.0177 67.2016 83.8552 71.2582 83.8552Z" fill="black"/>
<path d="M97.1927 81.0073C101.239 81.0073 104.519 79.674 104.519 78.0293C104.519 76.3846 101.239 75.0513 97.1927 75.0513C93.1464 75.0513 89.8662 76.3846 89.8662 78.0293C89.8662 79.674 93.1464 81.0073 97.1927 81.0073Z" fill="#EBC1C1"/>
<path d="M46.6693 81.5564C50.7156 81.5564 53.9958 80.2231 53.9958 78.5784C53.9958 76.9337 50.7156 75.6003 46.6693 75.6003C42.623 75.6003 39.3428 76.9337 39.3428 78.5784C39.3428 80.2231 42.623 81.5564 46.6693 81.5564Z" fill="#EBC1C1"/>
<path d="M96.8399 111.653H53.4472C52.2882 111.653 51.3486 112.593 51.3486 113.752C51.3486 114.911 52.2882 115.85 53.4472 115.85H96.8399C97.999 115.85 98.9385 114.911 98.9385 113.752C98.9385 112.593 97.999 111.653 96.8399 111.653Z" fill="#FF8031" stroke="black" stroke-width="1.46" stroke-linecap="round" stroke-linejoin="round"/>
<path d="M67.6553 36.2065V48.2024" stroke="black" stroke-width="1.48" stroke-linecap="round" stroke-linejoin="round"/>
<path d="M77.832 36.8582V48.2026" stroke="black" stroke-width="1.48" stroke-linecap="round" stroke-linejoin="round"/>
</g>
<defs>
<clipPath id="clip0_936_30975">
<rect width="110" height="150" fill="white" transform="translate(20 21)"/>
</clipPath>
</defs>
</svg>
