<svg width="150" height="180" viewBox="0 0 150 180" fill="none" xmlns="http://www.w3.org/2000/svg">
<g clip-path="url(#clip0_936_30970)">
<path d="M96.2764 120.589L106.103 130.379C106.103 130.379 110.777 133.869 110.068 139.036C109.487 143.266 105.428 146.271 101.309 145.054C101.258 145.037 101.207 145.02 101.155 145.012C100.609 144.841 99.3439 144.365 97.7375 142.688" stroke="black" stroke-width="1.6" stroke-linecap="round" stroke-linejoin="round"/>
<path d="M94.1741 130.523C94.1741 130.523 103.736 155.014 94.2168 168.089C93.3025 169.34 91.8927 170.183 90.3375 170.285C90.2179 170.285 90.0983 170.293 89.9786 170.293C89.9786 170.293 84.2109 171.179 83.3223 161.892" stroke="black" stroke-width="1.6" stroke-linecap="round" stroke-linejoin="round"/>
<path d="M54.125 120.666L44.666 130.089C44.666 130.089 39.992 133.579 40.7012 138.746C41.2822 142.977 45.341 145.982 49.4596 144.765C49.5108 144.748 49.5621 144.731 49.6134 144.722C50.1773 144.543 51.5359 144.033 53.2363 142.177" stroke="black" stroke-width="1.6" stroke-linecap="round" stroke-linejoin="round"/>
<path d="M56.5865 130.234C56.5865 130.234 47.0249 154.724 56.5438 167.799C57.4581 169.051 58.868 169.893 60.4231 169.995C60.5427 169.995 60.6624 170.004 60.782 170.004C60.782 170.004 66.5497 170.889 67.4383 161.602" stroke="black" stroke-width="1.6" stroke-linecap="round" stroke-linejoin="round"/>
<path d="M66.2842 161.5L84.1855 161.68" stroke="black" stroke-width="1.6" stroke-linecap="round" stroke-linejoin="round"/>
<path d="M134.395 40.7003C141.701 23.4286 133.352 17.3252 133.352 17.3252C127.089 11.2303 114.571 19.3596 114.571 19.3596C75.9742 -2.99401 38.42 20.3726 38.42 20.3726C25.9019 13.2562 17.5537 19.3596 17.5537 19.3596C8.16299 28.502 16.5112 43.7477 16.5112 43.7477C16.5112 43.7477 -8.60183 98.389 45.4096 117.806C59.1496 122.743 74.0175 124.114 88.4923 121.943C114.409 118.061 153.057 102.245 134.395 40.7003Z" stroke="black" stroke-width="1.6" stroke-miterlimit="10"/>
<path d="M127.627 77.0993C127.627 71.728 124.765 66.91 120.245 63.6412C121.424 57.325 119.082 50.847 113.417 46.7866C109.922 44.2839 105.701 43.0837 101.429 43.1092C98.1563 38.3508 91.9016 35.1246 84.7154 35.1246C84.3138 35.1246 83.9207 35.1416 83.5277 35.1586C84.2711 31.3621 83.3397 28.1444 80.9386 27.2591C78.0676 26.2035 74.1028 28.8169 71.5992 33.2178C67.6772 29.7022 62.781 28.3998 60.6619 30.298C59.2691 31.5494 59.4229 33.8732 60.7986 36.3163C59.91 36.2227 59.0128 36.1801 58.0985 36.1801C46.2554 36.1801 36.6511 43.9179 36.6511 53.4518C36.6511 53.9711 36.6853 54.4903 36.7451 55.0011C29.0976 58.1847 23.7314 65.548 23.7314 74.137C23.7314 82.7261 29.1061 90.1148 36.7708 93.2815C36.6938 93.8944 36.6511 94.5158 36.6511 95.1542C36.6511 103.743 44.1022 112.877 52.6726 110.698C53.5612 110.477 53.4501 110.494 54.8258 110.119C58.3292 113.584 65.84 115.797 71.7957 115.797C78.0932 115.797 83.6815 113.32 87.1678 109.498C89.4321 110.272 91.9272 110.698 94.5419 110.698C105.103 110.698 113.665 103.735 113.665 95.1542C113.665 94.7116 113.639 94.2774 113.597 93.8433C121.783 91.3321 127.627 84.7861 127.627 77.0993Z" stroke="black" stroke-width="1.6" stroke-linecap="round" stroke-linejoin="round"/>
<path d="M74.3333 81.5769C73.3336 82.9134 71.7357 83.7816 69.9413 83.7816C66.9165 83.7816 64.4727 81.3386 64.4727 78.3337C64.4727 75.3288 66.925 72.8857 69.9413 72.8857C71.2487 72.8857 72.4449 73.3369 73.3848 74.103" stroke="black" stroke-width="1.6" stroke-miterlimit="10"/>
<path d="M75.4104 73.9839C75.8034 73.6178 76.4357 73.3284 77.1022 73.1411C77.6491 72.9879 78.213 72.8943 78.6915 72.8943C81.7164 72.8943 84.1602 75.3374 84.1602 78.3422C84.1602 81.3471 81.7078 83.7902 78.6915 83.7902C76.0512 83.7902 73.8467 81.926 73.334 79.4403" stroke="black" stroke-width="1.6" stroke-linecap="round" stroke-linejoin="round"/>
<path d="M73.7694 75.6182C76.1856 75.6182 78.1444 74.5015 78.1444 73.124C78.1444 71.7465 76.1856 70.6299 73.7694 70.6299C71.3532 70.6299 69.3945 71.7465 69.3945 73.124C69.3945 74.5015 71.3532 75.6182 73.7694 75.6182Z" fill="black"/>
<path d="M96.0624 78.2402C99.9887 78.2402 103.172 77.0206 103.172 75.5162C103.172 74.0118 99.9887 72.7922 96.0624 72.7922C92.136 72.7922 88.9531 74.0118 88.9531 75.5162C88.9531 77.0206 92.136 78.2402 96.0624 78.2402Z" fill="#EBC1C1"/>
<path d="M53.5868 78.7424C57.5131 78.7424 60.696 77.5228 60.696 76.0184C60.696 74.514 57.5131 73.2944 53.5868 73.2944C49.6605 73.2944 46.4775 74.514 46.4775 76.0184C46.4775 77.5228 49.6605 78.7424 53.5868 78.7424Z" fill="#EBC1C1"/>
<path d="M62.1826 69.9319C63.3907 69.9319 64.37 68.9562 64.37 67.7527C64.37 66.5491 63.3907 65.5735 62.1826 65.5735C60.9745 65.5735 59.9951 66.5491 59.9951 67.7527C59.9951 68.9562 60.9745 69.9319 62.1826 69.9319Z" fill="black"/>
<path d="M85.8095 69.9319C87.0176 69.9319 87.997 68.9562 87.997 67.7527C87.997 66.5491 87.0176 65.5735 85.8095 65.5735C84.6014 65.5735 83.6221 66.5491 83.6221 67.7527C83.6221 68.9562 84.6014 69.9319 85.8095 69.9319Z" fill="black"/>
<path d="M75.0001 149.336C79.8844 149.336 83.8439 145.391 83.8439 140.525C83.8439 135.66 79.8844 131.715 75.0001 131.715C70.1158 131.715 66.1562 135.66 66.1562 140.525C66.1562 145.391 70.1158 149.336 75.0001 149.336Z" fill="#FF8031" stroke="black" stroke-width="1.6" stroke-miterlimit="10"/>
<path d="M72.0859 140.057V139.078V138.61V140.057Z" fill="#FF8031" stroke="black" stroke-width="1.6" stroke-linecap="round" stroke-linejoin="round"/>
<path d="M77.9482 139.078V140.057V138.61V139.078Z" fill="#FF8031" stroke="black" stroke-width="1.6" stroke-linecap="round" stroke-linejoin="round"/>
<path d="M72.0859 142.492C72.0859 142.492 73.6667 144.433 74.8288 142.492C74.8288 142.492 76.4181 144.433 77.6657 142.492" fill="#FF8031"/>
<path d="M72.0859 142.492C72.0859 142.492 73.6667 144.433 74.8288 142.492C74.8288 142.492 76.4181 144.433 77.6657 142.492" stroke="black" stroke-width="1.6" stroke-linecap="round" stroke-linejoin="round"/>
</g>
<defs>
<clipPath id="clip0_936_30970">
<rect width="130" height="162" fill="white" transform="translate(10 9)"/>
</clipPath>
</defs>
</svg>
