<svg width="20" height="20" viewBox="0 0 20 20" fill="none" xmlns="http://www.w3.org/2000/svg">
<mask id="mask0_1336_41259" style="mask-type:alpha" maskUnits="userSpaceOnUse" x="0" y="0" width="20" height="20">
<rect width="20" height="20" fill="#D9D9D9"/>
</mask>
<g mask="url(#mask0_1336_41259)">
<path d="M6.15225 17.0833C5.70839 17.0833 5.33247 16.9293 5.02448 16.6214C4.71649 16.3134 4.5625 15.9374 4.5625 15.4936V5.12502H4.35417C4.17682 5.12502 4.02137 5.05825 3.88783 4.92471C3.75428 4.79117 3.6875 4.63573 3.6875 4.45838C3.6875 4.28103 3.75428 4.12559 3.88783 3.99205C4.02137 3.85849 4.17815 3.79171 4.35817 3.79171H7.52081C7.52081 3.58232 7.60094 3.40017 7.76119 3.24525C7.92145 3.09034 8.10628 3.01288 8.31569 3.01288H11.6634C11.8728 3.01288 12.0577 3.09034 12.2179 3.24525C12.3782 3.40017 12.4583 3.58232 12.4583 3.79171H15.621C15.801 3.79171 15.9577 3.85849 16.0913 3.99205C16.2248 4.12559 16.2916 4.28103 16.2916 4.45838C16.2916 4.63573 16.2248 4.79117 16.0913 4.92471C15.9577 5.05825 15.8023 5.12502 15.625 5.12502H15.4166V15.4936C15.4166 15.9374 15.2626 16.3134 14.9546 16.6214C14.6467 16.9293 14.2707 17.0833 13.8269 17.0833H6.15225ZM5.89581 5.12502V15.4936C5.89581 15.5684 5.91985 15.6298 5.96794 15.6779C6.01602 15.726 6.07746 15.75 6.15225 15.75H13.8269C13.9017 15.75 13.9631 15.726 14.0112 15.6779C14.0593 15.6298 14.0833 15.5684 14.0833 15.4936V5.12502H5.89581ZM7.79488 13.3334C7.79488 13.5107 7.86165 13.6662 7.99519 13.7997C8.12873 13.9333 8.28417 14 8.46152 14C8.63887 14 8.79431 13.9333 8.92785 13.7997C9.06141 13.6662 9.12819 13.5107 9.12819 13.3334V7.54167C9.12819 7.36432 9.06141 7.20888 8.92785 7.07534C8.79431 6.94179 8.63887 6.87502 8.46152 6.87502C8.28417 6.87502 8.12873 6.94179 7.99519 7.07534C7.86165 7.20888 7.79488 7.36432 7.79488 7.54167V13.3334ZM10.8509 13.3334C10.8509 13.5107 10.9177 13.6662 11.0513 13.7997C11.1848 13.9333 11.3403 14 11.5176 14C11.695 14 11.8504 13.9333 11.9839 13.7997C12.1175 13.6662 12.1842 13.5107 12.1842 13.3334V7.54167C12.1842 7.36432 12.1175 7.20888 11.9839 7.07534C11.8504 6.94179 11.695 6.87502 11.5176 6.87502C11.3403 6.87502 11.1848 6.94179 11.0513 7.07534C10.9177 7.20888 10.8509 7.36432 10.8509 7.54167V13.3334ZM5.89581 5.12502V15.4936C5.89581 15.5684 5.91985 15.6298 5.96794 15.6779C6.01602 15.726 6.07746 15.75 6.15225 15.75H5.89581V5.12502Z" fill="#1C1B1F"/>
</g>
</svg>
