<svg width="20" height="20" viewBox="0 0 20 20" fill="none" xmlns="http://www.w3.org/2000/svg">
<mask id="mask0_1336_41258" style="mask-type:alpha" maskUnits="userSpaceOnUse" x="0" y="0" width="20" height="20">
<rect width="20" height="20" fill="#D9D9D9"/>
</mask>
<g mask="url(#mask0_1336_41258)">
<path d="M6.20841 10.5416H13.7917V9.45835H6.20841V10.5416ZM10.0072 17.5833C8.96398 17.5833 7.98148 17.386 7.05971 16.9912C6.13792 16.5965 5.3311 16.0534 4.63925 15.3619C3.94739 14.6703 3.40401 13.8642 3.0091 12.9434C2.6142 12.0226 2.41675 11.0388 2.41675 9.99185C2.41675 8.94494 2.61411 7.96406 3.00883 7.04923C3.40355 6.13438 3.94668 5.33103 4.63821 4.63919C5.32975 3.94733 6.13591 3.40394 7.05669 3.00904C7.97746 2.61414 8.9613 2.41669 10.0082 2.41669C11.0551 2.41669 12.036 2.61405 12.9508 3.00877C13.8657 3.40349 14.669 3.94662 15.3609 4.63815C16.0527 5.32969 16.5961 6.13422 16.991 7.05175C17.3859 7.96928 17.5834 8.94965 17.5834 9.99285C17.5834 11.0361 17.386 12.0186 16.9913 12.9404C16.5966 13.8621 16.0534 14.669 15.3619 15.3608C14.6704 16.0527 13.8658 16.5961 12.9483 16.991C12.0308 17.3859 11.0504 17.5833 10.0072 17.5833ZM10.0001 16.5C11.8056 16.5 13.3403 15.8681 14.6042 14.6042C15.8681 13.3403 16.5001 11.8056 16.5001 10C16.5001 8.19444 15.8681 6.65972 14.6042 5.39583C13.3403 4.13194 11.8056 3.5 10.0001 3.5C8.1945 3.5 6.65978 4.13194 5.39589 5.39583C4.132 6.65972 3.50006 8.19444 3.50006 10C3.50006 11.8056 4.132 13.3403 5.39589 14.6042C6.65978 15.8681 8.1945 16.5 10.0001 16.5Z" fill="#1C1B1F"/>
</g>
</svg>
