<svg width="20" height="20" viewBox="0 0 20 20" fill="none" xmlns="http://www.w3.org/2000/svg">
<mask id="mask0_1336_41257" style="mask-type:alpha" maskUnits="userSpaceOnUse" x="0" y="0" width="20" height="20">
<rect width="20" height="20" fill="#D9D9D9"/>
</mask>
<g mask="url(#mask0_1336_41257)">
<path d="M4.37821 15.75H5.47115L13 8.22111L11.9071 7.12815L4.37821 14.657V15.75ZM15.8189 7.31728L12.8189 4.3013L13.7677 3.35259C14.0347 3.08551 14.3504 2.95197 14.7148 2.95197C15.0791 2.95197 15.3948 3.08551 15.6618 3.35259L16.7756 4.46636C17.0288 4.71956 17.1527 5.03792 17.1474 5.42146C17.1421 5.80501 17.0128 6.12337 16.7596 6.37657L15.8189 7.31728ZM3.83978 17.0833C3.62504 17.0833 3.43888 17.0045 3.2813 16.8469C3.12371 16.6893 3.04492 16.5032 3.04492 16.2884V14.3974C3.04492 14.297 3.06308 14.2014 3.0994 14.1106C3.13572 14.0198 3.19288 13.9354 3.27088 13.8574L11.8943 5.23396L14.8942 8.23392L6.27082 16.8573C6.19283 16.9353 6.10844 16.9925 6.01763 17.0288C5.92681 17.0651 5.83119 17.0833 5.73075 17.0833H3.83978Z" fill="#171A19"/>
</g>
</svg>
