<svg width="20" height="20" viewBox="0 0 20 20" fill="none" xmlns="http://www.w3.org/2000/svg">
<path d="M1 4.75C1 4.33579 1.33579 4 1.75 4H18.25C18.6642 4 19 4.33579 19 4.75C19 5.16421 18.6642 5.5 18.25 5.5H1.75C1.33579 5.5 1 5.16421 1 4.75Z" fill="#171A19"/>
<path d="M1.75 8.74996C1.33579 8.74996 1 9.08575 1 9.49996C1 9.91418 1.33579 10.25 1.75 10.25H11.25C11.6642 10.25 12 9.91418 12 9.49996C12 9.08575 11.6642 8.74996 11.25 8.74996H1.75Z" fill="#171A19"/>
<path d="M1 14.25C1 13.8358 1.33579 13.5 1.75 13.5H14.25C14.6642 13.5 15 13.8358 15 14.25C15 14.6642 14.6642 15 14.25 15H1.75C1.33579 15 1 14.6642 1 14.25Z" fill="#171A19"/>
</svg>
