<svg width="20" height="20" viewBox="0 0 20 20" fill="none" xmlns="http://www.w3.org/2000/svg">
<path d="M10.2418 5.80302C10.0456 5.90617 9.79726 5.87524 9.63225 5.71023C9.42918 5.50715 9.42918 5.1779 9.63232 4.97486L10.4902 4.11691C10.8647 3.74243 11.2978 3.46212 11.7598 3.27597C13.1353 2.72187 14.7684 3.00217 15.8831 4.11688C17.3723 5.60606 17.3723 8.02049 15.8831 9.50967L13.922 11.4707C13.6926 11.7002 13.4411 11.8944 13.1744 12.0531C13.0085 12.1519 12.8366 12.2369 12.6606 12.3083C11.2835 12.8668 9.64612 12.5876 8.52923 11.4707L8.40664 11.3482C8.20357 11.1451 8.20358 10.8158 8.40664 10.6127C8.40786 10.6116 8.40909 10.6103 8.41033 10.6091C8.42829 10.5915 8.44721 10.5754 8.46693 10.561C8.6704 10.4114 8.95806 10.4287 9.14207 10.6127L9.26465 10.7353C10.0769 11.5476 11.2677 11.7506 12.2693 11.3445C12.311 11.3276 12.3524 11.3096 12.3935 11.2905C12.6807 11.1573 12.9497 10.9722 13.1866 10.7353L15.1476 8.77433C16.2307 7.69128 16.2307 5.93532 15.1476 4.85229C14.3428 4.04743 13.1663 3.8407 12.1705 4.23211C11.8264 4.36739 11.5039 4.57411 11.2257 4.85226L10.3677 5.71021C10.3424 5.73558 10.315 5.75778 10.2862 5.77681C10.2718 5.78634 10.2569 5.79508 10.2418 5.80302Z" fill="#171A19"/>
<path d="M10.3676 15.025C10.5708 14.8219 10.5708 14.4926 10.3677 14.2896C10.1967 14.1187 9.9364 14.0916 9.73714 14.2084C9.6997 14.2304 9.66441 14.2575 9.63224 14.2896L8.77425 15.1475C8.49402 15.4279 8.16869 15.6356 7.82162 15.7708C6.82752 16.1581 5.65508 15.9503 4.85233 15.1475C3.76929 14.0645 3.76929 12.3085 4.85233 11.2255L6.81334 9.26449C7.07034 9.00748 7.36523 8.81148 7.68003 8.67642C8.69182 8.24247 9.90929 8.4385 10.7353 9.26449L10.8579 9.38714C11.042 9.57115 11.3296 9.58841 11.5331 9.43879C11.5524 9.42465 11.5709 9.40898 11.5885 9.39179C11.5901 9.39026 11.5917 9.38867 11.5933 9.38707C11.7964 9.184 11.7964 8.85474 11.5933 8.65167L11.4707 8.52911C10.3401 7.39841 8.67594 7.12622 7.2884 7.71257C6.84849 7.89846 6.43638 8.17065 6.0779 8.52914L4.11688 10.4901C2.62771 11.9793 2.62771 14.3938 4.11688 15.883C5.23378 16.9998 6.87115 17.279 8.24828 16.7206C8.41319 16.6537 8.57436 16.5748 8.73044 16.4839C9.00887 16.3218 9.27116 16.1215 9.50973 15.8829L10.3676 15.025Z" fill="#171A19"/>
</svg>
