<svg width="20" height="20" viewBox="0 0 20 20" fill="none" xmlns="http://www.w3.org/2000/svg">
<path d="M1 4.75C1 4.33579 1.33579 4 1.75 4H18.25C18.6642 4 19 4.33579 19 4.75C19 5.16421 18.6642 5.5 18.25 5.5H1.75C1.33579 5.5 1 5.16421 1 4.75Z" fill="#171A19"/>
<path d="M5.25 8.74996C4.83579 8.74996 4.5 9.08575 4.5 9.49996C4.5 9.91418 4.83579 10.25 5.25 10.25H14.75C15.1642 10.25 15.5 9.91418 15.5 9.49996C15.5 9.08575 15.1642 8.74996 14.75 8.74996H5.25Z" fill="#171A19"/>
<path d="M3 14.25C3 13.8358 3.33579 13.5 3.75 13.5H16.25C16.6642 13.5 17 13.8358 17 14.25C17 14.6642 16.6642 15 16.25 15H3.75C3.33579 15 3 14.6642 3 14.25Z" fill="#171A19"/>
</svg>
