<svg width="20" height="20" viewBox="0 0 20 20" fill="none" xmlns="http://www.w3.org/2000/svg">
<path d="M8.425 8.2C8.425 8.82136 7.92132 9.325 7.3 9.325C6.67868 9.325 6.175 8.82136 6.175 8.2C6.175 7.57868 6.67868 7.075 7.3 7.075C7.92132 7.075 8.425 7.57868 8.425 8.2Z" fill="#171A19"/>
<path d="M12.7 9.325C13.3214 9.325 13.825 8.82136 13.825 8.2C13.825 7.57868 13.3214 7.075 12.7 7.075C12.0786 7.075 11.575 7.57868 11.575 8.2C11.575 8.82136 12.0786 9.325 12.7 9.325Z" fill="#171A19"/>
<path d="M6.88162 11.8C7.20432 11.6133 7.61258 11.7308 7.86783 12.0025C8.40188 12.571 9.15985 12.925 10 12.925C10.8402 12.925 11.5981 12.571 12.1322 12.0025C12.3874 11.7308 12.7957 11.6133 13.1184 11.8C13.4411 11.9866 13.5551 12.4039 13.32 12.6932C12.5368 13.6574 11.3408 14.275 10 14.275C8.65918 14.275 7.46315 13.6574 6.67999 12.6932C6.44495 12.4039 6.55894 11.9866 6.88162 11.8Z" fill="#171A19"/>
<path fill-rule="evenodd" clip-rule="evenodd" d="M10 19C14.9705 19 19 14.9705 19 10C19 5.02944 14.9705 1 10 1C5.02944 1 1 5.02944 1 10C1 14.9705 5.02944 19 10 19ZM10 17.65C14.225 17.65 17.65 14.225 17.65 10C17.65 5.77502 14.225 2.35 10 2.35C5.77502 2.35 2.35 5.77502 2.35 10C2.35 14.225 5.77502 17.65 10 17.65Z" fill="#171A19"/>
</svg>
