<svg width="20" height="20" viewBox="0 0 20 20" fill="none" xmlns="http://www.w3.org/2000/svg">
<path d="M1 4.75C1 4.33579 1.33579 4 1.75 4H18.25C18.6642 4 19 4.33579 19 4.75C19 5.16421 18.6642 5.5 18.25 5.5H1.75C1.33579 5.5 1 5.16421 1 4.75Z" fill="#171A19"/>
<path d="M8.75 8.74996C8.33579 8.74996 8 9.08575 8 9.49996C8 9.91418 8.33579 10.25 8.75 10.25H18.25C18.6642 10.25 19 9.91418 19 9.49996C19 9.08575 18.6642 8.74996 18.25 8.74996H8.75Z" fill="#171A19"/>
<path d="M5 14.25C5 13.8358 5.33579 13.5 5.75 13.5H18.25C18.6642 13.5 19 13.8358 19 14.25C19 14.6642 18.6642 15 18.25 15H5.75C5.33579 15 5 14.6642 5 14.25Z" fill="#171A19"/>
</svg>
