<svg width="20" height="20" viewBox="0 0 20 20" fill="none" xmlns="http://www.w3.org/2000/svg">
<path d="M12.9166 7.04047L10.6755 4.79936V12.135C10.6755 12.1532 10.6746 12.1712 10.6728 12.1889C10.6458 12.4546 10.4214 12.662 10.1485 12.662C9.85745 12.662 9.62149 12.4261 9.62149 12.135V4.79937L7.38032 7.04052C7.17451 7.24633 6.84081 7.24633 6.635 7.04052C6.42918 6.8347 6.42918 6.50101 6.635 6.2952L9.7758 3.15436C9.87467 3.05553 10.0087 3 10.1485 3C10.2883 3 10.4223 3.05553 10.5211 3.15436L13.6619 6.29515C13.8677 6.50097 13.8677 6.83465 13.6619 7.04047C13.4561 7.24628 13.1224 7.24628 12.9166 7.04047Z" fill="black"/>
<path d="M4.52702 11.2568C4.81808 11.2568 5.05404 11.4928 5.05404 11.7838V14.7703C5.05404 14.8673 5.13269 14.946 5.22971 14.946H15.0674C15.1644 14.946 15.2431 14.8673 15.2431 14.7703V11.7838C15.2431 11.4928 15.4791 11.2568 15.7701 11.2568C16.0612 11.2568 16.2971 11.4928 16.2971 11.7838V14.7703C16.2971 15.4494 15.7466 16 15.0674 16H5.22971C4.55056 16 4 15.4494 4 14.7703V11.7838C4 11.4928 4.23595 11.2568 4.52702 11.2568Z" fill="black"/>
</svg>
