<svg width="20" height="20" viewBox="0 0 20 20" fill="none" xmlns="http://www.w3.org/2000/svg">
<mask id="mask0_1558_40725" style="mask-type:alpha" maskUnits="userSpaceOnUse" x="0" y="0" width="20" height="20">
<rect width="20" height="20" fill="#D9D9D9"/>
</mask>
<g mask="url(#mask0_1558_40725)">
<path d="M9.2503 16.5826H4.75674C4.39135 16.5826 4.07671 16.4507 3.81283 16.1868C3.54894 15.9229 3.41699 15.6083 3.41699 15.2429V4.75577C3.41699 4.38066 3.54894 4.06359 3.81283 3.80456C4.07671 3.54553 4.39135 3.41602 4.75674 3.41602H9.2503V16.5826ZM8.16699 15.4993V4.49933H4.75674C4.68195 4.49933 4.62051 4.52337 4.57243 4.57145C4.52435 4.61954 4.5003 4.68097 4.5003 4.75577V15.2429C4.5003 15.3177 4.52435 15.3791 4.57243 15.4272C4.62051 15.4753 4.68195 15.4993 4.75674 15.4993H8.16699ZM10.7503 9.24933V3.41602H15.2439C15.619 3.41602 15.936 3.54553 16.1951 3.80456C16.4541 4.06359 16.5836 4.38066 16.5836 4.75577V9.24933H10.7503ZM11.8336 8.16602H15.5003V4.75577C15.5003 4.68097 15.4763 4.61954 15.4282 4.57145C15.3801 4.52337 15.3187 4.49933 15.2439 4.49933H11.8336V8.16602ZM10.7503 16.5826V10.7493H16.5836V15.2429C16.5836 15.6083 16.4541 15.9229 16.1951 16.1868C15.936 16.4507 15.619 16.5826 15.2439 16.5826H10.7503ZM11.8753 15.4993H15.2439C15.3187 15.4993 15.3801 15.4753 15.4282 15.4272C15.4763 15.3791 15.5003 15.3177 15.5003 15.2429V11.8535H11.8753V15.4993Z" fill="#171A19"/>
</g>
</svg>
