<svg width="20" height="20" viewBox="0 0 20 20" fill="none" xmlns="http://www.w3.org/2000/svg">
<mask id="mask0_1336_41256" style="mask-type:alpha" maskUnits="userSpaceOnUse" x="0" y="0" width="20" height="20">
<rect width="20" height="20" fill="#D9D9D9"/>
</mask>
<g mask="url(#mask0_1336_41256)">
<path d="M4.7565 16.5833C4.38139 16.5833 4.06432 16.4538 3.80529 16.1948C3.54626 15.9357 3.41675 15.6187 3.41675 15.2436V4.75644C3.41675 4.38133 3.54626 4.06426 3.80529 3.80523C4.06432 3.5462 4.38139 3.41669 4.7565 3.41669H15.2436C15.6187 3.41669 15.9358 3.5462 16.1948 3.80523C16.4539 4.06426 16.5834 4.38133 16.5834 4.75644V6H15.5001V4.75644C15.5001 4.69233 15.4734 4.63356 15.4199 4.58012C15.3665 4.52671 15.3077 4.5 15.2436 4.5H4.7565C4.69239 4.5 4.63362 4.52671 4.58019 4.58012C4.52677 4.63356 4.50006 4.69233 4.50006 4.75644V15.2436C4.50006 15.3077 4.52677 15.3664 4.58019 15.4199C4.63362 15.4733 4.69239 15.5 4.7565 15.5H15.2436C15.3077 15.5 15.3665 15.4733 15.4199 15.4199C15.4734 15.3664 15.5001 15.3077 15.5001 15.2436V14H16.5834V15.248C16.5834 15.6243 16.4539 15.941 16.1948 16.1979C15.9358 16.4548 15.6187 16.5833 15.2436 16.5833H4.7565ZM13.7917 13.7035L13.0257 12.9375L15.4135 10.5416H8.36869V9.45835H15.4135L13.0257 7.0625L13.7917 6.2965L17.4952 10L13.7917 13.7035Z" fill="#1C1B1F"/>
</g>
</svg>
