<svg width="20" height="20" viewBox="0 0 20 20" fill="none" xmlns="http://www.w3.org/2000/svg">
<g clip-path="url(#clip0_796_1259)">
<path d="M9.99992 10C10.9166 10 11.6666 9.25002 11.6666 8.33335C11.6666 7.41669 10.9166 6.66669 9.99992 6.66669C9.08325 6.66669 8.33325 7.41669 8.33325 8.33335C8.33325 9.25002 9.08325 10 9.99992 10ZM9.99992 1.66669C13.4999 1.66669 16.6666 4.35002 16.6666 8.50002C16.6666 11.15 14.6249 14.2667 10.5499 17.8584C10.2333 18.1334 9.75825 18.1334 9.44159 17.8584C5.37492 14.2667 3.33325 11.15 3.33325 8.50002C3.33325 4.35002 6.49992 1.66669 9.99992 1.66669Z" fill="black"/>
</g>
<defs>
<clipPath id="clip0_796_1259">
<rect width="20" height="20" fill="white"/>
</clipPath>
</defs>
</svg>
