<svg width="20" height="20" viewBox="0 0 20 20" fill="none" xmlns="http://www.w3.org/2000/svg">
<g clip-path="url(#clip0_936_26772)">
<path d="M9.93467 12.4533C11.301 12.4533 12.4087 11.3457 12.4087 9.97935C12.4087 8.61301 11.301 7.50537 9.93467 7.50537C8.56833 7.50537 7.46069 8.61301 7.46069 9.97935C7.46069 11.3457 8.56833 12.4533 9.93467 12.4533Z" fill="black"/>
<path d="M17.3978 9.3772H16.0989C15.8151 6.44215 13.4718 4.10065 10.5368 3.81505V2.60215C10.5368 2.27011 10.2667 2 9.93462 2C9.60258 2 9.33247 2.27011 9.33247 2.60215V3.81505C6.39742 4.09892 4.05591 6.44215 3.77032 9.3772H2.60215C2.27011 9.3772 2 9.64731 2 9.97935C2 10.3114 2.27011 10.5815 2.60215 10.5815H3.77204C4.05591 13.5166 6.39914 15.8581 9.33419 16.1437V17.3996C9.33419 17.7316 9.6043 18.0017 9.93634 18.0017C10.2684 18.0017 10.5385 17.7316 10.5385 17.3996V16.1437C13.4735 15.8598 15.8151 13.5166 16.1006 10.5815H17.3996C17.7316 10.5815 18.0017 10.3114 18.0017 9.97935C18.0017 9.64731 17.7316 9.3772 17.3996 9.3772H17.3978ZM9.93462 14.9686C7.18366 14.9686 4.94538 12.7303 4.94538 9.97935C4.94538 7.22839 7.18366 4.99011 9.93462 4.99011C12.6856 4.99011 14.9239 7.22839 14.9239 9.97935C14.9239 12.7303 12.6856 14.9686 9.93462 14.9686Z" fill="black"/>
</g>
<defs>
<clipPath id="clip0_936_26772">
<rect width="16" height="16" fill="white" transform="translate(2 2)"/>
</clipPath>
</defs>
</svg>
