<svg width="20" height="20" viewBox="0 0 20 20" fill="none" xmlns="http://www.w3.org/2000/svg">
<path d="M14.1857 8.09287C14.0886 7.9892 14.0886 7.82721 14.1857 7.72354L16.784 4.89201C17.0886 4.55508 17.1663 4.08855 16.9849 3.67387C16.8035 3.25918 16.4082 3 15.9546 3H5.58747C4.71274 3 4 3.71274 4 4.58747V17.4298C4 17.7408 4.2527 18 4.57019 18C4.88769 18 5.14039 17.7473 5.14039 17.4298V12.8164H15.9546C16.4082 12.8164 16.8035 12.5572 16.9849 12.1425C17.1663 11.7279 17.0886 11.2613 16.784 10.9244L14.1857 8.09287ZM5.13391 6.80994V4.59395C5.13391 4.34125 5.33477 4.14039 5.58747 4.14039L15.9482 4.12743L13.3499 6.95896C12.851 7.50324 12.851 8.31965 13.3499 8.86393L15.9482 11.6825H5.13391V6.80994Z" fill="black"/>
</svg>
