<svg width="20" height="20" viewBox="0 0 20 20" fill="none" xmlns="http://www.w3.org/2000/svg">
<g clip-path="url(#clip0_1275_35855)">
<path d="M10.819 2H9.68103C5.44793 2 2 5.44793 2 9.68103V16.7931C2 17.106 2.25603 17.3621 2.56897 17.3621H10.819C15.0521 17.3621 18.5 13.9141 18.5 9.68103C18.5 5.44793 15.0521 2 10.819 2ZM6.83621 10.9157C6.36397 10.9157 5.98276 10.5345 5.98276 10.0622C5.98276 9.59 6.36397 9.20879 6.83621 9.20879C7.30845 9.20879 7.68965 9.59 7.68965 10.0622C7.68965 10.5345 7.30845 10.9157 6.83621 10.9157ZM10.25 10.9157C9.77776 10.9157 9.39655 10.5345 9.39655 10.0622C9.39655 9.59 9.77776 9.20879 10.25 9.20879C10.7222 9.20879 11.1034 9.59 11.1034 10.0622C11.1034 10.5345 10.7222 10.9157 10.25 10.9157ZM13.6638 10.9157C13.1916 10.9157 12.8103 10.5345 12.8103 10.0622C12.8103 9.59 13.1916 9.20879 13.6638 9.20879C14.136 9.20879 14.5172 9.59 14.5172 10.0622C14.5172 10.5345 14.136 10.9157 13.6638 10.9157Z" fill="#D9D9D9"/>
</g>
<defs>
<clipPath id="clip0_1275_35855">
<rect width="16.5" height="15.3621" fill="white" transform="translate(2 2)"/>
</clipPath>
</defs>
</svg>
