<svg width="20" height="20" viewBox="0 0 20 20" fill="none" xmlns="http://www.w3.org/2000/svg">
<g clip-path="url(#clip0_812_2957)">
<path d="M10.6217 3.91593V3.5339C10.6217 3.23966 10.382 3 10.0878 3C9.79356 3 9.5539 3.23966 9.5539 3.5339V3.90169C5.90203 4.13186 3 7.17627 3 10.8851V11.8888C3 12.1831 3.23966 12.4227 3.5339 12.4227C3.82814 12.4227 4.04644 12.202 4.06542 11.922C4.07492 11.8864 4.07966 11.8485 4.07966 11.8081C4.07966 11.1841 4.81288 10.6763 5.71458 10.6763C6.61627 10.6763 7.34949 11.1841 7.34949 11.8081C7.34949 12.0834 7.57254 12.3064 7.8478 12.3064C8.12305 12.3064 8.3461 12.0834 8.3461 11.8081C8.3461 11.2861 8.86102 10.8447 9.55627 10.7142V14.6034C9.55627 15.3841 8.92271 16.0176 8.14203 16.0176C7.36136 16.0176 6.7278 15.3841 6.7278 14.6034C6.7278 14.3092 6.48814 14.0695 6.1939 14.0695C5.89966 14.0695 5.66 14.3092 5.66 14.6034C5.66 15.9725 6.77288 17.0854 8.14203 17.0854C9.51119 17.0854 10.6241 15.9725 10.6241 14.6034V10.7641C11.2054 10.9373 11.6136 11.3383 11.6136 11.8058C11.6136 12.081 11.8366 12.3041 12.1119 12.3041C12.3871 12.3041 12.6102 12.081 12.6102 11.8058C12.6102 11.1817 13.3434 10.6739 14.2451 10.6739C15.1468 10.6739 15.88 11.1817 15.88 11.8058C15.88 11.9173 15.918 12.0193 15.982 12.1024C16.0651 12.2875 16.2525 12.418 16.4685 12.418C16.7627 12.418 17.0024 12.1783 17.0024 11.8841V10.8803C17.0024 7.23085 14.1929 4.22678 10.6241 3.90881L10.6217 3.91593ZM15.8847 10.1471C15.4339 9.85525 14.8644 9.67966 14.2451 9.67966C13.3671 9.67966 12.5912 10.0308 12.1119 10.5671C11.6325 10.0308 10.8566 9.67966 9.97864 9.67966C9.10068 9.67966 8.32475 10.0308 7.84542 10.5671C7.3661 10.0308 6.59017 9.67966 5.7122 9.67966C5.11186 9.67966 4.56136 9.84339 4.11763 10.1186C4.49492 7.20949 6.98881 4.95525 9.99763 4.95525C13.0064 4.95525 15.5169 7.22373 15.8824 10.1471H15.8847Z" fill="#FF8031"/>
</g>
<defs>
<clipPath id="clip0_812_2957">
<rect width="14" height="14.0878" fill="white" transform="translate(3 3)"/>
</clipPath>
</defs>
</svg>
