<svg width="20" height="20" viewBox="0 0 20 20" fill="none" xmlns="http://www.w3.org/2000/svg">
<g clip-path="url(#clip0_812_2958)">
<path d="M10.0186 11.6542C10.3393 11.6542 10.5994 11.3941 10.5994 11.0734C10.5994 10.7526 10.3393 10.4926 10.0186 10.4926C9.69778 10.4926 9.43774 10.7526 9.43774 11.0734C9.43774 11.3941 9.69778 11.6542 10.0186 11.6542Z" fill="black"/>
<path d="M10.0186 13.2805C10.3393 13.2805 10.5994 13.0204 10.5994 12.6997C10.5994 12.3789 10.3393 12.1188 10.0186 12.1188C9.69778 12.1188 9.43774 12.3789 9.43774 12.6997C9.43774 13.0204 9.69778 13.2805 10.0186 13.2805Z" fill="black"/>
<path d="M10.0186 14.9068C10.3393 14.9068 10.5994 14.6467 10.5994 14.3259C10.5994 14.0052 10.3393 13.7451 10.0186 13.7451C9.69778 13.7451 9.43774 14.0052 9.43774 14.3259C9.43774 14.6467 9.69778 14.9068 10.0186 14.9068Z" fill="black"/>
<path d="M16.9257 8.61069C16.8537 8.48988 16.7399 8.40624 16.6051 8.37139C16.4704 8.33654 16.3287 8.35745 16.2079 8.42947L15.6921 8.73847L15.72 8.3319C15.7293 8.1925 15.6851 8.05775 15.5922 7.9532C15.4993 7.84866 15.3738 7.7836 15.2321 7.77431C15.2228 7.77431 15.2112 7.77431 15.2019 7.77431C14.9277 7.77431 14.6954 7.98805 14.6768 8.2622L14.6002 9.39595L14.0356 9.73515C13.4966 8.97312 12.7299 8.36442 11.861 8.01128C12.493 7.47229 12.867 6.67076 12.867 5.846C12.867 4.2778 11.5892 3 10.021 3C8.4528 3 7.175 4.2778 7.175 5.846C7.175 6.67076 7.54905 7.47229 8.18097 8.01128C7.30743 8.36674 6.5361 8.98009 5.99478 9.75141L5.40235 9.39595L5.32568 8.2622C5.30709 7.97644 5.05386 7.75805 4.7681 7.77663C4.6287 7.78593 4.50092 7.84866 4.41031 7.95553C4.31738 8.06007 4.27324 8.19482 4.28253 8.33422L4.31041 8.74079L3.79465 8.4318C3.67384 8.35977 3.53212 8.33886 3.39969 8.37371C3.26494 8.40856 3.14878 8.4922 3.07676 8.61301C3.00474 8.73382 2.98383 8.87322 3.01868 9.00797C3.05353 9.14271 3.13716 9.25655 3.25565 9.32858L5.49063 10.6691C5.2374 11.2731 5.10962 11.9097 5.10962 12.5602C5.10962 15.2692 7.3144 17.4716 10.021 17.4716C12.7276 17.4716 14.9324 15.2668 14.9324 12.5602C14.9324 11.9028 14.8 11.2615 14.5421 10.6505L16.7469 9.32858C16.8653 9.25655 16.9513 9.14271 16.9838 9.00797C17.0187 8.87322 16.9978 8.7315 16.9257 8.61301V8.61069ZM10.0187 8.692C12.1514 8.692 13.8846 10.4275 13.8846 12.5579C13.8846 14.6884 12.1491 16.4238 10.0187 16.4238C7.88824 16.4238 6.15276 14.6884 6.15276 12.5579C6.15276 10.4275 7.88824 8.692 10.0187 8.692ZM10.0187 7.64653C9.02664 7.64653 8.21815 6.83804 8.21815 5.846C8.21815 4.85397 9.02664 4.04547 10.0187 4.04547C11.0107 4.04547 11.8192 4.85397 11.8192 5.846C11.8192 6.83804 11.0107 7.64653 10.0187 7.64653Z" fill="black"/>
</g>
<defs>
<clipPath id="clip0_812_2958">
<rect width="14" height="14.4716" fill="white" transform="translate(3 3)"/>
</clipPath>
</defs>
</svg>
