<svg width="20" height="20" viewBox="0 0 20 20" fill="none" xmlns="http://www.w3.org/2000/svg">
<g clip-path="url(#clip0_812_2955)">
<path d="M5.59008 4.89533C5.64278 5.11935 5.84044 5.27747 6.07104 5.27747C6.10838 5.27747 6.14571 5.27308 6.18305 5.26429C6.31262 5.23355 6.42024 5.15668 6.49052 5.04468C6.56079 4.93267 6.58276 4.8009 6.55201 4.67132L6.25113 3.38216C6.22258 3.25478 6.14352 3.14497 6.03151 3.07469C5.9195 3.00441 5.78773 2.98245 5.65816 3.0132C5.52858 3.04394 5.42097 3.12081 5.35069 3.23282C5.28041 3.34482 5.25845 3.47659 5.2892 3.60617L5.59008 4.89533Z" fill="#FF8031"/>
<path d="M3.78921 6.93339C3.93416 6.70279 3.86168 6.39752 3.63108 6.25257L2.50663 5.55418C2.39463 5.4839 2.26285 5.46194 2.13328 5.49269C2.0037 5.52344 1.89609 5.6003 1.82581 5.71231C1.68086 5.94291 1.75334 6.24818 1.98394 6.39313L3.10839 7.09152C3.18745 7.13983 3.2775 7.16619 3.36974 7.16619C3.54324 7.16619 3.69916 7.07834 3.78921 6.93339Z" fill="#FF8031"/>
<path d="M2.6712 9.59955L1.38203 9.90043C1.25466 9.93118 1.14485 10.008 1.07457 10.12C1.00429 10.2321 0.982328 10.3638 1.01307 10.4934C1.06578 10.7174 1.26344 10.8755 1.49404 10.8755C1.53138 10.8755 1.56871 10.8711 1.60605 10.8624L2.89521 10.5615C3.02259 10.5307 3.1324 10.4539 3.20268 10.3419C3.27296 10.2299 3.29492 10.0981 3.26417 9.96851C3.20268 9.70497 2.93474 9.53806 2.6712 9.59955Z" fill="#FF8031"/>
<path d="M9.17632 5.79797C9.25538 5.84629 9.34543 5.87264 9.43767 5.87264C9.60897 5.87264 9.7671 5.7848 9.85714 5.63985L10.5577 4.5154C10.7027 4.2848 10.6302 3.97953 10.3996 3.83458C10.2876 3.7643 10.1536 3.74234 10.0262 3.77308C9.89887 3.80383 9.78906 3.8807 9.71878 3.9927L9.01819 5.11715C8.87325 5.34775 8.94572 5.65303 9.17632 5.79797Z" fill="#FF8031"/>
<path d="M16.178 11.194H16.0264C15.7783 8.8397 13.7424 7.00369 11.3683 7.00369C10.9005 7.00369 10.4305 7.07616 9.97372 7.22111C9.33463 6.25478 8.26509 5.67938 7.1033 5.67938C5.20579 5.67938 3.65967 7.22331 3.65967 9.12301C3.65967 10.142 4.1033 11.0974 4.88075 11.7519C4.1626 12.2833 3.73653 13.1245 3.73653 14.0183C3.73653 15.5732 5.00154 16.8404 6.55864 16.8404H16.178C17.7329 16.8404 19.0001 15.5754 19.0001 14.0183C19.0001 12.4612 17.7351 11.1962 16.178 11.1962V11.194ZM6.71018 11.194H6.55864C6.35 11.194 6.13258 11.2204 5.91735 11.2709C5.13551 10.8382 4.64796 10.0169 4.64796 9.12301C4.64796 7.77016 5.74825 6.66767 7.1033 6.66767C7.86318 6.66767 8.58573 7.02345 9.04693 7.62521C7.738 8.37631 6.86831 9.70281 6.71238 11.194H6.71018ZM6.55864 12.1823H7.18017C7.45249 12.1823 7.67431 11.9605 7.67431 11.6882C7.67431 9.6501 9.33244 7.99197 11.3705 7.99197C13.4086 7.99197 15.0667 9.6501 15.0667 11.6882C15.0667 11.9605 15.2885 12.1823 15.5608 12.1823H16.1824C17.1926 12.1823 18.0162 13.0059 18.0162 14.0161C18.0162 15.0264 17.1926 15.85 16.1824 15.85H6.55645C5.5462 15.85 4.72263 15.0286 4.72263 14.0161C4.72263 13.0037 5.5462 12.1823 6.55645 12.1823H6.55864Z" fill="#FF8031"/>
</g>
<defs>
<clipPath id="clip0_812_2955">
<rect width="18" height="13.8382" fill="white" transform="translate(1 3)"/>
</clipPath>
</defs>
</svg>
