<svg width="20" height="20" viewBox="0 0 20 20" fill="none" xmlns="http://www.w3.org/2000/svg">
<g clip-path="url(#clip0_812_2954)">
<path d="M10.0199 5.59363C7.57322 5.59363 5.57959 7.58443 5.57959 10.034C5.57959 12.4835 7.57039 14.4743 10.0199 14.4743C12.4695 14.4743 14.4603 12.4835 14.4603 10.034C14.4603 7.58443 12.4695 5.59363 10.0199 5.59363ZM13.186 10.034C13.186 11.7784 11.7672 13.2 10.0199 13.2C8.27269 13.2 6.85393 11.7812 6.85393 10.034C6.85393 8.28673 8.27269 6.86796 10.0199 6.86796C11.7672 6.86796 13.186 8.28673 13.186 10.034Z" fill="#FF8031"/>
<path d="M10.0197 4.98195C10.3709 4.98195 10.6569 4.69593 10.6569 4.34478V2.63717C10.6569 2.28602 10.3709 2 10.0197 2C9.66859 2 9.38257 2.28602 9.38257 2.63717V4.34478C9.38257 4.69593 9.66859 4.98195 10.0197 4.98195Z" fill="#FF8031"/>
<path d="M5.62472 6.37523C5.74366 6.497 5.90507 6.56213 6.07499 6.56213C6.2449 6.56213 6.40631 6.497 6.52525 6.37523C6.64419 6.25629 6.71215 6.09487 6.71215 5.92496C6.71215 5.75505 6.64702 5.59363 6.52525 5.4747L5.31888 4.26832C5.19994 4.14939 5.03853 4.08142 4.86861 4.08142C4.6987 4.08142 4.53729 4.14655 4.41835 4.26832C4.29941 4.38726 4.23145 4.54868 4.23145 4.71859C4.23145 4.8885 4.29658 5.04992 4.41835 5.16885L5.62472 6.37523Z" fill="#FF8031"/>
<path d="M4.98195 10.034C4.98195 9.68281 4.69593 9.39679 4.34478 9.39679H2.63717C2.28602 9.39679 2 9.68281 2 10.034C2 10.3851 2.28602 10.6711 2.63717 10.6711H4.34478C4.69593 10.6711 4.98195 10.3851 4.98195 10.034Z" fill="#FF8031"/>
<path d="M5.47457 13.4719L4.2682 14.6782C4.14926 14.7972 4.0813 14.9586 4.0813 15.1285C4.0813 15.2984 4.14643 15.4598 4.2682 15.5788C4.38714 15.7005 4.54856 15.7657 4.71847 15.7657C4.88838 15.7657 5.04979 15.7005 5.16873 15.5788L6.3751 14.3724C6.49404 14.2535 6.56201 14.0921 6.56201 13.9221C6.56201 13.7522 6.49687 13.5908 6.3751 13.4719C6.1259 13.2227 5.72378 13.2227 5.47457 13.4719Z" fill="#FF8031"/>
<path d="M10.0197 15.0181C9.66859 15.0181 9.38257 15.3041 9.38257 15.6552V17.3628C9.38257 17.714 9.66859 18 10.0197 18C10.3709 18 10.6569 17.714 10.6569 17.3628V15.6552C10.6569 15.3041 10.3709 15.0181 10.0197 15.0181Z" fill="#FF8031"/>
<path d="M14.3753 13.6248C14.2563 13.5058 14.0949 13.4379 13.925 13.4379C13.7551 13.4379 13.5937 13.503 13.4747 13.6248C13.3558 13.7437 13.2878 13.9051 13.2878 14.075C13.2878 14.2449 13.353 14.4064 13.4747 14.5253L14.6811 15.7317C14.8001 15.8534 14.9615 15.9186 15.1314 15.9186C15.3013 15.9186 15.4627 15.8534 15.5816 15.7317C15.7006 15.6127 15.7685 15.4513 15.7685 15.2814C15.7685 15.1115 15.7034 14.9501 15.5816 14.8311L14.3753 13.6248Z" fill="#FF8031"/>
<path d="M17.3628 9.39679H15.6552C15.3041 9.39679 15.0181 9.68281 15.0181 10.034C15.0181 10.3851 15.3041 10.6711 15.6552 10.6711H17.3628C17.714 10.6711 18 10.3851 18 10.034C18 9.68281 17.714 9.39679 17.3628 9.39679Z" fill="#FF8031"/>
<path d="M14.0752 6.71502C14.2451 6.71502 14.4065 6.64989 14.5254 6.52812L15.7318 5.32175C15.8507 5.20281 15.9187 5.04139 15.9187 4.87148C15.9187 4.70157 15.8536 4.54015 15.7318 4.42122C15.6129 4.30228 15.4514 4.23431 15.2815 4.23431C15.1116 4.23431 14.9502 4.29945 14.8313 4.42122L13.6249 5.62759C13.506 5.74653 13.438 5.90794 13.438 6.07785C13.438 6.24777 13.5031 6.40918 13.6249 6.52812C13.7438 6.64989 13.9052 6.71502 14.0752 6.71502Z" fill="#FF8031"/>
</g>
<defs>
<clipPath id="clip0_812_2954">
<rect width="16" height="16" fill="white" transform="translate(2 2)"/>
</clipPath>
</defs>
</svg>
