<svg width="20" height="20" viewBox="0 0 20 20" fill="none" xmlns="http://www.w3.org/2000/svg">
<g clip-path="url(#clip0_812_2956)">
<path d="M15.0417 10.3925H14.8829C14.6227 7.9246 12.4863 6 10 6C7.51367 6 5.37727 7.9246 5.11712 10.3925H4.95827C3.32835 10.3925 2 11.7186 2 13.3508C2 14.983 3.32604 16.3091 4.95827 16.3091H15.0417C16.6717 16.3091 18 14.983 18 13.3508C18 11.7186 16.674 10.3925 15.0417 10.3925ZM16.964 13.3508C16.964 14.4098 16.1007 15.2731 15.0417 15.2731H4.95827C3.89928 15.2731 3.03597 14.4121 3.03597 13.3508C3.03597 12.2895 3.89928 11.4285 4.95827 11.4285H5.60978C5.89525 11.4285 6.12777 11.196 6.12777 10.9105C6.12777 8.7741 7.8659 7.03597 10.0023 7.03597C12.1387 7.03597 13.8768 8.7741 13.8768 10.9105C13.8768 11.196 14.1094 11.4285 14.3948 11.4285H15.0463C16.1053 11.4285 16.9686 12.2918 16.9686 13.3508H16.964Z" fill="#FF8031"/>
</g>
<defs>
<clipPath id="clip0_812_2956">
<rect width="16" height="10.3068" fill="white" transform="translate(2 6)"/>
</clipPath>
</defs>
</svg>
