<svg width="24" height="24" viewBox="0 0 24 24" fill="none" xmlns="http://www.w3.org/2000/svg">
<path d="M12.5 3.71748C15.8199 3.71748 18.5112 6.40877 18.5112 9.72865V13.3354L19.5986 14.6403C20.5308 15.759 19.7354 17.4573 18.2792 17.4573H6.72076C5.26462 17.4573 4.46916 15.759 5.40136 14.6403L6.48883 13.3354V9.72865C6.48883 6.40877 9.18012 3.71748 12.5 3.71748ZM12.5 3.71748V2M15.9403 17.4573C15.9403 17.9084 15.8515 18.355 15.6789 18.7718C15.5062 19.1885 15.2532 19.5672 14.9343 19.8862C14.6153 20.2051 14.2366 20.4582 13.8199 20.6308C13.4031 20.8034 12.9565 20.8923 12.5054 20.8923C12.0543 20.8923 11.6076 20.8034 11.1909 20.6308C10.7741 20.4582 10.3955 20.2051 10.0765 19.8862C9.75753 19.5672 9.50451 19.1885 9.33189 18.7718C9.15927 18.355 9.07042 17.9084 9.07042 17.4573H15.9403Z" stroke="black" stroke-width="1.5" stroke-linecap="round" stroke-linejoin="round"/>
</svg>
