<svg width="24" height="24" viewBox="0 0 24 24" fill="none" xmlns="http://www.w3.org/2000/svg">
<g clip-path="url(#clip0_918_14812)">
<path d="M17.7775 3H6.2225C5.5475 3 5 3.5475 5 4.2225V19.275C5 19.95 5.5475 20.4975 6.2225 20.4975L11.1175 16.8825C11.6275 16.505 12.325 16.505 12.8375 16.88L17.7775 20.5C18.4525 20.5 19 19.9525 19 19.2775V4.2225C19 3.5475 18.4525 3 17.7775 3ZM12 6.0575C12.4825 6.0575 12.875 6.505 12.875 7.0575C12.875 7.61 12.4825 8.0575 12 8.0575C11.5175 8.0575 11.125 7.61 11.125 7.0575C11.125 6.505 11.5175 6.0575 12 6.0575ZM8.8325 8.86C8.605 8.775 8.4075 8.6075 8.2775 8.3825C8.0025 7.905 8.1175 7.32 8.535 7.08C8.745 6.9575 8.995 6.9425 9.24 7.03C9.4675 7.115 9.665 7.2825 9.795 7.5075C10.07 7.985 9.955 8.57 9.5375 8.81C9.415 8.88 9.28 8.915 9.1425 8.915C9.04 8.915 8.9375 8.895 8.835 8.8575L8.8325 8.86ZM14.9125 11.6875C14.9125 12.6225 14.1875 13.2525 13.11 13.2525H10.9675C9.8875 13.2525 9.165 12.6225 9.165 11.6875V11.57C9.165 9.985 10.455 8.695 12.04 8.695C13.625 8.695 14.915 9.985 14.915 11.57V11.6875H14.9125ZM15.7225 8.2475C15.5925 8.4725 15.3975 8.64 15.1675 8.725C15.065 8.7625 14.96 8.7825 14.86 8.7825C14.72 8.7825 14.585 8.7475 14.465 8.6775C14.0475 8.435 13.9325 7.8525 14.2075 7.375C14.4825 6.8975 15.0475 6.705 15.465 6.9475C15.675 7.0675 15.815 7.2775 15.86 7.5325C15.9025 7.7725 15.8525 8.0275 15.7225 8.25V8.2475Z" fill="#FF8031"/>
</g>
<defs>
<clipPath id="clip0_918_14812">
<rect width="14" height="17.5" fill="white" transform="translate(5 3)"/>
</clipPath>
</defs>
</svg>
