<svg width="24" height="24" viewBox="0 0 24 24" fill="none" xmlns="http://www.w3.org/2000/svg">
<path fill-rule="evenodd" clip-rule="evenodd" d="M4 12.2C4 13.5252 4.39779 14.7667 5.09177 15.8333L4.32346 18.9065C4.17698 19.4924 4.7077 20.0231 5.2936 19.8766L9.12114 18.9198C10.0145 19.2299 10.9851 19.4 12 19.4C16.4182 19.4 20 16.1765 20 12.2C20 8.22355 16.4182 5 12 5C7.58172 5 4 8.22355 4 12.2ZM6.25594 16.1243C6.33681 15.8008 6.27943 15.4582 6.09758 15.1788C5.52284 14.2955 5.2 13.2794 5.2 12.2C5.2 9.00209 8.12241 6.2 12 6.2C15.8776 6.2 18.8 9.00209 18.8 12.2C18.8 15.3979 15.8776 18.2 12 18.2C11.1196 18.2 10.2819 18.0525 9.51478 17.7862C9.29438 17.7096 9.05645 17.699 8.8301 17.7556L5.64932 18.5507L6.25594 16.1243Z" fill="black"/>
</svg>
