<svg width="24" height="24" viewBox="0 0 24 24" fill="none" xmlns="http://www.w3.org/2000/svg">
<g clip-path="url(#clip0_796_1361)">
<path d="M12.6207 4H11.3793C6.76138 4 3 7.76138 3 12.3793V20.1379C3 20.4793 3.27931 20.7586 3.62069 20.7586H12.6207C17.2386 20.7586 21 16.9972 21 12.3793C21 7.76138 17.2386 4 12.6207 4ZM8.27586 13.7262C7.76069 13.7262 7.34483 13.3103 7.34483 12.7952C7.34483 12.28 7.76069 11.8641 8.27586 11.8641C8.79103 11.8641 9.2069 12.28 9.2069 12.7952C9.2069 13.3103 8.79103 13.7262 8.27586 13.7262ZM12 13.7262C11.4848 13.7262 11.069 13.3103 11.069 12.7952C11.069 12.28 11.4848 11.8641 12 11.8641C12.5152 11.8641 12.931 12.28 12.931 12.7952C12.931 13.3103 12.5152 13.7262 12 13.7262ZM15.7241 13.7262C15.209 13.7262 14.7931 13.3103 14.7931 12.7952C14.7931 12.28 15.209 11.8641 15.7241 11.8641C16.2393 11.8641 16.6552 12.28 16.6552 12.7952C16.6552 13.3103 16.2393 13.7262 15.7241 13.7262Z" fill="#FF8031"/>
</g>
<defs>
<clipPath id="clip0_796_1361">
<rect width="18" height="16.7586" fill="white" transform="translate(3 4)"/>
</clipPath>
</defs>
</svg>
