<svg width="24" height="24" viewBox="0 0 24 24" fill="none" xmlns="http://www.w3.org/2000/svg">
<g clip-path="url(#clip0_796_1280)">
<path d="M12.6207 20.7586H3.62069C3.27931 20.7586 3 20.4793 3 20.1379V12.3793C3 7.76138 6.76138 4 11.3793 4H12.6207C17.2386 4 21 7.76138 21 12.3793C21 16.9972 17.2386 20.7586 12.6207 20.7586ZM4.24138 19.5172H12.6207C16.5559 19.5172 19.7586 16.3145 19.7586 12.3793C19.7586 8.44414 16.5559 5.24138 12.6207 5.24138H11.3793C7.44414 5.24138 4.24138 8.44414 4.24138 12.3793V19.5172Z" fill="#ACACAC"/>
<path d="M8.27576 13.7262C8.78996 13.7262 9.2068 13.3094 9.2068 12.7952C9.2068 12.281 8.78996 11.8641 8.27576 11.8641C7.76156 11.8641 7.34473 12.281 7.34473 12.7952C7.34473 13.3094 7.76156 13.7262 8.27576 13.7262Z" fill="#ACACAC"/>
<path d="M11.9999 13.7262C12.5141 13.7262 12.9309 13.3094 12.9309 12.7952C12.9309 12.281 12.5141 11.8641 11.9999 11.8641C11.4857 11.8641 11.0688 12.281 11.0688 12.7952C11.0688 13.3094 11.4857 13.7262 11.9999 13.7262Z" fill="#ACACAC"/>
<path d="M15.7242 13.7262C16.2384 13.7262 16.6553 13.3094 16.6553 12.7952C16.6553 12.281 16.2384 11.8641 15.7242 11.8641C15.2101 11.8641 14.7932 12.281 14.7932 12.7952C14.7932 13.3094 15.2101 13.7262 15.7242 13.7262Z" fill="#ACACAC"/>
</g>
<defs>
<clipPath id="clip0_796_1280">
<rect width="18" height="16.7586" fill="white" transform="translate(3 4)"/>
</clipPath>
</defs>
</svg>
