<svg width="24" height="24" viewBox="0 0 24 24" fill="none" xmlns="http://www.w3.org/2000/svg">
<path d="M20.9971 6.62944C20.9971 5.1808 19.7702 4 18.2611 4H5.736C4.22688 4 3 5.1808 3 6.62944V16.2026C3 17.6512 4.22688 18.832 5.736 18.832H17.7341L19.0387 20.9315C19.2374 21.2512 19.5744 21.4326 19.9344 21.4326C20.0323 21.4326 20.1331 21.4182 20.231 21.3894C20.6918 21.257 21 20.848 21 20.3699V17.0925C21 16.8534 20.807 16.6605 20.568 16.6605C20.329 16.6605 20.136 16.8534 20.136 17.0925V20.3699C20.136 20.4995 20.0467 20.5427 19.9949 20.56C19.9402 20.5744 19.8422 20.583 19.7731 20.4736L18.215 17.9651H5.736C4.70496 17.9651 3.864 17.1731 3.864 16.1997V6.62944C3.864 5.656 4.70496 4.864 5.736 4.864H18.2611C19.2922 4.864 20.1331 5.656 20.1331 6.62944V9.85504C20.1331 9.85504 20.1331 9.85792 20.1331 9.8608C20.1331 9.8608 20.1331 9.86368 20.1331 9.86656C20.1331 12.0294 18.1142 13.792 15.6288 13.792C14.7158 13.792 13.8662 13.553 13.1549 13.144C13.2528 13.0518 13.3478 12.9568 13.4371 12.8589C13.9814 12.3376 14.6179 11.4189 14.6179 9.9472C14.6179 9.92992 14.6179 9.91552 14.6179 9.89824C14.6179 9.88672 14.6179 9.87808 14.6179 9.86656C14.6179 9.84928 14.615 9.83488 14.6122 9.8176C14.5603 7.9744 13.4227 7.312 12.4435 7.312C11.4643 7.312 10.3238 7.9744 10.2662 9.81184C10.2662 9.82912 10.2605 9.8464 10.2605 9.86656C10.2605 9.87808 10.2605 9.8896 10.2605 9.90112C10.2605 9.9184 10.2605 9.93568 10.2605 9.95296C10.2605 10.9235 10.5686 11.6579 10.9459 12.1965C11.1619 12.5392 11.424 12.856 11.7235 13.1411C11.0122 13.5501 10.1626 13.7891 9.2496 13.7891H7.75776C7.51872 13.7891 7.32576 13.9821 7.32576 14.2211C7.32576 14.4602 7.51872 14.6531 7.75776 14.6531H9.2496C10.4448 14.6531 11.545 14.2989 12.4378 13.7085C13.3306 14.2989 14.4307 14.6531 15.6259 14.6531C18.5866 14.6531 20.9942 12.5046 20.9942 9.86368C20.9942 9.86368 20.9942 9.8608 20.9942 9.85792C20.9942 9.85792 20.9942 9.85504 20.9942 9.85216V6.62656L20.9971 6.62944ZM12.4435 8.176C13.2528 8.176 13.7395 8.824 13.751 9.90688C13.7395 10.7968 13.3882 11.6118 12.8064 12.2685C12.6854 12.3808 12.5731 12.4643 12.4867 12.5248C12.2794 12.3894 11.9424 12.1245 11.6544 11.7098C11.3261 11.1712 11.136 10.5606 11.1274 9.91264C11.1418 8.82688 11.6285 8.17888 12.4435 8.17888V8.176Z" fill="#ACACAC" stroke="#ACACAC" stroke-width="0.2"/>
</svg>
