<svg width="24" height="24" viewBox="0 0 24 24" fill="none" xmlns="http://www.w3.org/2000/svg">
<path d="M15.6297 14.6514C14.4347 14.6514 13.3347 14.2972 12.442 13.7069C11.5494 14.2972 10.4494 14.6514 9.25436 14.6514H7.76276C7.52376 14.6514 7.33083 14.4585 7.33083 14.2195C7.33083 13.9805 7.52376 13.7876 7.76276 13.7876H9.25436C10.1672 13.7876 11.0166 13.5486 11.7279 13.1397C11.4284 12.8546 11.1635 12.5407 10.9504 12.1952C10.5732 11.6538 10.2651 10.9195 10.2651 9.95201C10.2651 9.93474 10.2651 9.91746 10.2651 9.90018C10.2651 9.88866 10.2651 9.87715 10.2651 9.86563C10.2651 9.84835 10.268 9.82819 10.2708 9.81092C10.3284 7.97089 11.4658 7.31148 12.4478 7.31148C13.4297 7.31148 14.5642 7.97377 14.6161 9.81667C14.6161 9.83395 14.6218 9.84835 14.6218 9.86563C14.6218 9.87715 14.6218 9.88578 14.6218 9.8973C14.6218 9.91458 14.6218 9.92898 14.6218 9.94625C14.6218 11.4177 13.9854 12.3363 13.4412 12.8575C13.3519 12.9554 13.2569 13.0504 13.159 13.1425C13.8703 13.5514 14.7197 13.7904 15.6325 13.7904C18.1205 13.7904 20.7149 11.8237 21 9.73605V6.62902C21 5.18062 19.7733 4.00001 18.2644 4.00001H5.73556C4.22668 3.99713 3 5.17774 3 6.62615V16.1977C3 17.6461 4.22668 18.8268 5.73556 18.8268H17.7317L19.0362 20.9259C19.2348 21.2456 19.5717 21.427 19.9317 21.427C20.0296 21.427 20.1304 21.4126 20.2283 21.3838C20.689 21.2513 20.9971 20.8424 20.9971 20.3644V11.8727C19.8453 13.4708 17.7346 14.6485 15.6297 14.6485V14.6514Z" fill="#FF8031"/>
<path d="M12.4439 8.17372C11.6318 8.17372 11.1423 8.82161 11.1279 9.9072C11.1366 10.5551 11.3237 11.1684 11.6549 11.704C11.9428 12.1187 12.2797 12.3836 12.4871 12.5189C12.5735 12.4614 12.6858 12.375 12.8067 12.2627C13.3884 11.609 13.7426 10.7912 13.7512 9.90144C13.7397 8.81873 13.253 8.17084 12.4439 8.17084V8.17372Z" fill="#FF8031"/>
</svg>
