<svg width="24" height="24" viewBox="0 0 24 24" fill="none" xmlns="http://www.w3.org/2000/svg">
<g clip-path="url(#clip0_796_1360)">
<path d="M4.07102 19.68C4.05324 19.6444 4.04139 19.6148 4.02954 19.5793C4.04139 19.6148 4.05324 19.6504 4.07102 19.68Z" fill="#FF8031"/>
<path d="M4.21919 19.8578C4.18956 19.8341 4.15993 19.7985 4.13623 19.7689C4.15993 19.7985 4.18956 19.8281 4.21919 19.8578Z" fill="#FF8031"/>
<path d="M4.4207 19.9644C4.38514 19.9526 4.34366 19.9348 4.30811 19.917C4.34366 19.9348 4.37922 19.9526 4.4207 19.9644Z" fill="#FF8031"/>
<path d="M4.53325 19.9882C4.49177 19.9882 4.45621 19.9763 4.42065 19.9644C4.45621 19.9763 4.49769 19.9822 4.53325 19.9882Z" fill="#606060"/>
<path d="M4.13641 19.7689C4.13641 19.7689 4.09493 19.7096 4.07715 19.68C4.09493 19.7155 4.1127 19.7393 4.13641 19.7689Z" fill="#606060"/>
<path d="M4.25479 19.8933C4.25479 19.8933 4.29035 19.9052 4.30813 19.917C4.2785 19.8993 4.24887 19.8815 4.21924 19.8578C4.23109 19.8696 4.23702 19.8815 4.25479 19.8933Z" fill="#606060"/>
<path d="M4.03567 19.5733C4.02381 19.5378 4.01789 19.4963 4.01196 19.4548C4.01196 19.4963 4.02381 19.5318 4.03567 19.5733Z" fill="#606060"/>
<path d="M8.74079 9.33335C9.06807 9.33335 9.33338 9.06804 9.33338 8.74076C9.33338 8.41348 9.06807 8.14816 8.74079 8.14816C8.41351 8.14816 8.14819 8.41348 8.14819 8.74076C8.14819 9.06804 8.41351 9.33335 8.74079 9.33335Z" fill="#FF8031"/>
<path d="M19.9999 19.4074C19.9999 19.4074 19.988 19.4489 19.988 19.4726C19.988 19.4489 19.9999 19.4311 19.9999 19.4074Z" fill="#FF8031"/>
<path d="M19.4074 4H4.59259C4.26667 4 4 4.26667 4 4.59259V19.4074C4 19.4074 4.00593 19.437 4.01185 19.4548C4 19.3244 4.0237 19.1822 4.10667 19.0637L4.59259 18.3704L5.18519 17.523L8.25481 13.1378C8.34963 13.0015 8.49778 12.9126 8.6637 12.8889C8.83556 12.8652 8.99556 12.9185 9.12593 13.0252L11.8163 15.3363L14.7319 9.64741C14.8326 9.44593 15.0519 9.31556 15.277 9.32741C15.5081 9.33333 15.7096 9.47556 15.8044 9.68296L18.8148 16.5689L19.4074 17.9259L19.9526 19.1644C19.9881 19.2415 20 19.3185 20 19.3956V4.59259C20 4.26667 19.7333 4 19.4074 4ZM8.74074 10.5185C7.76296 10.5185 6.96296 9.71852 6.96296 8.74074C6.96296 7.76296 7.76296 6.96296 8.74074 6.96296C9.71852 6.96296 10.5185 7.76296 10.5185 8.74074C10.5185 9.71852 9.71852 10.5185 8.74074 10.5185Z" fill="#FF8031"/>
<path d="M18.8622 19.6444L18.7555 19.4074L18.4948 18.8148L15.2118 11.3067L12.5214 16.5511C12.4385 16.7111 12.2844 16.8296 12.1066 16.8652C11.9288 16.9007 11.7451 16.8533 11.6088 16.7348L8.84734 14.3585L5.72438 18.8148L5.30957 19.4074L5.07253 19.7452C4.94808 19.9289 4.73475 20.0059 4.52734 19.9882C4.54512 19.9882 4.5629 20 4.5866 20H19.4014C19.1762 20 18.957 19.8696 18.8622 19.6444Z" fill="#FF8031"/>
<path d="M19.6445 19.9526C19.6445 19.9526 19.6742 19.9289 19.6919 19.923C19.6742 19.9348 19.6623 19.9467 19.6445 19.9526Z" fill="#606060"/>
<path d="M19.4075 20C19.4193 20 19.4371 19.9941 19.449 19.9882C19.4312 19.9882 19.4193 19.9941 19.4075 19.9941V20Z" fill="#606060"/>
</g>
<defs>
<clipPath id="clip0_796_1360">
<rect width="16" height="16" fill="white" transform="translate(4 4)"/>
</clipPath>
</defs>
</svg>
