<svg width="24" height="24" viewBox="0 0 24 24" fill="none" xmlns="http://www.w3.org/2000/svg">
<g clip-path="url(#clip0_796_1278)">
<path d="M19.4075 20C19.1764 20 18.9631 19.8696 18.8623 19.6444L15.212 11.3067L12.5216 16.5511C12.4386 16.7111 12.2845 16.8296 12.1068 16.8652C11.929 16.9007 11.7453 16.8533 11.609 16.7348L8.82973 14.3467L5.06677 19.3718C4.87121 19.6326 4.49788 19.6859 4.23714 19.4904C3.9764 19.2948 3.92306 18.9215 4.11862 18.6607L8.26677 13.1259C8.36751 12.9955 8.51566 12.9126 8.67565 12.8948C8.84158 12.877 9.00158 12.9304 9.12603 13.037L11.8164 15.3481L14.732 9.65925C14.8327 9.45777 15.052 9.3274 15.2771 9.33925C15.5082 9.34517 15.7097 9.48739 15.8045 9.6948L19.9527 19.1763C20.0831 19.4785 19.9527 19.8281 19.6445 19.9585C19.5675 19.9941 19.4845 20.0059 19.4075 20.0059V20Z" fill="#ACACAC"/>
<path d="M19.4074 20H4.59259C4.26667 20 4 19.7333 4 19.4074V4.59259C4 4.26667 4.26667 4 4.59259 4H19.4074C19.7333 4 20 4.26667 20 4.59259V19.4074C20 19.7333 19.7333 20 19.4074 20ZM5.18519 18.8148H18.8148V5.18519H5.18519V18.8148Z" fill="#ACACAC"/>
<path d="M8.74067 10.5185C7.76289 10.5185 6.96289 9.71851 6.96289 8.74073C6.96289 7.76295 7.76289 6.96295 8.74067 6.96295C9.71845 6.96295 10.5184 7.76295 10.5184 8.74073C10.5184 9.71851 9.71845 10.5185 8.74067 10.5185ZM8.74067 8.14814C8.41474 8.14814 8.14808 8.4148 8.14808 8.74073C8.14808 9.06666 8.41474 9.33332 8.74067 9.33332C9.06659 9.33332 9.33326 9.06666 9.33326 8.74073C9.33326 8.4148 9.06659 8.14814 8.74067 8.14814Z" fill="#ACACAC"/>
</g>
<defs>
<clipPath id="clip0_796_1278">
<rect width="16" height="16" fill="white" transform="translate(4 4)"/>
</clipPath>
</defs>
</svg>
