<svg width="25" height="24" viewBox="0 0 25 24" fill="none" xmlns="http://www.w3.org/2000/svg">
<path d="M18.5481 3.5H8.93601C8.70102 3.5 8.51132 3.68969 8.51132 3.92469C8.51132 4.15968 8.70102 4.34938 8.93601 4.34938H18.5453C19.4287 4.34938 20.145 5.06852 20.145 5.94904V9.5872H11.8975C11.6625 9.5872 11.4728 9.7769 11.4728 10.0119C11.4728 10.2469 11.6625 10.4366 11.8975 10.4366H20.145V18.1801C20.145 19.0634 19.4258 19.7797 18.5453 19.7797H7.97905C7.0957 19.7797 6.37939 19.0606 6.37939 18.1801V12.9337C6.37939 12.9083 6.37656 12.8828 6.37089 12.8601C6.34258 12.2259 6.11608 11.6285 5.74802 11.1302C6.13307 10.6093 6.35957 9.98075 6.35957 9.30125C6.35957 8.62174 6.13873 8.00736 5.76217 7.48924C6.13873 6.97112 6.35957 6.34824 6.35957 5.67724C6.35957 5.44224 6.16988 5.25255 5.93488 5.25255C5.69989 5.25255 5.51019 5.44224 5.51019 5.67724C5.51019 6.10759 5.38279 6.51246 5.16195 6.8607C5.11948 6.82673 5.07701 6.79275 5.03171 6.76161C4.64666 6.43601 3.98698 6.07078 2.95923 6.07078C2.9479 6.07078 2.93658 6.07078 2.92525 6.07078C2.91676 6.07078 2.9111 6.07078 2.9026 6.07078C2.89411 6.07078 2.88562 6.07078 2.87429 6.07078C1.49547 6.09909 1 6.84371 1 7.48358C1 8.12344 1.49547 8.86806 2.87146 8.89921C2.88279 8.89921 2.89128 8.90204 2.9026 8.90204C2.9111 8.90204 2.91959 8.90204 2.92809 8.90204C2.93941 8.90204 2.95074 8.90204 2.96489 8.90204C3.63024 8.90204 4.14553 8.73216 4.53058 8.51982C4.75708 8.40657 4.96659 8.26784 5.16195 8.11212C5.38279 8.46036 5.51019 8.86523 5.51019 9.29558C5.51019 9.72593 5.37995 10.1393 5.15345 10.4904C4.79388 10.145 4.10589 9.68913 2.95923 9.68913C2.9479 9.68913 2.93658 9.68913 2.92525 9.68913C2.91676 9.68913 2.9111 9.68913 2.9026 9.68913C2.89411 9.68913 2.88279 9.68913 2.87429 9.68913C1.49547 9.71744 1 10.4621 1 11.1019C1 11.7418 1.49547 12.4864 2.87146 12.5176C2.88279 12.5176 2.89128 12.5204 2.9026 12.5204C2.9111 12.5204 2.91959 12.5204 2.92809 12.5204C2.93941 12.5204 2.95074 12.5204 2.96489 12.5204C3.63024 12.5204 4.14553 12.3505 4.53058 12.1382C4.75425 12.0277 4.96093 11.8918 5.15062 11.739C5.39128 12.107 5.53284 12.5317 5.53284 12.9847V18.1687C5.53284 19.5193 6.63137 20.6178 7.98188 20.6178H18.551C19.9015 20.6178 21 19.5193 21 18.1687V5.94904C21 4.59853 19.9015 3.5 18.551 3.5H18.5481ZM1.84938 7.48641C1.84938 7.07871 2.39864 6.92865 2.92525 6.92299C3.52265 6.92865 4.06908 7.11835 4.50793 7.42979C4.52208 7.44111 4.53624 7.45244 4.54756 7.46376C4.44847 7.56285 4.30408 7.6761 4.11721 7.77803C3.76331 7.95074 3.35844 8.047 2.93092 8.05266C2.27407 8.04417 1.84938 7.82333 1.84938 7.48358V7.48641ZM1.84938 11.1104C1.84938 10.7027 2.39864 10.5527 2.92525 10.547C3.53114 10.5527 4.09173 10.7593 4.53907 11.0963C4.43998 11.1925 4.30125 11.3029 4.11721 11.4049C3.76331 11.5776 3.35844 11.6738 2.93092 11.6795C2.27407 11.671 1.84938 11.4502 1.84938 11.1104Z" fill="#ACACAC" stroke="#ACACAC" stroke-width="0.2"/>
</svg>
