<svg width="24" height="24" viewBox="0 0 24 24" fill="none" xmlns="http://www.w3.org/2000/svg">
<path d="M10.4757 10.0119C10.4757 9.7769 10.6653 9.5872 10.9003 9.5872H19.9972V5.94904C19.9972 4.59853 18.8986 3.5 17.5481 3.5H6.92809C5.75595 3.5 4.77916 4.34371 4.57248 5.4564C4.53284 5.52152 4.51019 5.59513 4.51019 5.67724C4.51019 6.10759 4.38279 6.51246 4.16195 6.8607C4.11948 6.82673 4.07701 6.79275 4.03171 6.76161C3.64666 6.43601 2.98698 6.07078 1.95923 6.07078C1.9479 6.07078 1.93658 6.07078 1.92525 6.07078C1.91676 6.07078 1.9111 6.07078 1.9026 6.07078C1.89411 6.07078 1.88562 6.07078 1.87429 6.07078C0.49547 6.09909 0 6.84371 0 7.48358C0 8.12344 0.49547 8.86806 1.87146 8.89921C1.88279 8.89921 1.89128 8.90204 1.9026 8.90204C1.9111 8.90204 1.91959 8.90204 1.92809 8.90204C1.93941 8.90204 1.95074 8.90204 1.96489 8.90204C2.63024 8.90204 3.14553 8.73216 3.53058 8.51982C3.75708 8.40657 3.96659 8.26784 4.16195 8.11212C4.38279 8.46036 4.51019 8.86523 4.51019 9.29558C4.51019 9.72593 4.37995 10.1393 4.15345 10.4904C3.79388 10.145 3.10589 9.68913 1.95923 9.68913C1.9479 9.68913 1.93658 9.68913 1.92525 9.68913C1.91676 9.68913 1.9111 9.68913 1.9026 9.68913C1.89411 9.68913 1.88279 9.68913 1.87429 9.68913C0.49547 9.71744 0 10.4621 0 11.1019C0 11.7418 0.49547 12.4864 1.87146 12.5176C1.88279 12.5176 1.89128 12.5204 1.9026 12.5204C1.9111 12.5204 1.91959 12.5204 1.92809 12.5204C1.93941 12.5204 1.95074 12.5204 1.96489 12.5204C2.63024 12.5204 3.14553 12.3505 3.53058 12.1382C3.75425 12.0277 3.96093 11.8918 4.15062 11.739C4.39128 12.107 4.53284 12.5317 4.53284 12.9847V18.1687C4.53284 19.5193 5.63137 20.6178 6.98188 20.6178H17.551C18.9015 20.6178 20 19.5193 20 18.1687V10.4253H10.9032C10.6682 10.4253 10.4785 10.2356 10.4785 10.0006L10.4757 10.0119ZM3.11721 7.78086C2.76331 7.95357 2.35844 8.04983 1.93092 8.05549C1.27407 8.047 0.849377 7.82616 0.849377 7.48641C0.849377 7.07871 1.39864 6.92865 1.92525 6.92299C2.52265 6.92865 3.06908 7.11835 3.50793 7.42979C3.52208 7.44111 3.53624 7.45244 3.54756 7.46376C3.44847 7.56285 3.30408 7.6761 3.11721 7.77803V7.78086ZM3.11721 11.4049C2.76331 11.5776 2.35844 11.6738 1.93092 11.6795C1.27407 11.671 0.849377 11.4502 0.849377 11.1104C0.849377 10.7027 1.39864 10.5527 1.92525 10.547C2.53114 10.5527 3.09173 10.7593 3.53907 11.0963C3.43998 11.1925 3.30125 11.3029 3.11721 11.4049Z" fill="#FF8031"/>
</svg>
