<svg width="24" height="24" viewBox="0 0 24 24" fill="none" xmlns="http://www.w3.org/2000/svg">
<mask id="mask0_1114_19620" style="mask-type:alpha" maskUnits="userSpaceOnUse" x="0" y="0" width="24" height="24">
<rect x="24" y="24" width="24" height="24" transform="rotate(-180 24 24)" fill="#D9D9D9"/>
</mask>
<g mask="url(#mask0_1114_19620)">
<path d="M14.575 10C15.025 10 15.3375 10.2042 15.5125 10.6125C15.6875 11.0208 15.6167 11.3833 15.3 11.7L12.7 14.3C12.6 14.4 12.4917 14.475 12.375 14.525C12.2584 14.575 12.1334 14.6 12 14.6C11.8667 14.6 11.7417 14.575 11.625 14.525C11.5084 14.475 11.4 14.4 11.3 14.3L8.70003 11.7C8.38336 11.3833 8.31253 11.0208 8.48753 10.6125C8.66253 10.2042 8.97503 10 9.42502 10L14.575 10Z" fill="#01992A"/>
</g>
</svg>
