<svg width="24" height="24" viewBox="0 0 24 24" fill="none" xmlns="http://www.w3.org/2000/svg">
<mask id="mask0_1114_19619" style="mask-type:alpha" maskUnits="userSpaceOnUse" x="0" y="0" width="24" height="24">
<rect width="24" height="24" fill="#D9D9D9"/>
</mask>
<g mask="url(#mask0_1114_19619)">
<path d="M9.42498 14C8.97498 14 8.66248 13.7958 8.48748 13.3875C8.31248 12.9792 8.38331 12.6167 8.69998 12.3L11.3 9.69999C11.4 9.59999 11.5083 9.52499 11.625 9.47499C11.7416 9.42499 11.8666 9.39999 12 9.39999C12.1333 9.39999 12.2583 9.42499 12.375 9.47499C12.4916 9.52499 12.6 9.59999 12.7 9.69999L15.3 12.3C15.6166 12.6167 15.6875 12.9792 15.5125 13.3875C15.3375 13.7958 15.025 14 14.575 14H9.42498Z" fill="#FF8031"/>
</g>
</svg>
