<svg width="24" height="24" viewBox="0 0 24 24" fill="none" xmlns="http://www.w3.org/2000/svg">
<path d="M15.1514 9.59998L12.5999 7.04853V15.4C12.5999 15.4207 12.5989 15.4412 12.5968 15.4613C12.5661 15.7639 12.3106 16 11.9999 16C11.6686 16 11.3999 15.7314 11.3999 15.4V7.04853L8.84841 9.60003C8.6141 9.83434 8.23419 9.83434 7.99988 9.60003C7.76556 9.36571 7.76556 8.98581 7.99988 8.7515L11.5756 5.17574C11.6882 5.06322 11.8408 5 11.9999 5C12.159 5 12.3116 5.06322 12.4242 5.17574L15.9998 8.75145C16.2342 8.98576 16.2342 9.36566 15.9998 9.59998C15.7655 9.83429 15.3857 9.83429 15.1514 9.59998Z" fill="black"/>
<path d="M5.6 14.4002C5.93137 14.4002 6.2 14.6688 6.2 15.0002V18.4002C6.2 18.5107 6.28954 18.6002 6.4 18.6002H17.6C17.7104 18.6002 17.8 18.5107 17.8 18.4002V15.0002C17.8 14.6688 18.0686 14.4002 18.4 14.4002C18.7314 14.4002 19 14.6688 19 15.0002V18.4002C19 19.1734 18.3732 19.8002 17.6 19.8002H6.4C5.6268 19.8002 5 19.1734 5 18.4002V15.0002C5 14.6688 5.26862 14.4002 5.6 14.4002Z" fill="black"/>
</svg>
