<svg width="24" height="24" viewBox="0 0 24 24" fill="none" xmlns="http://www.w3.org/2000/svg">
<path d="M19.5881 13.7294L19.5334 13.6657C19.1151 10.1324 17.1437 8.79083 16.0855 8.32061C16.1238 8.2781 16.1593 8.23294 16.1949 8.18778C16.7062 7.64849 17.2995 6.7054 17.2995 5.20176C17.2995 5.18582 17.2995 5.16988 17.2995 5.15129C17.2995 5.14066 17.2995 5.13003 17.2995 5.11675C17.2995 5.10081 17.2968 5.08753 17.2941 5.07424C17.2476 3.18009 16.1648 2.5 15.2351 2.5C14.3055 2.5 13.1626 3.20931 13.1626 5.20973C13.1626 7.02419 14.1223 8.04964 14.6828 8.49594C13.9828 8.9821 13.127 9.27433 12.2028 9.27433C11.2786 9.27433 10.4584 8.99804 9.76659 8.53048C10.2998 8.11074 11.2431 7.09857 11.2431 5.20176C11.2431 3.20931 10.1303 2.5 9.17872 2.5C8.22719 2.5 7.16356 3.18009 7.11161 5.06893C7.11161 5.08487 7.10614 5.10081 7.10614 5.11675C7.10614 5.13003 7.10614 5.14066 7.10614 5.15394C7.10614 5.17254 7.10614 5.19114 7.10614 5.20973C7.10614 6.17408 7.37957 6.91527 7.71862 7.46784C7.84166 7.68834 7.98384 7.89555 8.1397 8.0948C7.82252 8.16918 5.08004 8.92366 4.22695 12.6535C4.22148 12.6774 4.21601 12.7013 4.21054 12.7253C4.17773 12.8687 4.15039 13.0148 4.12578 13.1662C4.11757 13.2088 4.11211 13.2486 4.1039 13.2911C4.08476 13.4186 4.06562 13.5488 4.05195 13.6816C4.01914 13.7374 4 13.8012 4 13.8702C4 13.9685 4.00273 14.0695 4.0082 14.1678C3.92617 15.8893 4.56053 17.5656 5.82376 18.9204C6.70147 19.8635 7.83346 20.5808 9.06662 21.0192C9.12404 21.0404 9.18419 21.059 9.24161 21.0803C9.27716 21.0909 9.3127 21.1042 9.35098 21.1175C10.1166 21.3645 10.9314 21.5 11.779 21.5C11.7845 21.5 11.79 21.5 11.7954 21.5C11.8009 21.5 11.8064 21.5 11.8118 21.5C12.6595 21.5 13.4743 21.3645 14.2399 21.1175C14.2782 21.1068 14.3137 21.0935 14.3492 21.0803C14.4067 21.0617 14.4641 21.0404 14.5215 21.0218C15.7574 20.5861 16.8867 19.8662 17.7644 18.9231C19.0249 17.5682 19.6619 15.8946 19.5799 14.1704C19.5827 14.0721 19.5881 13.9739 19.5881 13.8756V13.7348V13.7294ZM11.7954 15.3845C10.7017 15.3845 9.81308 14.909 9.81308 14.3219C9.81308 13.7348 10.7017 13.2592 11.7954 13.2592C12.8891 13.2592 13.7778 13.7348 13.7778 14.3219C13.7778 14.909 12.8891 15.3845 11.7954 15.3845Z" fill="#FF8031"/>
</svg>
