<svg width="24" height="24" viewBox="0 0 24 24" fill="none" xmlns="http://www.w3.org/2000/svg">
<g clip-path="url(#clip0_796_1359)">
<path d="M12.0843 10.1317C8.39942 10.1317 5.40039 13.1308 5.40039 16.8156V17.0888C5.40039 19.2625 7.08589 20.7272 9.5909 20.7272H14.5718C17.0827 20.7272 18.7624 19.2625 18.7624 17.0888V16.8156C18.7624 13.1308 15.7633 10.1317 12.0785 10.1317H12.0843Z" fill="#FF8031"/>
<path d="M6.87074 7.37101C6.56851 6.84792 6.11517 6.45851 5.58046 6.2609C5.01668 6.05166 4.42966 6.09235 3.94145 6.37714C2.97665 6.9351 2.70929 8.29513 3.34862 9.40523C3.65085 9.92832 4.10419 10.3177 4.6389 10.5153C4.87719 10.6025 5.1213 10.649 5.35378 10.649C5.67926 10.649 5.99311 10.5676 6.27209 10.4049C7.24271 9.84695 7.51007 8.48692 6.87074 7.37682V7.37101Z" fill="#FF8031"/>
<path d="M11.9971 8.64966C13.1206 8.64966 14.0313 7.6088 14.0313 6.32483C14.0313 5.04086 13.1206 4 11.9971 4C10.8736 4 9.96289 5.04086 9.96289 6.32483C9.96289 7.6088 10.8736 8.64966 11.9971 8.64966Z" fill="#FF8031"/>
<path d="M20.965 7.41749C20.8604 6.82466 20.5349 6.33645 20.0467 6.05747C19.0761 5.4937 17.7626 5.94123 17.1232 7.05133C16.4839 8.16144 16.7513 9.52147 17.7219 10.0794C18.0067 10.2422 18.3205 10.3235 18.6402 10.3235C18.8785 10.3235 19.1168 10.277 19.3551 10.1899C19.884 9.99224 20.3431 9.60284 20.6453 9.07975C20.9476 8.55666 21.058 7.96383 20.965 7.41168V7.41749Z" fill="#FF8031"/>
</g>
<defs>
<clipPath id="clip0_796_1359">
<rect width="18" height="16.7213" fill="white" transform="translate(3 4)"/>
</clipPath>
</defs>
</svg>
