<svg width="24" height="24" viewBox="0 0 24 24" fill="none" xmlns="http://www.w3.org/2000/svg">
<path d="M19.963 13.8304C19.5785 10.1723 17.5045 8.7988 16.4044 8.32061C16.4437 8.2781 16.4802 8.23294 16.5167 8.18778C17.0415 7.64849 17.6505 6.7054 17.6505 5.20176C17.6505 5.18582 17.6505 5.16988 17.6505 5.15129C17.6505 5.14066 17.6505 5.13003 17.6505 5.11675C17.6505 5.10081 17.6477 5.08753 17.6448 5.07424C17.5971 3.18009 16.4858 2.5 15.5316 2.5C14.5774 2.5 13.4043 3.20931 13.4043 5.20973C13.4043 7.02419 14.3894 8.04964 14.9647 8.49594C14.2463 8.9821 13.3679 9.27433 12.4193 9.27433C11.4707 9.27433 10.6288 8.99804 9.91876 8.53048C10.466 8.11074 11.4342 7.09857 11.4342 5.20176C11.4342 3.20931 10.292 2.5 9.31537 2.5C8.33874 2.5 7.24704 3.18009 7.19371 5.06893C7.19371 5.08487 7.1881 5.10081 7.1881 5.11675C7.1881 5.13003 7.1881 5.14066 7.1881 5.15394C7.1881 5.17254 7.1881 5.19114 7.1881 5.20973C7.1881 6.17408 7.46874 6.91527 7.81674 7.46784C8.70077 9.01664 10.4323 10.0713 12.4193 10.0713C13.6878 10.0713 14.8496 9.64094 15.7561 8.92897C16.4746 9.16807 18.7337 10.2095 19.1238 13.9101C19.295 15.5227 18.7169 17.1113 17.5017 18.3838C16.1182 19.829 14.0638 20.6924 11.9983 20.6977C11.2434 20.6977 10.4913 20.5782 9.77282 20.363C9.69705 20.3391 9.62408 20.3152 9.55111 20.2912C9.54269 20.2886 9.53427 20.2859 9.52586 20.2833C6.89343 19.3588 4.98786 16.9918 4.85315 14.189C4.85877 14.0961 4.86438 14.0057 4.87561 13.9128C5.02996 12.4569 5.49021 11.2615 6.24234 10.3529C6.38546 10.1802 6.35459 9.93051 6.17217 9.79237C5.98976 9.65688 5.72595 9.6861 5.58002 9.85878C4.74932 10.8523 4.24135 12.1381 4.05332 13.679C4.01964 13.7374 4 13.8012 4 13.8702C4 13.9685 4.00281 14.0695 4.00842 14.1678C3.92423 15.8893 4.57532 17.5656 5.87189 18.9204C6.77275 19.8635 7.93461 20.5808 9.20031 21.0192C9.25924 21.0404 9.32099 21.059 9.37992 21.0803C9.4164 21.0909 9.45289 21.1042 9.49218 21.1175C10.278 21.3645 11.1143 21.5 11.9843 21.5C11.9899 21.5 11.9955 21.5 12.0011 21.5C12.0067 21.5 12.0123 21.5 12.018 21.5C12.0208 21.5 12.0264 21.5 12.0292 21.5C14.3192 21.4867 16.5952 20.5277 18.1304 18.9231C19.5083 17.4806 20.1622 15.6741 19.9658 13.8357L19.963 13.8304ZM9.31537 3.29698C10.1152 3.29698 10.5923 4.00895 10.5923 5.20176C10.5923 6.83557 9.75037 7.64849 9.35747 7.93806C9.1526 7.79195 8.83267 7.51566 8.55764 7.08529C8.22929 6.50881 8.04125 5.84732 8.03564 5.14863C8.05248 4.00629 8.5408 3.29698 9.31818 3.29698H9.31537ZM14.2463 5.20973C14.2463 4.0302 14.7374 3.29698 15.5316 3.29698C16.3258 3.29698 16.7917 3.9877 16.8085 5.14597C16.8029 6.10501 16.4493 6.987 15.8656 7.68834C15.7589 7.7946 15.6579 7.87961 15.5765 7.93806C15.1612 7.63786 14.2491 6.79572 14.2491 5.21239L14.2463 5.20973Z" fill="#ACACAC" stroke="#ACACAC" stroke-width="0.2"/>
<path d="M11.9988 15.387C13.1225 15.387 14.0334 14.9112 14.0334 14.3244C14.0334 13.7375 13.1225 13.2617 11.9988 13.2617C10.8751 13.2617 9.96411 13.7375 9.96411 14.3244C9.96411 14.9112 10.8751 15.387 11.9988 15.387Z" fill="#ACACAC"/>
</svg>
