<svg width="24" height="24" viewBox="0 0 24 24" fill="none" xmlns="http://www.w3.org/2000/svg">
<path d="M14.5739 20.7175H9.59407C7.08384 20.7175 5.40454 19.2532 5.40454 17.0799V16.8068C5.40454 13.1228 8.40287 10.1245 12.0869 10.1245C15.7709 10.1245 18.7692 13.1228 18.7692 16.8068V17.0799C18.7692 19.2532 17.0841 20.7175 14.5797 20.7175H14.5739ZM12.0811 11.2867C9.03624 11.2867 6.56087 13.762 6.56087 16.8068V17.0799C6.56087 18.9045 8.12396 19.5553 9.58826 19.5553H14.568C16.0323 19.5553 17.5954 18.9045 17.5954 17.0799V16.8068C17.5954 13.762 15.1201 11.2867 12.0752 11.2867H12.0811Z" fill="#ACACAC"/>
<path d="M5.35221 10.6417C5.11397 10.6417 4.87573 10.5952 4.6375 10.508C4.10872 10.3104 3.64967 9.92113 3.34752 9.39816C2.70834 8.29413 2.97563 6.93442 3.94602 6.37078C4.43412 6.08605 5.01519 6.05119 5.58464 6.25456C6.11342 6.45213 6.57247 6.84145 6.87462 7.36441C7.5138 8.47426 7.24651 9.83397 6.27612 10.3918C5.99139 10.5545 5.67761 10.6358 5.35802 10.6358L5.35221 10.6417ZM4.86992 7.28887C4.7479 7.28887 4.63168 7.31793 4.52709 7.37603C4.12034 7.61427 4.03899 8.27088 4.35277 8.81709C4.51547 9.09601 4.76533 9.31681 5.03262 9.4156C5.27086 9.50276 5.50329 9.49114 5.68342 9.38654C6.09018 9.1483 6.17153 8.49169 5.85775 7.94548C5.69505 7.66657 5.44519 7.44576 5.17789 7.34698C5.0733 7.3063 4.9629 7.28887 4.86411 7.28887H4.86992Z" fill="#ACACAC"/>
<path d="M11.994 8.64858C10.8725 8.64858 9.96021 7.60846 9.96021 6.32429C9.96021 5.04012 10.8725 4 11.994 4C13.1154 4 14.0277 5.04012 14.0277 6.32429C14.0277 7.60846 13.1154 8.64858 11.994 8.64858ZM11.994 5.16214C11.5233 5.16214 11.1223 5.69673 11.1223 6.32429C11.1223 6.95185 11.5233 7.48643 11.994 7.48643C12.4646 7.48643 12.8656 6.95185 12.8656 6.32429C12.8656 5.69673 12.4646 5.16214 11.994 5.16214Z" fill="#ACACAC"/>
<path d="M18.6412 10.3279C18.3158 10.3279 18.002 10.2465 17.7231 10.0838C16.7527 9.52016 16.4854 8.16626 17.1246 7.05642C17.7638 5.94657 19.077 5.49914 20.0474 6.06278C20.5355 6.3417 20.8609 6.8298 20.9655 7.42249C21.0643 7.98032 20.9481 8.57301 20.6459 9.09017C20.3438 9.61313 19.8905 10.0025 19.3559 10.2C19.1177 10.2872 18.8736 10.3337 18.6412 10.3337V10.3279ZM18.1299 7.63168C17.8161 8.17789 17.8916 8.84031 18.3042 9.07274C18.4901 9.17733 18.7226 9.18895 18.955 9.10179C19.2281 9.00301 19.4721 8.78801 19.6348 8.50329C19.7975 8.21856 19.8615 7.89897 19.815 7.61425C19.7743 7.36438 19.6465 7.16682 19.4605 7.06223C19.048 6.82399 18.4378 7.08547 18.1241 7.63168H18.1299Z" fill="#ACACAC"/>
</svg>
