<svg width="24" height="24" viewBox="0 0 24 24" fill="none" xmlns="http://www.w3.org/2000/svg">
<g clip-path="url(#clip0_796_1270)">
<path d="M21.4117 12.3294C21.2764 12.3294 21.1352 12.2823 21.0293 12.1882L11.9999 4.36469L2.97051 12.1823C2.72934 12.3941 2.35287 12.3706 2.1411 12.1235C1.92934 11.8765 1.95287 11.5059 2.19993 11.2941L11.6176 3.14116C11.8411 2.94705 12.1646 2.94705 12.3882 3.14116L21.7999 11.2941C22.047 11.5059 22.0705 11.8765 21.8587 12.1235C21.7411 12.2588 21.5764 12.3294 21.4117 12.3294Z" fill="#ACACAC"/>
<path d="M19.0589 20.5647H4.94126C4.61773 20.5647 4.35303 20.3 4.35303 19.9765V9.97648C4.35303 9.65295 4.61773 9.38824 4.94126 9.38824C5.26479 9.38824 5.5295 9.65295 5.5295 9.97648V19.3882H18.4707V9.97648C18.4707 9.65295 18.7354 9.38824 19.0589 9.38824C19.3824 9.38824 19.6471 9.65295 19.6471 9.97648V19.9765C19.6471 20.3 19.3824 20.5647 19.0589 20.5647Z" fill="#ACACAC"/>
<path d="M12.0001 17.6235C10.0531 17.6235 8.4707 16.0412 8.4707 14.0941C8.4707 13.7706 8.73541 13.5059 9.05894 13.5059C9.38247 13.5059 9.64717 13.7706 9.64717 14.0941C9.64717 15.3941 10.7001 16.4471 12.0001 16.4471C13.3001 16.4471 14.3531 15.3941 14.3531 14.0941C14.3531 13.7706 14.6178 13.5059 14.9413 13.5059C15.2648 13.5059 15.5295 13.7706 15.5295 14.0941C15.5295 16.0412 13.9472 17.6235 12.0001 17.6235Z" fill="#ACACAC"/>
</g>
<defs>
<clipPath id="clip0_796_1270">
<rect width="20" height="17.5647" fill="white" transform="translate(2 3)"/>
</clipPath>
</defs>
</svg>
