<svg width="18" height="19" viewBox="0 0 18 19" fill="none" xmlns="http://www.w3.org/2000/svg">
<path d="M8.9444 9.83215C7.93045 9.83215 7.32812 10.7523 7.32812 12.2929C7.32812 14.4328 8.42078 15.474 8.89597 15.8221C9.39539 15.4619 10.5728 14.3904 10.5728 12.305C10.5728 10.7795 9.94928 9.83215 8.94743 9.83215H8.9444Z" fill="#FF8031"/>
<path d="M17.5218 6.85455L10.191 0.446951C9.86111 0.129144 9.42828 -0.0161396 9.00454 0.00202085C8.57777 -0.0191663 8.14797 0.126117 7.81806 0.443924L0.484278 6.85455C0.172524 7.1542 0 7.56886 0 8.00168V17.0849C0 18.0595 0.850513 18.7738 1.76761 18.6709L1.77972 18.683L1.8796 18.6558C1.95527 18.6407 2.03094 18.6225 2.10963 18.5983L2.37296 18.5196L6.16244 17.4572L8.5021 16.6581C7.97242 16.307 6.41668 15.0449 6.41668 12.2936C6.41668 9.80865 7.77569 8.92484 8.94098 8.92484C10.1063 8.92484 11.4744 9.80865 11.4744 12.3057C11.4744 14.8028 9.95494 16.192 9.34656 16.6127L9.44947 16.643L11.8376 17.4572L15.627 18.5196L15.8904 18.5983C15.966 18.6255 16.0417 18.6437 16.1204 18.6558L16.2203 18.683L16.2324 18.6709C17.1495 18.7738 18 18.0565 18 17.0849V8.00168C18 7.56886 17.8244 7.1542 17.5157 6.85455H17.5218Z" fill="#FF8031"/>
</svg>
