<svg width="24" height="24" viewBox="0 0 24 24" fill="none" xmlns="http://www.w3.org/2000/svg">
<path d="M21.7911 11.2985L12.3793 3.14559C12.1558 2.95147 11.8323 2.95147 11.6087 3.14559L2.20286 11.2985C1.9558 11.5103 1.93227 11.8809 2.14403 12.1279C2.26168 12.2632 2.42638 12.3221 2.59109 12.3221L4.3558 12.3279V19.975C4.3558 20.2985 4.6205 20.5632 4.94403 20.5632H19.0617C19.3852 20.5632 19.6499 20.2985 19.6499 19.975V12.3279H21.4146C21.5793 12.3279 21.744 12.2574 21.8617 12.1221C22.0734 11.875 22.0499 11.5044 21.8029 11.2926L21.7911 11.2985ZM11.997 17.6279C10.0499 17.6279 8.46756 16.0456 8.46756 14.0985C8.46756 13.775 8.73227 13.5103 9.0558 13.5103C9.37933 13.5103 9.64403 13.775 9.64403 14.0985C9.64403 15.3985 10.697 16.4515 11.997 16.4515C13.297 16.4515 14.3499 15.3985 14.3499 14.0985C14.3499 13.775 14.6146 13.5103 14.9381 13.5103C15.2617 13.5103 15.5264 13.775 15.5264 14.0985C15.5264 16.0456 13.944 17.6279 11.997 17.6279Z" fill="#FF8031"/>
</svg>
