<svg width="24" height="24" viewBox="0 0 24 24" fill="none" xmlns="http://www.w3.org/2000/svg">
<path d="M20.3666 9.62908L13.2697 3.53983C12.5067 2.81718 11.3205 2.82294 10.5835 3.53983L3.59309 9.64923C3.21593 10.0149 3 10.5245 3 11.0513V19.6886C3 19.9275 3.1929 20.1204 3.43186 20.1204C3.67083 20.1204 3.86372 19.9275 3.86372 19.6886V11.0513C3.86372 10.7577 3.98464 10.4726 4.17754 10.2855L11.1679 4.17323C11.5883 3.7644 12.2505 3.76152 12.691 4.17898L19.7908 10.2682C20.0067 10.4727 20.1305 10.7606 20.1305 11.0571V19.6886C20.1305 20.0427 19.9635 20.3652 19.6756 20.5725C19.3877 20.7798 19.0278 20.8316 18.6795 20.7135L12.7399 18.9083C13.4079 18.3124 14.3522 17.1233 14.3522 15.1396C14.3522 12.7673 13.0537 11.9237 11.9424 11.9237C10.8311 11.9237 9.54127 12.7644 9.54127 15.1281C9.54127 17.2097 10.4798 18.3959 11.119 18.9631L9.18426 19.6252L5.01536 20.7941C4.78503 20.8575 4.65259 21.0964 4.71593 21.3268C4.77927 21.5571 5.01823 21.6895 5.24856 21.6262L9.4405 20.4515L11.9856 19.5821L18.4203 21.5369C18.6305 21.6089 18.8436 21.6435 19.0537 21.6435C19.4539 21.6435 19.8455 21.5197 20.1852 21.275C20.7035 20.9036 21 20.3249 21 19.6886V11.0571C21 10.5245 20.7783 10.0091 20.3752 9.6262L20.3666 9.62908ZM10.3992 15.131C10.3992 13.6655 10.975 12.7903 11.9367 12.7903C12.8983 12.7903 13.4827 13.6915 13.4827 15.1425C13.4827 17.1262 12.3628 18.1483 11.8877 18.488C11.4357 18.154 10.3964 17.1665 10.3964 15.131H10.3992Z" fill="#ACACAC" stroke="#ACACAC" stroke-width="0.2"/>
</svg>
