<svg width="24" height="24" viewBox="0 0 24 24" fill="none" xmlns="http://www.w3.org/2000/svg">
<path fill-rule="evenodd" clip-rule="evenodd" d="M12 17.95C14.7338 17.95 16.95 15.7338 16.95 13C16.95 10.2662 14.7338 8.05 12 8.05C9.26619 8.05 7.05 10.2662 7.05 13C7.05 15.7338 9.26619 17.95 12 17.95ZM12 16.3C13.8226 16.3 15.3 14.8226 15.3 13C15.3 11.1774 13.8226 9.7 12 9.7C10.1774 9.7 8.7 11.1774 8.7 13C8.7 14.8226 10.1774 16.3 12 16.3Z" fill="black"/>
<path fill-rule="evenodd" clip-rule="evenodd" d="M7.45259 3.10002L6.5 4.75H3.2C1.98497 4.75 1 5.73497 1 6.95V20.15C1 21.3651 1.98497 22.35 3.2 22.35H20.8C22.0151 22.35 23 21.3651 23 20.15V6.95C23 5.73497 22.0151 4.75 20.8 4.75H17.5L16.5474 3.10002C16.1545 2.41933 15.4282 2 14.6422 2H9.35785C8.57186 2 7.84558 2.41933 7.45259 3.10002ZM6.5 6.4C7.0895 6.4 7.63421 6.08551 7.92896 5.57499L8.88154 3.92501C8.97979 3.75483 9.16136 3.65 9.35785 3.65H14.6422C14.8387 3.65 15.0203 3.75483 15.1185 3.92501L16.0711 5.57499C16.3658 6.08551 16.9105 6.4 17.5 6.4H20.8C21.1037 6.4 21.35 6.64625 21.35 6.95V20.15C21.35 20.4537 21.1037 20.7 20.8 20.7H3.2C2.89625 20.7 2.65 20.4537 2.65 20.15V6.95C2.65 6.64625 2.89625 6.4 3.2 6.4H6.5Z" fill="black"/>
</svg>
