<svg width="24" height="24" viewBox="0 0 24 24" fill="none" xmlns="http://www.w3.org/2000/svg">
<path fill-rule="evenodd" clip-rule="evenodd" d="M15.843 5C17.2091 5 18.5195 5.54209 19.4864 6.50727C20.4532 7.47245 20.9976 8.78184 21 10.148C21 12.92 19.983 14.243 15.438 17.834L13.1037 19.6459C12.4542 20.15 11.5458 20.15 10.8963 19.6459L8.562 17.834C4.017 14.243 3 12.92 3 10.148C3.00238 8.78184 3.54676 7.47245 4.51363 6.50727C5.48049 5.54209 6.79083 5 8.157 5C9.55059 5.00662 10.8869 5.55534 11.883 6.53L12 6.64038L12.117 6.53C13.1131 5.55534 14.4494 5.00662 15.843 5ZM11.5075 8.0072L11.5333 8.03185C11.7943 8.28162 12.2056 8.28162 12.4666 8.03185L12.4926 8.00705C13.1701 7.35857 13.8728 6.68597 14.7754 6.43485C15.1212 6.33863 15.481 6.28772 15.846 6.28571C16.8705 6.28652 17.8529 6.69337 18.578 7.4172C19.3035 8.14142 19.7121 9.12381 19.7143 10.1489C19.7142 11.3211 19.5147 12.0633 18.885 12.9256C18.1813 13.8893 16.929 15.0171 14.6453 16.8218L12.3153 18.6302C12.1298 18.7743 11.8702 18.7743 11.6847 18.6302L9.3548 16.8218C7.07098 15.0172 5.81871 13.8893 5.11495 12.9256C4.4853 12.0634 4.28584 11.3212 4.28571 10.1492C4.28779 9.12401 4.69641 8.1415 5.42197 7.4172C6.14707 6.69337 7.12949 6.28652 8.15396 6.28571C8.51871 6.28772 8.87828 6.33857 9.22388 6.43465C10.1268 6.6857 10.8297 7.35853 11.5075 8.0072Z" fill="black"/>
</svg>
