<svg width="24" height="24" viewBox="0 0 24 24" fill="none" xmlns="http://www.w3.org/2000/svg">
<path d="M19.3705 6.34553C16.7189 3.91289 13.634 5.27577 12.073 6.55734C10.4576 5.28004 7.28346 3.91503 4.62962 6.34767C4.56648 6.40758 3.04907 7.83892 3.00117 10.0598C2.96634 11.6708 3.70654 13.2541 5.19783 14.7603C5.46996 15.0363 5.78564 15.3144 6.16445 15.6118L6.27766 15.6995C7.18331 16.412 9.30595 18.083 11.7508 19.893C11.8488 19.9658 11.962 20 12.0774 20C12.1927 20 12.3059 19.9658 12.4017 19.8952L12.8611 19.5593C12.8611 19.5593 12.8611 19.5593 12.8633 19.5593C14.5266 18.3354 16.0048 17.1159 16.9823 16.3093C17.3393 16.0141 17.6289 15.7744 17.8357 15.6118C18.221 15.308 18.528 15.0384 18.8001 14.7624C20.2936 13.2562 21.0316 11.673 20.999 10.0619C20.9511 7.84106 19.4358 6.40758 19.3683 6.34553H19.3705Z" fill="#FF8031"/>
</svg>
