<svg width="24" height="24" viewBox="0 0 24 24" fill="none" xmlns="http://www.w3.org/2000/svg">
<path d="M14.5725 10.9759C13.816 11.4597 12.9154 11.7453 11.947 11.7453C10.9787 11.7453 10.1104 11.4684 9.35982 10.9992C6.24577 12.0514 4 14.9746 4 18.408V21.0719H20V18.408C20 14.9484 17.7219 12.0076 14.5725 10.9759Z" fill="#FF8031"/>
<path d="M11.9501 3C11.6911 3 11.4379 3.02623 11.1936 3.07286C9.8809 3.34975 8.79775 4.25034 8.27384 5.4453C8.08252 5.9058 7.97656 6.4071 7.97656 6.93464C7.97656 8.67462 9.12152 10.1494 10.705 10.6682C11.0965 10.7964 11.5145 10.8693 11.9501 10.8693C12.3857 10.8693 12.8213 10.7935 13.2216 10.6594C14.7904 10.1319 15.9236 8.66296 15.9236 6.93464C15.9236 4.76621 14.1399 3 11.9501 3Z" fill="#FF8031"/>
</svg>
