<svg width="24" height="24" viewBox="0 0 24 24" fill="none" xmlns="http://www.w3.org/2000/svg">
<path d="M19.9822 17.8296C19.9793 17.7763 19.9733 17.7259 19.9674 17.6726C19.9556 17.5452 19.9437 17.4207 19.9289 17.2963C19.92 17.237 19.9111 17.1778 19.9022 17.1185C19.8844 17 19.8637 16.8815 19.84 16.763C19.8281 16.7037 19.8133 16.6474 19.8015 16.5881C19.7748 16.4696 19.7452 16.3511 19.7126 16.2356C19.6978 16.1822 19.683 16.1289 19.6652 16.0756C19.6296 15.9511 19.5881 15.8296 19.5467 15.7081C19.5319 15.6637 19.517 15.6193 19.4993 15.5748C19.4489 15.4385 19.3926 15.3022 19.3333 15.1689C19.3215 15.1422 19.3096 15.1156 19.2978 15.0889C18.6815 13.723 17.68 12.5378 16.3763 11.6874C16.1689 11.5541 15.8963 11.6133 15.76 11.8178C15.6267 12.0222 15.6859 12.2978 15.8904 12.4341C16.5304 12.8519 17.0904 13.3585 17.5526 13.9363C17.5526 13.9363 17.5556 13.9422 17.5585 13.9452C17.7244 14.1526 17.8815 14.3719 18.0267 14.6C18.2015 14.8756 18.3526 15.16 18.4859 15.4563C18.4978 15.483 18.5096 15.5126 18.5215 15.5393C18.5719 15.6548 18.6193 15.7704 18.6637 15.8889C18.6785 15.9304 18.6933 15.9719 18.7081 16.0163C18.7467 16.123 18.7793 16.2267 18.8119 16.3333C18.8267 16.3837 18.8415 16.4311 18.8533 16.4815C18.883 16.5852 18.9067 16.6859 18.9304 16.7896C18.9422 16.843 18.9541 16.8933 18.9659 16.9467C18.9867 17.0504 19.0044 17.1541 19.0222 17.2578C19.0311 17.3111 19.04 17.3644 19.0489 17.4178C19.0637 17.5274 19.0756 17.64 19.0844 17.7496C19.0874 17.797 19.0933 17.8444 19.0993 17.8919C19.1111 18.0489 19.117 18.2089 19.117 18.3689V20.1881H4.88889V18.3689C4.88889 14.4696 8.05926 11.2993 11.9585 11.2993H12.0385C12.0385 11.2993 12.0652 11.2993 12.08 11.2963C14.3289 11.2519 16.1452 9.41185 16.1452 7.15111C16.1452 4.89037 14.2874 3 12 3C9.71259 3 7.85185 4.86074 7.85185 7.14815C7.85185 7.70815 7.96148 8.25037 8.17778 8.76296C8.27259 8.98815 8.5363 9.09481 8.76148 9C8.98667 8.90519 9.09333 8.64444 8.99852 8.4163C8.82963 8.0163 8.7437 7.58963 8.7437 7.14815C8.7437 5.34963 10.2044 3.88889 12.003 3.88889C13.8015 3.88889 15.2622 5.34963 15.2622 7.14815C15.2622 8.94667 13.8015 10.4074 12.003 10.4074H11.9615C7.57037 10.4074 4 13.9778 4 18.3659V21.0741H20V18.3659C20 18.1852 19.9941 18.0074 19.9822 17.8296Z" fill="#ACACAC" stroke="#ACACAC" stroke-width="0.2"/>
</svg>
