<svg width="24" height="24" viewBox="0 0 24 24" fill="none" xmlns="http://www.w3.org/2000/svg">
<g clip-path="url(#clip0_796_1362)">
<path d="M11.9966 11.3336C14.0218 11.3336 15.6634 9.69193 15.6634 7.66681C15.6634 5.64169 14.0218 4 11.9966 4C9.97152 4 8.32983 5.64169 8.32983 7.66681C8.32983 9.69193 9.97152 11.3336 11.9966 11.3336Z" fill="#FF8031"/>
<path d="M12.5446 12.2063H11.4622C7.34207 12.2063 4 15.934 4 20.5142C4 20.8862 4.30444 21.1907 4.67653 21.1907H19.3235C19.6956 21.1907 20 20.8862 20 20.5142C20 15.934 16.6579 12.2131 12.5446 12.2131V12.2063Z" fill="#FF8031"/>
</g>
<defs>
<clipPath id="clip0_796_1362">
<rect width="16" height="17.1907" fill="white" transform="translate(4 4)"/>
</clipPath>
</defs>
</svg>
