<svg width="24" height="24" viewBox="0 0 24 24" fill="none" xmlns="http://www.w3.org/2000/svg">
<g clip-path="url(#clip0_796_1283)">
<path d="M11.9966 11.3336C9.97381 11.3336 8.32983 9.68964 8.32983 7.66681C8.32983 5.64397 9.97381 4 11.9966 4C14.0195 4 15.6634 5.64397 15.6634 7.66681C15.6634 9.68964 14.0195 11.3336 11.9966 11.3336ZM11.9966 5.35307C10.718 5.35307 9.6829 6.38816 9.6829 7.66681C9.6829 8.94546 10.718 9.98055 11.9966 9.98055C13.2753 9.98055 14.3104 8.94546 14.3104 7.66681C14.3104 6.38816 13.2753 5.35307 11.9966 5.35307Z" fill="#ACACAC"/>
<path d="M19.3235 21.1907H4.67653C4.30444 21.1907 4 20.8863 4 20.5142C4 15.934 7.34207 12.2131 11.4554 12.2131H12.5378C16.6512 12.2131 19.9932 15.9408 19.9932 20.5142C19.9932 20.8863 19.6888 21.1907 19.3167 21.1907H19.3235ZM5.38013 19.8376H18.6131C18.3154 16.3197 15.704 13.5662 12.5378 13.5662H11.4554C8.28922 13.5662 5.6778 16.3264 5.38013 19.8376Z" fill="#ACACAC"/>
</g>
<defs>
<clipPath id="clip0_796_1283">
<rect width="16" height="17.1907" fill="white" transform="translate(4 4)"/>
</clipPath>
</defs>
</svg>
