<svg width="24" height="24" viewBox="0 0 24 24" fill="none" xmlns="http://www.w3.org/2000/svg">
<g clip-path="url(#clip0_918_14808)">
<path d="M13.3783 14.2571C13.2688 14.3665 13.1198 14.4271 12.966 14.4271C12.9474 14.4271 12.9288 14.4271 12.9101 14.4247C12.7366 14.4084 12.5806 14.3153 12.4828 14.1709L10.8478 11.7488L9.78933 10.1802L8.57711 11.7488L8.30229 12.1051C8.19166 12.2472 8.02165 12.331 7.84115 12.331H3.17041C3.56983 13.0134 4.06939 13.7016 4.67259 14.3945C4.70171 14.4282 7.66299 17.7971 11.9995 20.5849C16.3372 17.7948 19.2973 14.4282 19.3276 14.3933C19.9297 13.7004 20.4292 13.0122 20.8286 12.331H15.3032L13.3771 14.2571H13.3783Z" fill="#FF8031"/>
<path d="M17.7963 3.11878C16.5585 2.82766 15.3311 3.07336 14.1503 3.84891C13.1896 4.47889 12.5794 5.26143 12.4665 5.41164C12.357 5.55837 12.1835 5.64454 12.0007 5.64454C11.8179 5.64454 11.6443 5.55837 11.5349 5.41164C11.4219 5.26143 10.8117 4.47889 9.85104 3.84891C8.98933 3.28413 8.10432 3 7.20883 3C6.87462 3 6.53925 3.03959 6.20388 3.11878C3.78409 3.68705 2.05599 5.81921 2.00126 8.30422C1.9803 9.2393 2.17826 10.1953 2.58467 11.1665H7.55701L9.36196 8.83057C9.47608 8.68268 9.64959 8.59651 9.84173 8.60466C10.028 8.61048 10.2016 8.70597 10.3052 8.86085L12.2545 11.7488L13.0545 12.9342L14.24 11.7488L14.6522 11.3365C14.7617 11.2271 14.9096 11.1665 15.0644 11.1665H21.4167C21.8243 10.1953 22.0211 9.23814 22.0001 8.30422C21.9454 5.82038 20.2173 3.68705 17.7975 3.11878H17.7963Z" fill="#FF8031"/>
</g>
<defs>
<clipPath id="clip0_918_14808">
<rect width="20" height="17.5849" fill="white" transform="translate(2 3)"/>
</clipPath>
</defs>
</svg>
