<svg width="24" height="24" viewBox="0 0 24 24" fill="none" xmlns="http://www.w3.org/2000/svg">
<g clip-path="url(#clip0_830_8036)">
<path d="M12.007 3.09753C11.4555 3.09753 11.01 3.543 11.01 4.09455L11.0029 11.003L4.08744 11.003C3.53589 11.003 3.09042 11.4485 3.09042 12C3.09042 12.5515 3.53589 12.997 4.08744 12.997L11.0029 12.997L11.0029 19.9125C11.0029 20.4641 11.4484 20.9095 12 20.9095C12.5515 20.9095 12.997 20.4641 12.997 19.9125L12.997 12.997L19.9125 12.997C20.464 12.997 20.9095 12.5515 20.9095 12C20.9095 11.4485 20.464 11.003 19.9125 11.003L12.997 11.003L12.997 4.08748C12.997 3.55008 12.5444 3.09753 12.007 3.09753Z" fill="black"/>
</g>
<defs>
<clipPath id="clip0_830_8036">
<rect width="24" height="24" fill="white"/>
</clipPath>
</defs>
</svg>
