<svg width="24" height="24" viewBox="0 0 24 24" fill="none" xmlns="http://www.w3.org/2000/svg">
<g clip-path="url(#clip0_1015_15152)">
<path d="M16.1218 10.0609C16.0253 9.9579 16.0253 9.79693 16.1218 9.69391L18.7038 6.88014C19.0064 6.54532 19.0837 6.08172 18.9034 5.66964C18.7231 5.25755 18.3304 5 17.8796 5H7.57751C6.70827 5 6 5.70827 6 6.57751V19.3393C6 19.6483 6.25111 19.9059 6.56662 19.9059C6.88212 19.9059 7.13323 19.6548 7.13323 19.3393V14.7548H17.8796C18.3304 14.7548 18.7231 14.4973 18.9034 14.0852C19.0837 13.6731 19.0064 13.2095 18.7038 12.8747L16.1218 10.0609ZM7.1268 8.78603V6.58395C7.1268 6.33284 7.3264 6.13323 7.57751 6.13323L17.8732 6.12036L15.2912 8.93413C14.7954 9.47499 14.7954 10.2863 15.2912 10.8271L17.8732 13.628H7.1268V8.78603Z" fill="black"/>
</g>
<defs>
<clipPath id="clip0_1015_15152">
<rect width="13" height="14.8995" fill="white" transform="translate(6 5)"/>
</clipPath>
</defs>
</svg>
