<svg width="24" height="24" viewBox="0 0 24 24" fill="none" xmlns="http://www.w3.org/2000/svg">
<g clip-path="url(#clip0_835_8211)">
<path d="M23.0892 18.0211C23.0608 17.9264 23.0371 17.8317 23.0182 17.7371L20.8169 7.39352C20.6418 6.52722 20.4193 5.70353 20.1495 4.95084C18.7246 0.922306 17.205 1.39096 17.1624 1.40516C15.7706 1.65132 15.3351 4.24549 15.212 5.34849C15.1884 5.54258 15.0463 5.68933 14.8759 5.69406L8.22481 5.82661C8.22481 5.82661 8.22481 5.82661 8.22007 5.82661C8.06386 5.82661 7.92184 5.69879 7.88397 5.51891C7.0366 1.36729 5.41762 1.59925 5.36554 1.61345C3.48146 1.74127 2.77611 6.46568 2.7477 6.66451L1.03404 17.2826L1.0009 17.5808C0.981966 17.7323 0.953563 17.8885 0.910958 18.059C0.773675 18.6081 0.527513 19.9904 1.17606 20.9182C1.52636 21.4153 2.08023 21.7088 2.81871 21.7845C2.84238 21.7845 3.03647 21.8224 3.34417 21.8224C3.97851 21.8224 5.08151 21.6851 6.12296 20.8756C6.20344 20.8188 7.56206 19.9004 9.18105 20.7478C9.35147 20.8378 9.51716 20.9466 9.69705 21.0886C9.95741 21.2969 10.6817 21.7845 11.6758 21.7845C11.7279 21.7845 12.9918 21.9265 14.3741 20.7194C14.4167 20.6815 15.3777 19.82 16.8499 20.53C17.0204 20.6105 17.1766 20.7147 17.3044 20.8046C17.792 21.1407 19.037 21.9123 20.0879 21.7893C21.3803 21.7419 22.2939 21.3632 22.8004 20.6579C23.5011 19.6874 23.1933 18.3951 23.0845 18.0258L23.0892 18.0211ZM22.5827 20.4922C22.1282 21.1218 21.2903 21.4674 20.0737 21.51C19.0843 21.6283 17.8299 20.8235 17.4701 20.5774C17.3328 20.4827 17.1624 20.3691 16.9778 20.2792C15.3304 19.4839 14.2037 20.5064 14.1942 20.5111C12.9161 21.633 11.7231 21.51 11.6995 21.5052C10.7716 21.5052 10.1136 21.0602 9.8722 20.8709C9.67811 20.7194 9.49822 20.5963 9.3136 20.5016C7.51946 19.5643 6.02829 20.6058 5.96201 20.6484C4.51818 21.7703 2.88972 21.51 2.86605 21.5052C2.20331 21.439 1.71572 21.1833 1.41275 20.7525C0.825748 19.9194 1.05771 18.6318 1.19026 18.1205C1.23286 17.9406 1.266 17.7749 1.28493 17.6092L3.03174 6.70238C3.03647 6.65504 3.73235 2.00163 5.40815 1.88328C5.40815 1.88328 5.42235 1.88328 5.44128 1.88328C5.65904 1.88328 6.90406 2.0395 7.62361 5.57098C7.68988 5.88342 7.94078 6.12011 8.23901 6.10117L14.8901 5.96862C15.1978 5.96389 15.4582 5.70826 15.4961 5.37689C15.586 4.56266 15.9789 1.89275 17.2381 1.67026C17.2523 1.67026 18.5778 1.30102 19.8986 5.04078C20.1589 5.77927 20.3814 6.58876 20.5566 7.4456L22.7578 17.7939C22.7815 17.898 22.8052 17.9974 22.8336 18.0968C22.933 18.4377 23.217 19.6211 22.5921 20.4874L22.5827 20.4922Z" fill="black" stroke="black" stroke-width="0.5" stroke-miterlimit="10"/>
<path d="M5.28499 3.78159C5.20925 3.78159 5.14771 3.84313 5.14771 3.91887V5.92603C5.14771 6.00178 5.20925 6.06332 5.28499 6.06332C5.36073 6.06332 5.42227 6.00178 5.42227 5.92603V3.91887C5.42227 3.84313 5.36073 3.78159 5.28499 3.78159Z" fill="black" stroke="black" stroke-width="0.5" stroke-miterlimit="10"/>
<path d="M17.4322 3.59695C17.3565 3.59695 17.2949 3.65849 17.2949 3.73424V5.7414C17.2949 5.81715 17.3565 5.87869 17.4322 5.87869C17.5079 5.87869 17.5695 5.81715 17.5695 5.7414V3.73424C17.5695 3.65849 17.5079 3.59695 17.4322 3.59695Z" fill="black" stroke="black" stroke-width="0.5" stroke-miterlimit="10"/>
<path d="M11.1078 12.8186C10.1042 12.8186 9.29468 13.2494 9.29468 13.7796C9.29468 14.3097 10.1042 14.7405 11.1078 14.7405C12.1113 14.7405 12.9208 14.3097 12.9208 13.7796C12.9208 13.2494 12.1066 12.8186 11.1078 12.8186Z" fill="black" stroke="black" stroke-width="0.5" stroke-miterlimit="10"/>
<path d="M8.28155 11.067C7.97858 11.067 7.73242 11.3132 7.73242 11.6161C7.73242 11.9191 7.97858 12.1653 8.28155 12.1653C8.58452 12.1653 8.83068 11.9191 8.83068 11.6161C8.83068 11.3132 8.58452 11.067 8.28155 11.067Z" fill="black" stroke="black" stroke-width="0.5" stroke-miterlimit="10"/>
<path d="M13.6734 11.067C13.3704 11.067 13.1243 11.3132 13.1243 11.6161C13.1243 11.9191 13.3704 12.1653 13.6734 12.1653C13.9764 12.1653 14.2225 11.9191 14.2225 11.6161C14.2225 11.3132 13.9764 11.067 13.6734 11.067Z" fill="black" stroke="black" stroke-width="0.5" stroke-miterlimit="10"/>
</g>
<defs>
<clipPath id="clip0_835_8211">
<rect width="22.7368" height="20.6729" fill="white" transform="translate(0.631592 1.26315)"/>
</clipPath>
</defs>
</svg>
