<svg width="24" height="24" viewBox="0 0 24 24" fill="none" xmlns="http://www.w3.org/2000/svg">
<g clip-path="url(#clip0_918_14810)">
<path d="M17.0576 2.72615L17.5836 3.25213L15.0239 5.81176L18.1862 8.97402L20.7458 6.4144L21.2718 6.94038C21.4379 7.10648 21.7083 7.10648 21.8744 6.94038C22.0405 6.77428 22.0405 6.50384 21.8744 6.33774L17.6602 2.12564C17.4941 1.95954 17.2237 1.95954 17.0576 2.12564C16.8915 2.29174 16.8915 2.56218 17.0576 2.72828V2.72615Z" fill="#FF8031"/>
<path d="M19.5106 11.3399L12.6601 4.49149C12.494 4.32539 12.2236 4.32539 12.0575 4.49149C11.8914 4.65759 11.8914 4.92803 12.0575 5.09413L13.0733 6.10989L10.733 8.45018L12.9689 10.6861C13.135 10.8522 13.135 11.1227 12.9689 11.2888C12.8028 11.4549 12.5324 11.4549 12.3663 11.2888L10.1303 9.05282L8.92504 10.2581L11.161 12.494C11.3271 12.6601 11.3271 12.9306 11.161 13.0967C10.9949 13.2628 10.7244 13.2628 10.5583 13.0967L8.3224 10.8607L3.80579 15.3773L4.4425 18.6567L2 21.0971V22.905L5.29642 19.6086L8.62479 20.1942L17.8922 10.9268L18.908 11.9425C19.0741 12.1086 19.3445 12.1086 19.5106 11.9425C19.6767 11.7764 19.6767 11.506 19.5106 11.3399Z" fill="#FF8031"/>
</g>
<defs>
<clipPath id="clip0_918_14810">
<rect width="20" height="20.905" fill="white" transform="translate(2 2)"/>
</clipPath>
</defs>
</svg>
