<svg width="60" height="60" viewBox="0 0 60 60" fill="none" xmlns="http://www.w3.org/2000/svg">
<g clip-path="url(#clip0_842_5875)">
<path d="M50.7984 20.357C53.3588 14.2857 50.4299 12.1423 50.4299 12.1423C48.238 9.99897 43.8543 12.86 43.8543 12.86C30.3443 5.00424 17.2028 13.2189 17.2028 13.2189C12.8191 10.7167 9.89983 12.86 9.89983 12.86C6.61204 16.0702 9.53129 21.4238 9.53129 21.4238C9.53129 21.4238 0.744444 40.6171 19.6468 47.4449C24.4573 49.1809 29.6557 49.6561 34.728 48.8997C43.7961 47.5322 57.3255 41.9749 50.7887 20.357H50.7984Z" fill="#FF8031"/>
<path d="M30.063 49.7337C26.4454 49.7337 22.857 49.113 19.4916 47.9007C13.944 45.8931 10.1907 42.6441 8.33831 38.2313C5.26388 30.9089 8.3868 22.8882 9.0075 21.4432C8.47409 20.3666 6.40831 15.6047 9.57002 12.5108C9.74459 12.3751 12.7414 10.2414 17.2027 12.6563C19.0939 11.5798 31.3529 5.20787 43.8542 12.2975C44.8726 11.6962 48.6356 9.70797 50.7693 11.8028C50.8468 11.8513 53.8631 14.1596 51.3124 20.386C53.8437 28.8625 53.5333 35.6903 50.3813 40.6753C46.7056 46.4944 39.8778 48.6184 34.8152 49.3845C33.2441 49.6173 31.6535 49.7434 30.0727 49.7434L30.063 49.7337ZM13.013 12.4817C11.2867 12.4817 10.2489 13.1994 10.181 13.2479C7.25207 16.1187 9.92886 21.1425 9.95796 21.191L10.0743 21.4044L9.97735 21.6274C9.93856 21.7147 6.06886 30.3464 9.23057 37.8627C10.9763 42.0137 14.5357 45.0881 19.8213 46.989C24.5057 48.6766 29.6362 49.1712 34.66 48.4244C39.5287 47.697 46.0752 45.6603 49.5569 40.1613C52.5732 35.3896 52.835 28.7849 50.3328 20.5024L50.2843 20.3375L50.3522 20.1727C52.709 14.5766 50.2455 12.6175 50.1486 12.5399C48.2186 10.6584 44.1743 13.2479 44.1355 13.2673L43.8833 13.4322L43.6215 13.2867C30.5285 5.67339 17.6004 13.5583 17.4646 13.6359L17.2221 13.791L16.97 13.6456C15.4279 12.763 14.0895 12.4914 13.0227 12.4914L13.013 12.4817Z" fill="black"/>
<path d="M48.306 33.3821C48.306 31.4909 47.307 29.8033 45.7262 28.6492C46.1432 26.4282 45.3188 24.1491 43.3403 22.7234C42.1183 21.8408 40.6442 21.4238 39.1506 21.4335C38.0062 19.7557 35.8143 18.6306 33.3024 18.6306C33.1666 18.6306 33.0211 18.6306 32.8854 18.6403C33.1472 17.3116 32.8175 16.1769 31.9737 15.8666C30.9748 15.498 29.5782 16.4194 28.7053 17.9614C27.3378 16.7297 25.6212 16.2642 24.8744 16.9334C24.3895 17.3698 24.438 18.1845 24.9229 19.0477C24.6125 19.0186 24.3022 18.9992 23.9821 18.9992C19.8312 18.9992 16.4755 21.7148 16.4755 25.0704C16.4755 25.2547 16.4852 25.439 16.5046 25.6136C13.8278 26.7289 11.9463 29.3184 11.9463 32.3346C11.9463 35.3509 13.8278 37.9501 16.5143 39.0654C16.4852 39.2788 16.4755 39.5018 16.4755 39.7249C16.4755 42.7411 18.9874 45.1851 22.0812 45.1851C22.6049 45.1851 23.119 45.1172 23.6039 44.9815C24.8356 46.2035 26.688 46.9794 28.7732 46.9794C30.9748 46.9794 32.9338 46.1065 34.1559 44.7681C34.9511 45.0397 35.824 45.1851 36.7357 45.1851C40.4308 45.1851 43.4276 42.7411 43.4276 39.7249C43.4276 39.5697 43.4179 39.4145 43.3985 39.2691C46.2596 38.3865 48.306 36.0879 48.306 33.3821Z" fill="white"/>
<path d="M31.4983 16.7588C31.5468 16.7588 31.5953 16.7588 31.6341 16.7782C31.9154 16.8849 32.0996 17.5541 31.9251 18.456L31.6826 19.6683L32.924 19.6102C33.0501 19.6102 33.1665 19.6005 33.2926 19.6005C35.3971 19.6005 37.3368 20.5121 38.3358 21.9863L38.6655 22.413H39.1796C40.5179 22.413 41.7594 22.801 42.768 23.5186C44.3876 24.6825 45.1344 26.5349 44.7659 28.4746L44.6495 29.0759L45.1441 29.4347C46.531 30.4434 47.3263 31.8788 47.3263 33.382C47.3263 35.5642 45.6291 37.5621 43.0977 38.338L42.3413 38.5707L42.4188 39.366C42.4285 39.4824 42.4382 39.6085 42.4382 39.7248C42.4382 42.198 39.8681 44.2153 36.7161 44.2153C35.9306 44.2153 35.1644 44.0892 34.4467 43.8467L33.8454 43.643L33.4186 44.1183C32.3421 45.3015 30.5964 46.0095 28.7537 46.0095C26.9109 46.0095 25.3592 45.3888 24.2633 44.2928L23.8656 43.8952L23.3225 44.0407C22.9055 44.1571 22.4884 44.2153 22.0617 44.2153C19.5013 44.2153 17.4258 42.198 17.4258 39.7248C17.4258 39.5503 17.4355 39.3757 17.4646 39.1817L17.5519 38.4543L16.873 38.1731C14.4678 37.1741 12.9063 34.8853 12.9063 32.3443C12.9063 29.8033 14.4581 27.5241 16.8633 26.5155L17.5325 26.2342L17.4549 25.5165C17.4355 25.3711 17.4258 25.2256 17.4258 25.0801C17.4258 22.2675 20.3548 19.9787 23.9626 19.9787C24.2439 19.9787 24.5348 19.9884 24.8064 20.0175L26.6685 20.2115L25.7568 18.5821C25.4659 18.0584 25.4756 17.7189 25.5144 17.6608C25.5338 17.6414 25.6307 17.6026 25.8053 17.6026C26.3193 17.6026 27.2116 17.942 28.0457 18.6888L28.9379 19.4938L29.5295 18.4463C30.1502 17.3504 31.0037 16.7588 31.4789 16.7588M31.4789 15.7889C30.5479 15.7889 29.4326 16.6521 28.6858 17.9614C27.745 17.1079 26.6394 16.6327 25.7956 16.6327C25.4174 16.6327 25.0876 16.7297 24.8549 16.9431C24.3699 17.3795 24.4184 18.1942 24.9034 19.0573C24.593 19.0282 24.2826 19.0088 23.9626 19.0088C19.8213 19.0088 16.456 21.7244 16.456 25.0801C16.456 25.2644 16.4657 25.4486 16.4851 25.6232C13.8083 26.7386 11.9268 29.3281 11.9268 32.3443C11.9268 35.3605 13.8083 37.9597 16.4948 39.075C16.4657 39.2884 16.456 39.5115 16.456 39.7345C16.456 42.7508 18.9679 45.1948 22.0617 45.1948C22.5854 45.1948 23.0994 45.1269 23.5844 44.9911C24.8161 46.2131 26.6782 46.989 28.7537 46.989C30.9552 46.989 32.9143 46.1162 34.1363 44.7778C34.9316 45.0493 35.8045 45.1948 36.7161 45.1948C40.4113 45.1948 43.4081 42.7508 43.4081 39.7345C43.4081 39.5794 43.4081 39.4242 43.379 39.2787C46.2401 38.3962 48.2864 36.0976 48.2864 33.3917C48.2864 31.5005 47.2875 29.813 45.7066 28.6589C46.1237 26.4379 45.2993 24.1587 43.3208 22.7331C42.1085 21.8602 40.644 21.4432 39.1602 21.4432C39.1505 21.4432 39.1311 21.4432 39.1214 21.4432C37.9769 19.7653 35.7851 18.6403 33.2732 18.6403C33.1374 18.6403 32.9919 18.6403 32.8561 18.65C33.118 17.3213 32.7882 16.1866 31.9445 15.8762C31.799 15.818 31.6341 15.7986 31.4692 15.7986L31.4789 15.7889Z" fill="black"/>
<path d="M28.5793 34.6913C28.5017 35.6806 27.6773 36.4565 26.6687 36.4565C25.6115 36.4565 24.7581 35.603 24.7581 34.5459C24.7581 33.4887 25.6115 32.6353 26.6687 32.6353C27.1245 32.6353 27.5415 32.7904 27.8713 33.062" fill="white"/>
<path d="M26.6686 36.8153C25.4174 36.8153 24.3894 35.797 24.3894 34.5362C24.3894 33.2754 25.4077 32.257 26.6686 32.257C27.1923 32.257 27.6966 32.4413 28.1039 32.7613L27.6481 33.3239C27.3668 33.1008 27.0274 32.9747 26.6686 32.9747C25.8151 32.9747 25.1168 33.673 25.1168 34.5265C25.1168 35.3799 25.8151 36.0782 26.6686 36.0782C27.4735 36.0782 28.1524 35.4478 28.2106 34.6526L28.938 34.7107C28.8507 35.8843 27.8518 36.8056 26.6686 36.8056V36.8153Z" fill="black"/>
<path d="M28.589 33.0038C28.7247 32.8777 28.9478 32.771 29.1806 32.7031C29.3745 32.6449 29.5685 32.6158 29.7334 32.6158C30.7905 32.6158 31.644 33.4693 31.644 34.5264C31.644 35.5836 30.7905 36.4371 29.7334 36.4371C28.812 36.4371 28.0361 35.7776 27.8616 34.9047" fill="white"/>
<path d="M29.7333 36.8153C28.6567 36.8153 27.716 36.0491 27.5026 34.992C27.4638 34.798 27.5899 34.604 27.7839 34.5652C27.9778 34.5167 28.1718 34.6525 28.2106 34.8465C28.3561 35.5642 28.9962 36.0879 29.7333 36.0879C30.5867 36.0879 31.285 35.3896 31.285 34.5361C31.285 33.6827 30.5867 32.9844 29.7333 32.9844C29.5975 32.9844 29.4326 33.0135 29.2774 33.0523C29.0835 33.1105 28.9186 33.188 28.8313 33.2656C28.6858 33.4014 28.4531 33.3917 28.3173 33.2462C28.1815 33.1008 28.1912 32.868 28.3367 32.7322C28.5695 32.5188 28.8992 32.4025 29.0738 32.354C30.6546 31.8884 32.0124 33.0717 32.0124 34.5361C32.0124 35.7872 30.9941 36.8153 29.7333 36.8153Z" fill="black"/>
<path d="M28.0167 33.576C28.863 33.576 29.5491 33.1852 29.5491 32.7031C29.5491 32.2211 28.863 31.8303 28.0167 31.8303C27.1704 31.8303 26.4844 32.2211 26.4844 32.7031C26.4844 33.1852 27.1704 33.576 28.0167 33.576Z" fill="black"/>
<path d="M36.1827 33.7894C37.5593 33.7894 38.6752 33.3595 38.6752 32.8292C38.6752 32.299 37.5593 31.8691 36.1827 31.8691C34.8061 31.8691 33.6902 32.299 33.6902 32.8292C33.6902 33.3595 34.8061 33.7894 36.1827 33.7894Z" fill="#F4CACA"/>
<path d="M21.315 33.9639C22.6916 33.9639 23.8075 33.5341 23.8075 33.0038C23.8075 32.4735 22.6916 32.0436 21.315 32.0436C19.9384 32.0436 18.8225 32.4735 18.8225 33.0038C18.8225 33.5341 19.9384 33.9639 21.315 33.9639Z" fill="#F4CACA"/>
<path d="M23.7396 31.1029C24.1627 31.1029 24.5058 30.7598 24.5058 30.3367C24.5058 29.9135 24.1627 29.5705 23.7396 29.5705C23.3164 29.5705 22.9734 29.9135 22.9734 30.3367C22.9734 30.7598 23.3164 31.1029 23.7396 31.1029Z" fill="black"/>
<path d="M33.3121 31.1029C33.7352 31.1029 34.0783 30.7598 34.0783 30.3367C34.0783 29.9135 33.7352 29.5705 33.3121 29.5705C32.8889 29.5705 32.5459 29.9135 32.5459 30.3367C32.5459 30.7598 32.8889 31.1029 33.3121 31.1029Z" fill="black"/>
<path d="M21.3344 49.8792C23.6804 49.8792 25.5823 48.4854 25.5823 46.766C25.5823 45.0466 23.6804 43.6528 21.3344 43.6528C18.9883 43.6528 17.0864 45.0466 17.0864 46.766C17.0864 48.4854 18.9883 49.8792 21.3344 49.8792Z" fill="white"/>
<path d="M21.3344 50.3641C18.7255 50.3641 16.6016 48.7445 16.6016 46.766C16.6016 44.7875 18.7255 43.1678 21.3344 43.1678C23.9433 43.1678 26.0673 44.7875 26.0673 46.766C26.0673 48.7445 23.9433 50.3641 21.3344 50.3641ZM21.3344 44.128C19.259 44.128 17.5714 45.3112 17.5714 46.7563C17.5714 48.2014 19.259 49.3846 21.3344 49.3846C23.4099 49.3846 25.0975 48.2014 25.0975 46.7563C25.0975 45.3112 23.4099 44.128 21.3344 44.128Z" fill="black"/>
<path d="M35.5136 49.8792C37.8596 49.8792 39.7615 48.4854 39.7615 46.766C39.7615 45.0466 37.8596 43.6528 35.5136 43.6528C33.1675 43.6528 31.2656 45.0466 31.2656 46.766C31.2656 48.4854 33.1675 49.8792 35.5136 49.8792Z" fill="white"/>
<path d="M35.5136 50.3641C32.9047 50.3641 30.7808 48.7445 30.7808 46.766C30.7808 44.7875 32.9047 43.1678 35.5136 43.1678C38.1225 43.1678 40.2465 44.7875 40.2465 46.766C40.2465 48.7445 38.1225 50.3641 35.5136 50.3641ZM35.5136 44.128C33.4382 44.128 31.7506 45.3112 31.7506 46.7563C31.7506 48.2014 33.4382 49.3846 35.5136 49.3846C37.5891 49.3846 39.2766 48.2014 39.2766 46.7563C39.2766 45.3112 37.5891 44.128 35.5136 44.128Z" fill="black"/>
</g>
<defs>
<clipPath id="clip0_842_5875">
<rect width="46" height="41.3641" fill="white" transform="translate(7 9)"/>
</clipPath>
</defs>
</svg>
