<svg width="60" height="60" viewBox="0 0 60 60" fill="none" xmlns="http://www.w3.org/2000/svg">
<g clip-path="url(#clip0_842_5806)">
<path d="M57.3122 46.2742C57.2422 46.041 57.184 45.8078 57.1373 45.5747L51.7157 20.0989C51.2843 17.9653 50.7363 15.9365 50.0717 14.0827C46.5623 4.16055 42.8196 5.31483 42.7147 5.34981C39.2868 5.95609 38.2141 12.3454 37.911 15.0621C37.8527 15.5401 37.5029 15.9015 37.0832 15.9132L20.7018 16.2397C20.7018 16.2397 20.7018 16.2397 20.6901 16.2397C20.3053 16.2397 19.9556 15.9249 19.8623 15.4818C17.7753 5.25653 13.7877 5.82784 13.6595 5.86282C9.01906 6.17762 7.28181 17.8137 7.21185 18.3034L2.99116 44.4554L2.90954 45.1899C2.8629 45.563 2.79295 45.9478 2.68801 46.3675C2.34989 47.72 1.7436 51.1245 3.34094 53.4098C4.20373 54.634 5.56788 55.3569 7.38674 55.5434C7.44504 55.5434 7.92307 55.6367 8.68093 55.6367C10.2433 55.6367 12.9599 55.2986 15.525 53.3048C15.7232 53.1649 19.0694 50.903 23.0569 52.99C23.4767 53.2116 23.8848 53.4797 24.3278 53.8295C24.9691 54.3425 26.753 55.5434 29.2014 55.5434C29.3297 55.5434 32.4427 55.8932 35.8473 52.9201C35.9522 52.8268 38.3191 50.7048 41.9451 52.4537C42.3649 52.6519 42.7496 52.9084 43.0644 53.1299C44.2654 53.9578 47.3318 55.8582 49.9202 55.5551C53.1032 55.4385 55.3534 54.5058 56.601 52.7685C58.3266 50.3783 57.5687 47.1953 57.3005 46.2859L57.3122 46.2742ZM56.0646 52.3604C54.9453 53.9111 52.8816 54.7623 49.8852 54.8672C47.4484 55.1587 44.3586 53.1766 43.4725 52.5703C43.1344 52.3371 42.7147 52.0573 42.2599 51.8358C38.2025 49.877 35.4275 52.3954 35.4042 52.4071C32.2562 55.1703 29.318 54.8672 29.2597 54.8555C26.9745 54.8555 25.3538 53.7595 24.7592 53.2932C24.2812 52.9201 23.8381 52.6169 23.3834 52.3837C18.9645 50.0752 15.2918 52.6403 15.1286 52.7452C11.5725 55.5085 7.56163 54.8672 7.50334 54.8555C5.87102 54.6923 4.67011 54.0627 3.92391 53.0017C2.47815 50.9496 3.04945 47.7783 3.37592 46.5191C3.48085 46.076 3.56247 45.6679 3.6091 45.2599L7.91142 18.3967C7.92308 18.2801 9.637 6.81889 13.7644 6.5274C13.7644 6.5274 13.7994 6.5274 13.846 6.5274C14.3824 6.5274 17.4488 6.91216 19.221 15.6101C19.3842 16.3796 20.0022 16.9625 20.7367 16.9159L37.1182 16.5894C37.876 16.5778 38.5173 15.9482 38.6106 15.132C38.8321 13.1266 39.7998 6.55072 42.9012 6.00273C42.9362 6.00273 46.2008 5.0933 49.4538 14.3042C50.0951 16.1231 50.643 18.1168 51.0744 20.2272L56.496 45.7146C56.5543 45.9711 56.6126 46.2159 56.6826 46.4608C56.9274 47.3003 57.627 50.2151 56.088 52.3488L56.0646 52.3604Z" fill="black" stroke="black" stroke-width="0.5" stroke-miterlimit="10"/>
<path d="M13.4612 11.2028C13.2746 11.2028 13.123 11.3544 13.123 11.5409V16.4845C13.123 16.6711 13.2746 16.8226 13.4612 16.8226C13.6477 16.8226 13.7993 16.6711 13.7993 16.4845V11.5409C13.7993 11.3544 13.6477 11.2028 13.4612 11.2028Z" fill="black" stroke="black" stroke-width="0.5" stroke-miterlimit="10"/>
<path d="M43.3791 10.748C43.1926 10.748 43.041 10.8996 43.041 11.0862V16.0297C43.041 16.2163 43.1926 16.3679 43.3791 16.3679C43.5657 16.3679 43.7173 16.2163 43.7173 16.0297V11.0862C43.7173 10.8996 43.5657 10.748 43.3791 10.748Z" fill="black" stroke="black" stroke-width="0.5" stroke-miterlimit="10"/>
<path d="M27.8022 33.4606C25.3304 33.4606 23.3367 34.5216 23.3367 35.8274C23.3367 37.1333 25.3304 38.1943 27.8022 38.1943C30.274 38.1943 32.2678 37.1333 32.2678 35.8274C32.2678 34.5216 30.2623 33.4606 27.8022 33.4606Z" fill="black" stroke="black" stroke-width="0.5" stroke-miterlimit="10"/>
<path d="M20.8415 29.1465C20.0953 29.1465 19.489 29.7528 19.489 30.499C19.489 31.2452 20.0953 31.8515 20.8415 31.8515C21.5877 31.8515 22.194 31.2452 22.194 30.499C22.194 29.7528 21.5877 29.1465 20.8415 29.1465Z" fill="black" stroke="black" stroke-width="0.5" stroke-miterlimit="10"/>
<path d="M34.1215 29.1465C33.3753 29.1465 32.769 29.7528 32.769 30.499C32.769 31.2452 33.3753 31.8515 34.1215 31.8515C34.8677 31.8515 35.474 31.2452 35.474 30.499C35.474 29.7528 34.8677 29.1465 34.1215 29.1465Z" fill="black" stroke="black" stroke-width="0.5" stroke-miterlimit="10"/>
<path d="M37.8292 35.3261C39.4841 35.3261 40.8257 34.8093 40.8257 34.1718C40.8257 33.5343 39.4841 33.0175 37.8292 33.0175C36.1743 33.0175 34.8328 33.5343 34.8328 34.1718C34.8328 34.8093 36.1743 35.3261 37.8292 35.3261Z" fill="#F4CACA"/>
<path d="M17.6237 35.5359C19.2786 35.5359 20.6201 35.0191 20.6201 34.3816C20.6201 33.7441 19.2786 33.2274 17.6237 33.2274C15.9688 33.2274 14.6272 33.7441 14.6272 34.3816C14.6272 35.0191 15.9688 35.5359 17.6237 35.5359Z" fill="#F4CACA"/>
</g>
<defs>
<clipPath id="clip0_842_5806">
<rect width="56" height="50.9165" fill="white" transform="translate(2 5)"/>
</clipPath>
</defs>
</svg>
