<svg width="48" height="48" viewBox="0 0 48 48" fill="none" xmlns="http://www.w3.org/2000/svg">
<circle cx="24" cy="24" r="24" fill="#5585EC"/>
<g clip-path="url(#clip0_936_25770)">
<path fill-rule="evenodd" clip-rule="evenodd" d="M33.8145 22.1818H24.2043V26.0499H29.6962C29.4597 27.3 28.7407 28.3589 27.6602 29.0683C26.746 29.6684 25.578 30.0226 24.2043 30.0226C21.5463 30.0226 19.2968 28.2638 18.4941 25.9001C18.2903 25.3 18.174 24.6594 18.174 24C18.174 23.3406 18.2903 22.7 18.4941 22.0999C19.2968 19.7362 21.5463 17.9774 24.2043 17.9774C25.702 17.9774 27.0478 18.4823 28.1053 19.4724L31.0324 16.6039C29.2646 14.9911 26.9546 14 24.2043 14C20.2149 14 16.7647 16.2412 15.0853 19.5092C14.3941 20.8592 14 22.3862 14 24C14 25.6138 14.3941 27.1408 15.0853 28.4908C16.7647 31.7588 20.2149 34 24.2043 34C26.9594 34 29.2694 33.1041 30.9575 31.577C32.8868 29.8361 34 27.2727 34 24.227C34 23.5177 33.9346 22.8366 33.8145 22.1818Z" fill="white"/>
</g>
<defs>
<clipPath id="clip0_936_25770">
<rect width="20" height="20" fill="white" transform="translate(14 14)"/>
</clipPath>
</defs>
</svg>
