<svg width="16" height="16" viewBox="0 0 16 16" fill="none" xmlns="http://www.w3.org/2000/svg">
<path d="M8 0L9.65644 1.81807L12 1.0718L12.5255 3.47452L14.9282 4L14.1819 6.34356L16 8L14.1819 9.65644L14.9282 12L12.5255 12.5255L12 14.9282L9.65644 14.1819L8 16L6.34356 14.1819L4 14.9282L3.47452 12.5255L1.0718 12L1.81807 9.65644L0 8L1.81807 6.34356L1.0718 4L3.47452 3.47452L4 1.0718L6.34356 1.81807L8 0Z" fill="#40BD2B"/>
<g clip-path="url(#clip0_796_1267)">
<path d="M6.79996 9.66803L5.41196 8.28003C5.25596 8.12403 5.00396 8.12403 4.84796 8.28003C4.69196 8.43603 4.69196 8.68803 4.84796 8.84403L6.51996 10.516C6.67596 10.672 6.92796 10.672 7.08396 10.516L11.316 6.28403C11.472 6.12803 11.472 5.87603 11.316 5.72003C11.16 5.56403 10.908 5.56403 10.752 5.72003L6.79996 9.66803Z" fill="white"/>
</g>
<defs>
<clipPath id="clip0_796_1267">
<rect width="9.6" height="9.6" fill="white" transform="translate(3.19995 3.20001)"/>
</clipPath>
</defs>
</svg>
