<svg width="48" height="48" viewBox="0 0 48 48" fill="none" xmlns="http://www.w3.org/2000/svg">
<circle cx="24" cy="24" r="24" fill="#58B0E3"/>
<g clip-path="url(#clip0_1114_17846)">
<path d="M37 18.1208C35.2782 18.8542 34.3857 18.8225 34.3857 18.8225C35.8526 18.0257 36.3306 16.3673 36.3306 16.3673C34.7685 17.3239 33.4931 17.4514 33.4931 17.4514C33.4931 17.4514 31.1522 14.9383 28.073 16.5264C25.044 18.0885 25.7452 21.5643 25.7452 21.5643C19.5592 21.468 16.562 16.8453 16.562 16.8453C14.4897 20.3846 17.9009 22.8715 17.9009 22.8715C16.6894 22.8075 15.8286 22.3295 15.8286 22.3295C15.956 26.1553 19.4312 26.7613 19.4312 26.7613C18.0923 27.1442 17.4223 26.8253 17.4223 26.8253C18.538 30.0774 21.5669 29.9817 21.5669 29.9817C18.7624 32.4363 15 31.8625 15 31.8625C18.5709 34.3495 24.7886 34.7324 29.1029 31.6705C34.6778 27.7148 34.8239 22.3164 34.6865 20.4473C35.9539 19.7039 37 18.1202 37 18.1202V18.1208Z" fill="white"/>
</g>
<defs>
<clipPath id="clip0_1114_17846">
<rect width="22" height="17.8479" fill="white" transform="translate(15 16)"/>
</clipPath>
</defs>
</svg>
