<svg width="48" height="48" viewBox="0 0 48 48" fill="none" xmlns="http://www.w3.org/2000/svg">
<circle cx="24" cy="24" r="24" fill="#EFEFEF"/>
<mask id="mask0_1114_17873" style="mask-type:alpha" maskUnits="userSpaceOnUse" x="12" y="12" width="24" height="24">
<rect x="12" y="12" width="24" height="24" fill="#D9D9D9"/>
</mask>
<g mask="url(#mask0_1114_17873)">
<path d="M16.3077 31.5C15.8026 31.5 15.375 31.325 15.025 30.975C14.675 30.625 14.5 30.1974 14.5 29.6922V18.3077C14.5 17.8026 14.675 17.375 15.025 17.025C15.375 16.675 15.8026 16.5 16.3077 16.5H31.6923C32.1974 16.5 32.625 16.675 32.975 17.025C33.325 17.375 33.5 17.8026 33.5 18.3077V29.6922C33.5 30.1974 33.325 30.625 32.975 30.975C32.625 31.325 32.1974 31.5 31.6923 31.5H16.3077ZM24 24.3922C24.0833 24.3922 24.166 24.3797 24.2481 24.3547C24.3301 24.3297 24.4096 24.2955 24.4865 24.2519L31.6385 19.673C31.7526 19.6025 31.8333 19.5112 31.8808 19.399C31.9282 19.2868 31.9423 19.1685 31.9231 19.0442C31.9102 18.8134 31.7974 18.6419 31.5846 18.5298C31.3718 18.4176 31.157 18.4275 30.9404 18.5596L24 23L17.0596 18.5596C16.8429 18.4275 16.6298 18.4169 16.4202 18.5278C16.2106 18.6387 16.0961 18.8076 16.0769 19.0345C16.0577 19.1692 16.0718 19.2942 16.1192 19.4095C16.1666 19.5249 16.2474 19.6127 16.3615 19.673L23.5135 24.2519C23.5904 24.2955 23.6699 24.3297 23.7519 24.3547C23.834 24.3797 23.9166 24.3922 24 24.3922Z" fill="#171A19"/>
</g>
</svg>
