<svg width="48" height="48" viewBox="0 0 48 48" fill="none" xmlns="http://www.w3.org/2000/svg">
<circle cx="24" cy="24" r="24" fill="#F8E54D"/>
<g clip-path="url(#clip0_936_25773)">
<path d="M21.6794 21.0186L20.8923 23.3756H22.4985L21.6972 21.0186C21.6972 21.0081 21.6794 21.0081 21.6759 21.0186H21.6794Z" fill="#1C1C1B"/>
<path d="M23.9734 14.0001C17.9 14.0176 12.9858 17.8755 13 22.62C13.0107 25.6685 15.0529 28.3421 18.1269 29.8558L17.1022 33.6857C17.0632 33.7978 17.0951 33.924 17.1802 34.0046C17.2405 34.0642 17.322 34.0957 17.4036 34.0957C17.4709 34.0957 17.5419 34.0747 17.5986 34.0291L22.0482 31.0402C22.69 31.1278 23.353 31.1768 24.0266 31.1733C30.1001 31.1558 35.0142 27.2979 35 22.5534C34.9858 17.816 30.0505 13.9825 23.9734 14.0001ZM18.4531 24.8766C18.4531 25.213 18.2545 25.4197 17.9283 25.4232C17.6021 25.4267 17.4036 25.2165 17.4 24.8801L17.3894 21.1027H16.2832C15.9357 21.1062 15.8116 20.854 15.8116 20.6332C15.8116 20.4019 15.9747 20.1602 16.2796 20.1566L19.5451 20.1461C19.85 20.1461 20.0166 20.3879 20.0166 20.6192C20.0166 20.8504 19.8961 21.0922 19.5451 21.0922H18.4389L18.4495 24.8731L18.4531 24.8766ZM23.5444 25.4057C23.2821 25.4057 23.1119 25.2901 23.0303 25.0448L22.7999 24.3335L20.6016 24.3405L20.3676 25.0448C20.2861 25.2971 20.1265 25.4162 19.8642 25.4162C19.5734 25.4162 19.3465 25.206 19.3465 24.9361C19.3465 24.831 19.3784 24.7469 19.3926 24.7084L20.9066 20.7068C21.0165 20.4124 21.2788 20.1006 21.6866 20.0971C22.0482 20.0971 22.3319 20.3143 22.4737 20.6998L23.9663 24.6874C24.0124 24.8135 24.0266 24.9151 24.0266 24.9537C24.0266 25.206 23.8174 25.4022 23.548 25.4057H23.5444ZM27.5863 24.8801C27.5792 25.1008 27.402 25.3356 27.0864 25.3356L25.1257 25.3426C24.7818 25.3426 24.5762 25.1289 24.5726 24.768L24.562 20.6332C24.562 20.2968 24.7605 20.0901 25.0867 20.0901C25.4129 20.0901 25.615 20.2968 25.615 20.6332L25.6257 24.4H27.0829C27.2389 24.3965 27.3701 24.4456 27.4622 24.5402C27.5473 24.6313 27.5934 24.7574 27.5863 24.8871V24.8801ZM31.9686 24.9712C31.9296 25.3496 31.5573 25.3812 31.4439 25.3812C31.4155 25.3812 31.3907 25.3812 31.3623 25.3777C31.1673 25.3601 31.0574 25.2375 30.8553 24.9677L29.469 23.1105L29.0932 23.4925V24.8941C29.0967 25.1779 28.8734 25.3917 28.572 25.3917C28.2564 25.3917 28.0437 25.1919 28.0437 24.8976L28.0295 20.5947C28.0295 20.2968 28.2493 20.0831 28.5543 20.0796C28.8592 20.0761 29.079 20.2828 29.0825 20.5911V22.2591L30.9333 20.3459C31.0149 20.2653 31.1496 20.1566 31.3517 20.1531C31.607 20.1602 31.8622 20.3248 31.8551 20.6297C31.8551 20.7734 31.7701 20.868 31.5963 21.0572C31.5573 21.0992 31.5148 21.1483 31.4687 21.2008L30.2065 22.4658L31.7098 24.4C31.8658 24.5998 31.9934 24.7645 31.9651 24.9747L31.9686 24.9712Z" fill="#1C1C1B"/>
</g>
<defs>
<clipPath id="clip0_936_25773">
<rect width="22" height="20" fill="white" transform="translate(13 14)"/>
</clipPath>
</defs>
</svg>
