<svg width="30" height="30" viewBox="0 0 30 30" fill="none" xmlns="http://www.w3.org/2000/svg">
<path d="M24.3387 5.45375C23.7537 4.86875 22.8087 4.86875 22.2237 5.45375L14.8887 12.7737L7.55375 5.43875C6.96875 4.85375 6.02375 4.85375 5.43875 5.43875C4.85375 6.02375 4.85375 6.96875 5.43875 7.55375L12.7737 14.8887L5.43875 22.2237C4.85375 22.8087 4.85375 23.7537 5.43875 24.3387C6.02375 24.9237 6.96875 24.9237 7.55375 24.3387L14.8887 17.0037L22.2237 24.3387C22.8087 24.9237 23.7537 24.9237 24.3387 24.3387C24.9237 23.7537 24.9237 22.8087 24.3387 22.2237L17.0037 14.8887L24.3387 7.55375C24.9087 6.98375 24.9087 6.02375 24.3387 5.45375Z" fill="black"/>
</svg>
