<svg width="30" height="30" viewBox="0 0 30 30" fill="none" xmlns="http://www.w3.org/2000/svg">
<path d="M15 0L18.1058 3.40889L22.5 2.00962L23.4853 6.51472L27.9904 7.5L26.5911 11.8942L30 15L26.5911 18.1058L27.9904 22.5L23.4853 23.4853L22.5 27.9904L18.1058 26.5911L15 30L11.8942 26.5911L7.5 27.9904L6.51472 23.4853L2.00962 22.5L3.40889 18.1058L0 15L3.40889 11.8942L2.00962 7.5L6.51472 6.51472L7.5 2.00962L11.8942 3.40889L15 0Z" fill="#38B023"/>
<path d="M12.75 18.1275L10.1475 15.525C9.85498 15.2325 9.38248 15.2325 9.08998 15.525C8.79748 15.8175 8.79748 16.29 9.08998 16.5825L12.225 19.7175C12.5175 20.01 12.99 20.01 13.2825 19.7175L21.2175 11.7825C21.51 11.49 21.51 11.0175 21.2175 10.725C20.925 10.4325 20.4525 10.4325 20.16 10.725L12.75 18.1275Z" fill="white"/>
</svg>
