<svg width="30" height="30" viewBox="0 0 30 30" fill="none" xmlns="http://www.w3.org/2000/svg">
<path d="M12.375 12C12.375 13.0356 11.5355 13.875 10.5 13.875C9.46446 13.875 8.625 13.0356 8.625 12C8.625 10.9645 9.46446 10.125 10.5 10.125C11.5355 10.125 12.375 10.9645 12.375 12Z" fill="black"/>
<path d="M19.5 13.875C20.5356 13.875 21.375 13.0356 21.375 12C21.375 10.9645 20.5356 10.125 19.5 10.125C18.4644 10.125 17.625 10.9645 17.625 12C17.625 13.0356 18.4644 13.875 19.5 13.875Z" fill="black"/>
<path d="M9.8027 18C10.3405 17.6889 11.021 17.8846 11.4464 18.3375C12.3365 19.285 13.5998 19.875 15 19.875C16.4003 19.875 17.6636 19.285 18.5537 18.3375C18.9791 17.8846 19.6595 17.6889 20.1974 18C20.7351 18.3111 20.9252 19.0065 20.5334 19.4887C19.2281 21.0957 17.2347 22.125 15 22.125C12.7653 22.125 10.7719 21.0957 9.46664 19.4887C9.07492 19.0065 9.26489 18.3111 9.8027 18Z" fill="black"/>
<path fill-rule="evenodd" clip-rule="evenodd" d="M15 30C23.2842 30 30 23.2842 30 15C30 6.71572 23.2842 0 15 0C6.71572 0 0 6.71572 0 15C0 23.2842 6.71572 30 15 30ZM15 27.75C22.0416 27.75 27.75 22.0416 27.75 15C27.75 7.95837 22.0416 2.25 15 2.25C7.95837 2.25 2.25 7.95837 2.25 15C2.25 22.0416 7.95837 27.75 15 27.75Z" fill="black"/>
</svg>
