<svg width="30" height="30" viewBox="0 0 30 30" fill="none" xmlns="http://www.w3.org/2000/svg">
<circle cx="15" cy="15" r="14.5" transform="rotate(-180 15 15)" fill="white" stroke="#585858"/>
<g mask="url(#mask0_1297_35107)">
<path d="M15.4143 9.70044C15.548 9.83409 15.6167 9.97207 15.6206 10.1144C15.6244 10.2567 15.5595 10.3947 15.4259 10.5283L11.5561 14.398L20.1119 14.398C20.2715 14.398 20.4114 14.4581 20.5316 14.5783C20.6518 14.6985 20.7119 14.8384 20.7119 14.998C20.7119 15.1576 20.6518 15.2975 20.5316 15.4177C20.4114 15.5379 20.2715 15.598 20.1119 15.598L11.5561 15.598L15.4259 19.449C15.5595 19.5826 15.6244 19.7237 15.6206 19.8723C15.6167 20.0209 15.548 20.162 15.4143 20.2956C15.2807 20.4293 15.1427 20.4961 15.0004 20.4961C14.8581 20.4961 14.7201 20.4293 14.5865 20.2956L9.80089 15.51C9.71821 15.435 9.65931 15.3535 9.62421 15.2656C9.58913 15.1776 9.57158 15.0884 9.57158 14.998C9.57158 14.9125 9.58913 14.8264 9.62421 14.7399C9.65931 14.6533 9.71821 14.5687 9.80089 14.486L14.5865 9.70044C14.7201 9.56679 14.8581 9.49997 15.0004 9.49997C15.1427 9.49997 15.2807 9.56679 15.4143 9.70044Z" fill="#585858"/>
</g>
</svg>
