            <svg width="30" height="30" viewBox="0 0 30 30" fill="none" xmlns="http://www.w3.org/2000/svg">
              <circle cx="15" cy="15" r="14.5" fill="white" stroke="#585858" />
              <path
                d="M14.5857 20.2976C14.452 20.164 14.3833 20.026 14.3794 19.8837C14.3756 19.7414 14.4405 19.6034 14.5741 19.4697L18.4439 15.6H9.88807C9.72845 15.6 9.58855 15.5399 9.46837 15.4197C9.34818 15.2995 9.28809 15.1596 9.28809 15C9.28809 14.8404 9.34818 14.7005 9.46837 14.5803C9.58855 14.4601 9.72845 14.4 9.88807 14.4H18.4439L14.5741 10.549C14.4405 10.4154 14.3756 10.2743 14.3794 10.1257C14.3833 9.97718 14.452 9.83608 14.5857 9.70243C14.7193 9.56878 14.8573 9.50195 14.9996 9.50195C15.1419 9.50195 15.2799 9.56878 15.4135 9.70243L20.1991 14.488C20.2818 14.563 20.3407 14.6445 20.3758 14.7325C20.4109 14.8204 20.4284 14.9096 20.4284 15C20.4284 15.0856 20.4109 15.1716 20.3758 15.2582C20.3407 15.3447 20.2818 15.4293 20.1991 15.512L15.4135 20.2976C15.2799 20.4313 15.1419 20.4981 14.9996 20.4981C14.8573 20.4981 14.7193 20.4313 14.5857 20.2976Z"
                fill="#585858"
              />
            </svg>