<svg width="30" height="30" viewBox="0 0 30 30" fill="none" xmlns="http://www.w3.org/2000/svg">
<g clip-path="url(#clip0_800_5033)">
<path d="M6.91785 9.76682L10.9435 13.8232L14.9999 9.79755L19.0256 13.7925L23.1434 9.70536L27.2613 13.854L29.1666 11.8258L23.1434 5.83334L19.1178 9.85901L15.0306 5.83334L10.9435 9.85901L6.94858 5.83334L0.833252 11.8258L2.79999 13.854L6.91785 9.76682Z" fill="black"/>
<path d="M19.087 21.26L14.9385 17.1728L10.9128 21.1678L6.91785 17.1728L0.833252 23.196L2.86145 25.1012L6.94858 21.1063L10.9435 25.132L14.9692 21.0756L19.087 25.132L23.1434 21.137L27.1691 25.1012L29.1359 23.1652L23.1434 17.2036L19.087 21.26Z" fill="black"/>
</g>
<defs>
<clipPath id="clip0_800_5033">
<rect width="28.3333" height="19.2986" fill="white" transform="translate(0.833252 5.83334)"/>
</clipPath>
</defs>
</svg>
