<svg width="43" height="43" viewBox="0 0 43 43" fill="none" xmlns="http://www.w3.org/2000/svg">
<g clip-path="url(#clip0_2801_1336)">
<path d="M21.2178 15.7214C20.8581 15.7214 20.5675 16.0119 20.5675 16.3716L20.5629 20.8771L16.0528 20.8771C15.6931 20.8771 15.4026 21.1676 15.4026 21.5273C15.4026 21.887 15.6931 22.1776 16.0528 22.1776L20.5629 22.1776L20.5629 26.6877C20.5629 27.0474 20.8535 27.3379 21.2132 27.3379C21.5729 27.3379 21.8634 27.0474 21.8634 26.6877L21.8634 22.1776H26.3735C26.7332 22.1776 27.0237 21.887 27.0237 21.5273C27.0237 21.1676 26.7332 20.8771 26.3735 20.8771H21.8634L21.8634 16.367C21.8634 16.0165 21.5683 15.7214 21.2178 15.7214Z" fill="#D9D9D9"/>
</g>
<circle cx="21.2132" cy="21.5273" r="14.5" transform="rotate(-45 21.2132 21.5273)" stroke="#D9D9D9"/>
<defs>
<clipPath id="clip0_2801_1336">
<rect width="15.6522" height="15.6522" fill="white" transform="translate(10.1455 21.5273) rotate(-45)"/>
</clipPath>
</defs>
</svg>
