<svg width="24" height="24" viewBox="0 0 24 24" fill="none" xmlns="http://www.w3.org/2000/svg">
<path fill-rule="evenodd" clip-rule="evenodd" d="M1 12C1 5.92487 5.92487 1 12 1C18.0751 1 23 5.92487 23 12C23 18.0751 18.0751 23 12 23C5.92487 23 1 18.0751 1 12ZM9.77796 8.66651C9.47112 8.35967 8.97363 8.35967 8.66679 8.66651C8.35995 8.97335 8.35995 9.47083 8.66679 9.77767L10.8891 12L8.6668 14.2223C8.35996 14.5292 8.35996 15.0267 8.6668 15.3335C8.97364 15.6404 9.47113 15.6404 9.77797 15.3335L12.0003 13.1112L14.2226 15.3335C14.5295 15.6404 15.027 15.6404 15.3338 15.3335C15.6406 15.0267 15.6406 14.5292 15.3338 14.2223L13.1115 12L15.3338 9.77767C15.6406 9.47083 15.6406 8.97335 15.3338 8.66651C15.027 8.35967 14.5295 8.35967 14.2226 8.66651L12.0003 10.8888L9.77796 8.66651Z" fill="black"/>
</svg>
