<svg width="12" height="12" viewBox="0 0 12 12" fill="none" xmlns="http://www.w3.org/2000/svg">
<path d="M6.00371 8.63656C5.89704 8.63656 5.79366 8.61858 5.69358 8.58262C5.5935 8.54666 5.49972 8.48493 5.41223 8.39744L1.1962 4.18144C1.06077 4.046 0.995447 3.8842 1.00025 3.69602C1.00503 3.50784 1.07515 3.34603 1.2106 3.2106C1.34603 3.07516 1.51023 3.00744 1.70319 3.00744C1.89616 3.00744 2.06035 3.07516 2.19579 3.2106L6.00371 7.01852L9.82601 3.19622C9.96144 3.06079 10.1232 2.99546 10.3114 3.00024C10.4996 3.00504 10.6614 3.07516 10.7968 3.2106C10.9323 3.34603 11 3.51024 11 3.70322C11 3.89618 10.9323 4.06038 10.7968 4.19581L6.5952 8.39744C6.50771 8.48493 6.41542 8.54666 6.31833 8.58262C6.22125 8.61858 6.11638 8.63656 6.00371 8.63656Z" fill="#FF8031"/>
</svg>
