<svg width="12" height="12" viewBox="0 0 12 12" fill="none" xmlns="http://www.w3.org/2000/svg">
<path fill-rule="evenodd" clip-rule="evenodd" d="M0.65 1.23071C0.40148 1.23071 0.2 1.43735 0.2 1.69225C0.2 1.94715 0.40148 2.15378 0.65 2.15378L2.2121 2.15378C2.40794 2.86413 3.04472 3.38462 3.8 3.38462C4.55528 3.38462 5.19206 2.86413 5.3879 2.15378L10.55 2.15378C10.7985 2.15378 11 1.94715 11 1.69225C11 1.43735 10.7985 1.23071 10.55 1.23071L5.3879 1.23071C5.192 0.52043 4.55528 -2.81708e-07 3.8 -3.14722e-07C3.04478 -3.47734e-07 2.40806 0.52043 2.21216 1.23071L0.65 1.23071ZM4.55 1.69231C4.55 1.26747 4.21424 0.923077 3.8 0.923077C3.38582 0.923077 3.05 1.26747 3.05 1.69231C3.05 2.11714 3.38582 2.46154 3.8 2.46154C4.21424 2.46154 4.55 2.11714 4.55 1.69231Z" fill="currentColor"/>
<path fill-rule="evenodd" clip-rule="evenodd" d="M0.649999 9.84609C0.401479 9.84609 0.199999 10.0527 0.199999 10.3076C0.199999 10.5625 0.401479 10.7692 0.649999 10.7692L2.2121 10.7692C2.40794 11.4795 3.04472 12 3.8 12C4.55528 12 5.19206 11.4795 5.3879 10.7692L10.55 10.7692C10.7985 10.7692 11 10.5625 11 10.3076C11 10.0527 10.7985 9.84609 10.55 9.84609L5.3879 9.84609C5.192 9.13582 4.55528 8.61538 3.8 8.61538C3.04478 8.61538 2.40806 9.13582 2.21216 9.84609L0.649999 9.84609ZM4.55 10.3077C4.55 9.88283 4.21424 9.53846 3.8 9.53846C3.38582 9.53846 3.05 9.88283 3.05 10.3077C3.05 10.7326 3.38582 11.0769 3.8 11.0769C4.21424 11.0769 4.55 10.7326 4.55 10.3077Z" fill="currentColor"/>
<path fill-rule="evenodd" clip-rule="evenodd" d="M11 5.99994C11 5.74505 10.7985 5.5384 10.55 5.5384L8.98788 5.5384C8.79199 4.82812 8.15526 4.30769 7.40001 4.30769C6.64478 4.30769 6.00806 4.82812 5.81216 5.5384L0.649999 5.5384C0.401479 5.5384 0.2 5.74505 0.2 5.99994C0.2 6.25483 0.401479 6.46148 0.649999 6.46148L5.8121 6.46148C6.00794 7.17182 6.64472 7.69231 7.40001 7.69231C8.1553 7.69231 8.79206 7.17182 8.98792 6.46148L10.55 6.46148C10.7985 6.46148 11 6.25483 11 5.99994ZM8.15001 6C8.15001 5.57514 7.81422 5.23077 7.40001 5.23077C6.9858 5.23077 6.65 5.57514 6.65 6C6.65 6.42486 6.9858 6.76923 7.40001 6.76923C7.81422 6.76923 8.15001 6.42486 8.15001 6Z" fill="currentColor"/>
</svg>
