<svg xmlns="http://www.w3.org/2000/svg" width="24" height="24" fill="none"><g clip-path="url(#a)"><path fill="#FF8031" d="M4.071 19.68a.727.727 0 0 1-.041-.1c.011.035.023.07.041.1ZM4.22 19.858a.591.591 0 0 1-.084-.09c.024.03.054.06.083.09ZM4.42 19.964Z"/><path fill="#606060" d="M4.533 19.988c-.041 0-.077-.012-.112-.024.035.012.077.018.112.024ZM4.136 19.769s-.041-.06-.059-.089c.018.035.036.06.06.089ZM4.255 19.893s.035.012.053.024a.762.762 0 0 1-.089-.06c.012.013.018.024.036.036ZM4.036 19.573c-.012-.035-.018-.077-.024-.118 0 .041.012.077.024.118Z"/><path fill="#FF8031" d="M8.74 9.333a.593.593 0 1 0 0-1.185.593.593 0 0 0 0 1.185ZM20 19.407s-.012.042-.012.066c0-.024.012-.042.012-.066Z"/><path fill="#FF8031" d="M19.407 4H4.593A.594.594 0 0 0 4 4.593v14.814s.006.03.012.048a.586.586 0 0 1 .095-.391l.486-.694.592-.847 3.07-4.385a.591.591 0 0 1 .871-.113l2.69 2.311 2.916-5.689c.1-.201.32-.331.545-.32a.6.6 0 0 1 .527.356l3.01 6.886.593 1.357.546 1.238a.54.54 0 0 1 .047.232V4.593A.594.594 0 0 0 19.407 4ZM8.741 10.518c-.978 0-1.778-.8-1.778-1.777 0-.978.8-1.778 1.778-1.778s1.777.8 1.777 1.778-.8 1.777-1.777 1.777Z"/><path fill="#FF8031" d="m18.862 19.644-.106-.237-.261-.592-3.283-7.508-2.69 5.244a.606.606 0 0 1-.415.314.583.583 0 0 1-.498-.13l-2.762-2.377-3.123 4.457-.414.592-.237.338a.586.586 0 0 1-.546.243c.018 0 .036.012.06.012H19.4a.584.584 0 0 1-.539-.356Z"/><path fill="#606060" d="M19.645 19.953s.03-.024.047-.03c-.018.012-.03.024-.047.03ZM19.407 20a.11.11 0 0 0 .042-.012c-.018 0-.03.006-.042.006V20Z"/></g><defs><clipPath id="a"><path fill="#fff" d="M4 4h16v16H4z"/></clipPath></defs></svg>