<svg xmlns="http://www.w3.org/2000/svg" width="24" height="24" fill="none"><g fill="#ACACAC" clip-path="url(#a)"><path d="M19.407 20a.592.592 0 0 1-.545-.356l-3.65-8.337-2.69 5.244a.607.607 0 0 1-.415.314.583.583 0 0 1-.498-.13l-2.78-2.388-3.762 5.025a.594.594 0 0 1-.83.118.594.594 0 0 1-.118-.83l4.148-5.534a.592.592 0 0 1 .86-.089l2.69 2.311 2.915-5.689c.1-.201.32-.332.545-.32a.6.6 0 0 1 .528.356l4.148 9.481a.589.589 0 0 1-.546.83V20Z"/><path d="M19.407 20H4.593A.594.594 0 0 1 4 19.407V4.593C4 4.267 4.267 4 4.593 4h14.814c.326 0 .593.267.593.593v14.814a.594.594 0 0 1-.593.593ZM5.185 18.815h13.63V5.185H5.185v13.63Z"/><path d="M8.74 10.518c-.977 0-1.777-.8-1.777-1.777 0-.978.8-1.778 1.778-1.778.977 0 1.777.8 1.777 1.778s-.8 1.777-1.777 1.777Zm0-2.37a.594.594 0 0 0-.592.593c0 .326.267.592.593.592a.594.594 0 0 0 .592-.592.594.594 0 0 0-.592-.593Z"/></g><defs><clipPath id="a"><path fill="#fff" d="M4 4h16v16H4z"/></clipPath></defs></svg>