<svg xmlns="http://www.w3.org/2000/svg" width="24" height="24" fill="none"><g fill="#FF8031" clip-path="url(#a)"><path d="M12.084 10.132C8.4 10.132 5.4 13.13 5.4 16.816v.273c0 2.174 1.686 3.638 4.19 3.638h4.982c2.51 0 4.19-1.465 4.19-3.638v-.273c0-3.685-2.999-6.684-6.684-6.684h.006ZM6.87 7.371a2.498 2.498 0 0 0-1.29-1.11c-.563-.21-1.15-.169-1.639.116-.964.558-1.232 1.918-.592 3.028.302.523.755.913 1.29 1.11.238.087.482.134.715.134.325 0 .64-.081.918-.244.97-.558 1.238-1.918.599-3.028V7.37ZM11.997 8.65c1.124 0 2.034-1.041 2.034-2.325 0-1.284-.91-2.325-2.034-2.325-1.123 0-2.034 1.04-2.034 2.325 0 1.284.91 2.325 2.034 2.325ZM20.965 7.417c-.105-.592-.43-1.08-.918-1.36-.97-.563-2.284-.116-2.924.994-.64 1.11-.372 2.47.599 3.028.285.163.598.244.918.244.238 0 .477-.046.715-.133a2.52 2.52 0 0 0 1.29-1.11 2.515 2.515 0 0 0 .32-1.668v.005Z"/></g><defs><clipPath id="a"><path fill="#fff" d="M3 4h18v16.721H3z"/></clipPath></defs></svg>