<svg xmlns="http://www.w3.org/2000/svg" width="24" height="24" fill="none"><path fill="#ACACAC" d="M14.574 20.718h-4.98c-2.51 0-4.19-1.465-4.19-3.638v-.273a6.69 6.69 0 0 1 6.683-6.682 6.69 6.69 0 0 1 6.682 6.682v.273c0 2.173-1.685 3.638-4.19 3.638h-.005Zm-2.493-9.431a5.525 5.525 0 0 0-5.52 5.52v.273c0 1.825 1.563 2.475 3.027 2.475h4.98c1.464 0 3.027-.65 3.027-2.475v-.273a5.525 5.525 0 0 0-5.52-5.52h.006ZM5.352 10.642c-.238 0-.476-.047-.715-.134a2.52 2.52 0 0 1-1.29-1.11c-.639-1.104-.371-2.464.599-3.027.488-.285 1.07-.32 1.639-.116a2.52 2.52 0 0 1 1.29 1.11c.639 1.11.372 2.469-.599 3.027a1.841 1.841 0 0 1-.918.244l-.006.006ZM4.87 7.289a.7.7 0 0 0-.343.087c-.407.238-.488.895-.174 1.441.162.279.412.5.68.599.238.087.47.075.65-.03.407-.238.489-.894.175-1.44a1.375 1.375 0 0 0-.68-.599.878.878 0 0 0-.314-.058h.006ZM11.994 8.649c-1.121 0-2.034-1.04-2.034-2.325C9.96 5.04 10.872 4 11.994 4c1.121 0 2.034 1.04 2.034 2.324 0 1.284-.913 2.325-2.034 2.325Zm0-3.487c-.47 0-.872.535-.872 1.162 0 .628.401 1.162.872 1.162.47 0 .872-.534.872-1.162 0-.627-.401-1.162-.872-1.162ZM18.641 10.328a1.81 1.81 0 0 1-.918-.244c-.97-.564-1.238-1.918-.598-3.028.639-1.11 1.952-1.557 2.922-.993.488.279.814.767.918 1.36a2.469 2.469 0 0 1-.32 1.667 2.497 2.497 0 0 1-1.29 1.11 2.097 2.097 0 0 1-.714.134v-.006Zm-.511-2.696c-.314.546-.238 1.208.174 1.44a.766.766 0 0 0 .651.03c.273-.099.517-.314.68-.599.162-.284.226-.604.18-.889-.04-.25-.169-.447-.355-.552-.412-.238-1.022.023-1.336.57h.006Z"/></svg>