<svg xmlns="http://www.w3.org/2000/svg" width="24" height="24" fill="none"><path fill="#FF8031" d="M21.791 11.299 12.38 3.146a.583.583 0 0 0-.77 0l-9.406 8.152a.587.587 0 0 0-.059.83.581.581 0 0 0 .447.194l1.765.006v7.647a.59.59 0 0 0 .588.588h14.118a.59.59 0 0 0 .588-.588v-7.647h1.765c.164 0 .329-.07.447-.206a.587.587 0 0 0-.06-.83l-.01.007Zm-9.794 6.329a3.532 3.532 0 0 1-3.53-3.53.59.59 0 0 1 .589-.588.59.59 0 0 1 .588.588 2.352 2.352 0 1 0 4.706 0 .59.59 0 0 1 .588-.588.59.59 0 0 1 .588.588 3.532 3.532 0 0 1-3.529 3.53Z"/></svg>