<svg xmlns="http://www.w3.org/2000/svg" width="24" height="24" fill="none"><g clip-path="url(#a)"><path fill="#FF8031" d="M12.62 4h-1.24C6.76 4 3 7.761 3 12.38v7.758c0 .341.28.62.62.62h9c4.619 0 8.38-3.76 8.38-8.379C21 7.761 17.239 4 12.62 4Zm-4.344 9.726a.93.93 0 1 1 0-1.862.93.93 0 1 1 0 1.862Zm3.724 0a.93.93 0 0 1-.931-.93.93.93 0 1 1 1.862 0 .93.93 0 0 1-.931.93Zm3.724 0a.93.93 0 1 1 0-1.862.93.93 0 1 1 0 1.862Z"/></g><defs><clipPath id="a"><path fill="#fff" d="M3 4h18v16.759H3z"/></clipPath></defs></svg>