<svg xmlns="http://www.w3.org/2000/svg" width="24" height="24" fill="none"><g fill="#ACACAC" clip-path="url(#a)"><path d="M12.62 20.759h-9a.623.623 0 0 1-.62-.621v-7.759C3 7.761 6.761 4 11.38 4h1.24C17.24 4 21 7.761 21 12.38c0 4.617-3.761 8.379-8.38 8.379Zm-8.379-1.242h8.38c3.935 0 7.138-3.203 7.138-7.138s-3.203-7.138-7.138-7.138h-1.242c-3.935 0-7.138 3.203-7.138 7.138v7.138Z"/><path d="M8.276 13.726a.931.931 0 1 0 0-1.862.931.931 0 0 0 0 1.862ZM12 13.726a.931.931 0 1 0 0-1.862.931.931 0 0 0 0 1.862ZM15.724 13.726a.931.931 0 1 0 0-1.862.931.931 0 0 0 0 1.862Z"/></g><defs><clipPath id="a"><path fill="#fff" d="M3 4h18v16.759H3z"/></clipPath></defs></svg>