<svg width="600" height="204" viewBox="0 0 600 204" fill="none" xmlns="http://www.w3.org/2000/svg">
<g clip-path="url(#clip0_1731_44379)">
<path d="M299.429 194.714C366.665 194.714 421.171 187.59 421.171 178.802C421.171 170.015 366.665 162.891 299.429 162.891C232.192 162.891 177.687 170.015 177.687 178.802C177.687 187.59 232.192 194.714 299.429 194.714Z" fill="#171A19"/>
<path d="M149.851 196.419H75.2858C74.337 196.419 73.5711 195.658 73.5711 194.714V174.177H1.71468C0.765889 174.177 0 173.415 0 172.472V124.532C0 124.203 0.0914495 123.896 0.262917 123.623L78.8066 0.795588C79.1267 0.306869 79.6639 0 80.2583 0H149.851C150.8 0 151.566 0.761491 151.566 1.70483V117.883H166.255C167.204 117.883 167.97 118.645 167.97 119.588V172.472C167.97 173.415 167.204 174.177 166.255 174.177H151.566V194.714C151.566 195.658 150.8 196.419 149.851 196.419ZM77.0005 193.01H148.137V172.472C148.137 171.529 148.903 170.767 149.851 170.767H164.54V121.293H149.851C148.903 121.293 148.137 120.532 148.137 119.588V3.40966H81.1957L3.42936 125.021V170.767H75.2858C76.2346 170.767 77.0005 171.529 77.0005 172.472V193.01ZM108.093 114.121C96.5706 114.121 80.6241 112.837 59.385 102.835C58.9392 102.619 58.5962 102.222 58.4705 101.744C58.3448 101.267 58.4248 100.755 58.6991 100.346L63.1687 93.6748C63.626 92.9928 64.5176 92.72 65.2835 93.061C81.6644 100.142 94.8674 103.301 108.093 103.301C109.042 103.301 109.808 104.063 109.808 105.006V112.417C109.808 113.36 109.042 114.121 108.093 114.121ZM62.6543 100.585C81.3557 109.075 95.7019 110.564 106.379 110.7V106.688C93.5871 106.438 80.7613 103.335 65.2263 96.7434L62.6543 100.585Z" fill="black"/>
<path d="M581.882 196.419H507.316C506.367 196.419 505.601 195.658 505.601 194.714V174.177H433.745C432.796 174.177 432.03 173.415 432.03 172.472V124.532C432.03 124.203 432.122 123.896 432.293 123.623L510.837 0.795588C511.157 0.306869 511.694 0 512.289 0H581.882C582.83 0 583.596 0.761491 583.596 1.70483V117.883H598.285C599.234 117.883 600 118.645 600 119.588V172.472C600 173.415 599.234 174.177 598.285 174.177H583.596V194.714C583.596 195.658 582.83 196.419 581.882 196.419ZM509.031 193.01H580.167V172.472C580.167 171.529 580.933 170.767 581.882 170.767H596.571V121.293H581.882C580.933 121.293 580.167 120.532 580.167 119.588V3.40966H513.226L435.46 125.021V170.767H507.316C508.265 170.767 509.031 171.529 509.031 172.472V193.01ZM540.124 114.121C528.601 114.121 512.654 112.837 491.415 102.835C490.969 102.619 490.627 102.222 490.501 101.744C490.375 101.267 490.455 100.755 490.729 100.346L495.199 93.6748C495.656 92.9928 496.548 92.72 497.314 93.061C513.695 100.142 526.898 103.301 540.124 103.301C541.072 103.301 541.838 104.063 541.838 105.006V112.417C541.838 113.36 541.072 114.121 540.124 114.121ZM494.685 100.585C513.386 109.075 527.732 110.564 538.409 110.7V106.688C525.617 106.438 512.792 103.335 497.257 96.7434L494.685 100.585Z" fill="black"/>
<path d="M360.665 104.812C368.553 86.1952 359.533 79.6146 359.533 79.6146C352.778 73.0453 339.255 81.8081 339.255 81.8081C297.565 57.7132 256.996 82.8992 256.996 82.8992C243.473 75.2275 234.465 81.8081 234.465 81.8081C224.325 91.662 233.333 108.097 233.333 108.097C233.333 108.097 206.207 166.993 264.552 187.928C279.389 193.247 295.45 194.725 311.088 192.383C339.083 188.201 380.83 171.153 360.665 104.801V104.812Z" fill="#F5F3EE"/>
<path d="M297.222 194.465C286.111 194.465 275.091 192.578 264.757 188.873C247.725 182.758 236.191 172.825 230.498 159.345C221.056 137.001 230.658 112.508 232.544 108.087C230.91 104.791 224.565 90.2542 234.27 80.8209C234.819 80.4003 243.998 73.8992 257.716 81.2641C263.523 77.9908 301.177 58.5217 339.552 80.1616C342.695 78.3091 354.229 72.2626 360.802 78.6387C361.042 78.7978 370.302 85.8331 362.46 104.848C370.233 130.738 369.273 151.571 359.591 166.79C348.285 184.543 327.355 191.055 311.774 193.374C306.938 194.101 302.057 194.453 297.211 194.453L297.222 194.465ZM244.879 80.7299C239.563 80.7299 236.397 82.9235 236.191 83.0712C227.195 91.8341 235.414 107.178 235.505 107.325L235.859 107.973L235.551 108.644C235.425 108.905 223.548 135.262 233.242 158.197C238.603 170.87 249.543 180.247 265.763 186.066C280.144 191.226 295.896 192.737 311.339 190.43C326.303 188.191 346.376 181.997 357.076 165.187C366.335 150.628 367.135 130.443 359.465 105.177L359.305 104.666L359.511 104.177C366.746 87.0946 359.202 81.1164 358.87 80.8663C352.926 75.1154 340.523 83.0258 340.398 83.1053L339.632 83.6054L338.843 83.1508C298.639 59.9196 258.928 83.9691 258.527 84.2191L257.773 84.6851L256.996 84.2532C252.263 81.571 248.159 80.7299 244.879 80.7299Z" fill="black"/>
<path d="M353.246 144.548C353.246 138.785 350.171 133.614 345.313 130.113C346.582 123.34 344.067 116.384 337.974 112.031C334.225 109.349 329.687 108.064 325.091 108.087C321.582 102.984 314.849 99.5174 307.133 99.5174C306.71 99.5174 306.276 99.5287 305.864 99.5515C306.664 95.4826 305.67 92.0275 303.075 91.0841C299.988 89.9476 295.725 92.7549 293.038 97.4716C288.832 93.6982 283.562 92.3003 281.287 94.346C279.789 95.6872 279.961 98.1762 281.436 100.802C280.487 100.711 279.515 100.654 278.532 100.654C265.798 100.654 255.475 108.951 255.475 119.18C255.475 119.737 255.51 120.294 255.567 120.839C247.348 124.249 241.586 132.159 241.586 141.365C241.586 150.571 247.359 158.504 255.601 161.903C255.521 162.562 255.475 163.233 255.475 163.914C255.475 173.121 263.191 180.588 272.702 180.588C274.325 180.588 275.88 180.372 277.366 179.963C281.138 183.679 286.854 186.055 293.255 186.055C300.023 186.055 306.035 183.395 309.773 179.303C312.208 180.133 314.883 180.588 317.695 180.588C329.046 180.588 338.249 173.121 338.249 163.914C338.249 163.437 338.214 162.971 338.168 162.505C346.971 159.812 353.246 152.788 353.246 144.548Z" fill="#F5F3EE"/>
<path d="M301.623 93.7878C301.783 93.7878 301.92 93.8105 302.046 93.856C302.903 94.1742 303.486 96.22 302.938 98.9818L302.206 102.698L306.013 102.517C306.39 102.494 306.767 102.482 307.144 102.482C313.614 102.482 319.559 105.267 322.645 109.756L323.651 111.041H325.228C329.344 111.041 333.15 112.211 336.248 114.428C341.209 117.974 343.507 123.634 342.398 129.566L342.055 131.408L343.575 132.51C347.839 135.59 350.286 139.977 350.286 144.558C350.286 151.229 345.073 157.31 337.311 159.685L334.979 160.401L335.231 162.822C335.265 163.186 335.288 163.549 335.288 163.924C335.288 171.483 327.4 177.643 317.707 177.643C315.295 177.643 312.951 177.268 310.745 176.518L308.893 175.892L307.579 177.336C304.264 180.961 298.914 183.121 293.267 183.121C287.62 183.121 282.853 181.211 279.481 177.893L278.258 176.688L276.6 177.143C275.331 177.484 274.028 177.665 272.714 177.665C264.86 177.665 258.47 171.517 258.47 163.947C258.47 163.413 258.505 162.879 258.573 162.299L258.848 160.072L256.756 159.208C249.36 156.15 244.57 149.161 244.57 141.398C244.57 133.635 249.337 126.668 256.721 123.611L258.779 122.759L258.539 120.554C258.493 120.11 258.459 119.667 258.459 119.212C258.459 110.631 267.467 103.642 278.532 103.642C279.401 103.642 280.281 103.687 281.127 103.778L286.831 104.358L284.019 99.3796C283.116 97.7771 283.15 96.7542 283.265 96.5723C283.333 96.5155 283.607 96.3905 284.156 96.3905C285.745 96.3905 288.489 97.4134 291.038 99.6979L293.793 102.164L295.622 98.9591C297.531 95.6176 300.137 93.8219 301.623 93.8219M301.623 90.8555C298.754 90.8555 295.324 93.4809 293.038 97.4929C290.135 94.9016 286.74 93.4241 284.168 93.4241C283.002 93.4241 281.996 93.7309 281.287 94.3674C279.789 95.7085 279.961 98.1976 281.436 100.823C280.487 100.732 279.515 100.675 278.532 100.675C265.798 100.675 255.475 108.972 255.475 119.201C255.475 119.758 255.51 120.315 255.567 120.86C247.348 124.27 241.586 132.181 241.586 141.387C241.586 150.593 247.359 158.526 255.601 161.924C255.521 162.583 255.475 163.254 255.475 163.936C255.475 173.142 263.18 180.609 272.691 180.609C274.314 180.609 275.869 180.393 277.355 179.984C281.127 183.701 286.842 186.076 293.244 186.076C300.011 186.076 306.013 183.416 309.762 179.325C312.197 180.154 314.872 180.609 317.684 180.609C329.035 180.609 338.237 173.142 338.237 163.936C338.237 163.459 338.203 162.993 338.157 162.527C346.959 159.833 353.235 152.809 353.235 144.569C353.235 138.807 350.16 133.635 345.302 130.135C346.57 123.361 344.056 116.405 337.963 112.052C334.236 109.393 329.755 108.108 325.194 108.108C325.16 108.108 325.114 108.108 325.08 108.108C321.57 103.005 314.849 99.5387 307.121 99.5387C306.698 99.5387 306.264 99.5501 305.853 99.5728C306.653 95.504 305.658 92.0489 303.063 91.1055C302.606 90.935 302.115 90.8555 301.612 90.8555H301.623Z" fill="black"/>
<path d="M292.684 148.523C292.444 151.535 289.918 153.91 286.82 153.91C283.574 153.91 280.944 151.296 280.944 148.068C280.944 144.841 283.574 142.227 286.82 142.227C288.226 142.227 289.506 142.715 290.524 143.534" fill="#F5F3EE"/>
<path d="M286.82 155.013C282.967 155.013 279.824 151.887 279.824 148.057C279.824 144.227 282.967 141.102 286.82 141.102C288.42 141.102 289.986 141.647 291.221 142.647L289.815 144.375C288.957 143.682 287.917 143.318 286.808 143.318C284.179 143.318 282.041 145.443 282.041 148.057C282.041 150.671 284.179 152.797 286.808 152.797C289.277 152.797 291.358 150.887 291.552 148.444L293.781 148.614C293.495 152.206 290.432 155.024 286.808 155.024L286.82 155.013Z" fill="black"/>
<path d="M292.695 143.389C293.118 143.003 293.804 142.685 294.513 142.48C295.096 142.31 295.713 142.219 296.228 142.219C299.474 142.219 302.103 144.833 302.103 148.061C302.103 151.288 299.474 153.903 296.228 153.903C293.381 153.903 291.015 151.902 290.466 149.231" fill="#F5F3EE"/>
<path d="M296.228 155.015C292.924 155.015 290.044 152.674 289.381 149.458C289.255 148.855 289.643 148.264 290.249 148.151C290.844 148.003 291.45 148.412 291.564 149.014C292.021 151.208 293.976 152.799 296.228 152.799C298.857 152.799 300.995 150.674 300.995 148.06C300.995 145.446 298.857 143.32 296.228 143.32C295.816 143.32 295.313 143.4 294.833 143.536C294.239 143.707 293.724 143.945 293.462 144.195C293.004 144.616 292.296 144.582 291.884 144.127C291.472 143.673 291.495 142.968 291.953 142.559C292.661 141.911 293.679 141.559 294.216 141.4C299.063 139.979 303.224 143.593 303.224 148.048C303.224 151.879 300.08 155.004 296.228 155.004V155.015Z" fill="black"/>
<path d="M290.935 145.139C293.53 145.139 295.633 143.943 295.633 142.468C295.633 140.993 293.53 139.797 290.935 139.797C288.34 139.797 286.237 140.993 286.237 142.468C286.237 143.943 288.34 145.139 290.935 145.139Z" fill="black"/>
<path d="M316.015 145.764C320.239 145.764 323.663 144.456 323.663 142.843C323.663 141.23 320.239 139.922 316.015 139.922C311.792 139.922 308.368 141.23 308.368 142.843C308.368 144.456 311.792 145.764 316.015 145.764Z" fill="#F0C6C6"/>
<path d="M270.359 146.307C274.582 146.307 278.006 144.999 278.006 143.386C278.006 141.773 274.582 140.465 270.359 140.465C266.135 140.465 262.711 141.773 262.711 143.386C262.711 144.999 266.135 146.307 270.359 146.307Z" fill="#F0C6C6"/>
<path d="M277.801 137.593C279.101 137.593 280.155 136.545 280.155 135.251C280.155 133.958 279.101 132.91 277.801 132.91C276.5 132.91 275.446 133.958 275.446 135.251C275.446 136.545 276.5 137.593 277.801 137.593Z" fill="black"/>
<path d="M307.202 137.593C308.502 137.593 309.556 136.545 309.556 135.251C309.556 133.958 308.502 132.91 307.202 132.91C305.901 132.91 304.847 133.958 304.847 135.251C304.847 136.545 305.901 137.593 307.202 137.593Z" fill="black"/>
<path d="M270.679 202.533C277.889 202.533 283.733 198.269 283.733 193.009C283.733 187.749 277.889 183.484 270.679 183.484C263.469 183.484 257.625 187.749 257.625 193.009C257.625 198.269 263.469 202.533 270.679 202.533Z" fill="#F5F3EE"/>
<path d="M270.679 204C262.654 204 256.139 199.067 256.139 192.998C256.139 186.929 262.666 181.996 270.679 181.996C278.692 181.996 285.22 186.929 285.22 192.998C285.22 199.067 278.692 204 270.679 204ZM270.679 184.962C264.301 184.962 259.111 188.565 259.111 192.998C259.111 197.43 264.301 201.033 270.679 201.033C277.058 201.033 282.247 197.43 282.247 192.998C282.247 188.565 277.058 184.962 270.679 184.962Z" fill="black"/>
<path d="M314.197 202.533C321.407 202.533 327.252 198.269 327.252 193.009C327.252 187.749 321.407 183.484 314.197 183.484C306.988 183.484 301.143 187.749 301.143 193.009C301.143 198.269 306.988 202.533 314.197 202.533Z" fill="#F5F3EE"/>
<path d="M314.198 204C306.173 204 299.657 199.067 299.657 192.998C299.657 186.929 306.184 181.996 314.198 181.996C322.211 181.996 328.738 186.929 328.738 192.998C328.738 199.067 322.211 204 314.198 204ZM314.198 184.962C307.819 184.962 302.629 188.565 302.629 192.998C302.629 197.43 307.819 201.033 314.198 201.033C320.576 201.033 325.766 197.43 325.766 192.998C325.766 188.565 320.576 184.962 314.198 184.962Z" fill="black"/>
</g>
<defs>
<clipPath id="clip0_1731_44379">
<rect width="600" height="204" fill="white"/>
</clipPath>
</defs>
</svg>
