<svg width="150" height="180" viewBox="0 0 150 180" fill="none" xmlns="http://www.w3.org/2000/svg">
<g clip-path="url(#clip0_936_30977)">
<path d="M50.7734 111.407L50.9504 133.614L57.4144 160.2L91.1968 160.816L98.4432 132.401L96.4314 112.144L50.7734 111.407Z" fill="white"/>
<path d="M94.8017 127.052C94.8017 127.052 105.131 153.665 94.8483 167.882C93.861 169.245 92.3335 170.16 90.6569 170.272C90.5265 170.272 90.3961 170.281 90.2657 170.281C90.2657 170.281 84.0346 171.243 83.0752 161.152" fill="white"/>
<path d="M94.8017 127.052C94.8017 127.052 105.131 153.665 94.8483 167.882C93.861 169.245 92.3335 170.16 90.6569 170.272C90.5265 170.272 90.3961 170.281 90.2657 170.281C90.2657 170.281 84.0346 171.243 83.0752 161.152" stroke="black" stroke-width="1.48" stroke-linecap="round" stroke-linejoin="round"/>
<path d="M54.1926 126.744C54.1926 126.744 43.8632 153.357 54.146 167.574C55.1333 168.937 56.6608 169.852 58.3373 169.964C58.4677 169.964 58.5981 169.973 58.7285 169.973C58.7285 169.973 64.9597 170.935 65.9191 160.844" fill="white"/>
<path d="M54.1926 126.744C54.1926 126.744 43.8632 153.357 54.146 167.574C55.1333 168.937 56.6608 169.852 58.3374 169.964C58.4677 169.964 58.5981 169.973 58.7285 169.973C58.7285 169.973 64.9597 170.935 65.9191 160.844" stroke="black" stroke-width="1.48" stroke-linecap="round" stroke-linejoin="round"/>
<path d="M64.6611 160.722L84.0066 160.918" stroke="black" stroke-width="1.48" stroke-linecap="round" stroke-linejoin="round"/>
<path d="M80.2529 131.766C79.2377 128.863 76.7694 126.94 74.0031 126.557C74.7483 127.267 75.3444 128.154 75.7169 129.208C76.9185 132.672 75.186 136.48 71.8423 137.731C69.6162 138.562 67.2411 138.039 65.5459 136.574C65.6018 136.779 65.6577 136.975 65.7229 137.18C67.1666 141.334 71.5908 143.481 75.6052 141.988C79.6196 140.494 81.6966 135.911 80.2529 131.766Z" fill="#FF8031" stroke="black" stroke-width="1.48" stroke-linecap="round" stroke-linejoin="round"/>
<path d="M124.943 60.7565L125.529 32.519C125.436 25.3872 116.942 21.588 111.419 26.1993L97.1679 38.0918C93.0138 36.9063 88.6175 36.2529 84.0629 36.2529H65.9562C62.5751 36.2529 59.2779 36.6169 56.1111 37.2797L39.8207 23.707C34.2881 19.0956 25.7936 22.8948 25.7098 30.0266L26.9486 57.4054C22.9807 63.7903 20.6895 71.2301 20.6895 79.174C20.6895 102.875 40.957 114.814 65.9469 114.814H84.0536C109.053 114.814 129.311 102.875 129.311 79.174C129.311 72.5837 127.737 66.3387 124.933 60.7472L124.943 60.7565Z" fill="white" stroke="black" stroke-width="1.48" stroke-miterlimit="10"/>
<path d="M36.1787 35.0955L39.1406 45.6811" stroke="black" stroke-width="1.48" stroke-linecap="round" stroke-linejoin="round"/>
<path d="M115.488 34.9553L112.526 45.5316" stroke="black" stroke-width="1.48" stroke-linecap="round" stroke-linejoin="round"/>
<path d="M58.3087 75.0481C59.5536 75.0481 60.5627 73.9823 60.5627 72.6677C60.5627 71.3531 59.5536 70.2874 58.3087 70.2874C57.0638 70.2874 56.0547 71.3531 56.0547 72.6677C56.0547 73.9823 57.0638 75.0481 58.3087 75.0481Z" fill="black"/>
<path d="M86.4845 75.0481C87.7294 75.0481 88.7385 73.9823 88.7385 72.6677C88.7385 71.3531 87.7294 70.2874 86.4845 70.2874C85.2396 70.2874 84.2305 71.3531 84.2305 72.6677C84.2305 73.9823 85.2396 75.0481 86.4845 75.0481Z" fill="black"/>
<path d="M71.2561 83.8601C75.3147 83.8601 78.6049 82.0212 78.6049 79.7528C78.6049 77.4844 75.3147 75.6455 71.2561 75.6455C67.1974 75.6455 63.9072 77.4844 63.9072 79.7528C63.9072 82.0212 67.1974 83.8601 71.2561 83.8601Z" fill="black"/>
<path d="M97.1955 81.0132C101.244 81.0132 104.526 79.68 104.526 78.0354C104.526 76.3908 101.244 75.0576 97.1955 75.0576C93.1471 75.0576 89.8652 76.3908 89.8652 78.0354C89.8652 79.68 93.1471 81.0132 97.1955 81.0132Z" fill="#EBC1C1"/>
<path d="M46.6759 81.5544C50.7243 81.5544 54.0062 80.2212 54.0062 78.5767C54.0062 76.9321 50.7243 75.5989 46.6759 75.5989C42.6276 75.5989 39.3457 76.9321 39.3457 78.5767C39.3457 80.2212 42.6276 81.5544 46.6759 81.5544Z" fill="#EBC1C1"/>
<path d="M96.8321 111.65H53.4375C52.2801 111.65 51.3418 112.59 51.3418 113.75C51.3418 114.91 52.2801 115.85 53.4375 115.85H96.8321C97.9895 115.85 98.9277 114.91 98.9277 113.75C98.9277 112.59 97.9895 111.65 96.8321 111.65Z" fill="#FF8031" stroke="black" stroke-width="1.46" stroke-linecap="round" stroke-linejoin="round"/>
<path d="M67.6602 36.2063V48.2108" stroke="black" stroke-width="1.48" stroke-linecap="round" stroke-linejoin="round"/>
<path d="M77.8311 36.8596V48.2107" stroke="black" stroke-width="1.48" stroke-linecap="round" stroke-linejoin="round"/>
<path d="M97.7731 134.212L107.488 124.373C107.488 124.373 112.536 120.574 111.772 114.964C111.148 110.362 106.752 107.104 102.309 108.42C102.253 108.439 102.197 108.448 102.151 108.467C101.461 108.681 99.7011 109.363 97.5495 112.042C97.1304 112.555 96.1524 113.834 95.1465 115.906" fill="white"/>
<path d="M97.7731 134.212L107.488 124.373C107.488 124.373 112.536 120.574 111.772 114.964C111.148 110.362 106.752 107.104 102.309 108.42C102.253 108.439 102.197 108.448 102.151 108.467C101.461 108.681 99.7011 109.363 97.5495 112.042C97.1304 112.555 96.1524 113.834 95.1465 115.906" stroke="black" stroke-width="1.48" stroke-linecap="round" stroke-linejoin="round"/>
<path d="M100.688 123.104L104.824 126.035" stroke="black" stroke-width="1.48" stroke-linecap="round" stroke-linejoin="round"/>
<path d="M98.1738 126.128L102.309 129.059" stroke="black" stroke-width="1.48" stroke-linecap="round" stroke-linejoin="round"/>
<path d="M51.1465 134.8L40.8637 124.494C40.8637 124.494 36.0855 120.658 36.8493 115.048C37.4733 110.446 41.8696 107.188 46.3125 108.504C46.3683 108.523 46.4242 108.532 46.4708 108.551C47.16 108.765 48.9204 109.447 51.072 112.126C51.4911 112.639 52.4691 113.918 53.475 115.99" fill="white"/>
<path d="M51.1465 134.8L40.8637 124.494C40.8637 124.494 36.0855 120.658 36.8493 115.048C37.4733 110.446 41.8696 107.188 46.3125 108.504C46.3683 108.523 46.4242 108.532 46.4708 108.551C47.16 108.765 48.9204 109.447 51.072 112.126C51.4911 112.639 52.4691 113.918 53.475 115.99" stroke="black" stroke-width="1.48" stroke-linecap="round" stroke-linejoin="round"/>
<path d="M47.1509 123.477L42.5684 125.624" stroke="black" stroke-width="1.48" stroke-linecap="round" stroke-linejoin="round"/>
<path d="M49.8706 126.212L45.2881 128.359" stroke="black" stroke-width="1.48" stroke-linecap="round" stroke-linejoin="round"/>
</g>
<defs>
<clipPath id="clip0_936_30977">
<rect width="110" height="150" fill="white" transform="translate(20 21)"/>
</clipPath>
</defs>
</svg>
