<svg width="272" height="192" viewBox="0 0 272 192" fill="none" xmlns="http://www.w3.org/2000/svg">
<g clip-path="url(#clip0_2942_64874)">
<path opacity="0.4" d="M49.108 191.999C63.6543 191.999 75.4465 189.947 75.4465 187.415C75.4465 184.883 63.6543 182.83 49.108 182.83C34.5617 182.83 22.7695 184.883 22.7695 187.415C22.7695 189.947 34.5617 191.999 49.108 191.999Z" fill="black"/>
<path opacity="0.4" d="M234.893 188.518C247.403 188.518 257.544 186.751 257.544 184.571C257.544 182.39 247.403 180.623 234.893 180.623C222.383 180.623 212.242 182.39 212.242 184.571C212.242 186.751 222.383 188.518 234.893 188.518Z" fill="black"/>
<path opacity="0.4" d="M144.833 191.431C167.513 191.431 185.898 189.378 185.898 186.846C185.898 184.314 167.513 182.262 144.833 182.262C122.153 182.262 103.768 184.314 103.768 186.846C103.768 189.378 122.153 191.431 144.833 191.431Z" fill="black"/>
<path d="M159.346 165.124C171.054 160.949 178.564 149.823 187.531 141.183C188.346 140.392 189.241 139.596 190.351 139.368C191.462 139.141 192.821 139.738 193.008 140.858C193.082 141.308 192.968 141.763 192.844 142.195C192.527 143.316 192.136 144.414 191.688 145.483C192.674 146.706 194.849 146.456 195.687 147.781C196.44 148.975 195.523 150.579 194.345 151.353C193.167 152.126 191.722 152.485 190.674 153.423C191.762 154.971 192.855 157.115 191.7 158.611C191.326 159.094 190.771 159.407 190.221 159.675C187.746 160.897 185.027 161.626 182.274 161.819C181.719 161.859 181.136 161.881 180.671 162.177C180.19 162.484 179.918 163.025 179.584 163.491C178.377 165.198 176.304 166.022 174.316 166.654C169.875 168.064 165.265 168.946 160.62 169.27" fill="#CBCBCB"/>
<path d="M159.515 165.738C171.239 161.506 178.642 150.841 187.195 142.4C188.243 141.364 189.767 139.504 191.438 140.051C192.542 140.415 192.435 141.33 192.157 142.28C191.851 143.31 191.489 144.322 191.075 145.312C190.985 145.522 191.104 145.778 191.24 145.932C191.874 146.654 192.775 146.939 193.658 147.235C194.497 147.519 195.482 147.934 195.301 149.015C195.12 150.096 194.151 150.784 193.25 151.245C192.203 151.785 191.132 152.2 190.22 152.968C190.022 153.139 189.971 153.525 190.118 153.742C190.753 154.663 191.444 155.727 191.54 156.87C191.653 158.252 190.509 158.838 189.427 159.339C186.98 160.471 184.448 160.937 181.792 161.204C180.608 161.324 179.928 161.836 179.271 162.803C178.614 163.77 177.827 164.435 176.824 164.964C174.661 166.113 172.106 166.682 169.738 167.239C166.736 167.939 163.689 168.4 160.613 168.622C159.798 168.678 159.792 169.958 160.613 169.901C163.53 169.691 166.43 169.281 169.291 168.65C171.908 168.076 174.649 167.433 177.079 166.261C178.155 165.743 179.158 165.049 179.906 164.105C180.251 163.662 180.512 163.036 180.993 162.717C181.577 162.331 182.511 162.439 183.179 162.359C185.876 162.058 188.691 161.312 191.053 159.942C193.856 158.309 192.712 155.238 191.228 153.082L191.126 153.855C192.197 152.951 193.607 152.627 194.751 151.83C195.686 151.182 196.473 150.152 196.587 148.986C196.689 147.889 196.083 146.944 195.137 146.444C194.191 145.943 192.899 145.869 192.146 145.01L192.31 145.63C192.69 144.72 193.03 143.799 193.318 142.855C193.585 141.99 193.879 141.046 193.471 140.17C192.911 138.964 191.427 138.464 190.192 138.72C188.538 139.061 187.297 140.483 186.148 141.62C184.998 142.758 183.882 143.924 182.772 145.101C178.263 149.897 173.941 154.959 168.741 159.032C165.841 161.307 162.647 163.218 159.18 164.469C158.416 164.748 158.744 165.982 159.52 165.704L159.515 165.738Z" fill="black"/>
<path d="M119.344 117.77L115.945 131.422L128.407 175.788L162.958 175.22L170.888 124.596C170.888 124.596 132.371 116.064 132.371 115.495C132.371 114.926 119.344 117.77 119.344 117.77Z" fill="#CBCBCB"/>
<path d="M154.502 175.807C155.635 187.752 162.998 186.614 162.998 186.614C163.157 186.614 163.31 186.614 163.457 186.597C165.434 186.466 167.241 185.38 168.408 183.77C180.557 166.945 168.623 139.955 168.623 139.955" fill="#CBCBCB"/>
<path d="M162.489 187.353C161.583 187.353 159.816 187.148 158.082 185.794C155.686 183.917 154.242 180.578 153.795 175.874C153.755 175.482 154.044 175.135 154.435 175.101C154.831 175.067 155.171 175.351 155.205 175.743C155.613 180.026 156.865 183.024 158.926 184.657C160.864 186.187 162.812 185.925 162.897 185.914C163.073 185.885 163.248 185.902 163.418 185.891C165.146 185.777 166.76 184.85 167.842 183.354C179.606 167.058 168.097 140.512 167.983 140.244C167.825 139.886 167.983 139.465 168.346 139.306C168.703 139.147 169.122 139.306 169.281 139.67C169.309 139.738 172.317 146.604 173.778 155.437C175.726 167.211 174.072 177.148 168.992 184.184C167.661 186.027 165.667 187.165 163.514 187.307C163.361 187.319 163.209 187.324 163.056 187.324C162.959 187.336 162.767 187.353 162.501 187.353H162.489Z" fill="black"/>
<path d="M119.628 120.541L105.009 135.222C105.009 135.222 99.0389 139.715 99.9452 146.359C100.687 151.803 105.876 155.665 111.121 154.106C111.183 154.089 111.251 154.066 111.313 154.049C112.123 153.793 114.208 152.991 116.751 149.823C117.244 149.209 118.399 147.696 119.583 145.25" fill="#CBCBCB"/>
<path d="M108.735 155.17C107.007 155.17 105.302 154.664 103.767 153.669C101.298 152.065 99.6495 149.437 99.2417 146.456C98.3241 139.699 103.943 135.148 104.538 134.682L119.123 120.035C119.401 119.756 119.848 119.756 120.126 120.035C120.403 120.314 120.403 120.763 120.126 121.042L105.506 135.723C105.506 135.723 105.455 135.768 105.433 135.791C105.376 135.837 99.8081 140.125 100.646 146.263C100.998 148.834 102.414 151.098 104.538 152.474C106.48 153.731 108.746 154.072 110.921 153.424L111.08 153.379C113.204 152.702 115.033 150.83 116.2 149.374C117.208 148.117 118.132 146.627 118.947 144.937C119.117 144.585 119.542 144.437 119.893 144.608C120.244 144.778 120.392 145.205 120.222 145.557C119.355 147.344 118.375 148.925 117.305 150.267C115.43 152.605 113.487 154.107 111.533 154.727L111.329 154.789C110.474 155.045 109.607 155.17 108.746 155.17H108.735Z" fill="black"/>
<path d="M154.462 176.5H132.372C131.981 176.5 131.664 176.182 131.664 175.789C131.664 175.397 131.981 175.078 132.372 175.078H154.462C154.853 175.078 155.17 175.397 155.17 175.789C155.17 176.182 154.853 176.5 154.462 176.5Z" fill="black"/>
<path d="M78.6074 93.1418L92.2355 11.0633C92.2355 11.0633 94.3822 0.278778 104.051 1.35951C104.051 1.35951 109.421 0.278777 118.013 18.617C118.013 18.617 148.084 12.144 172.786 18.617C172.786 18.617 179.232 3.52096 185.672 1.35951C185.672 1.35951 196.411 -5.11349 201.588 23.0253L212.328 96.3613" fill="#CBCBCB"/>
<path d="M212.323 97.0671C211.977 97.0671 211.677 96.8112 211.62 96.4585L200.881 23.1225C198.139 8.21983 193.88 3.39068 190.793 1.97435C188.142 0.75711 186.114 1.91747 186.029 1.96298C185.99 1.98573 185.939 2.00848 185.893 2.02554C179.827 4.05618 173.495 18.737 173.432 18.8849C173.296 19.2091 172.939 19.3798 172.605 19.2945C148.357 12.9409 118.461 19.2376 118.161 19.3001C117.838 19.3684 117.51 19.2091 117.374 18.9077C109.274 1.62738 104.222 2.0483 104.165 2.05398C104.108 2.05967 104.029 2.06536 103.972 2.05398C100.262 1.63876 97.2829 3.02095 95.1305 6.16075C93.4765 8.57249 92.9385 11.1662 92.9328 11.189L79.3047 93.2447C79.2424 93.6315 78.8743 93.8875 78.4891 93.8306C78.1039 93.7681 77.8434 93.3983 77.9057 93.0115L91.5337 10.933C91.5621 10.7965 93.9184 -0.443068 104.035 0.626285C105.071 0.506836 110.395 0.899311 118.41 17.7928C122.596 16.968 149.739 12.0422 172.373 17.7644C173.63 14.9545 179.38 2.77637 185.378 0.694541C185.837 0.444267 188.284 -0.733159 191.342 0.654725C196.299 2.9015 199.98 10.3813 202.28 22.8836L213.025 96.2423C213.082 96.6291 212.815 96.9932 212.425 97.05C212.391 97.05 212.357 97.0557 212.323 97.0557V97.0671Z" fill="black"/>
<path d="M102.447 24.2648C101.983 24.2648 101.604 23.8837 101.604 23.4173V11.0799C101.604 10.6135 101.983 10.2324 102.447 10.2324C102.912 10.2324 103.291 10.6135 103.291 11.0799V23.4173C103.291 23.8837 102.912 24.2648 102.447 24.2648Z" fill="black"/>
<path d="M187.604 23.134C187.139 23.134 186.76 22.7529 186.76 22.2865V9.94908C186.76 9.48266 187.139 9.10156 187.604 9.10156C188.068 9.10156 188.448 9.48266 188.448 9.94908V22.2865C188.448 22.7529 188.068 23.134 187.604 23.134Z" fill="black"/>
<path d="M127.864 57.672C129.325 57.672 130.509 56.4827 130.509 55.0157C130.509 53.5486 129.325 52.3594 127.864 52.3594C126.403 52.3594 125.219 53.5486 125.219 55.0157C125.219 56.4827 126.403 57.672 127.864 57.672Z" fill="black"/>
<path d="M159.215 57.672C160.676 57.672 161.861 56.4827 161.861 55.0157C161.861 53.5486 160.676 52.3594 159.215 52.3594C157.755 52.3594 156.57 53.5486 156.57 55.0157C156.57 56.4827 157.755 57.672 159.215 57.672Z" fill="black"/>
<path d="M185.134 69.1268C180.422 69.1268 175.987 70.3213 172.112 72.4316C165.53 65.1054 155.998 60.498 145.4 60.498C134.802 60.498 125.269 65.1054 118.688 72.4316C114.813 70.327 110.378 69.1268 105.666 69.1268C90.5423 69.1268 78.2793 81.4414 78.2793 96.6285C78.2793 111.816 90.5423 124.13 105.666 124.13C110.378 124.13 114.813 122.936 118.688 120.825C125.269 128.152 134.802 132.759 145.4 132.759C155.998 132.759 165.53 128.152 172.112 120.825C175.987 122.93 180.422 124.13 185.134 124.13C200.258 124.13 212.521 111.816 212.521 96.6285C212.521 81.4414 200.258 69.1268 185.134 69.1268Z" fill="white"/>
<path d="M145.399 133.464C135.22 133.464 125.461 129.187 118.534 121.707C114.58 123.755 110.139 124.835 105.665 124.835C90.1731 124.835 77.5703 112.18 77.5703 96.6227C77.5703 81.0659 90.1731 68.41 105.665 68.41C110.145 68.41 114.58 69.4907 118.534 71.5384C125.461 64.0587 135.22 59.7812 145.399 59.7812C155.578 59.7812 165.337 64.0587 172.264 71.5384C176.218 69.4907 180.659 68.41 185.133 68.41C200.625 68.41 213.228 81.0659 213.228 96.6227C213.228 112.18 200.625 124.835 185.133 124.835C180.659 124.835 176.218 123.755 172.264 121.707C165.337 129.187 155.578 133.464 145.399 133.464ZM118.687 120.109C118.885 120.109 119.077 120.188 119.213 120.342C125.892 127.776 135.441 132.037 145.399 132.037C155.357 132.037 164.906 127.77 171.585 120.342C171.805 120.097 172.162 120.035 172.445 120.194C176.314 122.299 180.704 123.413 185.133 123.413C199.843 123.413 211.812 111.395 211.812 96.6227C211.812 81.8509 199.843 69.832 185.133 69.832C180.704 69.832 176.32 70.9469 172.445 73.0515C172.157 73.2107 171.8 73.1482 171.585 72.9036C164.901 65.4693 155.357 61.209 145.399 61.209C135.441 61.209 125.892 65.475 119.213 72.9036C118.993 73.1482 118.636 73.2107 118.352 73.0515C114.484 70.9469 110.094 69.832 105.665 69.832C90.9548 69.832 78.9864 81.8509 78.9864 96.6227C78.9864 111.395 90.9548 123.413 105.665 123.413C110.094 123.413 114.478 122.299 118.352 120.194C118.46 120.137 118.573 120.109 118.687 120.109Z" fill="black"/>
<path d="M143.072 73.461C149.654 73.461 154.989 70.0358 154.989 65.8106C154.989 61.5854 149.654 58.1602 143.072 58.1602C136.49 58.1602 131.154 61.5854 131.154 65.8106C131.154 70.0358 136.49 73.461 143.072 73.461Z" fill="black"/>
<path d="M172.356 64.4737C177.108 64.4737 180.96 62.7981 180.96 60.731C180.96 58.664 177.108 56.9883 172.356 56.9883C167.604 56.9883 163.752 58.664 163.752 60.731C163.752 62.7981 167.604 64.4737 172.356 64.4737Z" fill="white"/>
<path d="M113.436 65.5499C118.188 65.5499 122.04 63.8742 122.04 61.8072C122.04 59.7401 118.188 58.0645 113.436 58.0645C108.684 58.0645 104.832 59.7401 104.832 61.8072C104.832 63.8742 108.684 65.5499 113.436 65.5499Z" fill="white"/>
<path d="M156.377 153.867C156.162 153.076 155.884 152.138 155.538 151.148C154.298 151.193 152.57 150.63 151.777 150.158C151.319 149.885 150.933 149.533 150.548 149.169C150.163 148.804 149.704 148.696 149.28 148.702C148.645 148.713 148.039 148.975 147.529 149.379L146.034 150.562C144.108 152.092 142.177 149.544 142.177 149.544C141.214 148.014 139.769 149.032 139.769 149.032C139.254 149.305 138.608 149.572 138.11 149.771C137.351 150.067 136.524 150.17 135.736 149.982C134.655 149.726 133.329 148.327 132.514 147.371C131.93 149.123 131.398 151.319 130.973 154.055C130.803 155.164 131.653 156.165 132.768 156.165H154.621C155.816 156.165 156.694 155.027 156.377 153.867Z" fill="#74C540"/>
<path d="M154.626 156.802H132.773C132.06 156.802 131.38 156.489 130.916 155.943C130.445 155.397 130.242 154.669 130.355 153.958C130.757 151.37 131.284 149.083 131.918 147.172C131.992 146.956 132.173 146.791 132.4 146.751C132.621 146.705 132.853 146.785 133 146.961C134.592 148.838 135.492 149.271 135.883 149.367C136.506 149.515 137.192 149.453 137.877 149.18C138.511 148.929 139.055 148.69 139.44 148.486C139.633 148.361 140.369 147.934 141.23 148.105C141.638 148.184 142.233 148.446 142.708 149.202C142.912 149.47 143.717 150.3 144.544 150.403C144.929 150.448 145.286 150.34 145.637 150.061L147.132 148.878C147.789 148.355 148.526 148.076 149.262 148.065C149.925 148.065 150.525 148.275 150.978 148.702C151.358 149.06 151.698 149.373 152.094 149.606C152.762 149.999 154.371 150.568 155.51 150.505C155.781 150.471 156.042 150.67 156.133 150.932C156.438 151.808 156.722 152.735 156.982 153.69C157.186 154.435 157.033 155.215 156.569 155.823C156.099 156.438 155.391 156.79 154.62 156.79L154.626 156.802ZM132.79 148.628C132.32 150.243 131.924 152.098 131.601 154.151C131.55 154.498 131.646 154.845 131.873 155.112C132.099 155.374 132.428 155.528 132.768 155.528H154.62C154.994 155.528 155.34 155.357 155.566 155.061C155.793 154.765 155.861 154.39 155.764 154.032C155.555 153.258 155.323 152.501 155.085 151.779C153.822 151.705 152.287 151.199 151.454 150.71C150.95 150.408 150.531 150.027 150.112 149.635C149.902 149.436 149.624 149.35 149.285 149.345C148.707 149.35 148.225 149.64 147.92 149.885L146.424 151.068C145.801 151.563 145.116 151.762 144.385 151.671C142.856 151.478 141.717 149.999 141.672 149.936C141.451 149.589 141.236 149.413 140.992 149.362C140.562 149.276 140.131 149.561 140.126 149.566C140.109 149.578 140.08 149.595 140.063 149.606C139.627 149.839 139.044 150.095 138.341 150.374C137.412 150.738 136.467 150.818 135.594 150.613C134.807 150.425 133.867 149.76 132.796 148.639L132.79 148.628Z" fill="black"/>
<path d="M135.737 149.982C136.524 150.17 137.351 150.068 138.11 149.772C138.603 149.578 139.254 149.305 139.769 149.032C139.769 149.032 141.214 148.014 142.177 149.544C142.177 149.544 144.103 152.093 146.034 150.562L147.529 149.379C148.039 148.975 148.645 148.714 149.28 148.702C149.704 148.697 150.169 148.805 150.548 149.169C150.934 149.533 151.319 149.891 151.778 150.159C152.576 150.631 154.304 151.194 155.539 151.148C154.508 148.185 152.882 144.766 150.611 143.43C150.611 143.43 147.439 141.513 144.828 146.973C144.748 147.138 144.505 147.115 144.465 146.933C144.057 145.244 142.545 140.375 138.563 140.375C138.563 140.375 135.051 139.761 132.514 147.371C133.324 148.327 134.649 149.726 135.737 149.982Z" fill="white"/>
<path d="M155.404 151.791C154.09 151.791 152.362 151.245 151.461 150.71C150.957 150.409 150.538 150.027 150.119 149.635C149.909 149.436 149.632 149.351 149.292 149.345C148.714 149.351 148.233 149.641 147.927 149.885L146.432 151.068C145.809 151.563 145.123 151.762 144.392 151.671C142.863 151.478 141.725 149.999 141.679 149.936C141.458 149.589 141.243 149.413 141 149.362C140.569 149.277 140.139 149.561 140.133 149.567C140.116 149.578 140.088 149.595 140.071 149.607C139.635 149.84 139.051 150.096 138.349 150.374C137.42 150.738 136.474 150.818 135.602 150.613C134.633 150.386 133.438 149.436 132.045 147.798C131.903 147.627 131.858 147.394 131.926 147.183C134.44 139.635 138.049 139.704 138.615 139.755C142.331 139.783 144.087 143.532 144.795 145.727C145.763 144.066 146.896 143.037 148.182 142.65C149.734 142.184 150.906 142.878 150.957 142.906C152.951 144.072 154.701 146.785 156.157 150.955C156.225 151.148 156.197 151.358 156.083 151.523C155.97 151.688 155.783 151.791 155.585 151.802C155.534 151.802 155.477 151.802 155.421 151.802L155.404 151.791ZM149.315 148.071C149.966 148.071 150.544 148.293 150.986 148.708C151.365 149.066 151.705 149.379 152.101 149.612C152.606 149.908 153.642 150.295 154.611 150.448C153.348 147.132 151.864 144.903 150.295 143.981C150.261 143.964 149.513 143.543 148.505 143.862C147.366 144.214 146.296 145.386 145.406 147.252C145.253 147.565 144.919 147.747 144.574 147.718C144.228 147.684 143.939 147.428 143.854 147.087C143.515 145.659 142.121 141.012 138.57 141.012C138.536 141.012 138.496 141.012 138.462 141.001C138.439 141.001 135.522 140.688 133.24 147.229C134.684 148.873 135.517 149.271 135.891 149.362C136.514 149.51 137.199 149.447 137.884 149.174C138.519 148.924 139.062 148.685 139.448 148.48C139.64 148.355 140.377 147.929 141.238 148.099C141.645 148.179 142.24 148.44 142.716 149.197C142.92 149.464 143.724 150.295 144.551 150.397C144.936 150.443 145.293 150.335 145.644 150.056L147.14 148.873C147.797 148.349 148.533 148.071 149.269 148.059H149.309L149.315 148.071Z" fill="black"/>
<path d="M103.202 137.963C101.662 139.584 100.206 142.195 100.761 146.279C101.43 151.199 106.12 154.691 110.866 153.281C110.923 153.264 110.979 153.247 111.042 153.23C111.778 152.996 113.936 152.206 116.23 149.339" fill="white"/>
<path d="M120.217 135.416C120.217 135.416 108.016 166.928 120.166 183.753C121.333 185.368 123.134 186.449 125.116 186.58C125.269 186.591 125.422 186.597 125.575 186.597C125.575 186.597 132.939 187.735 134.072 175.79" fill="#CBCBCB"/>
<path d="M126.085 187.336C125.813 187.336 125.62 187.318 125.53 187.307C125.371 187.307 125.218 187.301 125.071 187.29C122.924 187.148 120.925 186.01 119.593 184.167C113.176 175.283 113.521 162.405 114.937 153.162C116.461 143.219 119.531 135.233 119.559 135.153C119.701 134.789 120.115 134.607 120.477 134.75C120.84 134.892 121.021 135.301 120.879 135.671C120.76 135.984 108.962 167.018 120.738 183.331C121.819 184.827 123.428 185.754 125.161 185.868C125.331 185.879 125.507 185.868 125.682 185.891C125.762 185.902 127.71 186.158 129.647 184.634C131.709 183.001 132.961 180.004 133.369 175.721C133.408 175.328 133.743 175.038 134.139 175.078C134.53 175.118 134.813 175.465 134.779 175.851C134.332 180.561 132.893 183.9 130.491 185.771C128.758 187.125 126.991 187.33 126.085 187.33V187.336Z" fill="black"/>
<path d="M168.339 148.685L182.217 133.293C182.217 133.293 187.954 128.504 186.72 121.917C185.711 116.513 180.336 112.918 175.176 114.733C175.114 114.756 175.051 114.778 174.989 114.801C174.19 115.097 172.151 116.001 169.767 119.295C169.308 119.932 166.159 124.772 165.094 127.275" fill="#CBCBCB"/>
<path d="M168.34 149.396C168.17 149.396 168 149.333 167.864 149.214C167.575 148.952 167.552 148.503 167.813 148.207L181.69 132.815C181.69 132.815 181.736 132.77 181.764 132.747C181.821 132.701 187.168 128.14 186.023 122.048C185.548 119.499 184.018 117.31 181.826 116.035C179.827 114.875 177.544 114.653 175.409 115.404L175.227 115.467C173.16 116.235 171.427 118.197 170.334 119.71C169.818 120.427 166.754 125.165 165.74 127.554C165.587 127.918 165.168 128.083 164.811 127.929C164.454 127.776 164.284 127.36 164.437 126.996C165.547 124.38 168.753 119.477 169.189 118.879C170.945 116.451 172.809 114.852 174.735 114.136L174.933 114.062C177.47 113.169 180.167 113.43 182.534 114.801C185.083 116.28 186.862 118.823 187.411 121.78C188.663 128.481 183.276 133.31 182.704 133.799L168.861 149.157C168.719 149.311 168.527 149.39 168.334 149.39L168.34 149.396Z" fill="black"/>
<path d="M182.851 131.32C184.414 129.688 186.765 126.497 186.198 122.396C185.519 117.453 180.749 113.943 175.923 115.36C175.867 115.377 175.804 115.394 175.748 115.411C175 115.644 173.086 116.372 170.752 119.25C170.678 119.341 170.576 119.466 170.469 119.609L182.851 131.32Z" fill="white"/>
<path d="M118.494 179.486C119.095 180.829 119.803 182.109 120.647 183.309C121.706 184.816 123.343 185.834 125.138 185.954C125.274 185.965 125.416 185.971 125.557 185.971C125.557 185.971 130.683 186.784 132.655 179.486H118.494Z" fill="white"/>
<path d="M170.174 179.486C169.574 180.829 168.866 182.109 168.022 183.309C166.963 184.816 165.326 185.834 163.53 185.954C163.394 185.965 163.253 185.971 163.111 185.971C163.111 185.971 157.985 186.784 156.014 179.486H170.174Z" fill="white"/>
<path d="M132.22 36.6715C135.789 36.5122 139.572 36.114 142.71 34.2597C145.469 32.633 149.003 28.3328 145.995 25.2954C144.789 24.0781 142.835 23.8449 141.577 25.1247C140.422 26.2965 140.314 28.1622 140.36 29.7093C140.405 31.4954 140.546 33.3724 141.379 34.9935C142.28 36.7397 143.979 37.6555 145.865 37.9172C150.278 38.5428 154.877 36.8421 158.043 33.7478C158.83 32.9799 157.624 31.7741 156.842 32.542C154.571 34.7603 151.529 36.1368 148.363 36.3131C146.885 36.3928 145.134 36.3473 143.894 35.4201C142.75 34.5669 142.348 33.0539 142.183 31.7001C142.019 30.3464 141.912 28.9528 142.183 27.673C142.416 26.5695 143.243 25.4148 144.455 26.2168C145.842 27.1326 145.452 28.9244 144.704 30.1245C143.956 31.3247 142.869 32.212 141.679 32.8832C138.836 34.493 135.42 34.8229 132.22 34.9594C131.133 35.0049 131.127 36.7113 132.22 36.6658V36.6715Z" fill="white"/>
<path d="M63.2695 147.15L71.3183 156.081C71.3183 156.081 74.6432 158.856 73.9295 162.679C73.3461 165.813 70.2308 167.9 67.2345 166.842C67.2005 166.831 67.1608 166.814 67.1268 166.803C66.6624 166.632 65.4786 166.109 64.0965 164.197" fill="white"/>
<path d="M68.8374 167.751C68.2314 167.751 67.6196 167.649 67.0192 167.438L66.9003 167.399C65.7391 166.966 64.6233 166.011 63.5754 164.566C63.3715 164.282 63.4338 163.883 63.717 163.679C64.0002 163.474 64.3967 163.536 64.6006 163.821C65.218 164.674 66.1922 165.778 67.3364 166.204L67.4327 166.238C68.6109 166.653 69.8683 166.528 70.9728 165.891C72.185 165.186 73.0346 163.969 73.3008 162.558C73.9352 159.157 70.9332 156.591 70.9049 156.563C70.8822 156.546 70.8595 156.523 70.8425 156.5L62.7937 147.57C62.5615 147.308 62.5785 146.91 62.839 146.671C63.0996 146.438 63.4961 146.455 63.734 146.717L71.7545 155.613C72.1566 155.96 75.2889 158.821 74.5469 162.786C74.2127 164.566 73.1422 166.096 71.6129 166.983C70.7406 167.49 69.7947 167.746 68.8374 167.746V167.751Z" fill="black"/>
<path d="M65.7552 177.865C67.9887 177.865 69.7994 176.046 69.7994 173.803C69.7994 171.56 67.9887 169.742 65.7552 169.742C63.5216 169.742 61.7109 171.56 61.7109 173.803C61.7109 176.046 63.5216 177.865 65.7552 177.865Z" fill="white"/>
<path d="M65.7548 178.496C63.1776 178.496 61.0762 176.392 61.0762 173.798C61.0762 171.204 63.1719 169.1 65.7548 169.1C68.3377 169.1 70.4334 171.204 70.4334 173.798C70.4334 176.392 68.3377 178.496 65.7548 178.496ZM65.7548 170.374C63.8743 170.374 62.3393 171.909 62.3393 173.798C62.3393 175.686 63.8686 177.222 65.7548 177.222C67.641 177.222 69.1646 175.686 69.1646 173.798C69.1646 171.909 67.6353 170.374 65.7548 170.374Z" fill="black"/>
<path d="M35.5719 148.816L32.6719 160.164L39.6275 180.539L58.4666 180.249L64.5556 157.258L62.5278 147.65L35.5719 148.816Z" fill="white"/>
<path d="M54.8398 180.686C55.4969 187.614 59.7677 186.955 59.7677 186.955C59.8583 186.955 59.9489 186.955 60.0339 186.943C61.1837 186.869 62.2259 186.238 62.9056 185.305C69.9519 175.55 63.0303 159.896 63.0303 159.896" fill="white"/>
<path d="M59.4739 187.603C58.9131 187.603 57.8312 187.478 56.7777 186.653C55.339 185.527 54.4724 183.542 54.2062 180.743C54.1722 180.396 54.4271 180.083 54.7726 180.049C55.1181 180.004 55.4296 180.271 55.4636 180.618C55.6902 183.035 56.3869 184.719 57.531 185.623C58.5733 186.454 59.6268 186.323 59.6721 186.312C59.7741 186.295 59.8873 186.306 59.9893 186.3C60.9126 186.238 61.8132 185.726 62.3909 184.918C69.137 175.573 62.5155 160.289 62.4476 160.135C62.306 159.817 62.4476 159.441 62.7704 159.299C63.0876 159.157 63.4615 159.299 63.6031 159.623C63.6767 159.788 65.3759 163.668 66.2312 168.821C67.3697 175.709 66.3955 181.534 63.4161 185.663C62.6062 186.784 61.3884 187.478 60.0743 187.563C59.9893 187.569 59.8987 187.574 59.8024 187.574C59.7401 187.58 59.6268 187.592 59.4739 187.592V187.603Z" fill="black"/>
<path d="M33.1518 163.281C31.6677 169.487 30.4556 179.105 34.9247 185.294C35.5987 186.227 36.6466 186.858 37.7964 186.932C37.8814 186.938 37.972 186.944 38.0626 186.944C38.0626 186.944 42.3334 187.603 42.9905 180.675" fill="white"/>
<path d="M38.3466 187.598C38.1936 187.598 38.0804 187.587 38.0181 187.581C37.9274 187.581 37.8368 187.581 37.7518 187.57C36.4377 187.484 35.2199 186.791 34.41 185.67C29.9013 179.425 30.9038 169.965 32.5351 163.134C32.6144 162.793 32.9599 162.588 33.2998 162.668C33.6396 162.747 33.8492 163.094 33.7642 163.435C30.9152 175.346 33.0959 181.694 35.4295 184.931C36.0186 185.744 36.8909 186.25 37.8311 186.313C37.9331 186.318 38.0464 186.313 38.154 186.33C38.1936 186.33 39.2472 186.466 40.2894 185.636C41.4336 184.726 42.1246 183.042 42.3568 180.63C42.3908 180.283 42.6967 180.016 43.0479 180.062C43.3934 180.096 43.6483 180.403 43.6143 180.756C43.3481 183.548 42.4871 185.539 41.0427 186.665C39.9892 187.49 38.9073 187.615 38.3466 187.615V187.598Z" fill="black"/>
<path d="M54.812 181.311H41.9996C41.6484 181.311 41.3652 181.027 41.3652 180.674C41.3652 180.322 41.6484 180.037 41.9996 180.037H54.812C55.1632 180.037 55.4464 180.322 55.4464 180.674C55.4464 181.027 55.1632 181.311 54.812 181.311Z" fill="black"/>
<path d="M92.1956 90.4451C97.5993 77.556 91.4253 73.0056 91.4253 73.0056C86.792 68.4551 77.5254 74.5243 77.5254 74.5243C48.9496 57.8412 21.1497 75.2808 21.1497 75.2808C11.8831 69.9739 5.70347 74.5243 5.70347 74.5243C-1.24649 81.3499 4.93314 92.726 4.93314 92.726C4.93314 92.726 -13.6624 133.504 26.3268 147.991C36.4997 151.677 47.5052 152.695 58.2218 151.08C77.4064 148.184 106.022 136.376 92.2013 90.4508L92.1956 90.4451Z" fill="#FF8031"/>
<path d="M48.3385 152.451C40.7315 152.451 33.1868 151.148 26.1065 148.583C14.478 144.368 6.61606 137.531 2.74176 128.259C-3.7494 112.737 3.19489 95.1947 4.22577 92.7432C3.81795 91.9241 2.65679 89.4213 2.08471 86.2929C1.16145 81.2362 2.2603 77.01 5.25665 74.0636L5.32463 74.0067C5.58518 73.8133 11.7988 69.3767 21.1334 74.5414C22.6344 73.6541 29.1142 70.0422 38.4828 68.0172C48.1232 65.9354 62.6859 65.2585 77.509 73.7735C79.2706 72.6985 87.3477 68.1651 91.8394 72.5165C92.4285 72.9715 98.087 77.8234 92.8703 90.4736C98.2343 108.431 97.5999 122.867 90.9785 133.379C83.2752 145.608 68.9618 150.09 58.3188 151.7C55.0052 152.2 51.669 152.451 48.3441 152.451H48.3385ZM6.10628 75.0078C-0.362221 81.4183 5.42658 92.3052 5.48322 92.4132L5.63616 92.692L5.50588 92.9821C5.42092 93.1698 -2.83181 111.65 3.91424 127.776C7.64694 136.7 15.2596 143.299 26.5427 147.388C36.5173 151 47.4379 152.058 58.1262 150.448C68.5143 148.878 82.4595 144.527 89.908 132.707C96.3538 122.48 96.9202 108.323 91.5959 90.6329L91.5279 90.4167L91.6185 90.2063C96.7729 77.9201 91.1144 73.5631 91.0578 73.5232L90.9898 73.4664C86.7643 69.3198 77.9622 75.0021 77.8772 75.059L77.5487 75.2752L77.2145 75.0761C49.3127 58.7855 21.7621 75.6506 21.4902 75.8212L21.173 76.0203L20.8445 75.8326C12.3709 70.9807 6.59907 74.6836 6.11761 75.0135L6.10628 75.0078Z" fill="black"/>
<path d="M86.9275 118.117C86.9275 114.107 84.8091 110.512 81.4616 108.072C82.3338 103.357 80.6006 98.5218 76.4091 95.4958C73.8206 93.6244 70.6996 92.7314 67.539 92.7485C65.1204 89.1934 60.4871 86.7874 55.1684 86.7874C54.8739 86.7874 54.5793 86.7988 54.2904 86.8101C54.8399 83.9775 54.1545 81.5771 52.3703 80.9173C50.2462 80.1267 47.3122 82.0834 45.4543 85.3654C42.5542 82.7432 38.9292 81.7705 37.3545 83.1869C36.3236 84.1197 36.4369 85.8546 37.4565 87.6747C36.7994 87.6065 36.1367 87.5724 35.457 87.5724C26.6888 87.5724 19.5746 93.3457 19.5746 100.461C19.5746 100.848 19.5973 101.235 19.6426 101.616C13.9784 103.988 10.0078 109.488 10.0078 115.899C10.0078 122.309 13.9841 127.821 19.6596 130.187C19.6029 130.648 19.569 131.109 19.569 131.586C19.569 137.991 24.882 143.19 31.4298 143.19C32.5456 143.19 32.0019 143.036 33.0271 142.758C35.6213 145.346 41.1778 146.995 45.5902 146.995C50.2519 146.995 54.3924 145.147 56.9696 142.297C58.6519 142.872 60.4927 143.19 62.4242 143.19C70.2465 143.19 76.5847 137.997 76.5847 131.586C76.5847 131.257 76.562 130.932 76.5337 130.608C82.5944 128.731 86.9162 123.845 86.9162 118.111L86.9275 118.117Z" fill="white"/>
<path d="M45.6016 147.628C41.58 147.628 35.8535 146.172 32.8798 143.476C32.7835 143.516 32.7269 143.55 32.6759 143.578C32.3757 143.76 32.1548 143.823 31.4468 143.823C24.5591 143.823 18.9516 138.334 18.9516 131.588C18.9516 131.258 18.9686 130.928 18.9969 130.587C13.1458 127.947 9.38477 122.237 9.38477 115.9C9.38477 109.564 13.1345 103.858 18.9799 101.219C18.9629 100.958 18.9516 100.707 18.9516 100.463C18.9516 93.0057 26.3603 86.9365 35.4627 86.9365C35.7799 86.9365 36.1027 86.9422 36.4199 86.9593C35.7232 85.196 35.8932 83.6488 36.9354 82.7103C38.6573 81.1518 42.2314 81.9026 45.3014 84.394C47.3575 81.1802 50.3425 79.4852 52.5912 80.3213C54.4717 81.021 55.3893 83.2677 55.0381 86.1516C55.0834 86.1516 55.1287 86.1516 55.1684 86.1516C60.3738 86.1516 65.2053 88.4268 67.8675 92.1127C71.1697 92.1582 74.2454 93.1479 76.7773 94.9794C80.8838 97.9486 82.9229 102.829 82.1469 107.795C85.5908 110.44 87.5562 114.182 87.5562 118.118C87.5562 123.806 83.4214 128.948 77.2078 131.064C77.2191 131.246 77.2247 131.423 77.2247 131.593C77.2247 138.339 70.592 143.828 62.4356 143.828C60.6174 143.828 58.8501 143.561 57.1622 143.026C54.3414 145.956 50.1499 147.628 45.5959 147.628H45.6016ZM33.0384 142.116C33.2027 142.116 33.3613 142.179 33.4859 142.298C35.8082 144.608 41.0136 146.354 45.6016 146.354C49.8894 146.354 53.9676 144.676 56.5108 141.866C56.6807 141.678 56.947 141.61 57.1848 141.69C58.8501 142.258 60.6174 142.549 62.4356 142.549C69.8953 142.549 75.9616 137.628 75.9616 131.582C75.9616 131.298 75.9446 131.002 75.9107 130.672C75.8823 130.37 76.0636 130.092 76.3525 130.001C82.2999 128.163 86.2931 123.386 86.2931 118.113C86.2931 114.467 84.3956 110.991 81.0877 108.58C80.8895 108.437 80.7932 108.193 80.8385 107.948C81.7051 103.267 79.9096 98.8018 76.0409 96.0033C73.662 94.2855 70.7506 93.3754 67.6183 93.3754C67.59 93.3754 67.573 93.3811 67.5333 93.3754C67.3237 93.3754 67.1312 93.273 67.0122 93.0967C64.6276 89.5928 60.0849 87.4143 55.1627 87.4143C54.8795 87.4143 54.5963 87.4257 54.3188 87.4371C54.1262 87.4541 53.9393 87.3688 53.809 87.2209C53.6787 87.073 53.6277 86.874 53.6674 86.6806C54.1715 84.1096 53.5598 82.0277 52.1494 81.5044C50.3595 80.8446 47.72 82.6307 46.0037 85.6681C45.9075 85.8331 45.7432 85.9525 45.5563 85.9809C45.3694 86.0094 45.1768 85.9525 45.0352 85.8274C42.1464 83.2165 38.9518 82.5965 37.785 83.6488C37.0317 84.3314 37.1223 85.7534 38.0172 87.3574C38.1305 87.5622 38.1249 87.8182 37.9946 88.0173C37.8643 88.2163 37.6377 88.3244 37.3998 88.3017C36.7655 88.2334 36.1141 88.205 35.4627 88.205C27.057 88.205 20.2147 93.7053 20.2147 100.463C20.2147 100.804 20.2374 101.157 20.277 101.549C20.3053 101.828 20.1524 102.095 19.8918 102.203C14.2786 104.558 10.6479 109.933 10.6479 115.9C10.6479 121.867 14.2843 127.253 19.9145 129.603C20.175 129.711 20.3336 129.984 20.2997 130.268C20.243 130.729 20.2147 131.161 20.2147 131.588C20.2147 137.634 25.2502 142.554 31.4468 142.554C31.8489 142.554 31.9452 142.531 31.9679 142.526C31.9849 142.52 32.0019 142.509 32.0189 142.497C32.1945 142.389 32.404 142.276 32.8742 142.145C32.9308 142.128 32.9874 142.122 33.0384 142.122V142.116Z" fill="black"/>
<path d="M46.9107 119.745C46.7465 121.838 45.0019 123.487 42.8722 123.487C40.6348 123.487 38.8223 121.667 38.8223 119.42C38.8223 117.174 40.6348 115.354 42.8722 115.354C43.8407 115.354 44.7244 115.695 45.421 116.258" fill="white"/>
<path d="M42.8728 124.101C40.3069 124.101 38.2168 122.002 38.2168 119.426C38.2168 116.849 40.3069 114.75 42.8728 114.75C43.9376 114.75 44.9798 115.12 45.8068 115.791L45.0421 116.741C44.4247 116.235 43.6714 115.973 42.8784 115.973C40.9809 115.973 39.4346 117.526 39.4346 119.431C39.4346 121.337 40.9809 122.89 42.8784 122.89C44.6626 122.89 46.1693 121.49 46.3109 119.71L47.5231 119.807C47.3361 122.224 45.297 124.113 42.8784 124.113L42.8728 124.101Z" fill="black"/>
<path d="M46.9217 116.173C47.2163 115.905 47.6807 115.684 48.1735 115.541C48.5757 115.422 49.0005 115.359 49.3517 115.359C51.589 115.359 53.4015 117.18 53.4015 119.426C53.4015 121.673 51.589 123.493 49.3517 123.493C47.3975 123.493 45.7606 122.1 45.3867 120.245" fill="white"/>
<path d="M49.3515 124.101C47.1481 124.101 45.228 122.531 44.7918 120.364C44.7239 120.034 44.9391 119.71 45.2676 119.642C45.5962 119.573 45.919 119.789 45.987 120.119C46.3155 121.718 47.7316 122.878 49.3572 122.878C51.2547 122.878 52.801 121.325 52.801 119.42C52.801 117.514 51.2547 115.961 49.3572 115.961C49.0626 115.961 48.6945 116.018 48.349 116.121C47.9185 116.246 47.539 116.428 47.3407 116.616C47.0915 116.843 46.712 116.826 46.4798 116.576C46.2532 116.325 46.2702 115.939 46.5194 115.717C46.8593 115.404 47.3917 115.131 48.0148 114.949C48.4736 114.818 48.955 114.744 49.3628 114.744C51.9287 114.744 54.0188 116.843 54.0188 119.42C54.0188 121.996 51.9287 124.095 49.3628 124.095L49.3515 124.101Z" fill="black"/>
<path d="M45.7048 117.396C47.4941 117.396 48.9447 116.563 48.9447 115.536C48.9447 114.509 47.4941 113.676 45.7048 113.676C43.9154 113.676 42.4648 114.509 42.4648 115.536C42.4648 116.563 43.9154 117.396 45.7048 117.396Z" fill="black"/>
<path d="M61.848 118.397C64.7541 118.397 67.11 117.488 67.11 116.367C67.11 115.245 64.7541 114.336 61.848 114.336C58.9418 114.336 56.5859 115.245 56.5859 116.367C56.5859 117.488 58.9418 118.397 61.848 118.397Z" fill="#EBC1C1"/>
<path d="M30.3987 118.772C33.3049 118.772 35.6608 117.863 35.6608 116.742C35.6608 115.62 33.3049 114.711 30.3987 114.711C27.4926 114.711 25.1367 115.62 25.1367 116.742C25.1367 117.863 27.4926 118.772 30.3987 118.772Z" fill="#EBC1C1"/>
<path d="M36.659 113.277C37.5537 113.277 38.279 112.549 38.279 111.65C38.279 110.752 37.5537 110.023 36.659 110.023C35.7643 110.023 35.0391 110.752 35.0391 111.65C35.0391 112.549 35.7643 113.277 36.659 113.277Z" fill="black"/>
<path d="M55.7762 113.277C56.6709 113.277 57.3962 112.549 57.3962 111.65C57.3962 110.752 56.6709 110.023 55.7762 110.023C54.8815 110.023 54.1562 110.752 54.1562 111.65C54.1562 112.549 54.8815 113.277 55.7762 113.277Z" fill="black"/>
<path d="M48.3603 171.518C51.9766 171.518 54.9081 168.574 54.9081 164.943C54.9081 161.311 51.9766 158.367 48.3603 158.367C44.744 158.367 41.8125 161.311 41.8125 164.943C41.8125 168.574 44.744 171.518 48.3603 171.518Z" fill="#FF8031"/>
<path d="M48.3611 172.063C44.4471 172.063 41.2695 168.867 41.2695 164.942C41.2695 161.017 44.4528 157.82 48.3611 157.82C52.2694 157.82 55.4527 161.017 55.4527 164.942C55.4527 168.867 52.2694 172.063 48.3611 172.063ZM48.3611 158.912C45.0532 158.912 42.3571 161.614 42.3571 164.942C42.3571 168.269 45.0475 170.971 48.3611 170.971C51.6746 170.971 54.3651 168.269 54.3651 164.942C54.3651 161.614 51.6746 158.912 48.3611 158.912Z" fill="black"/>
<path d="M46.2078 165.141C45.9076 165.141 45.6641 164.897 45.6641 164.595V163.509C45.6641 163.207 45.9076 162.963 46.2078 162.963C46.508 162.963 46.7516 163.207 46.7516 163.509V164.595C46.7516 164.897 46.508 165.141 46.2078 165.141Z" fill="black"/>
<path d="M50.5477 165.141C50.2475 165.141 50.0039 164.897 50.0039 164.595V163.509C50.0039 163.207 50.2475 162.963 50.5477 162.963C50.8479 162.963 51.0914 163.207 51.0914 163.509V164.595C51.0914 164.897 50.8479 165.141 50.5477 165.141Z" fill="black"/>
<path d="M46.209 166.404C46.209 166.404 47.3758 167.855 48.2368 166.404C48.2368 166.404 49.4149 167.855 50.3382 166.404" fill="#FF8031"/>
<path d="M49.381 167.599C48.9505 167.599 48.571 167.405 48.2935 167.2C47.982 167.485 47.6648 167.576 47.4212 167.593C46.5376 167.661 45.8522 166.842 45.7786 166.745C45.5917 166.512 45.6257 166.165 45.8579 165.978C46.0901 165.79 46.4356 165.824 46.6226 166.057C46.7755 166.245 47.1097 166.518 47.3419 166.501C47.5118 166.489 47.6648 166.29 47.7611 166.125C47.8517 165.972 48.0103 165.875 48.1915 165.858C48.3671 165.841 48.5427 165.921 48.656 166.057C48.7806 166.205 49.1318 166.512 49.398 166.501C49.5566 166.489 49.7152 166.359 49.8738 166.108C50.0381 165.852 50.3723 165.778 50.6271 165.943C50.882 166.108 50.9557 166.444 50.7914 166.7C50.3439 167.405 49.8172 167.576 49.4547 167.593C49.4263 167.593 49.398 167.593 49.3754 167.593L49.381 167.599Z" fill="black"/>
<path d="M34.6648 163.56L26.1742 156.376C26.1742 156.376 22.7133 153.771 23.2401 149.915C23.6706 146.758 26.6783 144.517 29.7199 145.421C29.7596 145.432 29.7936 145.444 29.8332 145.455C30.3034 145.603 31.5155 146.069 32.9882 147.907C33.2714 148.259 33.9454 149.141 34.6308 150.557" fill="white"/>
<path d="M34.6646 164.196C34.523 164.196 34.3758 164.145 34.2568 164.048L25.7662 156.864C25.6416 156.773 22.0448 154.009 22.6112 149.834C22.8548 148.042 23.846 146.461 25.3357 145.494C26.7234 144.595 28.3434 144.356 29.8954 144.817L30.0143 144.851C31.1982 145.226 32.3593 146.119 33.4695 147.513C34.0982 148.304 34.6816 149.236 35.1914 150.283C35.3443 150.596 35.2141 150.977 34.8969 151.131C34.5853 151.284 34.2058 151.153 34.0529 150.841C33.73 150.175 33.1976 149.197 32.4839 148.309C31.8269 147.49 30.8017 146.438 29.6348 146.063L29.5329 146.034C28.3377 145.681 27.086 145.863 26.0154 146.557C24.8373 147.32 24.0499 148.577 23.8574 150.004C23.3872 153.446 26.5139 155.846 26.5479 155.869L35.0668 163.076C35.333 163.303 35.367 163.701 35.1404 163.969C35.0158 164.116 34.8346 164.196 34.659 164.196H34.6646Z" fill="black"/>
<path d="M220.026 144.544L217.029 159.595L224.523 177.654L247.503 179.156L251.003 157.086L249.004 141.529L220.026 144.544Z" fill="white"/>
<path d="M220.648 148.68L212.27 157.092C212.27 157.092 208.849 159.669 209.37 163.474C209.795 166.597 212.769 168.81 215.777 167.917C215.811 167.905 215.85 167.894 215.884 167.883C216.349 167.735 217.544 167.28 219 165.459C219.283 165.107 219.945 164.242 220.625 162.837" fill="white"/>
<path d="M214.406 168.662C213.392 168.662 212.39 168.366 211.489 167.78C210.039 166.842 209.071 165.3 208.833 163.554C208.3 159.641 211.523 156.99 211.914 156.689L220.269 148.299L221.033 149.067L212.599 157.531C212.565 157.553 209.439 159.971 209.909 163.406C210.107 164.84 210.894 166.102 212.078 166.87C213.16 167.57 214.418 167.758 215.624 167.399L215.726 167.371C216.898 166.995 217.929 165.943 218.581 165.124C219.289 164.237 219.821 163.264 220.138 162.604L221.107 163.076C220.608 164.112 220.036 165.027 219.419 165.801C218.331 167.16 217.193 168.036 216.049 168.4L215.924 168.44C215.42 168.588 214.916 168.662 214.406 168.662Z" fill="black"/>
<path d="M221.39 155.574C221.39 155.574 214.401 173.634 221.362 183.275C222.03 184.196 223.061 184.822 224.2 184.896C224.285 184.902 224.375 184.907 224.466 184.907C224.466 184.907 228.686 185.562 229.337 178.713" fill="white"/>
<path d="M224.749 185.465C224.596 185.465 224.488 185.454 224.426 185.448C224.335 185.448 224.25 185.448 224.159 185.437C222.885 185.352 221.707 184.68 220.92 183.594C217.986 179.533 217.057 173.355 218.229 165.728C219.107 160.017 220.869 155.427 220.886 155.381C220.993 155.103 221.305 154.966 221.582 155.074C221.86 155.182 221.996 155.495 221.888 155.774C221.82 155.95 215.085 173.668 221.792 182.957C222.387 183.782 223.276 184.294 224.227 184.356C224.329 184.362 224.431 184.356 224.539 184.368C224.579 184.368 225.655 184.51 226.714 183.668C227.864 182.758 228.561 181.068 228.793 178.657C228.821 178.361 229.082 178.139 229.382 178.168C229.676 178.196 229.897 178.458 229.869 178.759C229.608 181.495 228.764 183.44 227.36 184.538C226.335 185.34 225.287 185.46 224.749 185.46V185.465Z" fill="black"/>
<path d="M240.434 178.52C241.085 185.363 245.305 184.714 245.305 184.714C245.395 184.714 245.48 184.714 245.571 184.703C246.704 184.629 247.74 184.003 248.409 183.082C255.37 173.44 248.533 157.975 248.533 157.975" fill="white"/>
<path d="M245.01 185.272C244.472 185.272 243.424 185.152 242.398 184.35C240.994 183.252 240.15 181.307 239.889 178.571C239.861 178.275 240.076 178.008 240.376 177.98C240.677 177.951 240.937 178.167 240.965 178.469C241.192 180.88 241.894 182.57 243.044 183.48C244.103 184.322 245.18 184.185 245.225 184.18C245.327 184.162 245.434 184.174 245.531 184.168C246.482 184.106 247.366 183.594 247.966 182.769C254.661 173.497 248.097 158.35 248.034 158.197C247.915 157.923 248.034 157.605 248.306 157.48C248.578 157.36 248.895 157.48 249.02 157.753C249.088 157.912 250.764 161.74 251.608 166.825C252.73 173.605 251.773 179.339 248.844 183.4C248.057 184.487 246.879 185.158 245.61 185.243C245.525 185.243 245.434 185.255 245.344 185.255C245.282 185.26 245.174 185.272 245.021 185.272H245.01Z" fill="black"/>
<path d="M240.405 179.048H227.745C227.445 179.048 227.207 178.803 227.207 178.507C227.207 178.211 227.451 177.967 227.745 177.967H240.405C240.705 177.967 240.943 178.211 240.943 178.507C240.943 178.803 240.699 179.048 240.405 179.048Z" fill="black"/>
<path d="M219.687 155.448C219.607 155.448 219.528 155.431 219.449 155.397L216.311 154.009C216.016 153.879 215.88 153.532 216.01 153.23C216.141 152.934 216.486 152.798 216.786 152.929L219.924 154.317C220.219 154.447 220.355 154.794 220.225 155.096C220.128 155.318 219.913 155.448 219.687 155.448Z" fill="black"/>
<path d="M217.89 157.343C217.81 157.343 217.731 157.326 217.652 157.292L214.514 155.904C214.219 155.773 214.083 155.426 214.214 155.125C214.344 154.829 214.689 154.692 214.99 154.823L218.128 156.211C218.422 156.342 218.558 156.689 218.428 156.99C218.331 157.212 218.116 157.343 217.89 157.343Z" fill="black"/>
<path d="M238.174 160.903C237.489 158.93 235.818 157.627 233.943 157.371C234.447 157.849 234.855 158.458 235.104 159.174C235.92 161.523 234.748 164.111 232.482 164.959C230.975 165.522 229.367 165.169 228.217 164.174C228.251 164.311 228.29 164.447 228.336 164.584C229.316 167.399 232.312 168.861 235.031 167.848C237.75 166.836 239.16 163.725 238.18 160.909L238.174 160.903Z" fill="#FF8031"/>
<path d="M233.252 168.736C232.431 168.736 231.615 168.554 230.845 168.19C229.412 167.513 228.33 166.296 227.797 164.766C227.746 164.618 227.707 164.465 227.667 164.317C227.605 164.078 227.701 163.822 227.916 163.685C228.126 163.555 228.398 163.572 228.59 163.737C229.621 164.624 231.037 164.886 232.289 164.419C234.26 163.68 235.285 161.41 234.572 159.357C234.362 158.748 234.022 158.219 233.558 157.781C233.377 157.611 233.331 157.343 233.433 157.121C233.541 156.9 233.779 156.774 234.022 156.803C236.18 157.104 237.976 158.6 238.712 160.716C239.788 163.822 238.225 167.257 235.229 168.378C234.589 168.617 233.92 168.736 233.258 168.736H233.252ZM229.429 165.517C229.899 166.228 230.55 166.791 231.332 167.161C232.442 167.684 233.682 167.735 234.832 167.309C237.257 166.404 238.52 163.611 237.642 161.092C237.24 159.926 236.435 158.993 235.416 158.441C235.501 158.617 235.574 158.794 235.637 158.981C236.554 161.615 235.223 164.533 232.674 165.488C231.615 165.887 230.465 165.881 229.423 165.517H229.429Z" fill="black"/>
<path d="M268.438 112.714L268.834 93.5512C268.772 88.7164 263.017 86.134 259.273 89.2624L249.621 97.3337C246.812 96.526 243.832 96.0881 240.745 96.0881H228.483C226.189 96.0881 223.962 96.3327 221.816 96.7877L210.788 87.5674C207.044 84.4389 201.289 87.0156 201.226 91.8562L202.065 110.433C199.374 114.768 197.822 119.813 197.822 125.211C197.822 141.297 211.547 149.396 228.477 149.396H240.74C257.67 149.396 271.394 141.291 271.394 125.211C271.394 120.734 270.33 116.497 268.432 112.709L268.438 112.714Z" fill="white"/>
<path d="M240.751 150H228.488C209.507 150 197.238 140.274 197.238 125.212C197.238 119.962 198.7 114.803 201.469 110.275L200.637 91.88C200.665 89.4057 202.075 87.2442 204.313 86.209C206.607 85.1453 209.235 85.4923 211.172 87.1077L221.979 96.1403C224.126 95.708 226.318 95.4862 228.488 95.4862H240.751C243.713 95.4862 246.647 95.8843 249.485 96.6693L258.899 88.8027C260.83 87.1873 263.458 86.8404 265.758 87.904C267.995 88.9392 269.406 91.1007 269.434 93.5409L269.038 112.573C271.003 116.543 272 120.792 272 125.212C272 140.268 259.731 150 240.751 150ZM207.054 86.8005C206.301 86.8005 205.536 86.9655 204.817 87.3011C202.97 88.1543 201.855 89.8607 201.832 91.8686L202.682 110.599L202.585 110.759C199.872 115.133 198.433 120.132 198.433 125.218C198.433 132.601 201.452 138.704 207.168 142.862C212.515 146.753 219.889 148.812 228.493 148.812H240.756C249.36 148.812 256.735 146.753 262.082 142.862C267.797 138.704 270.816 132.606 270.816 125.218C270.816 120.94 269.842 116.828 267.916 112.983L267.848 112.852L268.25 93.5409C268.228 91.5557 267.106 89.8493 265.265 88.9961C263.39 88.1315 261.244 88.4103 259.669 89.7299L249.774 98.0003L249.473 97.915C246.647 97.1016 243.719 96.6921 240.762 96.6921H228.499C226.313 96.6921 224.109 96.9253 221.951 97.3803L221.668 97.4372L210.419 88.0348C209.45 87.2215 208.266 86.8062 207.06 86.8062L207.054 86.8005Z" fill="black"/>
<path d="M210.329 103.073C210.074 103.073 209.836 102.902 209.762 102.64L207.757 95.462C207.672 95.1492 207.854 94.825 208.165 94.7339C208.477 94.6429 208.799 94.8306 208.89 95.1435L210.895 102.322C210.98 102.635 210.799 102.959 210.487 103.05C210.436 103.067 210.38 103.073 210.329 103.073Z" fill="black"/>
<path d="M260.031 102.977C259.98 102.977 259.923 102.971 259.872 102.954C259.561 102.869 259.379 102.539 259.464 102.226L261.469 95.0478C261.554 94.7349 261.883 94.5472 262.194 94.6382C262.506 94.7236 262.687 95.0535 262.602 95.3663L260.597 102.545C260.523 102.806 260.286 102.977 260.031 102.977Z" fill="black"/>
<path d="M223.316 122.412C224.161 122.412 224.846 121.689 224.846 120.797C224.846 119.905 224.161 119.182 223.316 119.182C222.472 119.182 221.787 119.905 221.787 120.797C221.787 121.689 222.472 122.412 223.316 122.412Z" fill="black"/>
<path d="M242.398 122.412C243.243 122.412 243.928 121.689 243.928 120.797C243.928 119.905 243.243 119.182 242.398 119.182C241.554 119.182 240.869 119.905 240.869 120.797C240.869 121.689 241.554 122.412 242.398 122.412Z" fill="black"/>
<path d="M232.079 128.391C234.825 128.391 237.052 127.143 237.052 125.604C237.052 124.064 234.825 122.816 232.079 122.816C229.332 122.816 227.105 124.064 227.105 125.604C227.105 127.143 229.332 128.391 232.079 128.391Z" fill="black"/>
<path d="M249.649 126.456C252.39 126.456 254.611 125.552 254.611 124.437C254.611 123.322 252.39 122.418 249.649 122.418C246.909 122.418 244.688 123.322 244.688 124.437C244.688 125.552 246.909 126.456 249.649 126.456Z" fill="#EBC1C1"/>
<path d="M215.433 126.826C218.173 126.826 220.394 125.922 220.394 124.806C220.394 123.691 218.173 122.787 215.433 122.787C212.692 122.787 210.471 123.691 210.471 124.806C210.471 125.922 212.692 126.826 215.433 126.826Z" fill="#EBC1C1"/>
<path d="M249.405 147.252H220.019C219.234 147.252 218.598 147.89 218.598 148.677C218.598 149.464 219.234 150.102 220.019 150.102H249.405C250.19 150.102 250.827 149.464 250.827 148.677C250.827 147.89 250.19 147.252 249.405 147.252Z" fill="#FF8031"/>
<path d="M249.405 150.562H220.013C218.977 150.562 218.133 149.715 218.133 148.674C218.133 147.633 218.977 146.785 220.013 146.785H249.405C250.441 146.785 251.285 147.633 251.285 148.674C251.285 149.715 250.441 150.562 249.405 150.562ZM220.013 147.712C219.487 147.712 219.056 148.145 219.056 148.674C219.056 149.203 219.487 149.635 220.013 149.635H249.405C249.932 149.635 250.362 149.203 250.362 148.674C250.362 148.145 249.932 147.712 249.405 147.712H220.013Z" fill="black"/>
<path d="M235.641 133.623C235.136 133.623 234.627 133.554 234.128 133.424C233.805 133.338 233.607 133.003 233.698 132.679C233.783 132.354 234.117 132.155 234.44 132.246C235.652 132.565 236.909 132.394 237.991 131.763C239.073 131.131 239.843 130.113 240.161 128.902C240.246 128.577 240.58 128.378 240.903 128.469C241.225 128.555 241.424 128.89 241.333 129.214C240.931 130.745 239.962 132.024 238.603 132.821C237.691 133.355 236.671 133.628 235.646 133.628L235.641 133.623Z" fill="black"/>
<path d="M229.644 104.78C229.321 104.78 229.061 104.518 229.061 104.194V96.0488C229.061 95.7245 229.321 95.4629 229.644 95.4629C229.967 95.4629 230.227 95.7245 230.227 96.0488V104.194C230.227 104.518 229.967 104.78 229.644 104.78Z" fill="black"/>
<path d="M236.537 104.78C236.214 104.78 235.953 104.518 235.953 104.194V96.4921C235.953 96.1679 236.214 95.9062 236.537 95.9062C236.859 95.9062 237.12 96.1679 237.12 96.4921V104.194C237.12 104.518 236.859 104.78 236.537 104.78Z" fill="black"/>
<path d="M248.618 162.188L256.57 153.366C256.57 153.366 259.855 150.624 259.153 146.848C258.575 143.753 255.494 141.688 252.537 142.729C252.503 142.741 252.464 142.758 252.43 142.769C251.971 142.94 250.804 143.457 249.439 145.346C249.173 145.71 247.371 148.486 246.76 149.919" fill="white"/>
<path d="M248.617 162.736C248.487 162.736 248.357 162.69 248.255 162.594C248.034 162.395 248.017 162.048 248.215 161.832L256.168 153.009C256.168 153.009 256.202 152.975 256.224 152.958C256.253 152.935 259.26 150.364 258.62 146.952C258.354 145.53 257.499 144.307 256.281 143.601C255.171 142.953 253.902 142.833 252.712 143.249L252.616 143.283C251.461 143.715 250.481 144.819 249.869 145.672C249.575 146.081 247.83 148.777 247.252 150.137C247.133 150.41 246.822 150.541 246.544 150.421C246.272 150.302 246.142 149.989 246.261 149.71C246.901 148.197 248.748 145.376 248.997 145.035C250.016 143.618 251.11 142.691 252.237 142.27L252.35 142.231C253.84 141.707 255.426 141.861 256.813 142.669C258.309 143.533 259.351 145.023 259.674 146.758C260.399 150.643 257.312 153.447 256.938 153.766L249.008 162.56C248.9 162.679 248.753 162.736 248.606 162.736H248.617Z" fill="black"/>
<path d="M252.464 157.655C252.385 157.655 252.305 157.638 252.226 157.604L249.088 156.216C248.793 156.086 248.658 155.739 248.788 155.437C248.918 155.141 249.264 155.005 249.564 155.136L252.702 156.524C252.996 156.654 253.132 157.001 253.002 157.303C252.906 157.525 252.69 157.655 252.464 157.655Z" fill="black"/>
<path d="M254.261 155.556C254.181 155.556 254.102 155.539 254.023 155.505L250.885 154.117C250.59 153.986 250.454 153.639 250.585 153.338C250.715 153.042 251.06 152.905 251.361 153.036L254.499 154.424C254.793 154.555 254.929 154.902 254.799 155.203C254.703 155.425 254.487 155.556 254.261 155.556Z" fill="black"/>
<path d="M148.702 83.0339C147.785 83.0339 146.861 82.9145 145.955 82.6756C145.542 82.5675 145.292 82.1352 145.4 81.72C145.508 81.3048 145.938 81.0545 146.352 81.1626C148.719 81.7882 151.183 81.4526 153.296 80.2127C155.409 78.9783 156.915 76.9875 157.538 74.6099C157.646 74.1947 158.076 73.9444 158.49 74.0525C158.903 74.1606 159.153 74.5929 159.045 75.0081C158.314 77.7839 156.553 80.116 154.083 81.5607C152.424 82.5334 150.577 83.0282 148.708 83.0282L148.702 83.0339Z" fill="black"/>
</g>
<defs>
<clipPath id="clip0_2942_64874">
<rect width="272" height="192" fill="white"/>
</clipPath>
</defs>
</svg>
