<svg width="300" height="245" viewBox="0 0 300 245" fill="none" xmlns="http://www.w3.org/2000/svg">
<g clip-path="url(#clip0_936_28349)">
<path d="M97.1507 201.641C97.1507 201.641 94.2386 219.5 97.1507 234.051C97.1507 234.051 99.2804 242.788 105.62 242.451C105.62 242.451 110.731 244.145 112.544 234.626C112.979 232.357 114.782 230.594 117.08 230.267C128.788 228.574 164.041 224.621 199.076 231.971C201.077 232.387 202.711 233.863 203.216 235.834C203.939 238.657 205.633 242.471 209.615 242.916C209.615 242.916 218.243 245.611 219.669 232.922C219.669 232.922 224.929 212.666 218.381 189.894L97.1408 201.651L97.1507 201.641Z" fill="#F9F7F2" stroke="black" stroke-width="1.59" stroke-linecap="round" stroke-linejoin="round"/>
<path d="M85.2643 155.265C85.2643 155.265 78.3802 168.597 88.6916 173.807C88.6916 173.807 96.6257 177.284 102.183 167.715L102.975 160.752L85.2544 155.255L85.2643 155.265Z" fill="#F9F7F2" stroke="black" stroke-width="1.38" stroke-linecap="round" stroke-linejoin="round"/>
<path d="M175.373 101.132H120.091L97.8443 115.772C97.8443 115.772 84.591 135.692 83.026 155.116C82.9566 155.988 83.4519 156.81 84.2542 157.186L102.569 162.832C102.569 162.832 97.5372 183.554 96.0811 203.929C96.0415 204.454 96.0118 204.969 95.9821 205.494C95.9127 206.653 96.9528 207.574 98.1018 207.356C109.344 205.227 161.367 196.461 219.778 204.484C220.501 204.583 221.155 204.068 221.195 203.345C221.472 198.759 221.749 178.374 215.063 155.512L230.862 108.046L217.619 104.738" fill="#F9F7F2"/>
<path d="M175.373 101.132H120.091L97.8443 115.772C97.8443 115.772 84.591 135.692 83.026 155.116C82.9566 155.988 83.4519 156.81 84.2542 157.186L102.569 162.832C102.569 162.832 97.5372 183.554 96.0811 203.929C96.0415 204.454 96.0118 204.969 95.9821 205.494C95.9127 206.653 96.9528 207.574 98.1018 207.356C109.344 205.227 161.367 196.461 219.778 204.484C220.501 204.583 221.155 204.068 221.195 203.345C221.472 198.759 221.749 178.374 215.063 155.512L230.862 108.046L217.619 104.738" stroke="black" stroke-width="1.61" stroke-linecap="round" stroke-linejoin="round"/>
<path d="M102.192 163.516L112.434 134.959" stroke="black" stroke-width="1.34" stroke-linecap="round" stroke-linejoin="round"/>
<path d="M124.588 112.88C115.842 119.675 106.135 117.981 106.135 117.981C92.099 116.535 94.6743 101.836 95.754 97.4574C95.9917 96.5164 96.17 95.5655 96.2889 94.6047L96.4969 92.8812L106.372 31.6072C106.372 31.6072 110.384 3.82294 120.745 3.11967C120.745 3.11967 129.66 1.54473 134.444 25.0301C134.731 26.4664 135.89 27.4767 137.208 27.4569L175.6 26.6942C176.987 26.6645 178.136 25.5155 178.314 23.9901C178.998 17.8785 181.415 3.25834 188.923 1.92113C188.923 1.92113 197.233 -0.941494 205.296 21.8703C206.901 26.4169 208.149 31.102 209.11 35.8566L221.828 95.5853C221.947 96.1599 222.086 96.7244 222.254 97.2791C223.255 100.637 227.078 117.218 205.702 117.981C199.789 118.675 192.608 114.168 190.131 112.444C189.25 111.84 188.348 111.255 187.388 110.8C178.255 106.402 172.193 112.028 172.193 112.028C164.427 118.823 157.256 117.981 157.256 117.981C151.659 117.981 147.687 115.307 146.211 114.138C145.251 113.375 144.22 112.672 143.111 112.088C133.077 106.838 124.608 112.88 124.608 112.88" fill="#F9F7F2"/>
<path d="M124.588 112.88C115.842 119.675 106.135 117.981 106.135 117.981C92.099 116.535 94.6743 101.836 95.754 97.4574C95.9917 96.5164 96.17 95.5655 96.2889 94.6047L96.4969 92.8812L106.372 31.6072C106.372 31.6072 110.384 3.82294 120.745 3.11967C120.745 3.11967 129.66 1.54473 134.444 25.0301C134.731 26.4664 135.89 27.4767 137.208 27.4569L175.6 26.6942C176.987 26.6645 178.136 25.5155 178.314 23.9901C178.998 17.8785 181.415 3.25834 188.923 1.92113C188.923 1.92113 197.233 -0.941494 205.296 21.8703C206.901 26.4169 208.149 31.102 209.11 35.8566L221.828 95.5853C221.947 96.1598 222.086 96.7244 222.254 97.2791C223.255 100.637 227.078 117.218 205.702 117.981C199.789 118.675 192.608 114.168 190.131 112.444C189.25 111.84 188.348 111.255 187.388 110.8C178.255 106.402 172.193 112.028 172.193 112.028C164.427 118.823 157.256 117.981 157.256 117.981C151.659 117.981 147.687 115.307 146.211 114.138C145.251 113.375 144.22 112.672 143.111 112.088C133.077 106.838 124.608 112.88 124.608 112.88" stroke="black" stroke-width="1.61" stroke-linecap="round" stroke-linejoin="round"/>
<path d="M120.23 15.6499V27.2193" stroke="black" stroke-width="1.61" stroke-linecap="round" stroke-linejoin="round"/>
<path d="M190.35 14.5901V26.1594" stroke="black" stroke-width="1.61" stroke-linecap="round" stroke-linejoin="round"/>
<path d="M153.839 78.0926C159.621 78.0926 164.309 75.6136 164.309 72.5556C164.309 69.4976 159.621 67.0186 153.839 67.0186C148.057 67.0186 143.369 69.4976 143.369 72.5556C143.369 75.6136 148.057 78.0926 153.839 78.0926Z" fill="black"/>
<path d="M186.1 75.022C190.58 75.022 194.212 73.4477 194.212 71.5056C194.212 69.5636 190.58 67.9893 186.1 67.9893C181.619 67.9893 177.987 69.5636 177.987 71.5056C177.987 73.4477 181.619 75.022 186.1 75.022Z" fill="#F4CACA"/>
<path d="M122.479 75.022C126.959 75.022 130.591 73.4477 130.591 71.5056C130.591 69.5636 126.959 67.9893 122.479 67.9893C117.998 67.9893 114.366 69.5636 114.366 71.5056C114.366 73.4477 117.998 75.022 122.479 75.022Z" fill="#F4CACA"/>
<path d="M137.515 62.5613C138.893 62.5613 140.011 61.4438 140.011 60.0652C140.011 58.6866 138.893 57.5691 137.515 57.5691C136.136 57.5691 135.019 58.6866 135.019 60.0652C135.019 61.4438 136.136 62.5613 137.515 62.5613Z" fill="black"/>
<path d="M168.657 62.5613C170.036 62.5613 171.153 61.4438 171.153 60.0652C171.153 58.6866 170.036 57.5691 168.657 57.5691C167.279 57.5691 166.161 58.6866 166.161 60.0652C166.161 61.4438 167.279 62.5613 168.657 62.5613Z" fill="black"/>
<path d="M176.938 161.198C176.73 161.079 171.451 157.899 171.253 157.761L168.548 159.197C168.39 159.306 168.222 159.405 168.073 159.524L164.933 161.97C160.882 165.13 156.88 159.811 156.88 159.811C154.879 156.622 151.848 158.721 151.848 158.721C150.769 159.276 149.411 159.841 148.371 160.237C146.787 160.851 145.053 161.049 143.409 160.653C141.289 160.138 138.615 157.186 136.802 154.908C135.217 159.484 133.791 165.497 132.761 173.461L187.636 173.758C187.636 173.758 186.715 168.894 184.763 163.238C181.881 162.971 178.295 162.01 176.928 161.198H176.938Z" fill="#01972A"/>
<path d="M183.139 163.337C180.633 163.942 177.631 162.476 175.739 161.307C174.808 160.732 174.026 159.98 173.253 159.217C172.48 158.454 171.53 158.216 170.658 158.207C169.35 158.207 168.083 158.712 167.023 159.514L163.893 161.881C159.851 164.932 155.988 159.623 155.988 159.623C154.067 156.443 151.045 158.474 151.045 158.474C149.976 159.009 148.619 159.534 147.589 159.91C146.014 160.485 144.31 160.663 142.685 160.237C139.06 159.296 136.158 154.195 136.623 155.017" stroke="black" stroke-width="1.58" stroke-linecap="round" stroke-linejoin="round"/>
<path d="M161.456 154.413C161.298 154.749 160.793 154.7 160.704 154.333C159.862 150.857 156.741 140.862 148.53 140.862C148.53 140.862 136.525 138.772 132.275 173.282H186.398C186.398 173.282 182.317 152.362 173.372 147.142C173.372 147.142 166.835 143.21 161.446 154.413H161.456Z" stroke="black" stroke-width="2" stroke-miterlimit="10"/>
<path d="M209.278 101.945C209.278 101.945 213.637 89.4145 223.443 93.5351C223.443 93.5351 230.634 97.0118 227.88 106.432L222.502 113.108L209.278 101.955V101.945Z" fill="#F9F7F2" stroke="black" stroke-width="1.61" stroke-linecap="round" stroke-linejoin="round"/>
<path d="M229.485 107.67L222.353 105.798L207.456 100.825L204.375 117.981" fill="white"/>
<path d="M229.485 107.67L222.353 105.798L207.456 100.825L204.375 117.981" stroke="black" stroke-width="1.61" stroke-linecap="round" stroke-linejoin="round"/>
<path d="M228.385 108.878L223.017 107.264L205.197 117.159V120.467L220.105 118.813L228.385 108.878Z" fill="white"/>
</g>
<g clip-path="url(#clip1_936_28349)">
<path d="M240.905 198.779C240.905 198.779 232.129 205.078 230.178 211.784C229.93 212.626 229.811 213.508 229.901 214.399C230.079 216.053 230.99 218.47 234.794 218.728L240.895 198.788L240.905 198.779Z" fill="#F9F7F2" stroke="black" stroke-width="1.5" stroke-linecap="round" stroke-linejoin="round"/>
<path d="M233.18 206.158L236.003 207.327" stroke="black" stroke-width="1.03" stroke-linecap="round" stroke-linejoin="round"/>
<path d="M232.277 208.109L235.1 209.288" stroke="black" stroke-width="1.03" stroke-linecap="round" stroke-linejoin="round"/>
<path d="M260.795 228.514H259.289C257.374 228.514 255.822 230.066 255.822 231.981V239.41C255.822 241.325 257.374 242.877 259.289 242.877H260.795C262.709 242.877 264.262 241.325 264.262 239.41V231.981C264.262 230.066 262.709 228.514 260.795 228.514Z" fill="#F9F7F2" stroke="black" stroke-width="1.5" stroke-linecap="round" stroke-linejoin="round"/>
<path d="M245.967 228.514H244.461C242.546 228.514 240.994 230.066 240.994 231.981V239.41C240.994 241.325 242.546 242.877 244.461 242.877H245.967C247.881 242.877 249.433 241.325 249.433 239.41V231.981C249.433 230.066 247.881 228.514 245.967 228.514Z" fill="#F9F7F2" stroke="black" stroke-width="1.5" stroke-linecap="round" stroke-linejoin="round"/>
<path d="M240.866 192.875L232.704 229.703C232.704 229.703 232.704 232.407 235.25 232.892C235.25 232.892 252.247 236.141 270.948 233.378C270.948 233.378 273.494 233.378 273.494 230.614L265.768 191.865L240.856 192.865L240.866 192.875Z" fill="#F9F7F2" stroke="black" stroke-width="1.5" stroke-linecap="round" stroke-linejoin="round"/>
<path d="M259.002 213.656C258.121 211.121 255.951 209.437 253.525 209.1C254.178 209.714 254.703 210.497 255.02 211.418C256.08 214.439 254.555 217.777 251.623 218.866C249.671 219.59 247.591 219.134 246.105 217.856C246.155 218.034 246.205 218.213 246.264 218.381C247.532 222.006 251.405 223.898 254.921 222.581C258.438 221.273 260.26 217.272 258.992 213.636L259.002 213.656Z" fill="#FF8031" stroke="black" stroke-width="1.5" stroke-linecap="round" stroke-linejoin="round"/>
<path d="M294.621 150.371L295.107 124.548C295.037 118.031 287.955 114.554 283.349 118.774L271.473 129.65C268.016 128.56 264.351 127.976 260.547 127.976H245.461C242.638 127.976 239.895 128.312 237.26 128.917L223.7 116.486C219.094 112.266 212.011 115.743 211.932 122.27L212.962 147.311C209.654 153.155 207.742 159.96 207.742 167.23C207.742 188.913 224.631 199.828 245.461 199.828H260.547C281.378 199.828 298.266 188.903 298.266 167.23C298.266 161.198 296.959 155.483 294.621 150.381V150.371Z" fill="#F9F7F2" stroke="black" stroke-width="1.46" stroke-miterlimit="10"/>
<path d="M220.659 125.797L223.126 134.593" stroke="black" stroke-width="1.46" stroke-linecap="round" stroke-linejoin="round"/>
<path d="M286.747 125.668L284.28 134.474" stroke="black" stroke-width="1.46" stroke-linecap="round" stroke-linejoin="round"/>
<path d="M225.443 148.648L213.052 148.866" stroke="black" stroke-width="1.46" stroke-linecap="round" stroke-linejoin="round"/>
<path d="M223.105 155.304L210.704 155.512" stroke="black" stroke-width="1.46" stroke-linecap="round" stroke-linejoin="round"/>
<path d="M294.295 151.025L281.894 151.233" stroke="black" stroke-width="1.46" stroke-linecap="round" stroke-linejoin="round"/>
<path d="M296.593 157.672L284.191 157.89" stroke="black" stroke-width="1.46" stroke-linecap="round" stroke-linejoin="round"/>
<path d="M239.103 165.16C240.142 165.16 240.985 164.273 240.985 163.179C240.985 162.085 240.142 161.198 239.103 161.198C238.063 161.198 237.221 162.085 237.221 163.179C237.221 164.273 238.063 165.16 239.103 165.16Z" fill="black"/>
<path d="M262.588 165.16C263.627 165.16 264.47 164.273 264.47 163.179C264.47 162.085 263.627 161.198 262.588 161.198C261.549 161.198 260.706 162.085 260.706 163.179C260.706 164.273 261.549 165.16 262.588 165.16Z" fill="black"/>
<path d="M249.889 173.708C253.27 173.708 256.01 172.178 256.01 170.291C256.01 168.404 253.27 166.874 249.889 166.874C246.508 166.874 243.768 168.404 243.768 170.291C243.768 172.178 246.508 173.708 249.889 173.708Z" fill="black"/>
<path d="M271.503 170.113C274.873 170.113 277.605 169.004 277.605 167.636C277.605 166.269 274.873 165.16 271.503 165.16C268.133 165.16 265.401 166.269 265.401 167.636C265.401 169.004 268.133 170.113 271.503 170.113Z" fill="#F4CACA"/>
<path d="M229.405 170.568C232.775 170.568 235.507 169.46 235.507 168.092C235.507 166.724 232.775 165.616 229.405 165.616C226.036 165.616 223.304 166.724 223.304 168.092C223.304 169.46 226.036 170.568 229.405 170.568Z" fill="#F4CACA"/>
<path d="M267.57 200.611L268.472 192.479C268.472 192.479 269.373 187.962 274.801 189.765C274.801 189.765 279.318 191.577 276.614 196.996L269.145 208.733L267.58 200.611H267.57Z" fill="#F9F7F2" stroke="black" stroke-width="1.37" stroke-linecap="round" stroke-linejoin="round"/>
<path d="M270.819 199.224L273.642 200.393" stroke="black" stroke-width="1.03" stroke-linecap="round" stroke-linejoin="round"/>
<path d="M269.918 201.176L272.741 202.355" stroke="black" stroke-width="1.03" stroke-linecap="round" stroke-linejoin="round"/>
</g>
<g clip-path="url(#clip2_936_28349)">
<path d="M68.6922 228.078H67.1866C65.2719 228.078 63.7197 229.63 63.7197 231.545V238.974C63.7197 240.889 65.2719 242.441 67.1866 242.441H68.6922C70.6069 242.441 72.159 240.889 72.159 238.974V231.545C72.159 229.63 70.6069 228.078 68.6922 228.078Z" fill="#F9F7F2" stroke="black" stroke-width="1.5" stroke-linecap="round" stroke-linejoin="round"/>
<path d="M50.8826 228.078H49.377C47.4623 228.078 45.9102 229.63 45.9102 231.545V238.974C45.9102 240.889 47.4623 242.441 49.377 242.441H50.8826C52.7973 242.441 54.3494 240.889 54.3494 238.974V231.545C54.3494 229.63 52.7973 228.078 50.8826 228.078Z" fill="#F9F7F2" stroke="black" stroke-width="1.5" stroke-linecap="round" stroke-linejoin="round"/>
<path d="M44.7512 194.44L36.0049 228.791C36.0049 228.791 36.0049 231.466 38.9467 231.941C38.9467 231.941 58.5493 235.151 80.113 232.427C80.113 232.427 83.0549 232.427 83.0549 229.703L74.893 194.678C74.893 194.678 59.7973 198.204 44.7512 194.44Z" fill="#F9F7F2" stroke="black" stroke-width="1.5" stroke-linecap="round" stroke-linejoin="round"/>
<path d="M59.2829 223.126C64.2064 223.126 68.1976 219.134 68.1976 214.211C68.1976 209.287 64.2064 205.296 59.2829 205.296C54.3594 205.296 50.3682 209.287 50.3682 214.211C50.3682 219.134 54.3594 223.126 59.2829 223.126Z" fill="#FF8031" stroke="black" stroke-width="1.5" stroke-miterlimit="10"/>
<path d="M56.3506 213.736V212.745V212.27V213.736Z" fill="#FF8031" stroke="black" stroke-width="1.5" stroke-linecap="round" stroke-linejoin="round"/>
<path d="M62.2539 212.745V213.736V212.27V212.745Z" fill="#FF8031" stroke="black" stroke-width="1.5" stroke-linecap="round" stroke-linejoin="round"/>
<path d="M56.3506 216.202C56.3506 216.202 57.9453 218.173 59.1142 216.202C59.1142 216.202 60.7188 218.173 61.9768 216.202" fill="#FF8031"/>
<path d="M56.3506 216.202C56.3506 216.202 57.9453 218.173 59.1142 216.202C59.1142 216.202 60.7188 218.173 61.9768 216.202" stroke="black" stroke-width="1.5" stroke-linecap="round" stroke-linejoin="round"/>
<path d="M113.762 121.062C120.378 105.362 112.821 99.8149 112.821 99.8149C107.155 94.2778 95.8133 101.657 95.8133 101.657C60.8576 81.3415 26.8528 102.578 26.8528 102.578C15.5212 96.1103 7.96346 101.657 7.96346 101.657C-0.535262 109.968 7.02246 123.825 7.02246 123.825C7.02246 123.825 -15.72 173.49 33.1922 191.141C45.6332 195.629 59.0945 196.877 72.1991 194.905C95.6647 191.379 130.66 176.997 113.762 121.062Z" fill="#F9F7F2" stroke="black" stroke-width="1.5" stroke-miterlimit="10"/>
<path d="M107.323 154.769C107.323 149.886 104.728 145.508 100.637 142.536C101.707 136.791 99.5874 130.908 94.4565 127.213C91.2967 124.935 87.4732 123.845 83.6003 123.865C80.6386 119.536 74.9728 116.604 68.465 116.604C68.1084 116.604 67.7519 116.614 67.3953 116.634C68.0688 113.187 67.2269 110.265 65.0477 109.453C62.4525 108.492 58.8569 110.869 56.5886 114.871C53.0425 111.682 48.605 110.493 46.6833 112.216C45.4254 113.355 45.5641 115.465 46.8121 117.684C46.0098 117.605 45.1976 117.565 44.3655 117.565C33.6381 117.565 24.9413 124.598 24.9413 133.265C24.9413 133.741 24.971 134.206 25.0205 134.672C18.0967 137.564 13.2432 144.26 13.2432 152.065C13.2432 159.871 18.1067 166.586 25.0502 169.469C24.9809 170.024 24.9413 170.598 24.9413 171.173C24.9413 178.978 31.4391 185.297 39.4525 185.297C40.8194 185.297 40.1558 185.109 41.4038 184.772C44.5834 187.922 51.3784 189.933 56.7669 189.933C62.4723 189.933 67.5339 187.685 70.6838 184.208C72.7342 184.911 74.9926 185.297 77.36 185.297C86.9285 185.297 94.6744 178.968 94.6744 171.173C94.6744 170.766 94.6447 170.38 94.605 169.984C102.024 167.696 107.304 161.753 107.304 154.769H107.323Z" fill="#F9F7F2" stroke="black" stroke-width="1.5" stroke-linecap="round" stroke-linejoin="round"/>
<path d="M56.2907 158.147C56.0926 160.703 53.9531 162.703 51.3579 162.703C48.6241 162.703 46.4053 160.485 46.4053 157.751C46.4053 155.017 48.6241 152.798 51.3579 152.798C52.5366 152.798 53.6262 153.214 54.4781 153.898" fill="#F9F7F2"/>
<path d="M56.2907 158.147C56.0926 160.703 53.9531 162.703 51.3579 162.703C48.6241 162.703 46.4053 160.485 46.4053 157.751C46.4053 155.017 48.6241 152.798 51.3579 152.798C52.5366 152.798 53.6262 153.214 54.4781 153.898" stroke="black" stroke-width="1.5" stroke-miterlimit="10"/>
<path d="M56.3107 153.789C56.6673 153.462 57.2418 153.194 57.846 153.016C58.3413 152.877 58.8564 152.798 59.2823 152.798C62.0161 152.798 64.2349 155.017 64.2349 157.751C64.2349 160.485 62.0161 162.703 59.2823 162.703C56.8852 162.703 54.8943 161.01 54.4287 158.751" fill="#F9F7F2"/>
<path d="M56.3107 153.789C56.6673 153.462 57.2418 153.194 57.846 153.016C58.3413 152.877 58.8564 152.798 59.2823 152.798C62.0161 152.798 64.2349 155.017 64.2349 157.751C64.2349 160.485 62.0161 162.703 59.2823 162.703C56.8852 162.703 54.8943 161.01 54.4287 158.751" stroke="black" stroke-width="1.5" stroke-linecap="round" stroke-linejoin="round"/>
<path d="M54.8254 155.274C57.0136 155.274 58.7875 154.259 58.7875 153.006C58.7875 151.753 57.0136 150.738 54.8254 150.738C52.6372 150.738 50.8633 151.753 50.8633 153.006C50.8633 154.259 52.6372 155.274 54.8254 155.274Z" fill="black"/>
<path d="M75.9531 155.809C79.5089 155.809 82.3915 154.701 82.3915 153.333C82.3915 151.965 79.5089 150.857 75.9531 150.857C72.3972 150.857 69.5146 151.965 69.5146 153.333C69.5146 154.701 72.3972 155.809 75.9531 155.809Z" fill="#F4CACA"/>
<path d="M37.4912 156.265C41.047 156.265 43.9296 155.156 43.9296 153.789C43.9296 152.421 41.047 151.312 37.4912 151.312C33.9353 151.312 31.0527 152.421 31.0527 153.789C31.0527 155.156 33.9353 156.265 37.4912 156.265Z" fill="#F4CACA"/>
<path d="M43.7613 148.876C44.8554 148.876 45.7424 147.989 45.7424 146.895C45.7424 145.801 44.8554 144.914 43.7613 144.914C42.6672 144.914 41.7803 145.801 41.7803 146.895C41.7803 147.989 42.6672 148.876 43.7613 148.876Z" fill="black"/>
<path d="M68.524 148.876C69.6181 148.876 70.5051 147.989 70.5051 146.895C70.5051 145.801 69.6181 144.914 68.524 144.914C67.4299 144.914 66.543 145.801 66.543 146.895C66.543 147.989 67.4299 148.876 68.524 148.876Z" fill="black"/>
<path d="M75.458 195.401L76.4485 186.456C76.4485 186.456 77.4391 181.484 83.4119 183.475C83.4119 183.475 88.3844 185.466 85.4029 191.429L77.1815 204.335L75.458 195.401Z" fill="#F9F7F2" stroke="black" stroke-width="1.51" stroke-linecap="round" stroke-linejoin="round"/>
<path d="M43.9983 195.44L43.0078 186.526C43.0078 186.526 42.0173 181.573 36.0741 183.554C36.0741 183.554 31.1215 185.535 34.0931 191.478L42.2748 204.345L43.9983 195.44Z" fill="#F9F7F2" stroke="black" stroke-width="1.5" stroke-linecap="round" stroke-linejoin="round"/>
</g>
<defs>
<clipPath id="clip0_936_28349">
<rect width="149.441" height="242.937" fill="white" transform="translate(82.2236 1)"/>
</clipPath>
<clipPath id="clip1_936_28349">
<rect width="91.9704" height="129.7" fill="white" transform="translate(207.029 113.92)"/>
</clipPath>
<clipPath id="clip2_936_28349">
<rect width="117.962" height="151.055" fill="white" transform="translate(1 92.1284)"/>
</clipPath>
</defs>
</svg>
