<svg width="77" height="269" viewBox="0 0 77 269" fill="none" xmlns="http://www.w3.org/2000/svg">
<g clip-path="url(#clip0_2705_9261)">
<path d="M77.0001 164.939C77.0001 166.107 76.8753 166.848 76.8614 166.938C76.5771 169.727 75.4814 171.838 73.595 173.166C70.0998 175.641 64.8985 174.704 62.8249 174.18C62.1938 174.019 61.6043 173.914 61.0287 173.844L59.9052 173.712L19.8899 167.218C19.1409 167.106 1.34556 164.436 0.860102 157.271C0.818492 157.069 -0.0691967 150.925 15.5763 147.709C16.2629 147.569 16.7761 147.031 16.7414 146.416L16.2421 121.155C16.2282 120.511 15.6665 119.966 14.9383 119.882C10.7911 119.414 1.04735 117.757 0.0833731 112.501C-0.0900035 111.886 -1.22042 106.336 13.4334 101.115C16.2629 100.108 19.3559 99.2552 22.6362 98.5842L61.6182 90.2243C61.9788 90.1474 62.3325 90.0635 62.6862 89.9587C64.0871 89.5393 68.9416 88.3789 72.6033 91.0281C75.2594 92.9503 76.695 96.4173 76.8684 101.331C77.3261 105.308 74.4342 110.048 73.1651 111.893C72.846 112.361 72.4438 112.976 72.1317 113.626C69.4548 119.218 72.7073 122.881 72.846 123.035C77.3954 128.27 76.8892 133.079 76.8614 133.282L76.8614 133.296C76.8614 137.085 75.0306 139.818 74.24 140.817C73.706 141.495 73.2899 142.131 72.957 142.774C69.7669 148.918 73.283 154.175 73.4355 154.392C76.4731 158.341 76.9932 162.535 76.9932 164.932L77.0001 164.939ZM1.88649 156.985C1.88649 157.09 1.89343 157.146 1.89343 157.146C2.25405 162.451 15.1186 165.464 20.0494 166.177L60.0509 172.677L61.1535 172.81C61.7777 172.887 62.4088 173.006 63.0815 173.173C65.0164 173.656 69.857 174.543 73.0055 172.321C74.6284 171.174 75.5785 169.315 75.8351 166.806C75.8489 166.708 76.8476 160.529 72.6103 155.042C72.6103 155.042 72.6033 155.028 72.5964 155.021C72.4299 154.783 68.5047 149.107 72.0416 142.299C72.4091 141.6 72.8599 140.901 73.4355 140.174C74.1568 139.258 75.8351 136.756 75.8351 133.233C75.842 133.128 76.2997 128.606 72.0832 123.755C72.0554 123.727 68.2065 119.442 71.2024 113.186C71.5492 112.466 71.9792 111.809 72.319 111.313C73.2552 109.943 76.2789 105.19 75.842 101.422C75.6755 96.8088 74.3856 93.6144 72.0069 91.8879C68.7266 89.5113 64.2743 90.5877 62.9913 90.9722C62.6446 91.077 62.2701 91.1679 61.847 91.2588L22.865 99.6257C19.6264 100.29 16.5819 101.122 13.8009 102.114C-0.29112 107.126 1.07509 112.173 1.08896 112.221C1.08896 112.242 1.10283 112.27 1.10976 112.291C1.94197 117.003 11.9978 118.498 15.0562 118.841C16.3045 118.981 17.2615 119.966 17.2823 121.134L17.7817 146.395C17.7817 146.395 17.7817 146.423 17.7817 146.437C17.7817 147.534 16.9494 148.492 15.7844 148.737C2.57306 151.456 1.88649 156.055 1.88649 156.985Z" fill="black"/>
<path d="M17.6358 157.578C17.6358 157.865 17.4 158.103 17.1156 158.103L9.56334 158.103C9.27901 158.103 9.04321 157.865 9.04321 157.578C9.04321 157.292 9.279 157.054 9.56334 157.054L17.1156 157.054C17.4 157.054 17.6358 157.292 17.6358 157.578Z" fill="black"/>
<path d="M16.9424 111.445C16.9424 111.732 16.7066 111.97 16.4223 111.97L8.86998 111.97C8.58565 111.97 8.34985 111.732 8.34985 111.445C8.34985 111.159 8.58565 110.921 8.86998 110.921L16.4223 110.921C16.7066 110.921 16.9424 111.159 16.9424 111.445Z" fill="black"/>
<path d="M50.3208 135.469C50.3208 131.667 48.7031 128.584 46.7076 128.584C44.7122 128.584 43.0945 131.667 43.0945 135.469C43.0945 139.272 44.7122 142.354 46.7076 142.354C48.7031 142.354 50.3208 139.272 50.3208 135.469Z" fill="black"/>
<path d="M40.1816 146.206C40.1816 145.303 39.4551 144.571 38.5588 144.571C37.6626 144.571 36.936 145.303 36.936 146.206C36.936 147.109 37.6626 147.842 38.5588 147.842C39.4551 147.842 40.1816 147.109 40.1816 146.206Z" fill="black"/>
<path d="M40.1816 125.719C40.1816 124.816 39.4551 124.083 38.5588 124.083C37.6626 124.083 36.936 124.816 36.936 125.719C36.936 126.622 37.6626 127.354 38.5588 127.354C39.4551 127.354 40.1816 126.622 40.1816 125.719Z" fill="black"/>
</g>
<g clip-path="url(#clip1_2705_9261)">
<path d="M77.0001 227.148C77.0001 233.735 75.8893 240.266 73.7026 246.397C70.1065 256.464 64.275 263.269 56.3679 266.629C43.1083 272.255 28.1131 266.222 26.0582 265.338C25.3709 265.689 23.2258 266.699 20.5461 267.197C16.235 267.997 12.632 267.05 10.1259 264.454C10.112 264.433 10.0912 264.419 10.0773 264.398C9.91066 264.174 6.12715 258.793 10.5424 250.712C8.97346 247.976 -3.27953 225.12 9.88983 201.879C8.98734 200.377 5.09276 193.369 8.80684 189.483C9.18866 188.985 13.3193 184.074 24.1213 188.599C39.4497 183.955 51.7652 184.502 60.7345 190.233C71.1686 196.905 74.9938 209.294 76.3614 218.512C76.7849 221.381 77.0001 224.271 77.0001 227.148ZM10.8964 263.746C16.3808 269.365 25.6903 264.342 25.7805 264.293C25.9263 264.216 26.0999 264.209 26.2457 264.279C26.4053 264.349 42.1919 271.505 55.9652 265.661C63.5878 262.42 69.2248 255.826 72.7168 246.047C75.806 237.404 76.7085 227.94 75.327 218.673C73.9872 209.673 70.2731 197.585 60.1722 191.124C51.4389 185.54 39.3456 185.049 24.2394 189.658C24.1213 189.693 23.9964 189.686 23.8853 189.637C13.4442 185.197 9.76487 189.932 9.61908 190.135C9.6052 190.156 9.59131 190.17 9.57048 190.191C6.01608 193.86 10.8826 201.5 10.9312 201.577C11.0422 201.745 11.0422 201.956 10.945 202.131C-2.96713 226.313 11.4379 250.186 11.5837 250.424C11.6879 250.592 11.6879 250.796 11.5976 250.964C7.42535 258.365 10.584 263.283 10.8964 263.746Z" fill="black"/>
<path d="M72.8834 229.518C72.8834 233.229 71.5921 236.716 69.322 239.15C69.5303 240.013 69.6344 240.897 69.6344 241.781C69.6344 247.737 64.9554 252.584 59.2142 252.584C58.9296 252.584 58.6449 252.57 58.3464 252.542C56.1041 257.614 51.2237 260.869 45.8227 260.869C40.4217 260.869 35.5552 257.621 33.3059 252.556C33.0768 252.57 32.8616 252.584 32.6464 252.584C26.2943 252.584 21.1223 246.179 21.1223 238.301C21.1223 238.014 21.1293 237.726 21.1432 237.438C19.6298 238.056 18.3107 237.908 17.5124 237.01C16.1864 235.523 16.8321 232.422 18.9633 229.771C16.2211 227.996 14.7633 225.414 15.4714 223.464C16.0615 221.843 17.9845 221.051 20.4489 221.359C20.4212 216.807 22.358 212.555 25.5376 210.233C25.5723 207.371 26.4192 204.705 27.9812 202.517C30.5151 198.96 34.6804 197.199 38.9152 197.872C41.1714 194.891 44.3579 193.186 47.7179 193.186C52.5636 193.186 56.958 196.771 58.756 202.152C58.9087 202.145 59.0684 202.138 59.2211 202.138C64.9693 202.138 69.6414 207.876 69.6414 214.926C69.6414 216.505 69.4123 218.041 68.9541 219.5C71.4602 221.942 72.8903 225.569 72.8903 229.511L72.8834 229.518ZM68.2252 238.996C68.2252 238.855 68.2807 238.722 68.3779 238.624C70.5786 236.379 71.8421 233.061 71.8421 229.518C71.8421 225.8 70.405 222.257 68.003 220.048C67.8503 219.907 67.7947 219.69 67.8572 219.486C68.3432 218.041 68.5931 216.505 68.5931 214.926C68.5931 208.451 64.3861 203.19 59.2142 203.19C58.9504 203.19 58.6935 203.204 58.4367 203.232C58.1867 203.26 57.9577 203.106 57.8882 202.86C56.3193 197.704 52.2303 194.239 47.7179 194.239C44.6009 194.239 41.6296 195.887 39.5608 198.756C39.4428 198.918 39.2415 199.002 39.0471 198.967C35.0414 198.216 31.2232 199.774 28.8282 203.134C27.3564 205.196 26.5789 207.722 26.5789 210.444C26.5789 210.465 26.5789 210.493 26.5789 210.514C26.5789 210.689 26.4956 210.851 26.3498 210.949C23.3508 213.018 21.4903 216.961 21.4903 221.233C21.4903 221.479 21.4972 221.724 21.5111 221.97C21.5111 222.145 21.4556 222.285 21.3306 222.391C21.2126 222.496 21.046 222.538 20.8932 222.51C18.6856 222.075 16.9015 222.608 16.4502 223.836C15.881 225.4 17.4152 227.694 20.0116 229.188C20.1504 229.266 20.2407 229.406 20.2684 229.56C20.2962 229.722 20.2476 229.876 20.1435 229.995C17.9081 232.507 17.3735 235.285 18.283 236.309C18.8731 236.968 20.0949 236.891 21.4764 236.112C21.643 236.014 21.8513 236.021 22.0179 236.133C22.1775 236.239 22.2678 236.435 22.247 236.625C22.1914 237.179 22.1637 237.74 22.1637 238.301C22.1637 245.597 26.8635 251.532 32.6464 251.532C32.938 251.532 33.2434 251.511 33.5766 251.476C33.8057 251.448 34.0279 251.581 34.1112 251.798C36.1244 256.674 40.7202 259.817 45.8227 259.817C50.9252 259.817 55.5348 256.66 57.5411 251.777C57.6314 251.56 57.8535 251.427 58.0826 251.455C58.4783 251.504 58.8463 251.525 59.2142 251.525C64.3861 251.525 68.5931 247.154 68.5931 241.774C68.5931 240.883 68.4751 239.992 68.2391 239.129C68.2252 239.08 68.2182 239.038 68.2182 238.989L68.2252 238.996Z" fill="black"/>
<path d="M52.265 230.901C52.8828 231.532 53.2716 232.395 53.2716 233.356C53.2716 235.292 51.7165 236.864 49.8005 236.864C47.9955 236.864 46.5307 235.467 46.3641 233.686C46.1697 233.658 45.9823 233.58 45.8157 233.44C45.8643 235.622 47.6276 237.39 49.8005 237.39C51.9734 237.39 53.7923 235.58 53.7923 233.356C53.7923 232.269 53.3549 231.279 52.6468 230.55C52.5288 230.676 52.4038 230.788 52.265 230.901Z" fill="black"/>
<path d="M52.7511 233.356C52.7511 234.997 51.4251 236.337 49.8006 236.337C48.2595 236.337 47.0029 235.131 46.878 233.608C46.753 233.664 46.6211 233.706 46.4823 233.706C46.4406 233.706 46.4059 233.692 46.3643 233.685C46.5309 235.467 47.9957 236.863 49.8006 236.863C51.7167 236.863 53.2717 235.292 53.2717 233.356C53.2717 232.395 52.883 231.532 52.2651 230.9C52.1263 231.013 51.9805 231.118 51.8278 231.216C52.3901 231.763 52.7511 232.521 52.7511 233.363L52.7511 233.356Z" fill="black"/>
<path d="M45.8088 227.744C45.8088 227.926 45.8227 228.116 45.8574 228.319C46.0102 228.2 46.1837 228.137 46.3642 228.116C46.3503 227.989 46.3364 227.856 46.3364 227.744C46.3364 225.808 47.8915 224.236 49.8075 224.236C51.7236 224.236 53.2786 225.808 53.2786 227.744C53.2786 228.705 52.8899 229.568 52.272 230.199C52.4039 230.304 52.5358 230.424 52.6539 230.55C53.362 229.813 53.7993 228.824 53.7993 227.744C53.7993 225.52 52.0082 223.71 49.8075 223.71C47.6069 223.71 45.8158 225.52 45.8158 227.744L45.8088 227.744Z" fill="black"/>
<path d="M50.0228 230.998C49.988 231.089 49.9672 231.187 49.988 231.286C50.0436 231.573 50.3213 231.756 50.6059 231.693C51.0502 231.601 51.4598 231.433 51.8277 231.209C51.6889 231.075 51.5362 230.956 51.3765 230.851C51.0988 230.991 50.8072 231.11 50.4948 231.173L50.0158 230.991L50.0228 230.998Z" fill="black"/>
<path d="M51.8694 230.543C52.0082 230.648 52.1401 230.774 52.2651 230.9C52.397 230.795 52.522 230.676 52.6469 230.55C52.5289 230.423 52.397 230.311 52.2651 230.199C52.1401 230.325 52.0152 230.437 51.8763 230.543L51.8694 230.543Z" fill="black"/>
<path d="M51.8277 231.209C51.9804 231.118 52.1262 231.006 52.2651 230.893C52.1401 230.767 52.0151 230.641 51.8694 230.536C51.7166 230.655 51.55 230.76 51.3765 230.851C51.5361 230.956 51.6889 231.076 51.8277 231.209Z" fill="black"/>
<path d="M46.8918 228.207C46.864 228.046 46.8501 227.884 46.8501 227.744C46.8501 226.102 48.1761 224.762 49.8006 224.762C51.425 224.762 52.751 226.102 52.751 227.744C52.751 228.586 52.3969 229.35 51.8207 229.905C51.9735 229.996 52.1193 230.094 52.2581 230.199C52.876 229.568 53.2647 228.705 53.2647 227.744C53.2647 225.808 51.7097 224.236 49.7936 224.236C47.8776 224.236 46.3225 225.808 46.3225 227.744C46.3225 227.856 46.3364 227.989 46.3503 228.116C46.3919 228.116 46.4266 228.095 46.4683 228.095C46.6141 228.095 46.7529 228.137 46.8848 228.207L46.8918 228.207Z" fill="black"/>
<path d="M50.0227 230.998L50.5017 231.181C50.8141 231.118 51.1057 230.998 51.3834 230.858C51.1959 230.732 50.9877 230.633 50.7725 230.556C50.6475 230.598 50.5295 230.64 50.3976 230.669C50.2171 230.704 50.0852 230.837 50.0227 230.998Z" fill="black"/>
<path d="M51.3904 230.248C51.557 230.333 51.7167 230.431 51.8694 230.543C52.0082 230.438 52.1401 230.325 52.2582 230.199C52.1193 230.087 51.9735 229.996 51.8208 229.905C51.6889 230.031 51.5501 230.15 51.3904 230.248Z" fill="black"/>
<path d="M50.7654 230.55C50.9806 230.627 51.1889 230.725 51.3763 230.852C51.5498 230.76 51.7165 230.655 51.8692 230.536C51.7165 230.424 51.5568 230.325 51.3902 230.241C51.1958 230.368 50.9875 230.466 50.7654 230.55Z" fill="black"/>
<path d="M46.6973 230.816C46.8778 230.591 47.2041 230.556 47.4332 230.739C47.5026 230.795 47.5443 230.865 47.579 230.942L48.058 230.732C48.058 230.556 48.0372 230.388 48.0163 230.226L47.5095 230.03C47.4818 230.107 47.4401 230.177 47.3776 230.233C47.1624 230.43 46.8362 230.416 46.6418 230.198C46.371 229.904 46.1419 229.441 45.9892 228.908C45.9337 228.711 45.892 228.515 45.8573 228.318C45.288 228.746 44.8923 229.742 44.8923 230.9C44.8923 232.057 45.2742 232.997 45.8156 233.439C45.8156 233.411 45.8156 233.383 45.8156 233.355C45.8156 232.429 46.135 231.531 46.7042 230.816L46.6973 230.816Z" fill="black"/>
<path d="M47.5028 231.476C47.0793 232.002 46.8433 232.669 46.8433 233.349C46.8433 233.433 46.8641 233.517 46.871 233.602C47.5514 233.286 48.0581 232.199 48.0581 230.894C48.0581 230.838 48.0512 230.781 48.0512 230.725L47.5722 230.936C47.6486 231.111 47.6277 231.315 47.5028 231.469L47.5028 231.476Z" fill="black"/>
<path d="M46.3294 233.356C46.3294 232.521 46.6209 231.749 47.0999 231.146L47.572 230.943C47.5373 230.865 47.4957 230.795 47.4262 230.739C47.2041 230.557 46.8778 230.592 46.6904 230.816C46.1142 231.532 45.8018 232.43 45.8018 233.356C45.8018 233.384 45.8018 233.412 45.8018 233.44C45.9684 233.58 46.1558 233.657 46.3502 233.686C46.3433 233.573 46.3155 233.468 46.3155 233.356L46.3294 233.356Z" fill="black"/>
<path d="M46.8708 233.609C46.8639 233.524 46.8431 233.44 46.8431 233.356C46.8431 232.676 47.0791 232.009 47.5026 231.483C47.6275 231.329 47.6414 231.118 47.572 230.95L47.0999 231.153C46.614 231.757 46.3293 232.521 46.3293 233.363C46.3293 233.475 46.3502 233.581 46.3641 233.693C46.4057 233.693 46.4404 233.714 46.4821 233.714C46.6209 233.714 46.7528 233.672 46.8778 233.616L46.8708 233.609Z" fill="black"/>
<path d="M46.8918 228.206C46.9127 228.339 46.9404 228.48 46.9821 228.62C47.0862 228.992 47.2459 229.321 47.4056 229.497C47.5444 229.651 47.5722 229.855 47.5028 230.037L48.0095 230.233C47.8707 229.251 47.4403 228.48 46.8918 228.213L46.8918 228.206Z" fill="black"/>
<path d="M46.6348 230.206C46.8292 230.423 47.1555 230.437 47.3707 230.241C47.4332 230.185 47.4748 230.114 47.5026 230.037L47.0236 229.855C46.7945 229.602 46.607 229.195 46.4821 228.767C46.4196 228.55 46.3849 228.333 46.3571 228.122C46.1836 228.143 46.01 228.206 45.8503 228.326C45.8781 228.522 45.9198 228.718 45.9822 228.915C46.135 229.455 46.371 229.911 46.6348 230.206Z" fill="black"/>
<path d="M47.0236 229.848L47.5026 230.03C47.5721 229.848 47.5443 229.644 47.4055 229.49C47.2458 229.315 47.0931 228.992 46.982 228.613C46.9403 228.473 46.9126 228.333 46.8917 228.199C46.7598 228.136 46.621 228.087 46.4752 228.087C46.4335 228.087 46.3988 228.101 46.3572 228.108C46.3849 228.319 46.4197 228.536 46.4821 228.754C46.6002 229.181 46.7876 229.581 47.0236 229.841L47.0236 229.848Z" fill="black"/>
<path d="M43.5803 238.737C43.5803 237.962 42.9587 237.334 42.1919 237.334C41.4251 237.334 40.8035 237.962 40.8035 238.737C40.8035 239.511 41.4251 240.14 42.1919 240.14C42.9587 240.14 43.5803 239.511 43.5803 238.737Z" fill="black"/>
<path d="M43.5803 221.199C43.5803 220.424 42.9587 219.795 42.1919 219.795C41.4251 219.795 40.8035 220.424 40.8035 221.199C40.8035 221.973 41.4251 222.602 42.1919 222.602C42.9587 222.602 43.5803 221.973 43.5803 221.199Z" fill="black"/>
</g>
<g clip-path="url(#clip2_2705_9261)">
<path d="M76.9999 32.8615L76.9999 45.7982C76.9999 65.7586 66.5415 78.6602 50.3514 78.6602C44.6891 78.6602 39.1306 77.1134 34.2584 74.1956L14.3465 75.0744C11.6574 75.0463 9.34253 73.5206 8.26827 71.102C7.22867 68.7538 7.62372 66.075 9.30095 64.1205L19.0871 52.6884C18.6158 50.4174 18.3732 48.0972 18.3732 45.7982L18.3732 32.8615C18.3732 29.7258 18.8029 26.6252 19.6554 23.623L11.1237 13.6604C9.45342 11.7058 9.05144 9.02707 10.091 6.67878C11.1584 4.26019 13.4802 2.7345 16.1346 2.69934L36.7257 3.11416C41.0019 1.04008 45.5831 -0.00751662 50.3445 -0.00751683C66.5277 -0.00751755 76.993 12.894 76.993 32.8545L76.9999 32.8615ZM8.73263 68.3882C8.73263 69.1475 8.89203 69.9209 9.22471 70.6661C10.1257 72.7051 12.0871 73.9917 14.3326 74.0198L34.3693 73.1339C34.4732 73.1339 34.5703 73.155 34.6604 73.2113C39.4079 76.0869 44.8277 77.6126 50.3514 77.6126C65.9039 77.6126 75.9603 65.1259 75.9603 45.8052L75.9603 32.8685C75.9603 13.5479 65.9108 1.06116 50.3584 1.06116C45.7148 1.06116 41.2514 2.09469 37.0792 4.13363C37.0029 4.16878 36.9267 4.18987 36.8435 4.18284L16.1485 3.76099C13.9168 3.78912 11.9554 5.07575 11.0544 7.11468C10.1673 9.11846 10.493 11.305 11.9207 12.9713L20.6396 23.152C20.7574 23.2855 20.799 23.4754 20.7435 23.6511C19.8633 26.6392 19.4198 29.7398 19.4198 32.8615L19.4198 45.7982C19.4198 48.1113 19.6693 50.4385 20.1613 52.7165C20.196 52.8782 20.1544 53.0469 20.0435 53.1735L10.0841 64.8095C9.19005 65.8571 8.7257 67.1085 8.7257 68.3952L8.73263 68.3882Z" fill="black"/>
<path d="M24.798 64.9501C24.798 65.2102 24.6317 65.4493 24.3683 65.5266L17.3198 67.6429C17.001 67.7343 16.6752 67.5585 16.5782 67.2351C16.4812 66.9187 16.6683 66.5813 16.9802 66.4828L24.0287 64.3665C24.3475 64.2751 24.6732 64.4509 24.7703 64.7743C24.7841 64.8306 24.798 64.8868 24.798 64.9431L24.798 64.9501Z" fill="black"/>
<path d="M24.701 12.5215C24.701 12.5777 24.6941 12.6339 24.6733 12.6902C24.5832 13.0136 24.2505 13.1894 23.9317 13.098L16.8832 10.9817C16.5713 10.8903 16.3911 10.5528 16.4812 10.2294C16.5713 9.906 16.904 9.73023 17.2228 9.82163L24.2713 11.9379C24.5278 12.0152 24.701 12.2543 24.701 12.5144L24.701 12.5215Z" fill="black"/>
<path d="M36.2335 73.5907C36.2335 73.9211 35.9702 74.1883 35.6514 74.1953C35.3256 74.1953 35.0484 73.9352 35.0484 73.6047L34.8751 62.9741C34.8543 62.6367 35.1316 62.3625 35.4573 62.3625C35.783 62.3625 36.0603 62.6226 36.0603 62.9531L36.2335 73.5836L36.2335 73.5907Z" fill="black"/>
<path d="M41.5634 75.6014C41.5634 75.9319 41.3 76.199 40.9812 76.2061C40.6555 76.2061 40.3782 75.9459 40.3782 75.6155L40.205 64.9849C40.198 64.6404 40.4614 64.3732 40.7871 64.3732C41.1129 64.3732 41.3901 64.6334 41.3901 64.9638L41.5634 75.5944L41.5634 75.6014Z" fill="black"/>
<path d="M38.1327 14.5672C38.1327 14.8977 37.8693 15.1648 37.5505 15.1719C37.2248 15.1719 36.9476 14.9117 36.9476 14.5813L36.7743 3.95071C36.7535 3.62729 37.0307 3.33903 37.3565 3.33903C37.6822 3.33903 37.9594 3.59917 37.9594 3.92962L38.1327 14.5602L38.1327 14.5672Z" fill="black"/>
<path d="M43.4624 12.5916C43.4624 12.9221 43.1991 13.1893 42.8802 13.1963C42.5545 13.1963 42.2773 12.9362 42.2773 12.6057L42.104 1.97512L42.104 1.96809C42.104 1.63764 42.3674 1.37047 42.6862 1.36344C43.0119 1.36344 43.2892 1.62358 43.2892 1.95403L43.4624 12.5846L43.4624 12.5916Z" fill="black"/>
<path d="M48.695 51.2542C48.695 50.365 47.9844 49.6441 47.1079 49.6441C46.2313 49.6441 45.5208 50.365 45.5208 51.2542C45.5208 52.1434 46.2313 52.8643 47.1079 52.8643C47.9844 52.8643 48.695 52.1434 48.695 51.2542Z" fill="black"/>
<path d="M48.695 31.1175C48.695 30.2283 47.9844 29.5074 47.1079 29.5074C46.2313 29.5074 45.5208 30.2283 45.5208 31.1175C45.5208 32.0067 46.2313 32.7275 47.1079 32.7275C47.9844 32.7275 48.695 32.0067 48.695 31.1175Z" fill="black"/>
<path d="M55.5495 42.0089C55.5495 39.1122 54.3238 36.7639 52.8118 36.7639C51.2999 36.7639 50.0742 39.1122 50.0742 42.0089C50.0742 44.9056 51.2999 47.2539 52.8118 47.2539C54.3238 47.2539 55.5495 44.9056 55.5495 42.0089Z" fill="black"/>
</g>
<defs>
<clipPath id="clip0_2705_9261">
<rect width="85.4585" height="77" fill="white" transform="translate(0 174.802) rotate(-90)"/>
</clipPath>
<clipPath id="clip1_2705_9261">
<rect width="83.5163" height="73.15" fill="white" transform="translate(3.8501 269) rotate(-90)"/>
</clipPath>
<clipPath id="clip2_2705_9261">
<rect width="78.6606" height="69.3" fill="white" transform="translate(7.69995 78.6602) rotate(-90)"/>
</clipPath>
</defs>
</svg>
