<svg width="180" height="100" viewBox="0 0 180 100" fill="none" xmlns="http://www.w3.org/2000/svg">
<g clip-path="url(#clip0_936_25292)">
<path d="M83.1935 81.5567C83.1935 81.5567 82.0243 88.7271 83.1935 94.5693C83.1935 94.5693 84.0485 98.0769 86.5938 97.9417C86.5938 97.9417 88.6459 98.6218 89.3736 94.7999C89.5486 93.8892 90.2724 93.1813 91.1951 93.0501C95.8958 92.37 110.05 90.7832 124.116 93.7341C124.919 93.9011 125.576 94.4937 125.778 95.2851C126.069 96.4185 126.749 97.9497 128.348 98.1286C128.348 98.1286 131.811 99.2103 132.384 94.1159C132.384 94.1159 134.496 85.9831 131.867 76.8401L83.1895 81.5607L83.1935 81.5567Z" fill="white"/>
<path d="M129.104 98.5424C128.69 98.5424 128.384 98.4668 128.288 98.443C126.936 98.2799 125.938 97.1902 125.473 95.3688C125.306 94.7126 124.749 94.1956 124.053 94.0484C110.249 91.1493 96.5087 92.6088 91.2432 93.3684C90.4637 93.4797 89.8354 94.0842 89.6882 94.8637C89.382 96.4744 88.8054 97.5402 87.9702 98.0294C87.3379 98.4032 86.7533 98.3117 86.5624 98.268C86.5226 98.268 86.4868 98.268 86.447 98.268C83.8024 98.268 82.9275 94.8001 82.8877 94.6529C81.7185 88.8068 82.8678 81.5847 82.8797 81.5131C82.9036 81.37 83.0189 81.2626 83.1621 81.2507L131.84 76.53C131.991 76.5141 132.134 76.6096 132.174 76.7567C134.727 85.6412 132.818 93.6865 132.699 94.1757C132.48 96.0727 131.848 97.3771 130.81 98.0532C130.205 98.4469 129.585 98.5464 129.104 98.5464V98.5424ZM106.208 91.6861C111.669 91.6861 117.917 92.1117 124.184 93.428C125.115 93.6229 125.862 94.3229 126.089 95.2097C126.371 96.3153 126.996 97.6635 128.388 97.8146C128.408 97.8146 128.428 97.8226 128.447 97.8265C128.459 97.8265 129.521 98.1407 130.476 97.5124C131.343 96.9397 131.884 95.7864 132.074 94.0803C132.074 94.0644 132.078 94.0524 132.082 94.0365C132.102 93.957 134.099 86.027 131.641 77.1823L83.4723 81.8512C83.2854 83.1437 82.482 89.3875 83.5081 94.5137C83.5121 94.5336 84.3353 97.7589 86.5783 97.6317C86.618 97.6317 86.6578 97.6317 86.6936 97.6476C86.7095 97.6515 87.1549 97.7828 87.664 97.4766C88.3162 97.0828 88.8014 96.1403 89.0678 94.7484C89.2667 93.7024 90.1058 92.8951 91.1557 92.744C94.0668 92.3225 99.551 91.6901 106.208 91.6901V91.6861Z" fill="black"/>
<path d="M78.4212 62.9368C78.4212 62.9368 75.6572 68.2898 79.7972 70.3817C79.7972 70.3817 82.9828 71.7776 85.2138 67.9358L85.532 65.1401L78.4172 62.9329L78.4212 62.9368Z" fill="white"/>
<path d="M81.1775 70.8947C80.3066 70.8947 79.7021 70.6401 79.6861 70.6322C78.5647 70.0635 77.8249 69.2323 77.475 68.1466C76.6915 65.7286 78.1153 62.9289 78.1749 62.8096C78.2346 62.6903 78.3738 62.6346 78.501 62.6744L85.6158 64.8816C85.743 64.9213 85.8226 65.0446 85.8067 65.1758L85.4885 67.9716C85.4845 68.0074 85.4726 68.0472 85.4527 68.079C84.1005 70.4095 82.3865 70.8986 81.1775 70.8986V70.8947ZM78.5647 63.2669C78.2624 63.939 77.3954 66.1343 77.996 67.9796C78.3022 68.9181 78.9464 69.6459 79.9208 70.1351C80.0282 70.1788 82.8756 71.36 84.9476 67.8444L85.234 65.3349L78.5647 63.2669Z" fill="black"/>
<path d="M114.599 41.2029H92.4038L83.4716 47.0808C83.4716 47.0808 78.1505 55.0784 77.5221 62.8772C77.4943 63.2271 77.6931 63.5572 78.0153 63.7083L85.3686 65.9752C85.3686 65.9752 83.3483 74.2949 82.7637 82.4755C82.7478 82.6863 82.7359 82.8931 82.7239 83.1039C82.6961 83.5692 83.1137 83.939 83.575 83.8515C88.0888 82.9965 108.976 79.4769 132.428 82.6982C132.718 82.738 132.98 82.5312 132.996 82.2409C133.108 80.3995 133.219 72.215 130.535 63.0363L136.878 43.9788L131.561 42.6505" fill="white"/>
<path d="M83.4363 84.1856C83.1857 84.1856 82.9431 84.0942 82.7522 83.9271C82.5096 83.7124 82.3824 83.4101 82.4023 83.088C82.4142 82.8772 82.4301 82.6664 82.442 82.4557C82.959 75.2017 84.6254 67.7489 84.9873 66.194L77.9203 64.0146C77.9203 64.0146 77.8924 64.0027 77.8765 63.9987C77.4351 63.7879 77.1646 63.3266 77.2004 62.8494C77.8288 55.0586 83.1459 46.9854 83.2016 46.9058C83.2255 46.8701 83.2573 46.8382 83.2931 46.8144L92.2253 40.9365C92.277 40.9007 92.3406 40.8848 92.4003 40.8848H114.596C114.771 40.8848 114.914 41.0279 114.914 41.2029C114.914 41.3779 114.771 41.5211 114.596 41.5211H92.4957L83.6987 47.3115C83.2374 48.0234 78.4253 55.6034 77.8367 62.9011C77.8208 63.1079 77.9362 63.3107 78.131 63.4101L85.4605 65.669C85.6236 65.7167 85.715 65.8838 85.6753 66.0508C85.6554 66.1343 83.655 74.4421 83.0783 82.4994C83.0624 82.7062 83.0505 82.917 83.0386 83.1238C83.0306 83.2471 83.0783 83.3624 83.1738 83.4459C83.2653 83.5294 83.3885 83.5612 83.5118 83.5374C87.5365 82.7738 108.809 79.1309 132.468 82.3801C132.539 82.392 132.591 82.3602 132.615 82.3403C132.643 82.3204 132.675 82.2807 132.679 82.221C132.699 81.8591 133.184 73.2252 130.229 63.1278C130.209 63.0641 130.213 63.0005 130.229 62.9369L136.465 44.2055L131.482 42.9607C131.311 42.917 131.207 42.746 131.251 42.571C131.295 42.4 131.47 42.2926 131.641 42.3403L136.958 43.6686C137.045 43.6885 137.117 43.7482 137.161 43.8237C137.204 43.9033 137.212 43.9947 137.185 44.0782L130.873 63.0403C133.824 73.2013 133.343 81.8909 133.319 82.2568C133.307 82.4795 133.2 82.6903 133.025 82.8335C132.846 82.9806 132.615 83.0442 132.384 83.0124C108.825 79.7792 87.6399 83.4061 83.6311 84.1657C83.5675 84.1777 83.4999 84.1856 83.4363 84.1856Z" fill="black"/>
<path d="M85.2176 66.5159C85.1857 66.5159 85.1579 66.5119 85.1261 66.5C84.9869 66.4523 84.9153 66.2972 84.967 66.158L89.0792 54.6925C89.1269 54.5533 89.282 54.4817 89.4212 54.5334C89.5604 54.5811 89.632 54.7362 89.5803 54.8754L85.4681 66.3409C85.4283 66.4483 85.3249 66.5159 85.2176 66.5159Z" fill="black"/>
<path d="M94.2091 45.9194C90.6975 48.6475 86.8001 47.9675 86.8001 47.9675C81.1648 47.3868 82.1988 41.4851 82.6323 39.7273C82.7277 39.3495 82.7993 38.9677 82.847 38.5819L82.9305 37.8899L86.8955 13.2886C86.8955 13.2886 88.5022 2.13332 92.6661 1.85096C92.6661 1.85096 96.2453 1.21862 98.1662 10.6479C98.2815 11.2246 98.7468 11.6302 99.2757 11.6223L114.69 11.3161C115.247 11.3041 115.708 10.8428 115.78 10.2304C116.054 7.77659 117.025 1.90663 120.039 1.36975C120.039 1.36975 123.376 0.220413 126.613 9.37929C127.257 11.2047 127.759 13.0858 128.144 14.9947L133.251 38.9756C133.298 39.2063 133.354 39.433 133.422 39.6557C133.823 41.0039 135.358 47.6613 126.776 47.9675C124.402 48.2459 121.519 46.4364 120.524 45.7444C120.171 45.5018 119.809 45.2671 119.423 45.0842C115.756 43.3184 113.322 45.5773 113.322 45.5773C110.204 48.3055 107.325 47.9675 107.325 47.9675C105.078 47.9675 103.483 46.8937 102.891 46.4244C102.505 46.1182 102.091 45.8358 101.646 45.6012C97.6173 43.4934 94.2171 45.9194 94.2171 45.9194" fill="white"/>
<path d="M87.9659 48.3654C87.2541 48.3654 86.8007 48.2898 86.745 48.2818C85.0429 48.1069 83.7544 47.4308 82.9431 46.2735C81.4318 44.122 82.0085 40.9245 82.3227 39.6479C82.4181 39.2661 82.4857 38.8963 82.5295 38.5423L82.613 37.8503L86.578 13.2331C86.6456 12.7718 88.2761 1.82728 92.6468 1.52901C92.7741 1.50515 96.5203 0.960308 98.481 10.5805C98.5645 10.9981 98.8906 11.2964 99.2565 11.2964C99.2604 11.2964 99.2644 11.2964 99.2684 11.2964L114.683 10.9901C115.077 10.9822 115.411 10.6362 115.458 10.1868C115.745 7.6336 116.755 1.64434 119.964 1.05178C120.338 0.9444 123.731 0.252414 126.916 9.26415C127.532 11.006 128.049 12.911 128.459 14.9233L133.561 38.9003C133.613 39.1468 133.669 39.3616 133.725 39.5564C133.979 40.4194 134.691 43.4061 133.072 45.6571C131.899 47.2916 129.783 48.1705 126.785 48.2779C124.359 48.5642 121.468 46.7786 120.338 45.9991C120.056 45.8042 119.678 45.5537 119.28 45.3628C115.864 43.7163 113.629 45.7167 113.538 45.8042C110.34 48.604 107.409 48.2898 107.286 48.2739H107.278C104.971 48.2739 103.297 47.1484 102.689 46.6632C102.279 46.3371 101.885 46.0786 101.495 45.8718C97.7333 43.9032 94.5955 46.0309 94.4046 46.1661C91.9946 48.0353 89.4374 48.3574 87.9699 48.3574L87.9659 48.3654ZM92.7939 2.16134C92.7462 2.16134 92.7224 2.16134 92.7184 2.16134C89.4851 2.38405 87.6478 10.2981 87.2103 13.3286L83.2453 37.9378L83.1658 38.6179C83.122 38.9997 83.0465 39.3974 82.947 39.803C82.6528 40.9921 82.1119 43.9708 83.468 45.9076C84.168 46.9058 85.3014 47.4904 86.8325 47.6495C86.8922 47.6575 90.6623 48.2739 94.0109 45.669C94.0109 45.669 94.0188 45.665 94.0228 45.661C94.17 45.5576 97.6299 43.1436 101.786 45.319C102.215 45.5457 102.641 45.8241 103.082 46.178C103.639 46.6195 105.17 47.6535 107.318 47.6535C107.381 47.6575 110.141 47.9358 113.104 45.3429C113.124 45.327 115.733 42.9607 119.555 44.802C119.992 45.0128 120.398 45.2793 120.7 45.49C121.535 46.0667 124.434 47.9239 126.733 47.6575C129.549 47.5541 131.497 46.7626 132.551 45.2991C134.003 43.2828 133.347 40.5427 133.112 39.7513C133.048 39.5366 132.993 39.3059 132.937 39.0474L127.835 15.0665C127.433 13.078 126.92 11.2009 126.316 9.49083C123.249 0.817139 120.171 1.66025 120.139 1.67218C120.127 1.67218 120.108 1.68013 120.096 1.68411C117.22 2.19316 116.306 8.38127 116.095 10.2663C116.007 11.0339 115.407 11.6225 114.695 11.6384L99.2803 11.9446C98.6003 11.9446 97.9997 11.4395 97.8526 10.7157C96.1863 2.52722 93.2911 2.16134 92.7939 2.16134Z" fill="black"/>
<path d="M92.4558 11.8491C92.2809 11.8491 92.1377 11.7059 92.1377 11.5309V6.88188C92.1377 6.70689 92.2809 6.56372 92.4558 6.56372C92.6308 6.56372 92.774 6.70689 92.774 6.88188V11.5309C92.774 11.7059 92.6308 11.8491 92.4558 11.8491Z" fill="black"/>
<path d="M120.612 11.4235C120.437 11.4235 120.294 11.2804 120.294 11.1054V6.45634C120.294 6.28135 120.437 6.13818 120.612 6.13818C120.787 6.13818 120.93 6.28135 120.93 6.45634V11.1054C120.93 11.2804 120.787 11.4235 120.612 11.4235Z" fill="black"/>
<path d="M105.954 31.9526C108.275 31.9526 110.157 30.9572 110.157 29.7295C110.157 28.5017 108.275 27.5063 105.954 27.5063C103.632 27.5063 101.75 28.5017 101.75 29.7295C101.75 30.9572 103.632 31.9526 105.954 31.9526Z" fill="black"/>
<path d="M118.907 30.7196C120.705 30.7196 122.164 30.0875 122.164 29.3078C122.164 28.5281 120.705 27.896 118.907 27.896C117.108 27.896 115.649 28.5281 115.649 29.3078C115.649 30.0875 117.108 30.7196 118.907 30.7196Z" fill="#F4CACA"/>
<path d="M93.3626 30.7196C95.1614 30.7196 96.6197 30.0875 96.6197 29.3078C96.6197 28.5281 95.1614 27.896 93.3626 27.896C91.5637 27.896 90.1055 28.5281 90.1055 29.3078C90.1055 30.0875 91.5637 30.7196 93.3626 30.7196Z" fill="#F4CACA"/>
<path d="M99.3996 25.7207C99.9531 25.7207 100.402 25.272 100.402 24.7185C100.402 24.165 99.9531 23.7163 99.3996 23.7163C98.8462 23.7163 98.3975 24.165 98.3975 24.7185C98.3975 25.272 98.8462 25.7207 99.3996 25.7207Z" fill="black"/>
<path d="M111.903 25.7207C112.456 25.7207 112.905 25.272 112.905 24.7185C112.905 24.165 112.456 23.7163 111.903 23.7163C111.349 23.7163 110.9 24.165 110.9 24.7185C110.9 25.272 111.349 25.7207 111.903 25.7207Z" fill="black"/>
<path d="M115.227 65.3191C115.144 65.2713 113.024 63.9947 112.945 63.9391L111.859 64.5157C111.795 64.5595 111.728 64.5992 111.668 64.6469L110.407 65.6293C108.781 66.8979 107.174 64.7623 107.174 64.7623C106.371 63.4817 105.154 64.3248 105.154 64.3248C104.72 64.5475 104.175 64.7742 103.758 64.9333C103.122 65.1799 102.426 65.2594 101.765 65.1003C100.914 64.8935 99.8406 63.7084 99.1128 62.7937C98.4765 64.631 97.9038 67.045 97.4902 70.2425L119.522 70.3618C119.522 70.3618 119.153 68.4091 118.369 66.1383C117.212 66.0309 115.772 65.6452 115.223 65.3191H115.227Z" fill="#01972A"/>
<path d="M117.22 66.5518C116.281 66.5518 115.295 66.0745 114.579 65.6331C114.185 65.3865 113.855 65.0763 113.525 64.7502C113.314 64.5434 113.04 64.436 112.702 64.436H112.69C112.161 64.436 111.716 64.6866 111.433 64.8974L110.176 65.8478C109.699 66.2097 109.178 66.3489 108.633 66.2694C107.456 66.0944 106.593 64.9252 106.557 64.8735C106.359 64.5474 106.136 64.3644 105.873 64.3048C105.432 64.2054 105.002 64.4838 104.998 64.4877C104.987 64.4957 104.975 64.5036 104.963 64.5076C104.509 64.7343 103.941 64.953 103.543 65.1002C102.811 65.3666 102.067 65.4183 101.387 65.2394C100.186 64.9292 99.2001 63.6446 98.8024 63.0521C98.7865 63.0362 98.7706 63.0163 98.7587 62.9924C98.6752 62.8453 98.703 62.6226 98.8462 62.5311C98.9893 62.4436 99.1961 62.5112 99.2916 62.6504C99.5541 63.0441 100.493 64.3485 101.547 64.623C102.099 64.7661 102.716 64.7224 103.328 64.4997C103.706 64.3605 104.243 64.1537 104.668 63.9429C104.784 63.8713 105.36 63.5412 106.009 63.6844C106.442 63.7798 106.804 64.0622 107.078 64.5196C107.078 64.5196 107.818 65.5058 108.725 65.641C109.099 65.6967 109.449 65.5973 109.795 65.3388L111.051 64.3883C111.568 63.9986 112.125 63.7918 112.702 63.7997C113.211 63.7997 113.632 63.9707 113.963 64.2968C114.277 64.607 114.567 64.8815 114.905 65.0922C115.529 65.478 116.715 66.0944 117.637 65.8717C117.804 65.828 117.975 65.9353 118.015 66.1024C118.055 66.2694 117.951 66.4404 117.784 66.4802C117.597 66.5239 117.407 66.5438 117.216 66.5438L117.22 66.5518Z" fill="black"/>
<path d="M119.511 70.5725H96.8506L96.9063 70.1271C97.9204 61.867 100.068 58.7014 101.687 57.5003C102.764 56.701 103.643 56.7407 103.846 56.7646C107.012 56.7805 108.423 60.1609 108.933 61.8789C109.748 60.3876 110.714 59.4689 111.808 59.1428C113.041 58.7729 113.963 59.3178 114.003 59.3416C117.702 61.5051 119.348 69.7533 119.42 70.1032L119.511 70.5765V70.5725ZM97.7494 69.7771H118.537C118.131 67.9994 116.517 61.7238 113.597 60.0177C113.57 60.0018 112.913 59.628 112.019 59.9024C111.04 60.2046 110.126 61.1909 109.37 62.7618C109.267 62.9766 109.04 63.0998 108.805 63.076C108.567 63.0521 108.376 62.8851 108.32 62.6544C108.03 61.4574 106.853 57.552 103.818 57.552H103.751C103.727 57.5441 103.039 57.4566 102.104 58.1724C100.653 59.282 98.7357 62.1971 97.7454 69.7771H97.7494Z" fill="black"/>
<path d="M128.212 41.529C128.212 41.529 129.962 36.4981 133.899 38.1525C133.899 38.1525 136.786 39.5484 135.681 43.3305L133.521 46.011L128.212 41.5329V41.529Z" fill="white"/>
<path d="M133.518 46.3251C133.442 46.3251 133.371 46.2972 133.311 46.2495L128.002 41.7715C127.902 41.688 127.863 41.5448 127.906 41.4215C127.946 41.3102 128.869 38.7172 130.913 37.8065C131.875 37.377 132.921 37.3929 134.019 37.8542C134.067 37.8781 137.153 39.4211 135.983 43.4179C135.972 43.4577 135.952 43.4975 135.924 43.5293L133.764 46.2097C133.709 46.2773 133.633 46.3211 133.546 46.329C133.534 46.329 133.526 46.329 133.514 46.329L133.518 46.3251ZM128.59 41.4295L133.474 45.5496L135.387 43.1753C136.357 39.7393 133.864 38.4905 133.756 38.4388C132.842 38.057 131.971 38.0371 131.175 38.3911C129.688 39.0513 128.841 40.8289 128.59 41.4334V41.4295Z" fill="black"/>
<path d="M136.326 43.8316L133.462 43.076L127.481 41.0796L126.24 47.9676" fill="white"/>
<path d="M126.243 48.2896C126.243 48.2896 126.207 48.2896 126.188 48.2856C126.013 48.2538 125.897 48.0868 125.929 47.9158L127.166 41.0277C127.182 40.9363 127.238 40.8567 127.317 40.809C127.397 40.7613 127.496 40.7533 127.584 40.7811L133.569 42.7776L136.412 43.5252C136.583 43.569 136.687 43.744 136.639 43.915C136.595 44.086 136.416 44.1854 136.249 44.1417L133.386 43.386L127.735 41.501L126.561 48.0271C126.534 48.1822 126.398 48.2896 126.247 48.2896H126.243Z" fill="black"/>
<path d="M135.884 44.3128L133.729 43.6646L126.574 47.6375V48.9658L132.56 48.3017L135.884 44.3128Z" fill="white"/>
</g>
<g clip-path="url(#clip1_936_25292)">
<path d="M68.1852 92.228H67.4958C66.619 92.228 65.9082 92.9388 65.9082 93.8156V97.2175C65.9082 98.0943 66.619 98.8051 67.4958 98.8051H68.1852C69.062 98.8051 69.7728 98.0943 69.7728 97.2175V93.8156C69.7728 92.9388 69.062 92.228 68.1852 92.228Z" fill="white"/>
<path d="M68.1846 99.1454H67.4951C66.4337 99.1454 65.5674 98.279 65.5674 97.2176V93.8157C65.5674 92.7543 66.4337 91.8879 67.4951 91.8879H68.1846C69.246 91.8879 70.1124 92.7543 70.1124 93.8157V97.2176C70.1124 98.279 69.246 99.1454 68.1846 99.1454ZM67.4951 92.5683C66.8057 92.5683 66.2478 93.1262 66.2478 93.8157V97.2176C66.2478 97.9071 66.8057 98.465 67.4951 98.465H68.1846C68.8741 98.465 69.432 97.9071 69.432 97.2176V93.8157C69.432 93.1262 68.8741 92.5683 68.1846 92.5683H67.4951Z" fill="black"/>
<path d="M60.029 92.228H59.3395C58.4627 92.228 57.752 92.9388 57.752 93.8156V97.2175C57.752 98.0943 58.4627 98.8051 59.3395 98.8051H60.029C60.9058 98.8051 61.6165 98.0943 61.6165 97.2175V93.8156C61.6165 92.9388 60.9058 92.228 60.029 92.228Z" fill="white"/>
<path d="M60.0293 99.1454H59.3399C58.2785 99.1454 57.4121 98.279 57.4121 97.2176V93.8157C57.4121 92.7543 58.2785 91.8879 59.3399 91.8879H60.0293C61.0907 91.8879 61.9571 92.7543 61.9571 93.8157V97.2176C61.9571 98.279 61.0907 99.1454 60.0293 99.1454ZM59.3399 92.5683C58.6504 92.5683 58.0925 93.1262 58.0925 93.8157V97.2176C58.0925 97.9071 58.6504 98.465 59.3399 98.465H60.0293C60.7188 98.465 61.2767 97.9071 61.2767 97.2176V93.8157C61.2767 93.1262 60.7188 92.5683 60.0293 92.5683H59.3399Z" fill="black"/>
<path d="M57.222 76.8242L53.2168 92.5548C53.2168 92.5548 53.2168 93.7794 54.564 93.9972C54.564 93.9972 63.5405 95.4668 73.4152 94.2194C73.4152 94.2194 74.7624 94.2194 74.7624 92.9721L71.0248 76.9331C71.0248 76.9331 64.112 78.5479 57.222 76.8242Z" fill="white"/>
<path d="M65.0685 95.0586C59.0357 95.0586 54.5724 94.3419 54.5089 94.3328C53.2162 94.1196 52.876 93.0764 52.876 92.5548C52.876 92.5275 52.876 92.5003 52.885 92.4731L56.8903 76.7426C56.9356 76.5611 57.1216 76.4477 57.303 76.4976C64.0343 78.1805 70.879 76.6201 70.947 76.6065C71.0378 76.5884 71.1285 76.6065 71.2056 76.6473C71.2827 76.6927 71.3371 76.7698 71.3553 76.8605L75.0929 92.8995C75.0974 92.9267 75.1019 92.9494 75.1019 92.9766C75.1019 94.233 73.9997 94.5642 73.4146 94.5642C70.4934 94.9361 67.6404 95.0631 65.0685 95.0631V95.0586ZM53.5564 92.591C53.57 92.7816 53.6788 93.5118 54.6178 93.6615C54.7085 93.6751 63.6669 95.1085 73.3737 93.8792C73.5779 93.8792 74.3989 93.8248 74.4215 93.0038L70.7701 77.3277C69.3232 77.6135 63.3947 78.6204 57.4663 77.2279L53.5564 92.5865V92.591Z" fill="black"/>
<path d="M63.8763 89.9603C66.1309 89.9603 67.9586 88.1326 67.9586 85.878C67.9586 83.6234 66.1309 81.7957 63.8763 81.7957C61.6217 81.7957 59.7939 83.6234 59.7939 85.878C59.7939 88.1326 61.6217 89.9603 63.8763 89.9603Z" fill="#FF8031"/>
<path d="M63.8756 90.3003C61.4353 90.3003 59.4531 88.3182 59.4531 85.8778C59.4531 83.4375 61.4353 81.4553 63.8756 81.4553C66.316 81.4553 68.2981 83.4375 68.2981 85.8778C68.2981 88.3182 66.316 90.3003 63.8756 90.3003ZM63.8756 82.1357C61.8118 82.1357 60.1335 83.814 60.1335 85.8778C60.1335 87.9417 61.8118 89.62 63.8756 89.62C65.9395 89.62 67.6178 87.9417 67.6178 85.8778C67.6178 83.814 65.9395 82.1357 63.8756 82.1357Z" fill="black"/>
<path d="M62.5336 86.0004C62.3476 86.0004 62.1934 85.8462 62.1934 85.6602V84.9889C62.1934 84.8029 62.3476 84.6487 62.5336 84.6487C62.7195 84.6487 62.8737 84.8029 62.8737 84.9889V85.6602C62.8737 85.8462 62.7195 86.0004 62.5336 86.0004Z" fill="black"/>
<path d="M65.2367 86.0004C65.0507 86.0004 64.8965 85.8462 64.8965 85.6602V84.9889C64.8965 84.8029 65.0507 84.6487 65.2367 84.6487C65.4226 84.6487 65.5769 84.8029 65.5769 84.9889V85.6602C65.5769 85.8462 65.4226 86.0004 65.2367 86.0004Z" fill="black"/>
<path d="M62.5332 86.7852C62.5332 86.7852 63.2635 87.6878 63.7987 86.7852C63.7987 86.7852 64.5335 87.6878 65.1096 86.7852" fill="#FF8031"/>
<path d="M63.2315 87.5289C62.7099 87.5289 62.3153 87.0572 62.2699 87.0028C62.152 86.8576 62.1747 86.6444 62.3198 86.5265C62.465 86.4086 62.6781 86.4313 62.7961 86.5764C62.8913 86.6943 63.1091 86.8758 63.2451 86.8531C63.3495 86.844 63.4447 86.7215 63.5082 86.6172C63.5672 86.522 63.667 86.4585 63.7758 86.4539C63.8847 86.4539 63.9936 86.4902 64.0661 86.5764C64.1432 86.6717 64.3564 86.8667 64.5288 86.8531C64.6241 86.8486 64.7238 86.7669 64.8236 86.6082C64.9234 86.4494 65.1366 86.404 65.2954 86.5038C65.4541 86.6036 65.4995 86.8168 65.3997 86.9756C65.1185 87.411 64.7919 87.5199 64.5696 87.5335C64.2703 87.5516 64.0253 87.4246 63.8393 87.2885C63.6443 87.4654 63.4493 87.5199 63.295 87.5335C63.2724 87.5335 63.2542 87.5335 63.2315 87.5335V87.5289Z" fill="black"/>
<path d="M88.8233 43.2221C91.8533 36.0327 88.3924 33.4926 88.3924 33.4926C85.7979 30.957 80.6042 34.3362 80.6042 34.3362C64.597 25.0331 49.0252 34.7581 49.0252 34.7581C43.8362 31.7961 40.3753 34.3362 40.3753 34.3362C36.4835 38.1419 39.9444 44.4876 39.9444 44.4876C39.9444 44.4876 29.5299 67.2307 51.9282 75.3136C57.6253 77.3684 63.7896 77.9399 69.7906 77.0373C80.5362 75.4225 96.5616 68.8364 88.8233 43.2221Z" fill="#FF8031"/>
<path d="M64.2612 77.7949C60.002 77.7949 55.779 77.0692 51.8147 75.6404C45.3056 73.2908 40.9058 69.4806 38.7376 64.3142C35.0998 55.6506 39.0007 45.853 39.5722 44.5104C39.3454 44.0614 38.6923 42.6598 38.3702 40.9089C37.8531 38.0921 38.4655 35.7425 40.1438 34.1005L40.1801 34.0688C40.3252 33.9599 43.8042 31.4878 49.0296 34.3727C50.7986 33.3475 65.5766 25.3371 80.6041 33.9463C81.5748 33.3566 86.1061 30.812 88.619 33.2387C88.9411 33.4882 92.1162 36.187 89.1906 43.2449C92.1933 53.2602 91.8395 61.3069 88.1337 67.1673C83.82 73.9848 75.8096 76.484 69.8494 77.3776C67.9943 77.6588 66.1255 77.7949 64.2657 77.7949H64.2612ZM40.5974 34.604C36.9641 38.1874 40.2118 44.27 40.2436 44.329L40.3252 44.4787L40.2526 44.6329C40.2073 44.7372 35.5806 55.0519 39.3591 64.0511C41.4546 69.0315 45.7184 72.7147 52.0415 74.9963C57.6297 77.0147 63.7486 77.6044 69.7406 76.7018C75.5601 75.8263 83.3755 73.3996 87.5531 66.7999C91.1637 61.0937 91.4812 53.1921 88.5011 43.322L88.4648 43.2041L88.5102 43.0907C91.3814 36.2687 88.3197 33.8646 88.1881 33.7694L88.1518 33.7376C85.7841 31.4198 80.8399 34.5949 80.7901 34.6267L80.6132 34.7401L80.4317 34.6357C64.7964 25.5458 49.3607 34.9578 49.2065 35.053L49.0341 35.1619L48.8572 35.0621C44.0719 32.336 40.8922 34.3999 40.5928 34.604H40.5974Z" fill="black"/>
<path d="M85.875 58.6578C85.875 56.4216 84.6866 54.4168 82.8133 53.056C83.3032 50.4252 82.3325 47.7308 79.9829 46.0389C78.5359 44.9957 76.7851 44.4967 75.0115 44.5058C73.6553 42.5236 71.0608 41.181 68.0807 41.181C67.9174 41.181 67.7541 41.1855 67.5908 41.1946C67.8992 39.6161 67.5137 38.278 66.5158 37.9061C65.3274 37.4661 63.6808 38.5547 62.6421 40.3872C61.0183 38.9266 58.9862 38.3823 58.1062 39.1716C57.5301 39.6932 57.5936 40.6594 58.1652 41.6754C57.7978 41.6391 57.4258 41.621 57.0448 41.621C52.1324 41.621 48.1499 44.8415 48.1499 48.8104C48.1499 49.0281 48.1635 49.2413 48.1862 49.4545C45.0156 50.779 42.793 53.8452 42.793 57.4195C42.793 60.9938 45.0201 64.0692 48.1998 65.3891C48.168 65.6431 48.1499 65.9062 48.1499 66.1693C48.1499 69.7436 51.1254 72.6375 54.795 72.6375C55.4209 72.6375 55.117 72.5513 55.6886 72.3971C57.1446 73.8395 60.2562 74.7603 62.7238 74.7603C65.3364 74.7603 67.6543 73.7307 69.0967 72.1386C70.0356 72.4606 71.0698 72.6375 72.1539 72.6375C76.5356 72.6375 80.0827 69.7391 80.0827 66.1693C80.0827 65.9833 80.0691 65.8064 80.0509 65.625C83.4483 64.5772 85.866 61.8557 85.866 58.6578H85.875Z" fill="white"/>
<path d="M62.728 75.1051C60.4737 75.1051 57.2668 74.2931 55.6021 72.7872C55.5431 72.8099 55.5068 72.8326 55.4796 72.8507C55.3118 72.9505 55.1939 72.9868 54.7992 72.9868C50.9483 72.9868 47.8139 69.9296 47.8139 66.1784C47.8139 65.9924 47.823 65.8019 47.8412 65.6114C44.5617 64.1463 42.457 60.9621 42.457 57.4286C42.457 53.8951 44.5572 50.72 47.8321 49.2504C47.823 49.1052 47.8139 48.9601 47.8139 48.8195C47.8139 44.6691 51.9552 41.2898 57.0491 41.2898C57.235 41.2898 57.421 41.2898 57.607 41.3035C57.2078 40.3146 57.3031 39.4528 57.8837 38.9312C58.8453 38.0648 60.8501 38.4867 62.5647 39.8792C63.7123 38.083 65.3815 37.135 66.6425 37.5976C67.6903 37.9832 68.2029 39.2396 68.0033 40.8499C68.035 40.8499 68.0622 40.8499 68.094 40.8499C71.006 40.8499 73.7094 42.1199 75.2018 44.1747C77.0524 44.1974 78.7761 44.7507 80.1913 45.7713C82.491 47.4269 83.6295 50.1485 83.194 52.9154C85.1218 54.3896 86.224 56.4715 86.224 58.6669C86.224 61.8375 83.9062 64.7042 80.4271 65.879C80.4317 65.9788 80.4362 66.0831 80.4362 66.1829C80.4362 69.9387 76.7258 72.9913 72.1672 72.9913C71.1467 72.9913 70.1533 72.8416 69.2098 72.5423C67.6313 74.1797 65.2863 75.1141 62.7371 75.1141L62.728 75.1051ZM55.6928 72.0615C55.7835 72.0615 55.8697 72.0977 55.9332 72.1612C57.235 73.454 60.1561 74.4292 62.728 74.4292C65.132 74.4292 67.4227 73.4903 68.8515 71.9208C68.9422 71.8211 69.0874 71.7848 69.2144 71.8256C70.1488 72.1431 71.1421 72.3064 72.1627 72.3064C76.3493 72.3064 79.7513 69.5576 79.7513 66.1784C79.7513 66.006 79.7377 65.8382 79.7241 65.6658C79.7059 65.5025 79.8057 65.3528 79.9645 65.3075C83.2984 64.2824 85.5391 61.6107 85.5391 58.6624C85.5391 56.6258 84.4732 54.6844 82.618 53.3327C82.5136 53.2556 82.4592 53.124 82.4819 52.997C82.9672 50.3798 81.9603 47.8851 79.7876 46.3202C78.454 45.3586 76.8211 44.8505 75.0611 44.8505H75.0158C74.9024 44.8505 74.7981 44.7961 74.7346 44.7009C73.3965 42.7413 70.8473 41.5257 68.0849 41.5257C67.9262 41.5257 67.7674 41.5303 67.6086 41.5393C67.4953 41.5393 67.4045 41.503 67.3365 41.4214C67.2685 41.3443 67.2412 41.2354 67.2594 41.1356C67.5406 39.6932 67.1959 38.5275 66.4021 38.2326C65.3997 37.8652 63.9073 38.8631 62.9412 40.5596C62.8913 40.6503 62.8006 40.7093 62.7008 40.7274C62.601 40.7455 62.4967 40.7138 62.4196 40.6457C60.7957 39.1852 58.9995 38.8359 58.3372 39.4301C57.9109 39.8157 57.9608 40.614 58.4643 41.5166C58.5278 41.6255 58.5232 41.7616 58.4506 41.8704C58.3826 41.9748 58.2556 42.0383 58.1331 42.0201C57.7793 41.9838 57.4119 41.9657 57.0491 41.9657C52.3317 41.9657 48.4943 45.0365 48.4943 48.8149C48.4943 49.01 48.5079 49.2095 48.5306 49.4227C48.5488 49.5724 48.4626 49.7176 48.322 49.772C45.1695 51.0874 43.1374 54.0902 43.1374 57.4241C43.1374 60.758 45.1786 63.7698 48.3356 65.0807C48.4762 65.1397 48.5624 65.2848 48.5442 65.439C48.5125 65.6885 48.4989 65.938 48.4989 66.1784C48.4989 69.5576 51.3247 72.3064 54.8038 72.3064C55.0442 72.3064 55.0941 72.2928 55.0986 72.2883C55.2256 72.2111 55.3436 72.1476 55.6066 72.0751C55.6384 72.066 55.6656 72.0615 55.6973 72.0615H55.6928Z" fill="black"/>
<path d="M62.5063 60.2001C62.4156 61.3704 61.4359 62.2866 60.2474 62.2866C58.9955 62.2866 57.9795 61.2706 57.9795 60.0187C57.9795 58.7668 58.9955 57.7507 60.2474 57.7507C60.7872 57.7507 61.2862 57.9412 61.6763 58.2542" fill="white"/>
<path d="M60.2468 62.6313C58.8089 62.6313 57.6387 61.4611 57.6387 60.0232C57.6387 58.5853 58.8089 57.415 60.2468 57.415C60.841 57.415 61.4262 57.6237 61.8888 57.9956L61.4624 58.5263C61.1223 58.2496 60.6913 58.0954 60.2468 58.0954C59.1854 58.0954 58.3191 58.9618 58.3191 60.0232C58.3191 61.0846 59.1854 61.9509 60.2468 61.9509C61.2447 61.9509 62.0929 61.1708 62.17 60.1774L62.8504 60.2318C62.7461 61.579 61.6031 62.6359 60.2514 62.6359L60.2468 62.6313Z" fill="black"/>
<path d="M62.5151 58.2087C62.6784 58.059 62.9415 57.9366 63.2182 57.8549C63.445 57.7914 63.6809 57.7551 63.8759 57.7551C65.1278 57.7551 66.1439 58.7712 66.1439 60.0231C66.1439 61.275 65.1278 62.291 63.8759 62.291C62.7782 62.291 61.8665 61.5154 61.6533 60.4812" fill="white"/>
<path d="M63.8757 62.6314C62.6419 62.6314 61.5669 61.756 61.322 60.5495C61.2857 60.3635 61.4036 60.1866 61.5851 60.1503C61.7665 60.114 61.9479 60.2319 61.9842 60.4134C62.1657 61.307 62.9595 61.9511 63.8712 61.9511C64.9326 61.9511 65.7989 61.0847 65.7989 60.0233C65.7989 58.9619 64.9326 58.0955 63.8712 58.0955C63.7079 58.0955 63.4992 58.1273 63.3042 58.1862C63.0638 58.2543 62.8506 58.3586 62.7372 58.4629C62.6011 58.5899 62.3834 58.5809 62.2564 58.4403C62.1294 58.2996 62.1385 58.0865 62.2791 57.9595C62.4696 57.7825 62.7689 57.6329 63.1137 57.5331C63.3722 57.4605 63.6398 57.4197 63.8666 57.4197C65.3045 57.4197 66.4748 58.5899 66.4748 60.0278C66.4748 61.4657 65.3045 62.636 63.8666 62.636L63.8757 62.6314Z" fill="black"/>
<path d="M61.8349 58.8892C62.8369 58.8892 63.6492 58.4242 63.6492 57.8505C63.6492 57.2768 62.8369 56.8118 61.8349 56.8118C60.8328 56.8118 60.0205 57.2768 60.0205 57.8505C60.0205 58.4242 60.8328 58.8892 61.8349 58.8892Z" fill="black"/>
<path d="M71.5099 59.1342C73.1382 59.1342 74.4582 58.6265 74.4582 58.0002C74.4582 57.3739 73.1382 56.8662 71.5099 56.8662C69.8815 56.8662 68.5615 57.3739 68.5615 58.0002C68.5615 58.6265 69.8815 59.1342 71.5099 59.1342Z" fill="#F4CACA"/>
<path d="M53.8966 59.3429C55.5249 59.3429 56.8449 58.8352 56.8449 58.2089C56.8449 57.5827 55.5249 57.075 53.8966 57.075C52.2683 57.075 50.9482 57.5827 50.9482 58.2089C50.9482 58.8352 52.2683 59.3429 53.8966 59.3429Z" fill="#F4CACA"/>
<path d="M56.7685 55.9589C57.2695 55.9589 57.6757 55.5527 57.6757 55.0517C57.6757 54.5507 57.2695 54.1445 56.7685 54.1445C56.2675 54.1445 55.8613 54.5507 55.8613 55.0517C55.8613 55.5527 56.2675 55.9589 56.7685 55.9589Z" fill="black"/>
<path d="M68.1084 55.9589C68.6094 55.9589 69.0155 55.5527 69.0155 55.0517C69.0155 54.5507 68.6094 54.1445 68.1084 54.1445C67.6073 54.1445 67.2012 54.5507 67.2012 55.0517C67.2012 55.5527 67.6073 55.9589 68.1084 55.9589Z" fill="black"/>
<path d="M71.2832 77.2597L71.7368 73.1638C71.7368 73.1638 72.1904 70.8867 74.9255 71.7984C74.9255 71.7984 77.2026 72.7102 75.8373 75.4408L72.0725 81.3511L71.2832 77.2597Z" fill="white"/>
<path d="M72.0725 81.6959C72.0725 81.6959 72.0317 81.6959 72.009 81.6913C71.8729 81.6641 71.7641 81.5598 71.7369 81.4192L70.9476 77.3278C70.9431 77.296 70.9385 77.2598 70.9476 77.2235L71.4012 73.1275C71.4148 73.055 71.6189 72.0752 72.517 71.5536C73.1838 71.168 74.0275 71.1408 75.0345 71.4765C75.0934 71.4992 76.0596 71.8983 76.4542 72.928C76.749 73.6991 76.6402 74.5972 76.1412 75.5951L72.3628 81.5371C72.2993 81.6369 72.1905 81.6959 72.0771 81.6959H72.0725ZM71.628 77.2507L72.2449 80.4485L75.547 75.2594C75.9371 74.4747 76.0369 73.7626 75.8146 73.182C75.5334 72.429 74.8031 72.1206 74.7941 72.1206C74.0048 71.8575 73.3517 71.8666 72.8618 72.1433C72.2313 72.5061 72.0725 73.2319 72.068 73.2364L71.6235 77.2507H71.628Z" fill="black"/>
<path d="M56.8818 77.2823L56.4283 73.2C56.4283 73.2 55.9747 70.932 53.2531 71.8392C53.2531 71.8392 50.9852 72.7464 52.3459 75.4679L56.0926 81.3601L56.8818 77.2823Z" fill="white"/>
<path d="M56.0918 81.7004C55.9784 81.7004 55.8695 81.6414 55.806 81.5416L52.0594 75.6495C51.5468 74.6244 51.438 73.7308 51.7328 72.9642C52.1229 71.9346 53.089 71.54 53.1298 71.5218C54.1504 71.1816 54.9941 71.2088 55.6563 71.5944C56.5499 72.1115 56.754 73.0912 56.7631 73.1321L57.2212 77.2416C57.2212 77.2779 57.2212 77.3096 57.2212 77.3459L56.432 81.4237C56.4048 81.5598 56.3004 81.6687 56.1598 81.6913C56.1372 81.6913 56.119 81.6959 56.0963 81.6959L56.0918 81.7004ZM53.3566 72.1659C53.3566 72.1659 52.64 72.4744 52.3587 73.2183C52.141 73.7988 52.2363 74.5064 52.6445 75.3229L55.9149 80.4621L56.5318 77.2779L56.0827 73.2455C56.0827 73.2455 55.9194 72.5424 55.298 72.1841C54.8127 71.9028 54.155 71.8983 53.3521 72.1659H53.3566Z" fill="black"/>
</g>
<path d="M20.3037 15.0957C23.4862 16.0505 25.7687 20.9749 28.8857 22.5334" stroke="#01992A" stroke-width="3" stroke-linecap="round"/>
<path d="M48.91 1.9375C48.91 6.16029 48.3379 10.3088 48.3379 14.5244" stroke="#01992A" stroke-width="3" stroke-linecap="round"/>
<path d="M6 45.9919C10.3772 45.9919 15.5972 46.5012 19.7311 44.8477" stroke="#01992A" stroke-width="3" stroke-linecap="round"/>
<path d="M146.2 28.7224C146.411 26.8177 148.882 24.266 150.127 23.0169C153.713 19.4205 159.143 17.5132 164.174 17.3619C167.454 17.2632 169.522 17.4505 170.87 20.77C172.346 24.4031 170.36 27.6918 166.943 29.4798C162.359 31.8783 159.594 25.4026 160.524 21.8808C161.707 17.4007 165.431 15.2985 169.159 13.1206C171.246 11.9011 172.81 11 175.2 11" stroke="#FF8031" stroke-width="3" stroke-linecap="round"/>
<path d="M30.2002 79.7436C27.9216 83.8633 23.231 89.2532 17.8323 87.9772C13.3095 86.9083 9.4024 78 16.0723 78C18.3059 78 18.2948 78.5544 19.1342 80.6154C20.1922 83.2131 20.2839 83.8283 18.6279 86.3789C16.4223 89.7758 11.7369 95 7.2002 95" stroke="#FF8031" stroke-width="3" stroke-linecap="round"/>
<path d="M146.487 81.4237C152.173 81.4237 158.449 80.3119 158.449 87.7841C158.449 92.4796 165.068 94.3471 168.701 92.5306" stroke="#01992A" stroke-width="3" stroke-linecap="round"/>
<defs>
<clipPath id="clip0_936_25292">
<rect width="60" height="97.5423" fill="white" transform="translate(77.2002 1)"/>
</clipPath>
<clipPath id="clip1_936_25292">
<rect width="54" height="69.1454" fill="white" transform="translate(37.2002 30)"/>
</clipPath>
</defs>
</svg>
