<svg width="94" height="29" viewBox="0 0 94 29" fill="none" xmlns="http://www.w3.org/2000/svg">
<g clip-path="url(#clip0_800_5034)">
<path d="M20.5042 7.61849C20.9018 6.61679 21.129 5.94663 21.4307 5.30823C22.6554 2.73695 24.8883 2.21847 27.1247 3.98203C28.8002 5.3047 30.0107 7.01535 31.0473 8.84593C33.589 13.3289 35.3745 18.1152 36.7448 23.0638C36.8335 23.3812 36.9081 23.7092 36.9187 24.0337C36.9507 24.912 36.6738 25.2153 35.8005 25.3211C35.6372 25.3423 35.4704 25.3423 35.3035 25.3388C29.9894 25.1871 24.6895 25.6421 19.3789 25.6668C15.1262 25.6844 10.8699 25.9948 6.6101 25.9631C4.99847 25.9525 3.41169 25.7162 1.81425 25.5892C0.330417 25.4728 -0.191411 24.8132 0.0641783 23.3988C0.990689 18.2492 2.03079 13.1243 4.73578 8.52143C5.63389 6.99419 6.63495 5.54807 7.95194 4.34532C11.3172 1.27672 15.0445 1.39312 18.2217 4.62044C19.031 5.44226 19.6664 6.39811 20.5042 7.61496V7.61849ZM21.4343 9.51961C21.5834 10.2533 21.7609 10.7717 21.1716 10.9305C20.6356 11.0751 20.4297 10.5672 20.2273 10.1827C19.9185 9.59721 19.638 9.00112 19.3328 8.41562C18.7435 7.28694 18.03 6.24997 17.1212 5.3435C14.6434 2.87451 11.6367 2.74753 8.99915 5.0578C7.31652 6.53214 6.09892 8.36624 5.10141 10.3485C4.81743 10.9164 4.72158 11.4772 4.93457 12.0944C5.49545 13.7204 6.20187 15.2653 7.30587 16.6021C8.59801 18.1681 10.2735 18.2633 11.7361 16.8172C12.439 16.1224 13.0282 15.3111 13.7027 14.5846C14.867 13.3218 15.8717 13.283 17.1177 14.447C17.7602 15.0466 18.3211 15.7415 19.1233 16.1612C20.4084 16.8313 21.4307 16.6585 22.3963 15.5863C22.6909 15.2582 22.9217 14.8738 23.2234 14.5528C24.086 13.6322 24.8599 13.5723 25.8219 14.3659C26.2479 14.7151 26.6135 15.1348 27.0217 15.5016C27.7282 16.133 28.5269 16.6303 29.4569 16.8596C30.3302 17.0712 31.097 16.8772 31.6862 16.1435C32.24 15.4558 32.5027 14.7785 32.1051 13.8756C31.0615 11.5019 29.8971 9.19511 28.3529 7.09648C27.6678 6.16179 26.8833 5.29412 25.9177 4.63807C24.7285 3.83389 23.692 4.00319 22.9075 5.16361C21.9632 6.56035 21.5976 8.15814 21.4414 9.51961H21.4343ZM33.1523 16.662C30.9834 18.5208 30.1456 18.997 26.9862 17.0218C26.3863 16.6479 25.8716 16.1224 25.3604 15.6251C24.796 15.0748 24.3203 15.0748 23.8659 15.7309C23.7417 15.9108 23.6103 16.0906 23.4683 16.2599C22.0271 17.9388 20.1812 18.2316 18.2785 17.0853C17.5578 16.6515 17.0041 16.0448 16.4254 15.4487C15.6303 14.6269 15.2682 14.6375 14.5298 15.4875C13.7701 16.3587 13.0602 17.2758 12.1905 18.0517C11.0403 19.0816 9.74462 19.2262 8.32113 18.7536C7.39107 18.4432 6.72724 17.8295 6.14152 17.0571C5.28601 15.9213 4.75353 14.6092 4.12876 13.3712C3.96901 13.4277 3.89092 13.4312 3.87672 13.4665C2.45678 16.5421 1.8036 19.8294 1.21078 23.1272C1.03329 24.1219 1.34567 24.4146 2.38578 24.4711C3.87672 24.5522 5.3712 24.5557 6.86569 24.5945C11.4059 24.7109 15.9356 24.3829 20.4687 24.2524C24.8954 24.1254 29.322 24.1677 33.7522 24.136C34.0291 24.136 34.306 24.129 34.5829 24.1254C35.339 24.1113 35.5449 23.7304 35.3426 23.0426C34.7214 20.9369 34.1463 18.8171 33.1523 16.6691V16.662Z" fill="#ADADAD"/>
<path d="M93.9892 10.7964C94.0921 15.4346 93.3822 20.1609 92.3598 24.852C92.2285 25.4622 91.9942 26.0618 91.7315 26.6332C90.9789 28.2698 89.811 29.0845 87.8586 28.9928C85.2069 28.8659 82.6013 28.4038 79.9673 28.171C78.345 28.0264 77.7415 27.1693 77.6812 25.4798C77.5676 22.1925 78.0362 18.9723 78.7923 15.7838C79.41 13.1807 79.3887 13.0926 76.6801 13.4594C74.2982 13.7839 71.9304 13.7627 69.5485 13.6534C69.0728 13.6322 68.5971 13.5828 68.1285 13.5052C66.382 13.2125 65.7537 12.5635 65.6791 10.7752C65.6153 9.30443 65.5478 7.82657 65.7572 6.35928C65.846 5.74204 65.7785 5.23766 65.3526 4.75092C65.1183 4.48286 64.9443 4.12662 64.8414 3.78448C64.4474 2.47945 65.4555 1.32961 66.7299 1.76697C67.6813 2.09147 68.4445 1.92569 69.3071 1.61178C71.1069 0.955733 72.9989 0.634765 74.8839 0.409029C78.8349 -0.0565514 82.8001 -0.162365 86.7724 0.250308C87.99 0.377285 89.1649 0.680617 90.3541 0.938097C91.9054 1.27317 92.8497 2.23608 93.2863 3.72805C93.6875 5.1001 93.9324 6.49684 93.9714 7.9218C93.9963 8.81769 93.975 9.71005 93.975 10.7858L93.9892 10.7964ZM92.6793 11.0927C92.6118 9.09986 92.7396 7.16347 92.3634 5.22002C92.0119 3.39297 91.1742 2.32426 89.2359 1.99976C84.5146 1.21321 79.7791 1.03686 75.033 1.55182C73.2545 1.74228 71.4654 2.05619 69.7686 2.70519C69.2787 2.89212 68.7249 3.0191 68.4445 3.51642C67.6351 4.96607 66.6057 6.33459 66.9784 8.17575C67.1026 8.78242 66.9961 9.43494 67.0068 10.0663C67.0316 11.9992 67.2943 12.2672 69.1935 12.3272C71.9446 12.4118 74.6993 12.5705 77.4327 12.0521C77.8942 11.9639 78.3841 11.9745 78.8597 11.9956C80.159 12.0521 80.7021 12.6305 80.5388 13.9144C80.4146 14.902 80.1696 15.879 79.9389 16.8525C79.2857 19.6354 78.9556 22.45 79.0727 25.307C79.126 26.5873 79.2538 26.7355 80.5282 26.9083C82.6794 27.1975 84.8306 27.4762 86.9853 27.7407C89.2288 28.0158 90.1944 27.4127 90.8653 25.2329C91.3943 23.5187 91.6569 21.7411 91.9232 19.974C92.0581 19.0675 91.8557 18.8735 90.8831 18.8241C90.0382 18.7783 89.1827 18.8453 88.3414 18.7783C86.3144 18.6231 85.143 17.6108 84.6495 15.6603C84.4792 14.9937 84.3656 14.3129 84.4437 13.6287C84.7241 11.2796 85.0223 8.93056 85.3205 6.58149C85.3737 6.16177 85.4802 5.74556 85.7571 5.41402C85.8423 5.3082 86.0375 5.2165 86.1618 5.23766C86.2825 5.25882 86.4493 5.41754 86.4742 5.53746C86.5203 5.78789 86.5061 6.05595 86.4813 6.31696C86.2789 8.41207 86.0695 10.5072 85.8565 12.5988C85.7748 13.3888 85.7251 14.1789 85.8565 14.9619C86.1156 16.5033 86.9747 17.2898 88.5224 17.3921C89.3673 17.4486 90.2193 17.3992 91.0641 17.4274C91.9019 17.4556 92.2924 17.0888 92.4237 16.2493C92.6899 14.521 92.5977 12.7822 92.6722 11.0962L92.6793 11.0927Z" fill="#ADADAD"/>
<path d="M52.0087 2.34918C58.3168 2.33154 63.2688 6.27839 64.1314 12.144C64.703 16.0379 63.4392 19.4839 60.8336 22.3409C56.8933 26.6616 51.9803 28.5169 46.1621 27.1378C39.2363 25.4942 35.6616 18.588 38.1572 11.9465C40.2835 6.27839 45.9349 2.36682 52.0122 2.34918H52.0087ZM62.8925 13.7312C62.8854 9.20943 60.1982 5.63998 55.8922 4.15507C49.5557 1.96825 41.6467 6.0068 39.3819 12.0593C37.0887 18.1965 40.1557 24.2949 46.4283 25.9386C48.2104 26.4077 50.0137 26.4465 51.8525 26.1361C57.7736 25.1414 63.1091 19.8049 62.8925 13.7277V13.7312Z" fill="#ADADAD"/>
<path d="M79.2859 6.07731C79.3108 5.20611 79.9711 4.36666 80.7485 4.23263C81.3555 4.12682 81.7637 4.41604 82.0406 4.92747C82.4666 5.71402 82.2714 6.54289 81.4939 7.17072C81.0715 7.51285 80.6207 7.78444 80.0456 7.52696C79.5522 7.30475 79.2682 6.76158 79.2859 6.07731Z" fill="#ADADAD"/>
<path d="M49.9642 19.2582C49.1335 19.2123 48.3206 19.0571 47.5929 18.6198C47.1066 18.327 46.7232 17.9355 46.5918 17.3606C46.5279 17.0819 46.5421 16.7892 46.7906 16.6093C47.0746 16.4083 47.3266 16.5705 47.4899 16.8068C48.136 17.7274 49.0625 17.9426 50.1168 17.8932C51.1676 17.8438 52.0905 17.5969 52.5343 16.5035C52.6869 16.1296 52.8999 15.7558 53.3862 15.9603C53.8903 16.1755 53.8868 16.6375 53.7696 17.0925C53.6276 17.6533 53.2655 18.059 52.7899 18.3764C51.9379 18.9478 50.9759 19.17 49.9606 19.2547L49.9642 19.2582Z" fill="#ADADAD"/>
<path d="M54.8838 12.2673C54.9051 12.9974 54.2591 13.6711 53.542 13.6675C52.8533 13.664 52.3031 13.0926 52.3067 12.3872C52.3102 11.6641 52.8498 11.0857 53.5207 11.0857C54.2307 11.0857 54.8661 11.6395 54.8838 12.2673Z" fill="#ADADAD"/>
<path d="M46.2018 12.6201C46.1556 13.3537 45.4563 14.0239 44.7925 13.971C44.1677 13.9216 43.6565 13.3643 43.6743 12.7541C43.6956 12.0381 44.4055 11.3609 45.0836 11.4103C45.6977 11.4561 46.2373 12.0416 46.2018 12.6201Z" fill="#ADADAD"/>
</g>
<defs>
<clipPath id="clip0_800_5034">
<rect width="94" height="29" fill="white"/>
</clipPath>
</defs>
</svg>
