<svg width="160" height="36" viewBox="0 0 160 36" fill="none" xmlns="http://www.w3.org/2000/svg">
<g clip-path="url(#clip0_936_25722)">
<path d="M28.6221 13.1717H27.5195V0.635254H17.8613V35.407H27.5195V22.5741H28.6221V35.407H38.2803V0.635254H28.6221V13.1717Z" fill="#FF8031"/>
<path d="M7.68801 11.3647C7.98202 11.2023 8.34953 11.3011 8.52594 11.5764C9.53292 13.1435 11.885 13.687 13.7152 13.3905V0.635254H3.13086V13.1294C4.75526 13.1788 6.21061 12.1835 7.68801 11.3647Z" fill="#FF8031"/>
<path d="M16.8913 25.1153C15.1273 24.48 13.716 22.5317 13.716 18.4235V14.5765C11.6212 14.8447 9.20296 14.2235 7.85052 12.6423C6.85823 13.2141 5.86595 13.8141 4.76342 14.1388C4.21215 14.3012 3.66823 14.3576 3.13901 14.3294V18.4235C3.13901 22.5317 1.55136 24.48 0.0078125 25.1153V35.407C2.8303 35.407 5.56459 34.6941 8.42384 33.4235C11.0038 34.6164 14.2746 35.407 16.8987 35.407V25.1153H16.8913Z" fill="#FF8031"/>
<path d="M78.8529 0.635254H65.2256V19.2282H78.8529V0.635254Z" fill="#FF8031"/>
<path d="M50.4884 6.09878C50.6795 5.81643 51.194 5.66114 51.4513 5.97878C53.2521 8.18819 57.6328 9.14114 60.1099 7.40466C59.9114 6.69172 59.8012 5.83055 59.8012 4.78584V0.635254H45.6887V4.78584C45.6887 5.58349 45.6225 6.26819 45.4902 6.86819C47.0485 7.79996 49.4373 7.63055 50.481 6.09878H50.4884Z" fill="#FF8031"/>
<path d="M64.0796 10.6306C62.4993 10.3765 61.2865 9.80469 60.5589 8.51292C57.7658 10.207 53.3189 9.52234 51.0256 7.29175C49.5335 8.74587 46.983 8.99998 45.116 8.03998C44.3957 9.67057 43.0653 10.3482 41.4482 10.6306V19.2282C45.241 19.2282 49.8275 17.7176 52.7823 16.3623L52.4442 16.0941C55.9576 18.6635 59.9194 19.2282 64.0723 19.2282V10.6306H64.0796Z" fill="#FF8031"/>
<path d="M41.4551 29.7742H65.2257V35.4071H78.8531V20.3718H41.4551V29.7742Z" fill="#FF8031"/>
<path d="M119.427 0.635254H106.682V16.2635H119.427V0.635254Z" fill="#FF8031"/>
<path d="M82.0283 24.014C86.6149 24.014 90.584 23.7176 94.8177 22.8705V23.9293C90.584 24.7764 86.6149 25.0729 82.0283 25.0729V27.0211C82.0283 32.7387 87.4969 35.9999 97.993 35.9999C106.284 35.9999 113.781 35.6187 119.426 34.1787V26.3434C115.678 27.5717 111.003 28.1646 106.637 28.1646V27.1058C111.003 27.1058 115.678 26.5129 119.426 25.2846V17.3223H82.0283V24.014Z" fill="#FF8031"/>
<path d="M160 0.635254H147.255V35.407H160V0.635254Z" fill="#FF8031"/>
<path d="M101.588 1.44706C99.6548 0.515294 97.0528 0 93.7158 0C89.2542 0 86.1083 0.931765 84.1311 2.54824C82.4185 3.95294 81.5879 5.87294 81.5879 8.17412C81.5879 11.7953 83.6239 14.4776 87.9679 15.6706C89.5703 16.1082 91.474 16.3482 93.7158 16.3482C95.2079 16.3482 96.553 16.2424 97.7584 16.0447C103.323 15.1341 105.888 12.2118 105.888 8.17412C105.888 5.19529 104.506 2.85176 101.588 1.44706ZM88.2693 6.45882C87.7621 6.41647 87.3431 5.97882 87.3578 5.49882C87.3725 4.93412 87.9532 4.39765 88.5045 4.44C89.0043 4.47529 89.4453 4.93412 89.4159 5.39294C89.3791 5.97176 88.8058 6.50118 88.2693 6.45882ZM95.5901 8.92235C95.4725 9.36706 95.1785 9.6847 94.7889 9.93882C94.0907 10.3906 93.3115 10.5671 92.4809 10.6306C91.8047 10.5953 91.1432 10.4753 90.5478 10.1294C90.1509 9.89647 89.8349 9.59294 89.732 9.13412C89.6805 8.91529 89.6879 8.68235 89.8937 8.54118C90.1289 8.37882 90.3273 8.51294 90.467 8.69647C90.9962 9.42353 91.7533 9.59294 92.6059 9.55059C93.4659 9.50823 94.2156 9.31765 94.5758 8.45647C94.7007 8.16 94.8698 7.86353 95.2667 8.02588C95.6783 8.19529 95.6709 8.56235 95.5827 8.91529L95.5901 8.92235ZM95.4063 6.21882C94.8477 6.21882 94.3994 5.76706 94.3994 5.20941C94.3994 4.63765 94.8404 4.17882 95.3916 4.18588C95.9723 4.18588 96.4868 4.62353 96.5015 5.11765C96.5162 5.69647 95.9944 6.22588 95.4063 6.21882Z" fill="#FF8031"/>
<path d="M142.014 0.635254H126.166C124.197 0.635254 122.602 2.16702 122.602 4.05878V8.11055C122.602 10.0588 124.292 11.6329 126.321 11.5341C127.769 11.4635 129.195 11.3153 130.569 11.0823C131.76 10.8847 132.84 11.7882 132.774 12.9458C132.385 19.3623 130.238 22.6517 125.292 23.8941C123.719 24.2894 122.609 25.6447 122.609 27.2047V31.5811C122.609 33.7058 124.608 35.3011 126.791 34.9552C137.008 33.3388 143.601 27.9388 145.204 17.2376C145.167 17.2376 145.13 17.2588 145.086 17.2588C142.58 17.2376 140.47 16.2776 139.265 14.1035C138.515 12.7482 138.169 11.3082 138.28 9.77643C138.39 8.1882 138.831 6.64231 138.853 5.04702C138.86 4.29172 140.088 4.29172 140.08 5.04702C140.066 6.45172 139.728 7.80702 139.566 9.19055C139.397 10.6023 139.522 11.9223 140.176 13.2211C140.61 14.0823 141.198 14.887 142.065 15.3882C142.976 15.9247 144.042 16.0658 145.093 16.0729C145.189 16.0729 145.277 16.0941 145.351 16.1294C145.505 14.767 145.593 13.327 145.593 11.8023V4.05878C145.593 2.16702 143.998 0.635254 142.028 0.635254H142.014ZM134.443 6.16231C134.075 6.45172 133.678 6.68467 133.171 6.46584C132.738 6.27525 132.488 5.81643 132.502 5.23761C132.524 4.49643 133.105 3.78349 133.789 3.67055C134.325 3.57878 134.678 3.82584 134.921 4.26349C135.295 4.93408 135.119 5.63996 134.443 6.16937V6.16231Z" fill="#FF8031"/>
<path d="M123.352 2.94389C124.164 2.94389 124.822 2.31182 124.822 1.53213C124.822 0.75243 124.164 0.120361 123.352 0.120361C122.54 0.120361 121.882 0.75243 121.882 1.53213C121.882 2.31182 122.54 2.94389 123.352 2.94389Z" fill="#FF8031"/>
</g>
<defs>
<clipPath id="clip0_936_25722">
<rect width="160" height="36" fill="white"/>
</clipPath>
</defs>
</svg>
