<svg width="70" height="16" viewBox="0 0 70 16" fill="none" xmlns="http://www.w3.org/2000/svg">
<g clip-path="url(#clip0_921_22969)">
<path d="M12.5223 5.85424H12.0399V0.282471H7.81445V15.7366H12.0399V10.0331H12.5223V15.7366H16.7478V0.282471H12.5223V5.85424Z" fill="#FF8031"/>
<path d="M3.36387 5.0511C3.4925 4.97894 3.65329 5.02286 3.73046 5.14522C4.17102 5.84169 5.20005 6.08326 6.00077 5.95149V0.282471H1.37012V5.83541C2.08079 5.85737 2.71751 5.41502 3.36387 5.0511Z" fill="#FF8031"/>
<path d="M7.38946 11.1624C6.61769 10.8801 6.00027 10.0142 6.00027 8.18831V6.4785C5.08378 6.59772 4.02581 6.32164 3.43411 5.6189C2.99999 5.87301 2.56587 6.13968 2.08351 6.28399C1.84233 6.35615 1.60436 6.38125 1.37283 6.3687V8.18831C1.37283 10.0142 0.678233 10.8801 0.00292969 11.1624V15.7365C1.23777 15.7365 2.43402 15.4197 3.68494 14.855C4.81366 15.3852 6.24466 15.7365 7.39268 15.7365V11.1624H7.38946Z" fill="#FF8031"/>
<path d="M34.4981 0.282471H28.5361V8.546H34.4981V0.282471Z" fill="#FF8031"/>
<path d="M22.089 2.71071C22.1726 2.58522 22.3978 2.5162 22.5103 2.65737C23.2982 3.63933 25.2147 4.06286 26.2984 3.2911C26.2116 2.97424 26.1634 2.59149 26.1634 2.12718V0.282471H19.9892V2.12718C19.9892 2.48169 19.9602 2.786 19.9023 3.05267C20.5841 3.46678 21.6292 3.39149 22.0858 2.71071H22.089Z" fill="#FF8031"/>
<path d="M28.035 4.72464C27.3436 4.6117 26.813 4.35759 26.4947 3.78347C25.2727 4.53641 23.3272 4.2321 22.3239 3.24072C21.6711 3.887 20.5552 3.99994 19.7384 3.57327C19.4233 4.29798 18.8412 4.59915 18.1338 4.72464V8.54582C19.7931 8.54582 21.7997 7.87445 23.0924 7.2721L22.9445 7.15288C24.4816 8.29484 26.2149 8.54582 28.0318 8.54582V4.72464H28.035Z" fill="#FF8031"/>
<path d="M18.1367 13.233H28.5364V15.7366H34.4984V9.0542H18.1367V13.233Z" fill="#FF8031"/>
<path d="M52.2489 0.282471H46.6729V7.22835H52.2489V0.282471Z" fill="#FF8031"/>
<path d="M35.8877 10.6728C37.8943 10.6728 39.6308 10.5411 41.4831 10.1646V10.6352C39.6308 11.0117 37.8943 11.1434 35.8877 11.1434V12.0093C35.8877 14.5505 38.2802 15.9999 42.8723 15.9999C46.4996 15.9999 49.7796 15.8305 52.2493 15.1905V11.7081C50.6093 12.254 48.5641 12.5176 46.654 12.5176V12.047C48.5641 12.047 50.6093 11.7834 52.2493 11.2376V7.69873H35.8877V10.6728Z" fill="#FF8031"/>
<path d="M69.9999 0.282471H64.4238V15.7366H69.9999V0.282471Z" fill="#FF8031"/>
<path d="M44.4443 0.643137C43.5986 0.22902 42.4602 0 41.0003 0C39.0483 0 37.672 0.414118 36.807 1.13255C36.0577 1.75686 35.6943 2.6102 35.6943 3.63294C35.6943 5.24235 36.5851 6.43451 38.4856 6.96471C39.1866 7.15922 40.0195 7.26588 41.0003 7.26588C41.6531 7.26588 42.2416 7.21882 42.7689 7.13098C45.2032 6.72627 46.3255 5.42745 46.3255 3.63294C46.3255 2.30902 45.721 1.26745 44.4443 0.643137ZM38.6174 2.87059C38.3955 2.85176 38.2123 2.65725 38.2187 2.44392C38.2251 2.19294 38.4792 1.95451 38.7203 1.97333C38.939 1.98902 39.132 2.19294 39.1191 2.39686C39.103 2.65412 38.8522 2.88941 38.6174 2.87059ZM41.8203 3.96549C41.7689 4.16314 41.6402 4.30431 41.4698 4.41725C41.1643 4.61804 40.8234 4.69647 40.46 4.72471C40.1642 4.70902 39.8748 4.65569 39.6143 4.50196C39.4407 4.39843 39.3024 4.26353 39.2574 4.05961C39.2349 3.96235 39.2381 3.85882 39.3281 3.79608C39.431 3.72392 39.5178 3.78353 39.5789 3.8651C39.8105 4.18823 40.1417 4.26353 40.5147 4.24471C40.891 4.22588 41.219 4.14118 41.3765 3.75843C41.4312 3.62667 41.5052 3.4949 41.6788 3.56706C41.8589 3.64235 41.8557 3.80549 41.8171 3.96235L41.8203 3.96549ZM41.7399 2.76392C41.4955 2.76392 41.2994 2.56314 41.2994 2.31529C41.2994 2.06118 41.4923 1.85725 41.7335 1.86039C41.9875 1.86039 42.2126 2.0549 42.219 2.27451C42.2255 2.53176 41.9972 2.76706 41.7399 2.76392Z" fill="#FF8031"/>
<path d="M62.1314 0.282471H55.1983C54.3365 0.282471 53.6387 0.963255 53.6387 1.80404V3.60482C53.6387 4.47071 54.3783 5.17031 55.2658 5.12639C55.8993 5.09502 56.5232 5.02914 57.1245 4.92561C57.6455 4.83777 58.1182 5.23933 58.0892 5.75384C57.9188 8.60561 56.9798 10.0676 54.8156 10.6197C54.1275 10.7954 53.6419 11.3978 53.6419 12.0911V14.0362C53.6419 14.9805 54.5166 15.6895 55.4716 15.5358C59.9415 14.8174 62.826 12.4174 63.527 7.66129C63.511 7.66129 63.4949 7.67071 63.4756 7.67071C62.379 7.66129 61.4561 7.23463 60.9287 6.26835C60.6007 5.666 60.4496 5.026 60.4978 4.34522C60.5461 3.63933 60.739 2.95227 60.7486 2.24326C60.7519 1.90757 61.2889 1.90757 61.2857 2.24326C61.2792 2.86757 61.1313 3.46992 61.0606 4.08482C60.9866 4.71228 61.0413 5.29894 61.3275 5.8762C61.5172 6.25894 61.7745 6.61659 62.1539 6.83933C62.5527 7.07776 63.019 7.14051 63.4788 7.14365C63.5206 7.14365 63.5592 7.15306 63.5914 7.16875C63.6589 6.56326 63.6975 5.92325 63.6975 5.24561V1.80404C63.6975 0.963255 62.9997 0.282471 62.1378 0.282471H62.1314ZM58.8192 2.73894C58.6584 2.86757 58.4848 2.9711 58.2629 2.87384C58.0732 2.78914 57.9638 2.58522 57.9703 2.32796C57.9799 1.99855 58.2339 1.68169 58.533 1.63149C58.7678 1.59071 58.9221 1.70051 59.0282 1.89502C59.1922 2.19306 59.1151 2.50678 58.8192 2.74208V2.73894Z" fill="#FF8031"/>
<path d="M53.9664 1.30837C54.3216 1.30837 54.6095 1.02745 54.6095 0.680918C54.6095 0.334386 54.3216 0.0534668 53.9664 0.0534668C53.6112 0.0534668 53.3232 0.334386 53.3232 0.680918C53.3232 1.02745 53.6112 1.30837 53.9664 1.30837Z" fill="#FF8031"/>
</g>
<defs>
<clipPath id="clip0_921_22969">
<rect width="70" height="16" fill="white"/>
</clipPath>
</defs>
</svg>
