<svg width="60" height="60" viewBox="0 0 60 60" fill="none" xmlns="http://www.w3.org/2000/svg">
<g clip-path="url(#clip0_1011_12535)">
<path d="M50.7989 20.357C53.3593 14.2857 50.4304 12.1423 50.4304 12.1423C48.2385 9.99897 43.8548 12.86 43.8548 12.86C30.3448 5.00424 17.2033 13.2189 17.2033 13.2189C12.8196 10.7167 9.90032 12.86 9.90032 12.86C6.61253 16.0702 9.53178 21.4238 9.53178 21.4238C9.53178 21.4238 0.744933 40.6171 19.6473 47.4449C24.4578 49.1809 29.6562 49.6561 34.7285 48.8997C43.7966 47.5322 57.326 41.9749 50.7892 20.357H50.7989Z" fill="#FF8031"/>
<path d="M30.0632 49.7336C26.4457 49.7336 22.8572 49.1129 19.4918 47.9006C13.9443 45.893 10.191 42.644 8.33855 38.2312C5.26413 30.9088 8.38704 22.8882 9.00775 21.4431C8.47433 20.3666 6.40855 15.6046 9.57026 12.5108C9.74483 12.375 12.7417 10.2413 17.203 12.6563C19.0942 11.5797 31.3531 5.20781 43.8545 12.2974C44.8728 11.6961 48.6358 9.70791 50.7695 11.8028C50.8471 11.8513 53.8633 14.1595 51.3126 20.386C53.8439 28.8625 53.5336 35.6902 50.3816 40.6752C46.7058 46.4943 39.8781 48.6183 34.8155 49.3845C33.2443 49.6172 31.6538 49.7433 30.0729 49.7433L30.0632 49.7336ZM13.0132 12.4817C11.2869 12.4817 10.2492 13.1994 10.1813 13.2479C7.25232 16.1186 9.92911 21.1424 9.9582 21.1909L10.0746 21.4043L9.9776 21.6274C9.9388 21.7147 6.0691 30.3463 9.23081 37.8627C10.9765 42.0136 14.5359 45.088 19.8216 46.989C24.506 48.6765 29.6365 49.1711 34.6603 48.4243C39.5289 47.6969 46.0754 45.6603 49.5572 40.1612C52.5734 35.3895 52.8353 28.7849 50.3331 20.5023L50.2846 20.3375L50.3525 20.1726C52.7092 14.5766 50.2458 12.6175 50.1488 12.5399C48.2188 10.6584 44.1745 13.2479 44.1357 13.2673L43.8836 13.4321L43.6217 13.2867C30.5287 5.67333 17.6006 13.5582 17.4648 13.6358L17.2224 13.791L16.9702 13.6455C15.4282 12.7629 14.0898 12.4914 13.0229 12.4914L13.0132 12.4817Z" fill="black"/>
<path d="M48.306 33.3819C48.306 31.4907 47.307 29.8032 45.7262 28.6491C46.1432 26.4281 45.3188 24.149 43.3403 22.7233C42.1183 21.8407 40.6442 21.4237 39.1506 21.4334C38.0062 19.7555 35.8143 18.6305 33.3024 18.6305C33.1666 18.6305 33.0211 18.6305 32.8854 18.6402C33.1472 17.3115 32.8175 16.1768 31.9737 15.8664C30.9748 15.4979 29.5782 16.4193 28.7053 17.9613C27.3378 16.7296 25.6212 16.2641 24.8744 16.9333C24.3895 17.3697 24.438 18.1844 24.9229 19.0476C24.6125 19.0185 24.3022 18.9991 23.9821 18.9991C19.8312 18.9991 16.4755 21.7146 16.4755 25.0703C16.4755 25.2546 16.4852 25.4389 16.5046 25.6134C13.8278 26.7288 11.9463 29.3183 11.9463 32.3345C11.9463 35.3507 13.8278 37.9499 16.5143 39.0653C16.4852 39.2786 16.4755 39.5017 16.4755 39.7248C16.4755 42.741 18.9874 45.185 22.0812 45.185C22.6049 45.185 23.119 45.1171 23.6039 44.9813C24.8356 46.2034 26.688 46.9792 28.7732 46.9792C30.9748 46.9792 32.9338 46.1064 34.1559 44.768C34.9511 45.0395 35.824 45.185 36.7357 45.185C40.4308 45.185 43.4276 42.741 43.4276 39.7248C43.4276 39.5696 43.4179 39.4144 43.3985 39.2689C46.2596 38.3864 48.306 36.0878 48.306 33.3819Z" fill="white"/>
<path d="M31.4983 16.7589C31.5468 16.7589 31.5953 16.7589 31.6341 16.7783C31.9154 16.885 32.0996 17.5542 31.9251 18.4562L31.6826 19.6685L32.924 19.6103C33.0501 19.6103 33.1665 19.6006 33.2926 19.6006C35.3971 19.6006 37.3368 20.5122 38.3358 21.9864L38.6655 22.4131H39.1796C40.5179 22.4131 41.7594 22.8011 42.768 23.5188C44.3876 24.6826 45.1344 26.535 44.7659 28.4747L44.6495 29.076L45.1441 29.4349C46.531 30.4435 47.3263 31.8789 47.3263 33.3821C47.3263 35.5643 45.6291 37.5622 43.0977 38.3381L42.3413 38.5708L42.4188 39.3661C42.4285 39.4825 42.4382 39.6086 42.4382 39.725C42.4382 42.1981 39.8681 44.2154 36.7161 44.2154C35.9306 44.2154 35.1644 44.0893 34.4467 43.8468L33.8454 43.6432L33.4186 44.1184C32.3421 45.3016 30.5964 46.0096 28.7537 46.0096C26.9109 46.0096 25.3592 45.3889 24.2633 44.293L23.8656 43.8953L23.3225 44.0408C22.9055 44.1572 22.4884 44.2154 22.0617 44.2154C19.5013 44.2154 17.4258 42.1981 17.4258 39.725C17.4258 39.5504 17.4355 39.3758 17.4646 39.1819L17.5519 38.4545L16.873 38.1732C14.4678 37.1743 12.9063 34.8854 12.9063 32.3444C12.9063 29.8034 14.4581 27.5243 16.8633 26.5156L17.5325 26.2344L17.4549 25.5167C17.4355 25.3712 17.4258 25.2257 17.4258 25.0802C17.4258 22.2677 20.3548 19.9788 23.9626 19.9788C24.2439 19.9788 24.5348 19.9885 24.8064 20.0176L26.6685 20.2116L25.7568 18.5822C25.4659 18.0585 25.4756 17.7191 25.5144 17.6609C25.5338 17.6415 25.6307 17.6027 25.8053 17.6027C26.3193 17.6027 27.2116 17.9421 28.0457 18.6889L28.9379 19.4939L29.5295 18.4465C30.1502 17.3505 31.0037 16.7589 31.4789 16.7589M31.4789 15.7891C30.5479 15.7891 29.4326 16.6522 28.6858 17.9615C27.745 17.1081 26.6394 16.6328 25.7956 16.6328C25.4174 16.6328 25.0876 16.7298 24.8549 16.9432C24.3699 17.3796 24.4184 18.1943 24.9034 19.0575C24.593 19.0284 24.2826 19.009 23.9626 19.009C19.8213 19.009 16.456 21.7245 16.456 25.0802C16.456 25.2645 16.4657 25.4488 16.4851 25.6233C13.8083 26.7387 11.9268 29.3282 11.9268 32.3444C11.9268 35.3606 13.8083 37.9598 16.4948 39.0752C16.4657 39.2885 16.456 39.5116 16.456 39.7347C16.456 42.7509 18.9679 45.1949 22.0617 45.1949C22.5854 45.1949 23.0994 45.127 23.5844 44.9913C24.8161 46.2133 26.6782 46.9891 28.7537 46.9891C30.9552 46.9891 32.9143 46.1163 34.1363 44.7779C34.9316 45.0494 35.8045 45.1949 36.7161 45.1949C40.4113 45.1949 43.4081 42.7509 43.4081 39.7347C43.4081 39.5795 43.4081 39.4243 43.379 39.2788C46.2401 38.3963 48.2864 36.0977 48.2864 33.3918C48.2864 31.5006 47.2875 29.8131 45.7066 28.659C46.1237 26.438 45.2993 24.1589 43.3208 22.7332C42.1085 21.8603 40.644 21.4433 39.1602 21.4433C39.1505 21.4433 39.1311 21.4433 39.1214 21.4433C37.9769 19.7654 35.7851 18.6404 33.2732 18.6404C33.1374 18.6404 32.9919 18.6404 32.8561 18.6501C33.118 17.3214 32.7882 16.1867 31.9445 15.8763C31.799 15.8182 31.6341 15.7988 31.4692 15.7988L31.4789 15.7891Z" fill="black"/>
<path d="M28.579 34.6913C28.5014 35.6806 27.6771 36.4565 26.6684 36.4565C25.6113 36.4565 24.7578 35.603 24.7578 34.5459C24.7578 33.4887 25.6113 32.6353 26.6684 32.6353C27.1242 32.6353 27.5413 32.7904 27.871 33.062" fill="white"/>
<path d="M26.6688 36.8154C25.4177 36.8154 24.3896 35.797 24.3896 34.5362C24.3896 33.2754 25.408 32.2571 26.6688 32.2571C27.1925 32.2571 27.6968 32.4414 28.1042 32.7614L27.6483 33.3239C27.3671 33.1009 27.0276 32.9748 26.6688 32.9748C25.8153 32.9748 25.117 33.6731 25.117 34.5265C25.117 35.38 25.8153 36.0783 26.6688 36.0783C27.4738 36.0783 28.1527 35.4479 28.2109 34.6526L28.9382 34.7108C28.851 35.8843 27.852 36.8057 26.6688 36.8057V36.8154Z" fill="black"/>
<path d="M28.5887 33.0039C28.7245 32.8778 28.9476 32.7711 29.1803 32.7033C29.3743 32.6451 29.5683 32.616 29.7331 32.616C30.7903 32.616 31.6437 33.4694 31.6437 34.5266C31.6437 35.5837 30.7903 36.4372 29.7331 36.4372C28.8118 36.4372 28.0359 35.7777 27.8613 34.9048" fill="white"/>
<path d="M29.7338 36.8153C28.6572 36.8153 27.7165 36.0492 27.5031 34.992C27.4643 34.7981 27.5904 34.6041 27.7844 34.5653C27.9783 34.5168 28.1723 34.6526 28.2111 34.8465C28.3566 35.5642 28.9967 36.088 29.7338 36.088C30.5872 36.088 31.2855 35.3897 31.2855 34.5362C31.2855 33.6827 30.5872 32.9844 29.7338 32.9844C29.598 32.9844 29.4331 33.0135 29.2779 33.0523C29.084 33.1105 28.9191 33.1881 28.8318 33.2657C28.6863 33.4015 28.4536 33.3918 28.3178 33.2463C28.182 33.1008 28.1917 32.8681 28.3372 32.7323C28.5699 32.5189 28.8997 32.4025 29.0743 32.354C30.6551 31.8885 32.0129 33.0717 32.0129 34.5362C32.0129 35.7873 30.9946 36.8153 29.7338 36.8153Z" fill="black"/>
<path d="M28.0167 33.5761C28.863 33.5761 29.5491 33.1853 29.5491 32.7032C29.5491 32.2211 28.863 31.8303 28.0167 31.8303C27.1704 31.8303 26.4844 32.2211 26.4844 32.7032C26.4844 33.1853 27.1704 33.5761 28.0167 33.5761Z" fill="black"/>
<path d="M36.1829 33.7894C37.5595 33.7894 38.6755 33.3596 38.6755 32.8293C38.6755 32.299 37.5595 31.8691 36.1829 31.8691C34.8064 31.8691 33.6904 32.299 33.6904 32.8293C33.6904 33.3596 34.8064 33.7894 36.1829 33.7894Z" fill="#F4CACA"/>
<path d="M21.3148 33.964C22.6914 33.964 23.8073 33.5341 23.8073 33.0039C23.8073 32.4736 22.6914 32.0437 21.3148 32.0437C19.9382 32.0437 18.8223 32.4736 18.8223 33.0039C18.8223 33.5341 19.9382 33.964 21.3148 33.964Z" fill="#F4CACA"/>
<path d="M23.7398 31.1029C24.163 31.1029 24.506 30.7599 24.506 30.3367C24.506 29.9136 24.163 29.5706 23.7398 29.5706C23.3167 29.5706 22.9736 29.9136 22.9736 30.3367C22.9736 30.7599 23.3167 31.1029 23.7398 31.1029Z" fill="black"/>
<path d="M33.3121 31.1029C33.7352 31.1029 34.0783 30.7599 34.0783 30.3367C34.0783 29.9136 33.7352 29.5706 33.3121 29.5706C32.8889 29.5706 32.5459 29.9136 32.5459 30.3367C32.5459 30.7599 32.8889 31.1029 33.3121 31.1029Z" fill="black"/>
<path d="M21.3349 49.8793C23.6809 49.8793 25.5828 48.4854 25.5828 46.7661C25.5828 45.0467 23.6809 43.6528 21.3349 43.6528C18.9888 43.6528 17.0869 45.0467 17.0869 46.7661C17.0869 48.4854 18.9888 49.8793 21.3349 49.8793Z" fill="white"/>
<path d="M21.3344 50.364C18.7255 50.364 16.6016 48.7444 16.6016 46.7659C16.6016 44.7874 18.7255 43.1677 21.3344 43.1677C23.9433 43.1677 26.0673 44.7874 26.0673 46.7659C26.0673 48.7444 23.9433 50.364 21.3344 50.364ZM21.3344 44.1279C19.259 44.1279 17.5714 45.3111 17.5714 46.7562C17.5714 48.2012 19.259 49.3845 21.3344 49.3845C23.4099 49.3845 25.0975 48.2012 25.0975 46.7562C25.0975 45.3111 23.4099 44.1279 21.3344 44.1279Z" fill="black"/>
<path d="M35.5136 49.8793C37.8596 49.8793 39.7615 48.4854 39.7615 46.7661C39.7615 45.0467 37.8596 43.6528 35.5136 43.6528C33.1675 43.6528 31.2656 45.0467 31.2656 46.7661C31.2656 48.4854 33.1675 49.8793 35.5136 49.8793Z" fill="white"/>
<path d="M35.5131 50.364C32.9042 50.364 30.7803 48.7444 30.7803 46.7659C30.7803 44.7874 32.9042 43.1677 35.5131 43.1677C38.122 43.1677 40.246 44.7874 40.246 46.7659C40.246 48.7444 38.122 50.364 35.5131 50.364ZM35.5131 44.1279C33.4377 44.1279 31.7501 45.3111 31.7501 46.7562C31.7501 48.2012 33.4377 49.3845 35.5131 49.3845C37.5886 49.3845 39.2762 48.2012 39.2762 46.7562C39.2762 45.3111 37.5886 44.1279 35.5131 44.1279Z" fill="black"/>
</g>
<defs>
<clipPath id="clip0_1011_12535">
<rect width="46" height="41.3641" fill="white" transform="translate(7 9)"/>
</clipPath>
</defs>
</svg>
