<svg width="60" height="60" viewBox="0 0 60 60" fill="none" xmlns="http://www.w3.org/2000/svg">
<g clip-path="url(#clip0_1011_12534)">
<path d="M57.3117 46.2742C57.2418 46.041 57.1835 45.8078 57.1368 45.5746L51.7152 20.0989C51.2838 17.9652 50.7358 15.9365 50.0712 14.0826C46.5618 4.16049 42.8191 5.31477 42.7142 5.34974C39.2863 5.95603 38.2137 12.3454 37.9105 15.062C37.8522 15.54 37.5024 15.9015 37.0827 15.9131L20.7013 16.2396C20.7013 16.2396 20.7013 16.2396 20.6896 16.2396C20.3048 16.2396 19.9551 15.9248 19.8618 15.4817C17.7748 5.25647 13.7873 5.82778 13.659 5.86276C9.01857 6.17756 7.28132 17.8136 7.21136 18.3033L2.99067 44.4553L2.90905 45.1898C2.86242 45.5629 2.79246 45.9477 2.68753 46.3674C2.3494 47.7199 1.74312 51.1245 3.34045 53.4097C4.20324 54.6339 5.56739 55.3568 7.38625 55.5434C7.44455 55.5434 7.92259 55.6367 8.68045 55.6367C10.2428 55.6367 12.9594 55.2985 15.5245 53.3048C15.7227 53.1649 19.069 50.9029 23.0565 52.99C23.4762 53.2115 23.8843 53.4797 24.3273 53.8294C24.9686 54.3425 26.7525 55.5434 29.201 55.5434C29.3292 55.5434 32.4423 55.8932 35.8468 52.92C35.9517 52.8267 38.3186 50.7047 41.9447 52.4536C42.3644 52.6518 42.7492 52.9084 43.064 53.1299C44.2649 53.9577 47.3313 55.8582 49.9197 55.555C53.1027 55.4384 55.3529 54.5057 56.6005 52.7684C58.3261 50.3783 57.5682 47.1953 57.3001 46.2858L57.3117 46.2742ZM56.0642 52.3604C54.9449 53.9111 52.8811 54.7622 49.8847 54.8671C47.4479 55.1586 44.3581 53.1765 43.472 52.5702C43.1339 52.337 42.7142 52.0572 42.2595 51.8357C38.202 49.8769 35.4271 52.3953 35.4037 52.407C32.2557 55.1703 29.3175 54.8671 29.2592 54.8555C26.974 54.8555 25.3534 53.7595 24.7587 53.2931C24.2807 52.92 23.8376 52.6169 23.3829 52.3837C18.964 50.0751 15.2913 52.6402 15.1281 52.7451C11.572 55.5084 7.56115 54.8671 7.50285 54.8555C5.87054 54.6922 4.66962 54.0626 3.92342 53.0016C2.47766 50.9496 3.04897 47.7782 3.37543 46.519C3.48036 46.076 3.56198 45.6679 3.60862 45.2598L7.91093 18.3966C7.92259 18.28 9.63652 6.81883 13.7639 6.52734C13.7639 6.52734 13.7989 6.52734 13.8456 6.52734C14.3819 6.52734 17.4483 6.9121 19.2205 15.61C19.3838 16.3795 20.0017 16.9625 20.7362 16.9158L37.1177 16.5894C37.8755 16.5777 38.5168 15.9481 38.6101 15.132C38.8316 13.1265 39.7993 6.55066 42.9007 6.00267C42.9357 6.00267 46.2003 5.09324 49.4533 14.3041C50.0946 16.123 50.6426 18.1168 51.0739 20.2271L56.4956 45.7145C56.5539 45.971 56.6122 46.2159 56.6821 46.4607C56.927 47.3002 57.6265 50.215 56.0875 52.3487L56.0642 52.3604Z" fill="black" stroke="black" stroke-width="0.5" stroke-miterlimit="10"/>
<path d="M13.4612 11.2029C13.2746 11.2029 13.123 11.3545 13.123 11.541V16.4846C13.123 16.6711 13.2746 16.8227 13.4612 16.8227C13.6477 16.8227 13.7993 16.6711 13.7993 16.4846V11.541C13.7993 11.3545 13.6477 11.2029 13.4612 11.2029Z" fill="black" stroke="black" stroke-width="0.5" stroke-miterlimit="10"/>
<path d="M43.3791 10.748C43.1926 10.748 43.041 10.8996 43.041 11.0862V16.0297C43.041 16.2163 43.1926 16.3679 43.3791 16.3679C43.5657 16.3679 43.7173 16.2163 43.7173 16.0297V11.0862C43.7173 10.8996 43.5657 10.748 43.3791 10.748Z" fill="black" stroke="black" stroke-width="0.5" stroke-miterlimit="10"/>
<path d="M27.8025 33.4604C25.3307 33.4604 23.3369 34.5215 23.3369 35.8273C23.3369 37.1332 25.3307 38.1942 27.8025 38.1942C30.2742 38.1942 32.268 37.1332 32.268 35.8273C32.268 34.5215 30.2626 33.4604 27.8025 33.4604Z" fill="black" stroke="black" stroke-width="0.5" stroke-miterlimit="10"/>
<path d="M20.8417 29.1465C20.0955 29.1465 19.4893 29.7528 19.4893 30.499C19.4893 31.2452 20.0955 31.8515 20.8417 31.8515C21.5879 31.8515 22.1942 31.2452 22.1942 30.499C22.1942 29.7528 21.5879 29.1465 20.8417 29.1465Z" fill="black" stroke="black" stroke-width="0.5" stroke-miterlimit="10"/>
<path d="M34.122 29.1465C33.3758 29.1465 32.7695 29.7528 32.7695 30.499C32.7695 31.2452 33.3758 31.8515 34.122 31.8515C34.8682 31.8515 35.4745 31.2452 35.4745 30.499C35.4745 29.7528 34.8682 29.1465 34.122 29.1465Z" fill="black" stroke="black" stroke-width="0.5" stroke-miterlimit="10"/>
<path d="M37.8295 35.3261C39.4844 35.3261 40.8259 34.8093 40.8259 34.1719C40.8259 33.5344 39.4844 33.0176 37.8295 33.0176C36.1746 33.0176 34.833 33.5344 34.833 34.1719C34.833 34.8093 36.1746 35.3261 37.8295 35.3261Z" fill="#F4CACA"/>
<path d="M17.6234 35.5359C19.2783 35.5359 20.6199 35.0191 20.6199 34.3816C20.6199 33.7441 19.2783 33.2273 17.6234 33.2273C15.9685 33.2273 14.627 33.7441 14.627 34.3816C14.627 35.0191 15.9685 35.5359 17.6234 35.5359Z" fill="#F4CACA"/>
</g>
<defs>
<clipPath id="clip0_1011_12534">
<rect width="56" height="50.9165" fill="white" transform="translate(2 5)"/>
</clipPath>
</defs>
</svg>
